<svg width="1920" height="801" viewBox="0 0 1920 801" fill="none" xmlns="http://www.w3.org/2000/svg">
<path d="M569.5 -67.8457C569.5 327.398 248.266 647.809 -148 647.809C-544.266 647.809 -865.5 327.398 -865.5 -67.8457C-865.5 -463.089 -544.266 -783.5 -148 -783.5C248.266 -783.5 569.5 -463.089 569.5 -67.8457Z" stroke="#E3E3E3"/>
<path d="M2882.5 -26.1311C2882.5 430.259 2511.57 800.238 2054 800.238C1596.43 800.238 1225.5 430.259 1225.5 -26.1311C1225.5 -482.521 1596.43 -852.5 2054 -852.5C2511.57 -852.5 2882.5 -482.521 2882.5 -26.1311Z" stroke="#E3E3E3"/>
<path d="M2632.5 -26.1331C2632.5 292.54 2373.5 550.878 2054 550.878C1734.5 550.878 1475.5 292.54 1475.5 -26.1331C1475.5 -344.806 1734.5 -603.145 2054 -603.145C2373.5 -603.145 2632.5 -344.806 2632.5 -26.1331Z" stroke="#E3E3E3"/>
</svg>
