<svg width="50" height="31" viewBox="0 0 50 31" fill="none" xmlns="http://www.w3.org/2000/svg">
<path d="M36.2158 12.9243H9.37264C8.81188 14.8651 9.50429 18.7468 13.8343 18.7468C18.1643 18.7468 21.1729 15.7987 21.0022 14.3247H22.3919C22.27 15.8478 23.2111 18.8647 27.9507 18.7468C32.6904 18.6289 35.4356 14.816 36.2158 12.9243Z" fill="black" stroke="black"/>
<path d="M45.5148 7.36996C45.5555 7.25009 45.725 7.25009 45.7656 7.36996L46.4572 9.41029C46.4704 9.44931 46.501 9.47995 46.5401 9.49318L48.5804 10.1847C48.7003 10.2254 48.7003 10.3949 48.5804 10.4355L46.5401 11.1271C46.501 11.1403 46.4704 11.171 46.4572 11.21L45.7656 13.2503C45.725 13.3702 45.5555 13.3702 45.5148 13.2503L44.8233 11.21C44.81 11.171 44.7794 11.1403 44.7404 11.1271L42.7 10.4355C42.5802 10.3949 42.5802 10.2254 42.7 10.1847L44.7404 9.49318C44.7794 9.47995 44.81 9.44931 44.8233 9.41029L45.5148 7.36996Z" fill="black"/>
<path d="M1.6424 28.3161C3.30192 28.9195 7.82745 28.3161 10.6937 26.0532C9.93942 27.4109 10.6937 28.7686 12.5036 28.7686C15.3301 28.7686 17.3301 27 17.3301 27C17.3301 27 17.8694 29.2212 19.8301 29.2212C22.2438 29.2212 24.3301 27 24.3301 27C24.3301 27 23.8177 29.6738 27.2873 29.9755C30.0631 30.2168 32.8301 28 32.8301 28C34.1813 28.84 39.045 31.681 41.3168 29.2212C43.8301 26.5 36.6403 25.6007 38.9032 17.7562C41.166 9.91178 41.4677 3.57588 40.11 3.12331C39.0238 2.76126 36.0369 5.68784 34.6792 7.19639C33.9249 6.79411 31.8431 5.92921 29.5502 5.68783C27.2572 5.44646 24.9742 5.58726 24.1194 5.68783C24.1194 3.777 23.6065 0.196717 21.5549 1.16219C17.1801 3.27416 14.3138 14.5883 9.78814 19.7173C5.2625 24.8464 -0.0171092 27.7126 1.6424 28.3161Z" stroke="black" stroke-linejoin="round"/>
<path d="M45.5148 7.36996C45.5555 7.25009 45.725 7.25009 45.7656 7.36996L46.4572 9.41029C46.4704 9.44931 46.501 9.47995 46.5401 9.49318L48.5804 10.1847C48.7003 10.2254 48.7003 10.3949 48.5804 10.4355L46.5401 11.1271C46.501 11.1403 46.4704 11.171 46.4572 11.21L45.7656 13.2503C45.725 13.3702 45.5555 13.3702 45.5148 13.2503L44.8233 11.21C44.81 11.171 44.7794 11.1403 44.7404 11.1271L42.7 10.4355C42.5802 10.3949 42.5802 10.2254 42.7 10.1847L44.7404 9.49318C44.7794 9.47995 44.81 9.44931 44.8233 9.41029L45.5148 7.36996Z" stroke="black" stroke-linejoin="round"/>
<path d="M14.1815 14.3259C14.2166 14.1953 14.402 14.1953 14.4372 14.3259L14.7108 15.3422C14.7231 15.3878 14.7587 15.4234 14.8042 15.4357L15.8206 15.7093C15.9512 15.7445 15.9512 15.9298 15.8206 15.965L14.8042 16.2387C14.7587 16.2509 14.7231 16.2865 14.7108 16.3321L14.4372 17.3484C14.402 17.479 14.2166 17.479 14.1815 17.3484L13.9078 16.3321C13.8956 16.2865 13.86 16.2509 13.8144 16.2387L12.7981 15.965C12.6674 15.9298 12.6674 15.7445 12.7981 15.7093L13.8144 15.4357C13.86 15.4234 13.8956 15.3878 13.9078 15.3422L14.1815 14.3259Z" stroke="black" stroke-linejoin="round"/>
</svg>
