<svg xmlns="http://www.w3.org/2000/svg" width="64" height="64" viewBox="0 0 64 64" fill="none">
  <path fill-rule="evenodd" clip-rule="evenodd" d="M32.0004 9.59998C18.2086 9.59998 6.40039 19.3069 6.40039 32C6.40039 38.4781 9.53157 44.2409 14.3972 48.2715C14.3483 50.3341 13.7436 52.2528 12.7282 53.891C12.2857 54.6048 12.2485 55.498 12.6302 56.2461C13.0118 56.9943 13.7568 57.4884 14.5945 57.5492C15.0591 57.5829 15.528 57.6 16.0004 57.6C20.1722 57.6 24.0381 56.2669 27.1881 54.0052C28.7486 54.2646 30.3575 54.4 32.0004 54.4C45.7922 54.4 57.6004 44.6931 57.6004 32C57.6004 19.3069 45.7922 9.59998 32.0004 9.59998ZM32.0005 35.1999C33.7678 35.1999 35.2005 33.7672 35.2005 31.9999C35.2005 30.2326 33.7678 28.7999 32.0005 28.7999C30.2332 28.7999 28.8005 30.2326 28.8005 31.9999C28.8005 33.7672 30.2332 35.1999 32.0005 35.1999ZM25.6005 31.9999C25.6005 33.7672 24.1678 35.1999 22.4005 35.1999C20.6332 35.1999 19.2005 33.7672 19.2005 31.9999C19.2005 30.2326 20.6332 28.7999 22.4005 28.7999C24.1678 28.7999 25.6005 30.2326 25.6005 31.9999ZM41.6005 35.1999C43.3678 35.1999 44.8005 33.7672 44.8005 31.9999C44.8005 30.2326 43.3678 28.7999 41.6005 28.7999C39.8332 28.7999 38.4005 30.2326 38.4005 31.9999C38.4005 33.7672 39.8332 35.1999 41.6005 35.1999Z" fill="#6B7280"/>
</svg>