<svg width="501" height="301" viewBox="0 0 501 301" fill="none" xmlns="http://www.w3.org/2000/svg">
<path d="M21.5603 109.256C18.7759 109.256 16.3029 108.541 14.1414 107.113C11.9798 105.684 10.2762 103.705 9.03055 101.177C7.82154 98.6129 7.21704 95.6819 7.21704 92.3846C7.21704 89.93 7.71163 87.5486 8.70082 85.2405C9.69001 82.8957 10.7891 80.8441 11.9981 79.0855C11.8516 78.536 11.7783 77.8582 11.7783 77.0522C11.7783 76.063 12.1813 74.9273 12.9873 73.645C13.7933 72.3627 14.9107 71.1171 16.3396 69.9081C17.805 68.699 19.5086 67.6915 21.4504 66.8855C23.4288 66.0795 25.572 65.6765 27.8801 65.6765C31.4705 65.6765 34.493 66.4093 36.9477 67.8747C39.4023 69.3402 41.2525 71.2636 42.4981 73.645C43.7804 76.0264 44.4215 78.6093 44.4215 81.3936C44.4215 85.4237 43.7621 89.1423 42.4432 92.5495C41.1243 95.9567 39.3657 98.906 37.1675 101.397C34.9693 103.889 32.5146 105.83 29.8035 107.222C27.0924 108.578 24.3447 109.256 21.5603 109.256ZM22.2197 74.799C22.2564 74.909 22.2747 75.0189 22.2747 75.1288C22.2747 75.4951 22.2014 75.8981 22.0549 76.3378C21.9083 76.7408 21.6152 77.1438 21.1756 77.5468C20.4429 78.2795 19.7101 79.3054 18.9774 80.6243C18.2447 81.9066 17.5669 83.3354 16.9441 84.9108C16.3579 86.4861 15.8816 88.0981 15.5152 89.7468C15.1489 91.3954 14.9657 92.9708 14.9657 94.4729C14.9657 96.5246 15.442 98.2282 16.3945 99.5837C17.3837 100.939 18.9224 101.617 21.0107 101.617C22.7693 101.617 24.4363 101.214 26.0116 100.408C27.587 99.5654 29.0342 98.448 30.3531 97.0558C31.672 95.627 32.8077 94.0516 33.7603 92.3297C34.7128 90.5711 35.4456 88.7942 35.9585 86.9991C36.508 85.1672 36.7828 83.427 36.7828 81.7783C36.7828 80.2396 36.4531 78.8108 35.7936 77.4918C35.1708 76.1729 34.2549 75.1105 33.0459 74.3045C31.8369 73.4618 30.3348 73.0405 28.5396 73.0405C27.2206 73.0405 26.03 73.2054 24.9675 73.5351C23.9417 73.8648 23.0257 74.2861 22.2197 74.799ZM61.1931 109.75C58.5919 109.75 56.5036 108.834 54.9282 107.003C53.3529 105.134 52.5652 102.643 52.5652 99.5288C52.5652 98.5396 52.6934 97.5321 52.9499 96.5063C53.243 95.4804 53.591 94.5279 53.994 93.6486C53.7742 93.3189 53.591 92.8975 53.4445 92.3846C53.3346 91.8351 53.2796 91.1939 53.2796 90.4612C53.2796 88.0798 53.7009 85.9 54.5436 83.9216C55.3862 81.9066 56.5219 80.1663 57.9508 78.7009C59.3796 77.2354 60.955 76.0997 62.6769 75.2936C64.3988 74.4876 66.1391 74.0846 67.8976 74.0846C70.9018 74.0846 73.3565 75.0921 75.2616 77.1072C77.2033 79.1222 78.1742 82.2546 78.1742 86.5045C78.1742 88.6294 77.8445 90.7909 77.185 92.9891C76.5255 95.1873 75.6279 97.2939 74.4922 99.309C73.3931 101.287 72.1108 103.064 70.6454 104.64C69.2165 106.215 67.6778 107.461 66.0291 108.377C64.4171 109.292 62.8051 109.75 61.1931 109.75ZM60.3138 91.1756C60.497 91.5786 60.5886 92.0549 60.5886 92.6045C60.5886 93.154 60.4787 93.7219 60.2589 94.3081C60.0391 94.8942 59.8192 95.6819 59.5994 96.6711C59.3796 97.6237 59.2697 98.9975 59.2697 100.793C59.2697 101.269 59.3246 101.672 59.4346 102.002C59.5811 102.295 59.8925 102.441 60.3688 102.441C61.6144 102.441 62.7868 102.038 63.8859 101.232C65.0216 100.426 66.0291 99.3639 66.9084 98.045C67.8243 96.7261 68.5937 95.2606 69.2165 93.6486C69.876 92 70.3706 90.333 70.7003 88.6477C71.0667 86.9258 71.2499 85.3321 71.2499 83.8666C71.2499 82.9141 71.0667 82.2546 70.7003 81.8882C70.334 81.5219 69.6928 81.3387 68.7769 81.3387C67.5312 81.3387 66.249 81.7417 64.93 82.5477C63.6478 83.3171 62.567 84.3795 61.6877 85.7351C60.8084 87.054 60.3688 88.5561 60.3688 90.2414C60.3688 90.5711 60.3505 90.8825 60.3138 91.1756ZM84.9152 125.577C83.8894 125.577 83.0834 125.211 82.4972 124.478C81.9476 123.782 81.6728 122.701 81.6728 121.236C81.6728 119.221 81.856 116.821 82.2224 114.037C82.5888 111.253 83.0834 108.303 83.7062 105.189C84.329 102.075 85.0068 99.0159 85.7395 96.0117C86.6188 92.5678 87.4798 89.4354 88.3224 86.6144C89.2017 83.7933 90.081 81.5402 90.9602 79.8549C91.8761 78.133 92.7921 77.272 93.708 77.272C94.5506 77.272 95.2834 77.5834 95.9062 78.2063C96.5656 78.7924 96.8954 79.6717 96.8954 80.8441C96.8954 81.6867 96.6755 82.8957 96.2359 84.4711C95.7963 86.0099 95.2467 87.9333 94.5873 90.2414C95.8329 88.1897 97.1152 86.1747 98.4341 84.1963C99.7897 82.218 101.164 80.4228 102.556 78.8108C103.948 77.1988 105.303 75.9165 106.622 74.9639C107.941 74.0114 109.187 73.5351 110.359 73.5351C111.752 73.5351 112.979 73.9381 114.041 74.7441C115.14 75.5501 116.001 76.6492 116.624 78.0414C117.247 79.4336 117.558 81.009 117.558 82.7675C117.558 86.0282 116.972 89.1972 115.8 92.2747C114.628 95.3156 112.997 98.045 110.909 100.463C108.857 102.881 106.458 104.804 103.71 106.233C100.962 107.625 97.9945 108.322 94.8071 108.322C93.8912 108.322 93.0485 108.23 92.2792 108.047C91.5464 107.9 90.8686 107.717 90.2458 107.497C89.8062 109.842 89.3849 112.242 88.9819 114.696C88.6155 117.188 88.2308 119.807 87.8278 122.555C87.3882 124.57 86.4173 125.577 84.9152 125.577ZM110.909 80.0198C110.103 80.0198 109.077 80.5693 107.831 81.6684C106.622 82.7675 105.303 84.2147 103.875 86.0099C102.446 87.7684 100.999 89.6918 99.5332 91.7801C98.1044 93.8318 96.7305 95.8468 95.4116 97.8252C94.1293 99.8036 93.0302 101.525 92.1143 102.991C94.8987 102.698 97.3533 101.965 99.4783 100.793C101.603 99.5837 103.417 98.1183 104.919 96.3963C106.421 94.6744 107.63 92.8609 108.546 90.9558C109.498 89.0141 110.194 87.1273 110.634 85.2954C111.074 83.4636 111.294 81.8699 111.294 80.5144C111.294 80.1846 111.165 80.0198 110.909 80.0198ZM129.855 110.74C128.279 110.74 127.162 110.52 126.502 110.08C125.88 109.64 125.568 108.999 125.568 108.157C125.568 107.424 125.825 106.801 126.337 106.288C126.85 105.739 127.986 105.189 129.745 104.64C131.796 104.017 133.738 103.302 135.57 102.496C137.438 101.654 138.959 100.738 140.131 99.7486C141.34 98.7594 141.945 97.7153 141.945 96.6162C141.945 95.8834 141.688 95.3522 141.175 95.0225C140.699 94.6927 140.131 94.5279 139.472 94.5279C138.922 94.5279 138.116 94.6195 137.054 94.8027C136.028 94.9492 134.892 95.1507 133.646 95.4072C132.401 95.627 131.192 95.8285 130.019 96.0117C128.884 96.1582 127.913 96.2315 127.107 96.2315C125.202 96.2315 123.791 95.8102 122.875 94.9675C121.959 94.0882 121.501 92.9708 121.501 91.6153C121.501 90.8825 121.886 89.875 122.656 88.5927C123.425 87.3105 124.451 85.9 125.733 84.3612C127.015 82.8225 128.444 81.2837 130.019 79.745C131.595 78.2063 133.189 76.7957 134.801 75.5135C136.449 74.1945 138.006 73.1504 139.472 72.381C140.937 71.575 142.183 71.172 143.209 71.172C144.381 71.172 145.315 71.5384 146.011 72.2711C146.744 73.0039 147.11 73.993 147.11 75.2387C147.11 75.8249 147.056 76.466 146.946 77.1621C146.836 77.8216 146.561 78.4261 146.121 78.9756C145.682 79.4885 145.004 79.8549 144.088 80.0747C143.172 80.2945 141.926 80.2579 140.351 79.9648C139.105 80.8807 137.805 81.8882 136.449 82.9873C135.13 84.0498 133.885 85.1672 132.712 86.3396C131.54 87.4753 130.569 88.5927 129.8 89.6918C131.155 89.2522 132.694 88.9042 134.416 88.6477C136.138 88.3546 137.878 88.2081 139.637 88.2081C141.762 88.2081 143.483 88.5927 144.802 89.3621C146.158 90.0948 147.147 91.084 147.77 92.3297C148.429 93.5753 148.759 94.9492 148.759 96.4513C148.759 98.1366 148.21 99.8219 147.11 101.507C146.011 103.192 144.546 104.731 142.714 106.123C140.882 107.516 138.849 108.633 136.614 109.476C134.379 110.318 132.126 110.74 129.855 110.74Z" fill="#6B7280"/>
<ellipse cx="251.415" cy="249.716" rx="104.308" ry="23.0846" fill="#E6E6E6"/>
<mask id="mask0_2029_5298" style="mask-type:alpha" maskUnits="userSpaceOnUse" x="147" y="226" width="209" height="47">
<ellipse cx="251.415" cy="249.716" rx="104.308" ry="23.0846" fill="url(#paint0_radial_2029_5298)"/>
</mask>
<g mask="url(#mask0_2029_5298)">
<g filter="url(#filter0_f_2029_5298)">
<ellipse cx="251.415" cy="272.801" rx="104.308" ry="21.0896" fill="black" fill-opacity="0.2"/>
</g>
</g>
<ellipse cx="89.8227" cy="273.086" rx="20.8046" ry="3.70493" fill="#D9D9D9" fill-opacity="0.5"/>
<ellipse cx="372.538" cy="222.927" rx="20.8046" ry="3.70493" fill="#D9D9D9" fill-opacity="0.5"/>
<path d="M183.586 253.136C190.73 255.734 199.586 198.366 211.924 188.625C208.677 194.469 217.688 224.452 225.48 225.492C235.222 226.791 230.756 193.82 239.198 195.119C245.952 196.158 243.829 221.787 252.27 221.787C262.661 221.787 255.433 191.655 265.175 193.82C274.916 195.985 270.605 234.168 285.541 235.466C297.49 236.505 297.62 190.789 300.434 188.625C306.718 188.275 317.608 237.115 325.229 238.316C331.784 239.35 331.214 204.454 331.214 188.625C331.214 142.315 312.974 73.0193 312.974 73.0193C312.974 73.0193 317 32.8233 312.974 29.415C307.5 24.781 295.304 33.9748 268.515 39.3898C253.088 37.868 241.155 34.5448 225.48 37.3949C212.941 33.4048 181.792 25.2588 172.96 29.415C163.936 33.7712 192.421 57.0596 192.421 57.0596C192.421 57.0596 182.624 79.1803 178.388 94.0313C167.195 133.266 176.442 250.538 183.586 253.136Z" fill="#F4F4F5" stroke="#6B7280" stroke-width="3" stroke-linejoin="round"/>
<path d="M245.145 128.869C246.095 125.259 251.301 119.122 264.525 123.454" stroke="#6B7280" stroke-width="2.84995" stroke-linecap="round"/>
<ellipse cx="225.765" cy="102.365" rx="8.54986" ry="18.5247" fill="#6B7280"/>
<path d="M213.226 119.179C215.221 123.169 221.205 129.61 229.185 123.454" stroke="#6B7280" stroke-width="2.84995" stroke-linecap="round"/>
<ellipse cx="273.359" cy="92.9597" rx="9.40484" ry="15.9597" fill="#6B7280"/>
<path d="M285.329 103.22C285.804 106.829 284.873 114.22 277.35 114.904" stroke="#6B7280" stroke-width="2.84995" stroke-linecap="round"/>
<path d="M389.922 103.229C389.922 116.623 386.445 143.527 372.538 143.983C355.153 144.553 346.492 115.483 367.693 116.338C388.893 117.193 384.507 159.088 367.693 164.788" stroke="#6B7280" stroke-width="2.27996" stroke-linecap="round"/>
<path d="M138.353 153.868C133.218 166.24 119.692 189.755 106.672 184.844C90.3974 178.706 93.5427 148.537 112.796 157.454C132.049 166.372 121.788 210.144 104.073 208.962" stroke="#6B7280" stroke-width="2.27996" stroke-linecap="round"/>
<path d="M363.988 24C363.038 33.4998 358.516 53.4115 348.029 57.0594M348.029 57.0594C344.609 42.2397 352.303 21.72 367.123 31.4099C378.979 39.1617 359.333 51.7395 348.029 57.0594Z" stroke="#6B7280" stroke-width="2.27996" stroke-linecap="round"/>
<path d="M112.907 221.787C106.631 228.981 83.1865 250.879 72.5237 247.78M72.5237 247.78C78.3176 233.717 96.4737 221.444 102.944 237.926C108.121 251.111 84.8208 249.989 72.5237 247.78Z" stroke="#6B7280" stroke-width="2.27996" stroke-linecap="round"/>
<defs>
<filter id="filter0_f_2029_5298" x="112.907" y="217.512" width="277.016" height="110.578" filterUnits="userSpaceOnUse" color-interpolation-filters="sRGB">
<feFlood flood-opacity="0" result="BackgroundImageFix"/>
<feBlend mode="normal" in="SourceGraphic" in2="BackgroundImageFix" result="shape"/>
<feGaussianBlur stdDeviation="17.0997" result="effect1_foregroundBlur_2029_5298"/>
</filter>
<radialGradient id="paint0_radial_2029_5298" cx="0" cy="0" r="1" gradientUnits="userSpaceOnUse" gradientTransform="translate(251.671 209.817) rotate(90.1207) scale(121.693 575.261)">
<stop stop-color="#F4F4F5"/>
<stop offset="1" stop-color="#D7D7D7"/>
</radialGradient>
</defs>
</svg>
