<svg width="72" height="73" viewBox="0 0 72 73" fill="none" xmlns="http://www.w3.org/2000/svg">
<path d="M24.3855 17.4518C24.3855 17.4518 19 17.4518 11.4357 17.4518C6.46458 17.4518 3.26416 22.4612 3.26416 27.212V44.526C3.26416 49.2768 6.60503 53.508 11.4357 54.2862C14.2889 54.7458 17.1711 55.1179 20.0796 55.3995V66.9776C20.0796 67.9978 20.6942 68.9175 21.6367 69.3079C22.5792 69.6984 23.6641 69.4826 24.3855 68.7612L36.4223 56.7244C36.8792 56.2675 37.5111 55.9929 38.1964 55.9701C44.1079 55.7735 49.9262 55.2047 55.6284 54.2862C60.459 53.508 63.7999 49.2768 63.7999 44.526V37.9243" stroke="black" stroke-width="4" stroke-linecap="round" stroke-linejoin="round"/>
<path d="M39.5 33L31.5 48.5L69.5 22H49.5L53.5 3L26 33H39.5Z" stroke="black" stroke-width="4" stroke-linecap="round" stroke-linejoin="round"/>
</svg>
