<svg width="80" height="86" viewBox="0 0 80 86" fill="none" xmlns="http://www.w3.org/2000/svg">
<g filter="url(#filter0_d_19_7483)">
<path d="M46.5 6.59808C42.4778 4.27585 37.5222 4.27585 33.5 6.59808L17.7872 15.6699C13.765 17.9921 11.2872 22.2838 11.2872 26.9282V45.0718C11.2872 49.7162 13.765 54.0079 17.7872 56.3301L33.5 65.4019C37.5222 67.7242 42.4778 67.7242 46.5 65.4019L62.2128 56.3301C66.235 54.0079 68.7128 49.7162 68.7128 45.0718V26.9282C68.7128 22.2838 66.235 17.9921 62.2128 15.6699L46.5 6.59808Z" stroke="url(#paint0_angular_19_7483)" stroke-opacity="0.8" stroke-width="2" shape-rendering="crispEdges"/>
</g>
<path d="M38.416 27H41.8V34.38H49.18V37.764H41.8V45.18H38.416V37.764H31V34.38H38.416V27Z" fill="url(#paint1_angular_19_7483)"/>
<defs>
<filter id="filter0_d_19_7483" x="0.287109" y="0.856384" width="79.4258" height="84.2872" filterUnits="userSpaceOnUse" color-interpolation-filters="sRGB">
<feFlood flood-opacity="0" result="BackgroundImageFix"/>
<feColorMatrix in="SourceAlpha" type="matrix" values="0 0 0 0 0 0 0 0 0 0 0 0 0 0 0 0 0 0 127 0" result="hardAlpha"/>
<feOffset dy="7"/>
<feGaussianBlur stdDeviation="5"/>
<feComposite in2="hardAlpha" operator="out"/>
<feColorMatrix type="matrix" values="0 0 0 0 0 0 0 0 0 0 0 0 0 0 0 0 0 0 0.1 0"/>
<feBlend mode="normal" in2="BackgroundImageFix" result="effect1_dropShadow_19_7483"/>
<feBlend mode="normal" in="SourceGraphic" in2="effect1_dropShadow_19_7483" result="shape"/>
</filter>
<radialGradient id="paint0_angular_19_7483" cx="0" cy="0" r="1" gradientUnits="userSpaceOnUse" gradientTransform="translate(40 36) rotate(90) scale(32)">
<stop offset="0.163092" stop-color="#F449F4"/>
<stop offset="0.491755" stop-color="#0019C0"/>
<stop offset="0.839524" stop-color="#7976E8"/>
</radialGradient>
<radialGradient id="paint1_angular_19_7483" cx="0" cy="0" r="1" gradientUnits="userSpaceOnUse" gradientTransform="translate(40.09 36.09) rotate(90) scale(9.09)">
<stop offset="0.140625" stop-color="#F449F4"/>
<stop offset="0.515625" stop-color="#0019C0"/>
<stop offset="1" stop-color="#7976E8"/>
</radialGradient>
</defs>
</svg>
