<svg width="64" height="64" viewBox="0 0 64 64" fill="none" xmlns="http://www.w3.org/2000/svg">
  <path
    d="M32.0004 12C32.0004 8.46535 29.135 5.59998 25.6004 5.59998C22.0658 5.59998 19.2004 8.46535 19.2004 12C19.2004 15.5346 22.0658 18.4 25.6004 18.4C29.135 18.4 32.0004 15.5346 32.0004 12Z"
    fill="#71717A" />
  <path
    d="M55.2004 14.4C56.5259 14.4 57.6004 13.3255 57.6004 12C57.6004 10.6745 56.5259 9.59998 55.2004 9.59998L37.6004 9.59998C36.2749 9.59998 35.2004 10.6745 35.2004 12C35.2004 13.3255 36.2749 14.4 37.6004 14.4L55.2004 14.4Z"
    fill="#71717A" />
  <path
    d="M16.0004 12C16.0004 13.3255 14.9259 14.4 13.6004 14.4H8.80039C7.47491 14.4 6.40039 13.3255 6.40039 12C6.40039 10.6745 7.47491 9.59998 8.80039 9.59998L13.6004 9.59998C14.9259 9.59998 16.0004 10.6745 16.0004 12Z"
    fill="#71717A" />
  <path
    d="M13.6004 54.4C14.9259 54.4 16.0004 53.3255 16.0004 52C16.0004 50.6745 14.9259 49.6 13.6004 49.6H8.80039C7.47491 49.6 6.40039 50.6745 6.40039 52C6.40039 53.3255 7.47491 54.4 8.80039 54.4H13.6004Z"
    fill="#71717A" />
  <path
    d="M55.2004 54.4C56.5259 54.4 57.6004 53.3255 57.6004 52C57.6004 50.6745 56.5259 49.6 55.2004 49.6H37.6004C36.2749 49.6 35.2004 50.6745 35.2004 52C35.2004 53.3255 36.2749 54.4 37.6004 54.4H55.2004Z"
    fill="#71717A" />
  <path
    d="M28.8004 32C28.8004 33.3255 27.7259 34.4 26.4004 34.4H8.80039C7.47491 34.4 6.40039 33.3255 6.40039 32C6.40039 30.6745 7.47491 29.6 8.80039 29.6L26.4004 29.6C27.7259 29.6 28.8004 30.6745 28.8004 32Z"
    fill="#71717A" />
  <path
    d="M55.2004 34.4C56.5259 34.4 57.6004 33.3255 57.6004 32C57.6004 30.6745 56.5259 29.6 55.2004 29.6H50.4004C49.0749 29.6 48.0004 30.6745 48.0004 32C48.0004 33.3255 49.0749 34.4 50.4004 34.4H55.2004Z"
    fill="#71717A" />
  <path
    d="M44.8004 32C44.8004 28.4654 41.935 25.6 38.4004 25.6C34.8658 25.6 32.0004 28.4654 32.0004 32C32.0004 35.5346 34.8658 38.4 38.4004 38.4C41.935 38.4 44.8004 35.5346 44.8004 32Z"
    fill="#71717A" />
  <path
    d="M32.0004 52C32.0004 48.4654 29.135 45.6 25.6004 45.6C22.0658 45.6 19.2004 48.4654 19.2004 52C19.2004 55.5346 22.0658 58.4 25.6004 58.4C29.135 58.4 32.0004 55.5346 32.0004 52Z"
    fill="#71717A" />
</svg>