<svg width="160" height="87" viewBox="0 0 160 87" fill="none" xmlns="http://www.w3.org/2000/svg">
  <rect x="1" y="1" width="158" height="84.1326" rx="7" stroke="#DD1010" stroke-width="2" />
  <path
    d="M57.2783 46.4245C59.0842 47.0811 64.9622 45.4711 68.0813 43.0087C67.2605 44.4862 67.128 47.2347 69.0975 47.2347C72.1733 47.2347 75.303 44.039 75.303 44.039C75.303 44.039 75.5721 47.7272 77.7057 47.7272C80.3323 47.7272 82.9204 44.039 82.9204 44.039C82.9204 44.039 83.6339 47.9019 87.4096 48.2302C90.4302 48.4929 92.1701 44.8094 92.1701 44.8094C93.6405 45.7235 96.9214 48.2302 100.452 47.4094C104.378 46.4967 95.3631 43.4696 97.8255 34.9332C100.288 26.3969 100.616 19.5022 99.1388 19.0097C97.9569 18.6157 94.7065 21.8004 93.229 23.442C92.4082 23.0043 90.1428 22.0631 87.6476 21.8004C85.1524 21.5377 82.6681 21.691 81.7378 21.8004C81.7378 19.721 81.1797 15.825 78.9471 16.8756C74.1864 19.1738 71.0674 31.4859 66.1425 37.0673C61.2177 42.6488 55.4725 45.7678 57.2783 46.4245Z"
    stroke="#DD1010" stroke-width="1.5" stroke-linejoin="round" />
  <path
    d="M75.1542 29.1638L78.6497 32.9771M74.042 33.7716L79.6031 29.1638M87.8652 29.1638L91.8374 34.7249M87.0708 33.7716L91.8374 30.1171"
    stroke="#DD1010" stroke-width="1.5" stroke-linecap="round" stroke-linejoin="round" />
  <path
    d="M102.414 24.8392L107.817 20.8485L106.096 26.9213L110.395 29.6558L105.332 31.0779L106.841 35.6037L100.416 32.3416"
    stroke="#DD1010" stroke-width="1.5" stroke-linecap="round" stroke-linejoin="round" />
  <path
    d="M70.5463 22.4906L67.5274 19.6306V23.285L59.583 21.2195L64.8263 27.0983L59.583 32.1828L67.5274 30.9116"
    stroke="#DD1010" stroke-width="1.5" stroke-linecap="round" stroke-linejoin="round" />
  <path d="M40.6748 26.0576L58.4702 26.0576" stroke="#DD1010" stroke-width="1.5"
    stroke-linecap="round" stroke-linejoin="round" />
  <path d="M109.95 26.0576H122.661" stroke="#DD1010" stroke-width="1.5" stroke-linecap="round"
    stroke-linejoin="round" />
  <path d="M30.5068 26.0576L35.5912 26.0576" stroke="#DD1010" stroke-width="1.5"
    stroke-linecap="round" stroke-linejoin="round" />
  <path d="M25.4219 28.5999L55.9283 28.5999" stroke="#DD1010" stroke-width="1.5"
    stroke-linecap="round" stroke-linejoin="round" />
  <path
    d="M50.2089 38.1389C45.8662 34.9554 41.9876 40.7091 45.8662 42.6575C47.7131 43.5854 51.055 39.8375 43.955 38.1389C41.1939 37.4783 39.7556 40.418 41.1908 42.8441"
    stroke="#DD1010" stroke-width="1.5" stroke-linecap="round" stroke-linejoin="round" />
  <path fill-rule="evenodd" clip-rule="evenodd"
    d="M49.7401 13.2498C49.6867 12.9029 49.3621 12.665 49.0152 12.7184C48.6683 12.7718 48.4304 13.0964 48.4838 13.4433L48.9581 16.5225C48.9852 16.6982 49.0845 16.8545 49.2321 16.9535C49.3798 17.0526 49.5621 17.0853 49.7349 17.0437L52.3247 16.4206L53.8412 18.9067C54.024 19.2063 54.4151 19.3011 54.7148 19.1183C55.0144 18.9355 55.1091 18.5444 54.9264 18.2448L53.1687 15.3634C53.0251 15.1279 52.7458 15.0119 52.4775 15.0765L50.1092 15.6463L49.7401 13.2498ZM47.4541 18.9146C47.192 18.6811 46.7903 18.7042 46.5568 18.9663C46.3232 19.2283 46.3463 19.6301 46.6084 19.8636L49.191 22.1652C49.453 22.3987 49.8548 22.3756 50.0883 22.1136L51.958 20.0156L53.0991 21.077C53.3561 21.316 53.7582 21.3015 53.9973 21.0444C54.2363 20.7874 54.2218 20.3853 53.9648 20.1462L52.3483 18.6427C52.2231 18.5263 52.0564 18.4653 51.8857 18.4733C51.715 18.4813 51.5547 18.5577 51.441 18.6853L49.5622 20.7934L47.4541 18.9146Z"
    fill="#DD1010" />
  <path d="M116.306 28.5999L122.661 28.5999" stroke="#DD1010" stroke-width="1.5"
    stroke-linecap="round" stroke-linejoin="round" />
  <path
    d="M126.475 29.164V25.6685H130.054C131.544 25.6685 132.99 26.1689 134.162 27.0894C134.374 27.2558 134.374 27.5766 134.162 27.743C132.99 28.6636 131.544 29.164 130.054 29.164H126.475Z"
    fill="#DD1010" stroke="#DD1010" stroke-width="1.5" stroke-linecap="round"
    stroke-linejoin="round" />
  <path
    d="M37.3916 70.5994V60.7351H40.9531C41.9329 60.7351 42.7692 60.9288 43.4619 61.3162C44.1546 61.7035 44.6833 62.2618 45.0479 62.991C45.417 63.7201 45.6016 64.602 45.6016 65.6365V65.6501C45.6016 66.6938 45.417 67.5847 45.0479 68.323C44.6833 69.0613 44.1546 69.6264 43.4619 70.0183C42.7738 70.4057 41.9375 70.5994 40.9531 70.5994H37.3916ZM38.9229 69.2732H40.7822C41.4704 69.2732 42.056 69.1319 42.5391 68.8494C43.0267 68.5668 43.3958 68.1567 43.6465 67.6189C43.9017 67.0811 44.0293 66.4317 44.0293 65.6707V65.657C44.0293 64.9005 43.8994 64.2533 43.6396 63.7156C43.3844 63.1778 43.0153 62.7677 42.5322 62.4851C42.0492 62.2026 41.4658 62.0613 40.7822 62.0613H38.9229V69.2732ZM50.6191 70.7429C49.8945 70.7429 49.2725 70.588 48.7529 70.2781C48.2334 69.9636 47.8324 69.5193 47.5498 68.9451C47.2718 68.3708 47.1328 67.6918 47.1328 66.908V66.9011C47.1328 66.1264 47.2718 65.4496 47.5498 64.8708C47.8324 64.2921 48.2288 63.8409 48.7393 63.5173C49.2542 63.1938 49.8558 63.032 50.5439 63.032C51.2367 63.032 51.8314 63.1869 52.3281 63.4968C52.8294 63.8067 53.2145 64.2419 53.4834 64.8025C53.7523 65.3585 53.8867 66.0102 53.8867 66.7576V67.2771H47.8848V66.2175H53.1484L52.4375 67.2019V66.6072C52.4375 66.0785 52.3555 65.641 52.1914 65.2947C52.0319 64.9438 51.8109 64.6817 51.5283 64.5085C51.2458 64.3354 50.9199 64.2488 50.5508 64.2488C50.1816 64.2488 49.8512 64.3399 49.5596 64.5222C49.2725 64.7 49.0446 64.9643 48.876 65.3152C48.7119 65.6661 48.6299 66.0968 48.6299 66.6072V67.2019C48.6299 67.6895 48.7119 68.1065 48.876 68.4529C49.04 68.7992 49.2725 69.0636 49.5732 69.2458C49.8786 69.4281 50.2386 69.5193 50.6533 69.5193C50.9723 69.5193 51.2458 69.476 51.4736 69.3894C51.7061 69.2983 51.8952 69.1866 52.041 69.0544C52.1914 68.9223 52.2939 68.7924 52.3486 68.6648L52.376 68.6101H53.8115L53.7979 68.6716C53.734 68.9177 53.6224 69.1638 53.4629 69.4099C53.3034 69.6514 53.0915 69.8725 52.8271 70.073C52.5674 70.2735 52.2529 70.4353 51.8838 70.5583C51.5192 70.6814 51.0977 70.7429 50.6191 70.7429ZM55.7188 70.5994V60.2634H57.2021V70.5994H55.7188ZM62.5273 70.7429C61.8027 70.7429 61.1807 70.588 60.6611 70.2781C60.1416 69.9636 59.7406 69.5193 59.458 68.9451C59.18 68.3708 59.041 67.6918 59.041 66.908V66.9011C59.041 66.1264 59.18 65.4496 59.458 64.8708C59.7406 64.2921 60.137 63.8409 60.6475 63.5173C61.1624 63.1938 61.764 63.032 62.4521 63.032C63.1449 63.032 63.7396 63.1869 64.2363 63.4968C64.7376 63.8067 65.1227 64.2419 65.3916 64.8025C65.6605 65.3585 65.7949 66.0102 65.7949 66.7576V67.2771H59.793V66.2175H65.0566L64.3457 67.2019V66.6072C64.3457 66.0785 64.2637 65.641 64.0996 65.2947C63.9401 64.9438 63.7191 64.6817 63.4365 64.5085C63.154 64.3354 62.8281 64.2488 62.459 64.2488C62.0898 64.2488 61.7594 64.3399 61.4678 64.5222C61.1807 64.7 60.9528 64.9643 60.7842 65.3152C60.6201 65.6661 60.5381 66.0968 60.5381 66.6072V67.2019C60.5381 67.6895 60.6201 68.1065 60.7842 68.4529C60.9482 68.7992 61.1807 69.0636 61.4814 69.2458C61.7868 69.4281 62.1468 69.5193 62.5615 69.5193C62.8805 69.5193 63.154 69.476 63.3818 69.3894C63.6143 69.2983 63.8034 69.1866 63.9492 69.0544C64.0996 68.9223 64.2021 68.7924 64.2568 68.6648L64.2842 68.6101H65.7197L65.7061 68.6716C65.6423 68.9177 65.5306 69.1638 65.3711 69.4099C65.2116 69.6514 64.9997 69.8725 64.7354 70.073C64.4756 70.2735 64.1611 70.4353 63.792 70.5583C63.4274 70.6814 63.0059 70.7429 62.5273 70.7429ZM70.3613 70.6472C69.5501 70.6472 68.9622 70.4923 68.5977 70.1824C68.2376 69.8679 68.0576 69.3552 68.0576 68.6443V64.3445H66.8955V63.1755H68.0576V61.3025H69.5752V63.1755H71.168V64.3445H69.5752V68.282C69.5752 68.683 69.6549 68.9724 69.8145 69.1501C69.974 69.3233 70.2383 69.4099 70.6074 69.4099C70.7168 69.4099 70.8102 69.4076 70.8877 69.4031C70.9697 69.3985 71.0632 69.3917 71.168 69.3826V70.572C71.0495 70.5903 70.9219 70.6062 70.7852 70.6199C70.6484 70.6381 70.5072 70.6472 70.3613 70.6472ZM75.9395 70.7429C75.2148 70.7429 74.5928 70.588 74.0732 70.2781C73.5537 69.9636 73.1527 69.5193 72.8701 68.9451C72.5921 68.3708 72.4531 67.6918 72.4531 66.908V66.9011C72.4531 66.1264 72.5921 65.4496 72.8701 64.8708C73.1527 64.2921 73.5492 63.8409 74.0596 63.5173C74.5745 63.1938 75.1761 63.032 75.8643 63.032C76.557 63.032 77.1517 63.1869 77.6484 63.4968C78.1497 63.8067 78.5348 64.2419 78.8037 64.8025C79.0726 65.3585 79.207 66.0102 79.207 66.7576V67.2771H73.2051V66.2175H78.4688L77.7578 67.2019V66.6072C77.7578 66.0785 77.6758 65.641 77.5117 65.2947C77.3522 64.9438 77.1312 64.6817 76.8486 64.5085C76.5661 64.3354 76.2402 64.2488 75.8711 64.2488C75.502 64.2488 75.1715 64.3399 74.8799 64.5222C74.5928 64.7 74.3649 64.9643 74.1963 65.3152C74.0322 65.6661 73.9502 66.0968 73.9502 66.6072V67.2019C73.9502 67.6895 74.0322 68.1065 74.1963 68.4529C74.3604 68.7992 74.5928 69.0636 74.8936 69.2458C75.1989 69.4281 75.5589 69.5193 75.9736 69.5193C76.2926 69.5193 76.5661 69.476 76.7939 69.3894C77.0264 69.2983 77.2155 69.1866 77.3613 69.0544C77.5117 68.9223 77.6143 68.7924 77.6689 68.6648L77.6963 68.6101H79.1318L79.1182 68.6716C79.0544 68.9177 78.9427 69.1638 78.7832 69.4099C78.6237 69.6514 78.4118 69.8725 78.1475 70.073C77.8877 70.2735 77.5732 70.4353 77.2041 70.5583C76.8395 70.6814 76.418 70.7429 75.9395 70.7429ZM84.9561 70.5994V60.7351H88.8457C89.5202 60.7351 90.1035 60.8604 90.5957 61.1111C91.0879 61.3572 91.4661 61.7058 91.7305 62.157C91.9993 62.6036 92.1338 63.1322 92.1338 63.7429V63.7566C92.1338 64.422 91.9652 65.0076 91.6279 65.5134C91.2907 66.0147 90.8213 66.3679 90.2197 66.573L92.4277 70.5994H90.6572L88.6475 66.8054C88.6338 66.8054 88.6201 66.8054 88.6064 66.8054C88.5928 66.8054 88.5791 66.8054 88.5654 66.8054H86.4873V70.5994H84.9561ZM86.4873 65.5613H88.6953C89.2832 65.5613 89.7389 65.4086 90.0625 65.1033C90.3861 64.7934 90.5479 64.3582 90.5479 63.7976V63.7839C90.5479 63.2371 90.3792 62.8064 90.042 62.4919C89.7093 62.1775 89.2445 62.0203 88.6475 62.0203H86.4873V65.5613ZM97.0762 70.7429C96.3516 70.7429 95.7249 70.588 95.1963 70.2781C94.6722 69.9682 94.2689 69.5261 93.9863 68.9519C93.7038 68.3731 93.5625 67.6873 93.5625 66.8943V66.8806C93.5625 66.0831 93.7038 65.3972 93.9863 64.823C94.2734 64.2488 94.679 63.8067 95.2031 63.4968C95.7318 63.1869 96.3561 63.032 97.0762 63.032C97.8008 63.032 98.4251 63.1869 98.9492 63.4968C99.4733 63.8022 99.8766 64.2442 100.159 64.823C100.446 65.3972 100.59 66.0831 100.59 66.8806V66.8943C100.59 67.6873 100.446 68.3731 100.159 68.9519C99.8766 69.5261 99.4733 69.9682 98.9492 70.2781C98.4297 70.588 97.8053 70.7429 97.0762 70.7429ZM97.0762 69.4988C97.5 69.4988 97.86 69.3962 98.1562 69.1912C98.4525 68.9815 98.6781 68.683 98.833 68.2957C98.988 67.9083 99.0654 67.4412 99.0654 66.8943V66.8806C99.0654 66.3292 98.988 65.8598 98.833 65.4724C98.6781 65.085 98.4525 64.7888 98.1562 64.5837C97.86 64.3741 97.5 64.2693 97.0762 64.2693C96.6523 64.2693 96.2923 64.3741 95.9961 64.5837C95.6999 64.7888 95.472 65.085 95.3125 65.4724C95.1576 65.8598 95.0801 66.3292 95.0801 66.8806V66.8943C95.0801 67.4412 95.1576 67.9083 95.3125 68.2957C95.472 68.683 95.6999 68.9815 95.9961 69.1912C96.2923 69.3962 96.6523 69.4988 97.0762 69.4988ZM106.305 70.7224C105.958 70.7224 105.639 70.6723 105.348 70.572C105.056 70.4672 104.796 70.3191 104.568 70.1277C104.345 69.9317 104.163 69.6993 104.021 69.4304H103.905V70.5994H102.422V60.2634H103.905V64.3513H104.021C104.154 64.0824 104.334 63.8523 104.562 63.6609C104.789 63.4649 105.051 63.3145 105.348 63.2097C105.644 63.1003 105.963 63.0457 106.305 63.0457C106.934 63.0457 107.478 63.2029 107.938 63.5173C108.399 63.8272 108.754 64.2693 109.005 64.8435C109.256 65.4177 109.381 66.0968 109.381 66.8806V66.8943C109.381 67.6736 109.253 68.3503 108.998 68.9246C108.747 69.4988 108.392 69.9431 107.932 70.2576C107.471 70.5675 106.929 70.7224 106.305 70.7224ZM105.881 69.4509C106.296 69.4509 106.651 69.3484 106.947 69.1433C107.243 68.9382 107.469 68.6443 107.624 68.2615C107.784 67.8787 107.863 67.4229 107.863 66.8943V66.8806C107.863 66.3474 107.784 65.8917 107.624 65.5134C107.469 65.1306 107.243 64.8367 106.947 64.6316C106.651 64.422 106.296 64.3171 105.881 64.3171C105.471 64.3171 105.115 64.422 104.814 64.6316C104.514 64.8367 104.284 65.1306 104.124 65.5134C103.965 65.8962 103.885 66.352 103.885 66.8806V66.8943C103.885 67.4184 103.965 67.8741 104.124 68.2615C104.284 68.6443 104.514 68.9382 104.814 69.1433C105.115 69.3484 105.471 69.4509 105.881 69.4509ZM114.289 70.7429C113.564 70.7429 112.938 70.588 112.409 70.2781C111.885 69.9682 111.482 69.5261 111.199 68.9519C110.917 68.3731 110.775 67.6873 110.775 66.8943V66.8806C110.775 66.0831 110.917 65.3972 111.199 64.823C111.486 64.2488 111.892 63.8067 112.416 63.4968C112.945 63.1869 113.569 63.032 114.289 63.032C115.014 63.032 115.638 63.1869 116.162 63.4968C116.686 63.8022 117.09 64.2442 117.372 64.823C117.659 65.3972 117.803 66.0831 117.803 66.8806V66.8943C117.803 67.6873 117.659 68.3731 117.372 68.9519C117.09 69.5261 116.686 69.9682 116.162 70.2781C115.643 70.588 115.018 70.7429 114.289 70.7429ZM114.289 69.4988C114.713 69.4988 115.073 69.3962 115.369 69.1912C115.665 68.9815 115.891 68.683 116.046 68.2957C116.201 67.9083 116.278 67.4412 116.278 66.8943V66.8806C116.278 66.3292 116.201 65.8598 116.046 65.4724C115.891 65.085 115.665 64.7888 115.369 64.5837C115.073 64.3741 114.713 64.2693 114.289 64.2693C113.865 64.2693 113.505 64.3741 113.209 64.5837C112.913 64.7888 112.685 65.085 112.525 65.4724C112.37 65.8598 112.293 66.3292 112.293 66.8806V66.8943C112.293 67.4412 112.37 67.9083 112.525 68.2957C112.685 68.683 112.913 68.9815 113.209 69.1912C113.505 69.3962 113.865 69.4988 114.289 69.4988ZM122.369 70.6472C121.558 70.6472 120.97 70.4923 120.605 70.1824C120.245 69.8679 120.065 69.3552 120.065 68.6443V64.3445H118.903V63.1755H120.065V61.3025H121.583V63.1755H123.176V64.3445H121.583V68.282C121.583 68.683 121.663 68.9724 121.822 69.1501C121.982 69.3233 122.246 69.4099 122.615 69.4099C122.725 69.4099 122.818 69.4076 122.896 69.4031C122.978 69.3985 123.071 69.3917 123.176 69.3826V70.572C123.057 70.5903 122.93 70.6062 122.793 70.6199C122.656 70.6381 122.515 70.6472 122.369 70.6472Z"
    fill="#DD1010" />
</svg>