<svg width="48" height="48" viewBox="0 0 48 48" fill="none" xmlns="http://www.w3.org/2000/svg">
<g clip-path="url(#clip0_332_633)">
<path d="M39.2363 23.2082C39.5867 23.9898 39.8091 24.8253 39.9 25.6777C39.9876 26.5301 39.9438 27.3925 39.7619 28.2314C39.5833 29.0703 39.2734 29.8755 38.8421 30.6167C38.5591 31.112 38.2256 31.5769 37.8415 32.0048C37.4608 32.4293 37.0363 32.8134 36.5748 33.1503C36.1098 33.4872 35.6146 33.7702 35.089 34.0026C34.5668 34.2317 34.021 34.4069 33.4617 34.5215C33.199 35.3368 32.8081 36.1083 32.3028 36.8023C31.8008 37.4964 31.191 38.1062 30.497 38.6082C29.8029 39.1135 29.0348 39.5043 28.2195 39.7671C27.4042 40.0333 26.5518 40.1647 25.6927 40.1647C25.1233 40.168 24.5506 40.1074 23.9913 39.9928C23.4354 39.8749 22.8896 39.6964 22.3674 39.4639C21.8452 39.2314 21.35 38.9417 20.8884 38.6048C20.4302 38.2679 20.0057 37.8804 19.6284 37.4526C18.7861 37.6345 17.9236 37.6783 17.0712 37.5907C16.2189 37.4997 15.3833 37.2774 14.5983 36.927C13.8167 36.58 13.0924 36.1083 12.4556 35.5322C11.8189 34.9561 11.2764 34.2823 10.8486 33.5411C10.5622 33.0458 10.3264 32.5236 10.1478 31.9812C9.96925 31.4388 9.85133 30.8795 9.79069 30.3101C9.73005 29.7441 9.73342 29.1714 9.79406 28.602C9.8547 28.036 9.97936 27.4768 10.1579 26.9343C9.58518 26.2976 9.11351 25.5732 8.76313 24.7916C8.41611 24.0066 8.19038 23.1745 8.10279 22.3221C8.01182 21.4697 8.05899 20.6072 8.23755 19.7683C8.41611 18.9294 8.72607 18.1242 9.15731 17.383C9.44031 16.8878 9.77384 16.4195 10.1545 15.995C10.5353 15.5705 10.9631 15.1864 11.4247 14.8495C11.8862 14.5126 12.3849 14.2262 12.9071 13.9971C13.4327 13.7647 13.9784 13.5928 14.5377 13.4783C14.8005 12.6596 15.1913 11.8915 15.6933 11.1974C16.1987 10.5034 16.8085 9.8936 17.5025 9.38824C18.1965 8.88625 18.9647 8.49544 19.78 8.22928C20.5953 7.96649 21.4477 7.83173 22.3068 7.8351C22.8761 7.83173 23.4489 7.88901 24.0081 8.00692C24.5674 8.12484 25.1132 8.30003 25.6354 8.5325C26.1576 8.76833 26.6529 9.0547 27.1144 9.39161C27.576 9.73189 28.0005 10.116 28.3778 10.5438C29.2167 10.3653 30.0792 10.3215 30.9316 10.4091C31.784 10.4967 32.6161 10.7224 33.4011 11.0694C34.1827 11.4198 34.9071 11.8881 35.5438 12.4642C36.1806 13.0369 36.723 13.7074 37.1509 14.4519C37.4372 14.9438 37.6731 15.466 37.8516 16.0118C38.0302 16.5542 38.1515 17.1135 38.2088 17.6829C38.2694 18.2523 38.2694 18.825 38.2054 19.3944C38.1447 19.9637 38.0201 20.523 37.8415 21.0654C38.4176 21.7022 38.8859 22.4232 39.2363 23.2082ZM28.0106 37.5907C28.7451 37.2875 29.4121 36.8394 29.9748 36.2768C30.5374 35.7141 30.9855 35.0471 31.2887 34.3092C31.5919 33.5748 31.7503 32.7864 31.7503 31.9913V24.4783C31.748 24.4716 31.7458 24.4637 31.7435 24.4547C31.7413 24.448 31.7379 24.4412 31.7334 24.4345C31.7289 24.4278 31.7233 24.4221 31.7166 24.4176C31.7098 24.4109 31.7031 24.4064 31.6964 24.4042L28.9775 22.8342V31.9104C28.9775 32.0014 28.964 32.0957 28.9405 32.1833C28.9169 32.2743 28.8832 32.3585 28.836 32.4394C28.7889 32.5203 28.7349 32.5944 28.6676 32.6584C28.6021 32.7237 28.5285 32.7803 28.4486 32.8268L22.0103 36.5429C21.9564 36.5766 21.8654 36.6238 21.8183 36.6507C22.0844 36.8765 22.3742 37.0752 22.6774 37.2504C22.984 37.4256 23.3006 37.5739 23.6308 37.6951C23.961 37.8131 24.3013 37.904 24.6449 37.9647C24.9919 38.0253 25.3423 38.0556 25.6927 38.0556C26.4878 38.0556 27.2761 37.8973 28.0106 37.5907ZM12.678 32.4899C13.0789 33.1806 13.6078 33.7803 14.2379 34.2654C14.8712 34.7506 15.5889 35.1043 16.357 35.3098C17.1251 35.5154 17.927 35.5693 18.7153 35.4648C19.5037 35.3604 20.2617 35.1043 20.9524 34.7068L27.4614 30.9503L27.4783 30.9334C27.4828 30.9289 27.4861 30.9222 27.4884 30.9132C27.4929 30.9065 27.4963 30.8997 27.4985 30.893V27.7261L19.6418 32.2709C19.561 32.3181 19.4768 32.3518 19.3892 32.3787C19.2982 32.4023 19.2072 32.4124 19.1129 32.4124C19.0219 32.4124 18.931 32.4023 18.84 32.3787C18.7524 32.3518 18.6648 32.3181 18.584 32.2709L12.1457 28.5515C12.0884 28.5178 12.0042 28.4673 11.957 28.4369C11.8964 28.784 11.866 29.1343 11.866 29.4847C11.866 29.8351 11.8997 30.1855 11.9604 30.5325C12.021 30.8761 12.1153 31.2164 12.2333 31.5466C12.3545 31.8768 12.5028 32.1935 12.678 32.4967V32.4899ZM10.9867 18.4409C10.5892 19.1316 10.3331 19.893 10.2287 20.6814C10.1242 21.4697 10.1781 22.2682 10.3836 23.0397C10.5892 23.8078 10.9429 24.5255 11.4281 25.1588C11.9132 25.7889 12.5163 26.3178 13.2036 26.7154L19.7092 30.4752C19.716 30.4775 19.7238 30.4797 19.7328 30.482H19.7564C19.7654 30.482 19.7732 30.4797 19.78 30.4752C19.7867 30.473 19.7934 30.4696 19.8002 30.4651L22.5291 28.8884L14.6725 24.3536C14.595 24.3065 14.5209 24.2492 14.4535 24.1852C14.3882 24.1197 14.3316 24.0461 14.285 23.9662C14.2412 23.8853 14.2042 23.8011 14.1806 23.7101C14.157 23.6225 14.1435 23.5316 14.1469 23.4372V15.7861C13.8167 15.9074 13.4967 16.0556 13.1934 16.2308C12.8902 16.4094 12.6039 16.6115 12.3343 16.8372C12.0682 17.063 11.8189 17.3123 11.5931 17.5818C11.3674 17.848 11.1686 18.1377 10.9934 18.4409H10.9867ZM33.3337 23.6428C33.4146 23.6899 33.4887 23.7438 33.5561 23.8112C33.6201 23.8752 33.6774 23.9493 33.7245 24.0302C33.7683 24.1111 33.8054 24.1987 33.829 24.2863C33.8492 24.3772 33.8627 24.4682 33.8593 24.5625V32.2137C34.9408 31.8161 35.8841 31.1187 36.5815 30.2023C37.2823 29.2859 37.7034 28.191 37.8011 27.0455C37.8988 25.9 37.6697 24.7478 37.1374 23.727C36.6051 22.7062 35.7931 21.8572 34.7959 21.2844L28.2902 17.5245C28.2835 17.5223 28.2756 17.52 28.2666 17.5178H28.2431C28.2363 17.52 28.2285 17.5223 28.2195 17.5245C28.2127 17.5268 28.206 17.5302 28.1993 17.5346L25.4838 19.1046L33.3405 23.6428H33.3337ZM36.0458 19.5662H36.0424V19.5696L36.0458 19.5662ZM36.0424 19.5628C36.2379 18.4308 36.1065 17.2651 35.6617 16.2039C35.2204 15.1426 34.4826 14.2296 33.5392 13.5693C32.5959 12.9123 31.4841 12.5349 30.3353 12.4844C29.183 12.4372 28.0443 12.7169 27.047 13.2896L20.5414 17.0461C20.5346 17.0506 20.529 17.0562 20.5245 17.063L20.5111 17.0832C20.5088 17.0899 20.5066 17.0978 20.5043 17.1068C20.5021 17.1135 20.501 17.1214 20.501 17.1304V20.2703L28.3576 15.7322C28.4385 15.685 28.5261 15.6513 28.6137 15.6244C28.7046 15.6008 28.7956 15.5907 28.8866 15.5907C28.9809 15.5907 29.0719 15.6008 29.1628 15.6244C29.2504 15.6513 29.3346 15.685 29.4155 15.7322L35.8538 19.4516C35.9111 19.4853 35.9953 19.5325 36.0424 19.5628ZM19.0186 16.0859C19.0186 15.995 19.032 15.904 19.0556 15.8131C19.0792 15.7255 19.1129 15.6379 19.1601 15.557C19.2072 15.4795 19.2611 15.4054 19.3285 15.338C19.3925 15.274 19.4666 15.2167 19.5475 15.1729L25.9858 11.4568C26.0464 11.4198 26.1307 11.3726 26.1778 11.349C25.2951 10.6112 24.217 10.1395 23.0749 9.99467C21.9328 9.84643 20.7738 10.0284 19.7328 10.5169C18.6884 11.0054 17.8057 11.7836 17.1892 12.7539C16.5726 13.7276 16.2458 14.8529 16.2458 16.0051V23.5181C16.2481 23.5271 16.2503 23.535 16.2526 23.5417C16.2548 23.5484 16.2582 23.5552 16.2627 23.5619C16.2672 23.5686 16.2728 23.5754 16.2795 23.5821C16.284 23.5866 16.2907 23.5911 16.2997 23.5956L19.0186 25.1656V16.0859ZM20.4942 26.0146L23.9947 28.036L27.4951 26.0146V21.9751L23.998 19.9536L20.4976 21.9751L20.4942 26.0146Z" fill="#FEF4E1"/>
</g>
<defs>
<clipPath id="clip0_332_633">
<rect width="32" height="32.3363" fill="white" transform="translate(7.99951 7.83179)"/>
</clipPath>
</defs>
</svg>
