<svg width="49" height="48" viewBox="0 0 49 48" fill="none" xmlns="http://www.w3.org/2000/svg">
<g clip-path="url(#clip0_332_632)">
<path d="M13.8829 20.2192C13.8829 20.7982 13.9455 21.2677 14.055 21.612C14.1801 21.9563 14.3366 22.3319 14.5556 22.7388C14.6338 22.8639 14.6651 22.9891 14.6651 23.0987C14.6651 23.2552 14.5712 23.4117 14.3679 23.5682L13.3823 24.2255C13.2415 24.3194 13.1007 24.3663 12.9756 24.3663C12.8191 24.3663 12.6627 24.2881 12.5062 24.1472C12.2872 23.9125 12.0995 23.6621 11.943 23.4117C11.7866 23.1456 11.6302 22.8483 11.4581 22.4884C10.2378 23.9281 8.70473 24.648 6.85873 24.648C5.54463 24.648 4.49648 24.2724 3.72993 23.5212C2.96337 22.7701 2.57227 21.7685 2.57227 20.5165C2.57227 19.1863 3.04159 18.1065 3.99587 17.2927C4.95016 16.4789 6.21733 16.072 7.82867 16.072C8.36056 16.072 8.9081 16.119 9.48693 16.1972C10.0658 16.2755 10.6602 16.4007 11.286 16.5415V15.3991C11.286 14.2097 11.0357 13.3803 10.5507 12.8952C10.0501 12.41 9.20534 12.1753 8.00075 12.1753C7.45321 12.1753 6.89002 12.2379 6.31119 12.3787C5.73236 12.5196 5.16918 12.6917 4.62164 12.9108C4.37133 13.0204 4.1836 13.083 4.07409 13.1143C3.96459 13.1456 3.88637 13.1612 3.82379 13.1612C3.60477 13.1612 3.49526 13.0047 3.49526 12.6761V11.9092C3.49526 11.6589 3.52655 11.4711 3.60477 11.3615C3.68299 11.252 3.82379 11.1424 4.04281 11.0329C4.59035 10.7512 5.2474 10.5164 6.01396 10.3286C6.78051 10.1252 7.594 10.0313 8.45443 10.0313C10.3161 10.0313 11.6771 10.4538 12.5532 11.2989C13.4136 12.144 13.8516 13.4273 13.8516 15.1487V20.2192H13.8829ZM7.53143 22.5979C8.04768 22.5979 8.57958 22.504 9.14277 22.3162C9.70595 22.1284 10.2066 21.7841 10.629 21.3146C10.8793 21.0173 11.067 20.6887 11.1608 20.3131C11.2547 19.9375 11.3173 19.4836 11.3173 18.9516V18.2943C10.8636 18.1847 10.3786 18.0908 9.87804 18.0282C9.37743 17.9656 8.89246 17.9343 8.4075 17.9343C7.35934 17.9343 6.59279 18.1378 6.07653 18.5603C5.56028 18.9829 5.30997 19.5775 5.30997 20.36C5.30997 21.0955 5.4977 21.6433 5.8888 22.0189C6.26426 22.4101 6.8118 22.5979 7.53143 22.5979ZM20.0936 24.2881C19.812 24.2881 19.6243 24.2411 19.4991 24.1316C19.374 24.0377 19.2645 23.8186 19.1706 23.5212L15.4942 11.4241C15.4004 11.1111 15.3535 10.9077 15.3535 10.7981C15.3535 10.5477 15.4786 10.4069 15.7289 10.4069H17.262C17.5593 10.4069 17.7626 10.4538 17.8721 10.5634C17.9973 10.6573 18.0912 10.8764 18.185 11.1737L20.8132 21.5337L23.2537 11.1737C23.3319 10.8607 23.4258 10.6573 23.5509 10.5634C23.6761 10.4695 23.8951 10.4069 24.1767 10.4069H25.4282C25.7255 10.4069 25.9288 10.4538 26.054 10.5634C26.1791 10.6573 26.2886 10.8764 26.3512 11.1737L28.823 21.6589L31.5294 11.1737C31.6233 10.8607 31.7328 10.6573 31.8423 10.5634C31.9674 10.4695 32.1708 10.4069 32.4524 10.4069H33.9073C34.1576 10.4069 34.2984 10.5321 34.2984 10.7981C34.2984 10.8764 34.2827 10.9546 34.2671 11.0485C34.2515 11.1424 34.2202 11.2676 34.1576 11.4398L30.3874 23.5369C30.2935 23.8499 30.184 24.0533 30.0589 24.1472C29.9337 24.2411 29.7303 24.3037 29.4644 24.3037H28.119C27.8218 24.3037 27.6184 24.2568 27.4932 24.1472C27.3681 24.0377 27.2586 23.8342 27.196 23.5212L24.7712 13.4273L22.362 23.5056C22.2838 23.8186 22.1899 24.022 22.0647 24.1316C21.9396 24.2411 21.7206 24.2881 21.439 24.2881H20.0936ZM40.1962 24.7106C39.3827 24.7106 38.5692 24.6167 37.787 24.4289C37.0048 24.2411 36.3947 24.0377 35.9879 23.8029C35.7376 23.6621 35.5656 23.5056 35.503 23.3647C35.4404 23.2239 35.4091 23.0674 35.4091 22.9265V22.1284C35.4091 21.7998 35.5343 21.6433 35.7689 21.6433C35.8628 21.6433 35.9567 21.6589 36.0505 21.6902C36.1444 21.7215 36.2852 21.7841 36.4416 21.8467C36.9735 22.0815 37.5524 22.2693 38.1625 22.3945C38.7882 22.5197 39.3983 22.5823 40.0241 22.5823C41.0097 22.5823 41.7762 22.4101 42.3081 22.0658C42.84 21.7215 43.1216 21.2207 43.1216 20.5791C43.1216 20.1409 42.9808 19.781 42.6992 19.4836C42.4177 19.1863 41.8858 18.9203 41.1192 18.6699L38.8508 17.9656C37.7088 17.6057 36.864 17.0736 36.3478 16.3694C35.8315 15.6808 35.5656 14.914 35.5656 14.1002C35.5656 13.4429 35.7064 12.8639 35.9879 12.3631C36.2695 11.8623 36.645 11.4241 37.1143 11.0798C37.5836 10.7199 38.1155 10.4538 38.7413 10.266C39.3671 10.0782 40.0241 10 40.7124 10C41.0566 10 41.4164 10.0156 41.7606 10.0626C42.1204 10.1095 42.4489 10.1721 42.7775 10.2347C43.0903 10.313 43.3876 10.3912 43.6692 10.4851C43.9508 10.579 44.1698 10.6729 44.3262 10.7668C44.5452 10.892 44.7017 11.0172 44.7955 11.1581C44.8894 11.2833 44.9363 11.4554 44.9363 11.6745V12.41C44.9363 12.7387 44.8112 12.9108 44.5765 12.9108C44.4514 12.9108 44.248 12.8482 43.9821 12.723C43.0903 12.3161 42.0891 12.1127 40.9784 12.1127C40.0867 12.1127 39.3827 12.2535 38.8977 12.5509C38.4128 12.8482 38.1625 13.3021 38.1625 13.9437C38.1625 14.3819 38.3189 14.7575 38.6318 15.0548C38.9447 15.3522 39.5235 15.6495 40.3526 15.9155L42.5741 16.6198C43.7005 16.9797 44.514 17.4805 44.9989 18.1221C45.4839 18.7638 45.7185 19.4993 45.7185 20.3131C45.7185 20.986 45.5777 21.5963 45.3118 22.1284C45.0302 22.6605 44.6548 23.13 44.1698 23.5056C43.6848 23.8968 43.106 24.1785 42.4333 24.382C41.7293 24.6011 40.994 24.7106 40.1962 24.7106Z" fill="#FEF4E1"/>
<path fill-rule="evenodd" clip-rule="evenodd" d="M43.153 32.3157C38.0061 36.1186 30.5282 38.1374 24.0985 38.1374C15.0876 38.1374 6.96829 34.804 0.835823 29.2641C0.350857 28.8259 0.788891 28.2312 1.36772 28.5755C8.0008 32.4253 16.1826 34.7571 24.6461 34.7571C30.3561 34.7571 36.6294 33.5677 42.4021 31.1264C43.2625 30.7351 43.9978 31.6897 43.153 32.3157Z" fill="#FEF4E1"/>
<path fill-rule="evenodd" clip-rule="evenodd" d="M45.2956 29.875C44.6385 29.0299 40.9465 29.4681 39.2726 29.6715C38.772 29.7341 38.6938 29.296 39.1475 28.9673C42.0886 26.9016 46.9226 27.4963 47.4858 28.1848C48.0489 28.8891 47.3293 33.7248 44.576 36.0409C44.1536 36.4009 43.7468 36.2131 43.9346 35.7436C44.5603 34.1943 45.9526 30.7044 45.2956 29.875Z" fill="#FEF4E1"/>
</g>
<defs>
<clipPath id="clip0_332_632">
<rect width="48" height="28.1379" fill="white" transform="translate(0.199707 10)"/>
</clipPath>
</defs>
</svg>
