<svg width="72" height="73" viewBox="0 0 72 73" fill="none" xmlns="http://www.w3.org/2000/svg">
<g clip-path="url(#clip0_558_8)">
<path fill-rule="evenodd" clip-rule="evenodd" d="M41.3915 39.1923C42.3827 39.1923 43.1863 39.9959 43.1863 40.9872V53.7308C47.2827 54.5623 50.3658 58.1839 50.3658 62.5256C50.3658 67.482 46.3479 71.5 41.3915 71.5C36.4351 71.5 32.4171 67.482 32.4171 62.5256C32.4171 58.1839 35.5002 54.5623 39.5966 53.7308V40.9872C39.5966 39.9959 40.4001 39.1923 41.3915 39.1923ZM41.3915 57.141C38.4176 57.141 36.0068 59.5518 36.0068 62.5256C36.0068 65.4995 38.4176 67.9103 41.3915 67.9103C44.3653 67.9103 46.7761 65.4995 46.7761 62.5256C46.7761 59.5518 44.3653 57.141 41.3915 57.141ZM36.3675 42.5094C36.8632 43.3678 36.5691 44.4656 35.7106 44.9612L24.6743 51.333C26.0023 55.2963 24.4075 59.7772 20.6475 61.9481C16.3551 64.4263 10.8665 62.9556 8.38826 58.6632C5.91008 54.3709 7.38073 48.8822 11.6731 46.404C15.4331 44.2332 20.1111 45.0924 22.8794 48.2242L33.9157 41.8524C34.7742 41.3567 35.8719 41.6509 36.3675 42.5094ZM13.468 49.5128C10.8925 50.9997 10.0101 54.2929 11.4971 56.8683C12.984 59.4438 16.2772 60.3262 18.8526 58.8392C21.428 57.3523 22.3104 54.0592 20.8235 51.4837C19.3366 48.9083 16.0434 48.0259 13.468 49.5128ZM43.4826 32.526L54.5189 38.8978C57.2872 35.766 61.9652 34.9067 65.7252 37.0776C70.0176 39.5558 71.4882 45.0444 69.01 49.3368C66.5319 53.6291 61.0432 55.0998 56.7508 52.6216C52.9908 50.4508 51.396 45.9699 52.724 42.0066L41.6877 35.6348C40.8292 35.1391 40.5351 34.0414 41.0308 33.1829C41.5264 32.3245 42.6241 32.0303 43.4826 32.526ZM56.5748 42.1573C55.0879 44.7327 55.9703 48.0259 58.5457 49.5128C61.1211 50.9997 64.4143 50.1173 65.9012 47.5419C67.3881 44.9665 66.5057 41.6733 63.9303 40.1864C61.3549 38.6995 58.0617 39.5819 56.5748 42.1573ZM15.2628 20.3784C19.0229 22.5492 20.6177 27.0301 19.2897 30.9934L30.326 37.3652C31.1845 37.8609 31.4786 38.9586 30.9829 39.8171C30.4873 40.6755 29.3896 40.9697 28.5311 40.474L17.4948 34.1022C14.7265 37.234 10.0485 38.0933 6.28848 35.9224C1.99611 33.4442 0.525438 27.9556 3.00364 23.6632C5.48182 19.3709 10.9705 17.9002 15.2628 20.3784ZM30.6222 1.5C35.5786 1.5 39.5966 5.51796 39.5966 10.4744C39.5966 14.8161 36.5134 18.4377 32.4171 19.2692V32.0128C32.4171 33.0041 31.6135 33.8077 30.6222 33.8077C29.6309 33.8077 28.8274 33.0041 28.8274 32.0128V19.2692C24.731 18.4377 21.6479 14.8161 21.6479 10.4744C21.6479 5.51796 25.6658 1.5 30.6222 1.5ZM6.11245 25.4581C4.62553 28.0335 5.50793 31.3267 8.08336 32.8136C10.6588 34.3005 13.952 33.4181 15.4389 30.8427C16.9258 28.2673 16.0434 24.9741 13.468 23.4872C10.8925 22.0003 7.59937 22.8827 6.11245 25.4581ZM63.6254 14.3368C66.1036 18.6291 64.6329 24.1178 60.3406 26.596C56.5806 28.7668 51.9026 27.9076 49.1343 24.7758L38.098 31.1476C37.2395 31.6433 36.1418 31.3491 35.6461 30.4906C35.1505 29.6322 35.4446 28.5344 36.3031 28.0388L47.3394 21.667C46.0114 17.7037 47.6062 13.2228 51.3662 11.0519C55.6586 8.57374 61.1472 10.0444 63.6254 14.3368ZM53.1611 14.1608C50.5857 15.6477 49.7033 18.9409 51.1902 21.5163C52.6771 24.0917 55.9703 24.9741 58.5457 23.4872C61.1211 22.0003 62.0035 18.7071 60.5166 16.1317C59.0297 13.5562 55.7365 12.6738 53.1611 14.1608ZM30.6222 5.08974C27.6484 5.08974 25.2376 7.50052 25.2376 10.4744C25.2376 13.4482 27.6484 15.859 30.6222 15.859C33.5961 15.859 36.0068 13.4482 36.0068 10.4744C36.0068 7.50052 33.5961 5.08974 30.6222 5.08974Z" fill="black"/>
</g>
<defs>
<clipPath id="clip0_558_8">
<rect width="68.4141" height="70" fill="white" transform="translate(1.7998 1.5)"/>
</clipPath>
</defs>
</svg>
