<svg width="72" height="73" viewBox="0 0 72 73" fill="none" xmlns="http://www.w3.org/2000/svg">
<path d="M52.2089 44.5384C54.4059 44.7696 56.0291 46.751 55.4722 48.8888C54.4444 52.8343 52.5206 56.5096 49.8291 59.6191C46.2607 63.7416 41.5144 66.6711 36.2298 68.0131C30.9452 69.355 25.3762 69.0447 20.2733 67.1241C15.1704 65.2036 10.7789 61.7649 7.69049 57.2716C4.60209 52.7783 2.96526 47.4462 3.00056 41.994C3.03586 36.5418 4.74161 31.2314 7.88794 26.7784C11.0343 22.3255 15.47 18.944 20.5973 17.0896C24.4647 15.691 28.5853 15.2118 32.637 15.6659C34.8324 15.912 36.1008 18.1374 35.5294 20.2713L29.6667 42.1667L52.2089 44.5384Z" stroke="black" stroke-width="4" stroke-linecap="round" stroke-linejoin="round"/>
<circle cx="18.1667" cy="33.6667" r="4.16667" fill="black"/>
<path fill-rule="evenodd" clip-rule="evenodd" d="M54.158 12.0967C54.158 10.9921 53.2626 10.0967 52.158 10.0967C51.0534 10.0967 50.158 10.9921 50.158 12.0967C50.158 15.182 49.5506 17.448 48.406 19.4027C47.2385 21.3966 45.4288 23.2113 42.7768 25.2614C41.9029 25.9369 41.7422 27.193 42.4177 28.0669C43.0933 28.9408 44.3494 29.1016 45.2233 28.426C48.0456 26.2442 50.3149 24.0589 51.8578 21.4239C53.4236 18.7499 54.158 15.7584 54.158 12.0967ZM48.5248 36.6848C51.1604 33.5798 58.7482 28.0687 67.8375 30.5531C68.903 30.8443 70.0029 30.2166 70.2941 29.1512C70.5853 28.0857 69.9577 26.9858 68.8922 26.6946C57.6945 23.634 48.6299 30.3798 45.4752 34.0963C44.7604 34.9384 44.8636 36.2005 45.7057 36.9153C46.5478 37.6301 47.81 37.5269 48.5248 36.6848Z" fill="black"/>
</svg>
