<svg width="3567" height="1143" viewBox="0 0 3567 1143" fill="none" xmlns="http://www.w3.org/2000/svg">
<path d="M2715.44 710.562C2726.16 702.725 2735.86 693.237 2744.52 682.1C2753.18 670.55 2760.4 664.775 2766.18 664.775C2772.36 664.775 2775.46 673.85 2775.46 692C2775.46 709.737 2770.3 726.65 2759.99 742.737C2750.09 758.412 2736.89 771.612 2720.39 782.337C2686.56 804.612 2646.55 815.75 2600.35 815.75C2544.25 815.75 2500.73 801.725 2469.79 773.675C2438.86 745.625 2423.39 706.644 2423.39 656.731C2423.39 595.269 2438.24 536.9 2467.94 481.625C2477.84 463.475 2488.98 446.769 2501.35 431.506C2491.86 420.369 2484.23 408.819 2478.46 396.856C2473.09 384.481 2470.41 375.2 2470.41 369.012C2470.41 357.875 2474.54 352.306 2482.79 352.306C2488.56 352.719 2495.16 356.637 2502.59 364.062L2521.77 382.625C2526.72 387.575 2531.88 391.7 2537.24 395C2578.08 360.35 2622.01 343.025 2669.03 343.025C2716.47 343.025 2747.2 356.225 2761.23 382.625C2766.18 392.525 2768.65 404.694 2768.65 419.131C2768.65 440.994 2759.16 459.35 2740.19 474.2C2721.21 489.05 2695.64 496.475 2663.46 496.475C2631.7 496.475 2598.7 489.875 2564.46 476.675C2535.18 526.587 2520.53 578.769 2520.53 633.219C2520.53 708.706 2550.64 746.45 2610.87 746.45C2647.99 746.45 2682.85 734.487 2715.44 710.562ZM2594.16 438.312C2615.2 445.325 2638.09 448.831 2662.84 448.831C2687.59 448.831 2699.97 442.025 2699.97 428.412C2699.97 412.325 2689.86 404.281 2669.65 404.281C2642.01 404.281 2616.85 415.625 2594.16 438.312Z" fill="black"/>
<path d="M3130.51 664.775C3137.94 664.775 3141.65 674.262 3141.65 693.237C3141.65 703.55 3137.32 716.131 3128.66 730.981C3119.99 745.419 3108.65 758.825 3094.62 771.2C3081.01 783.162 3065.75 793.062 3048.84 800.9C3031.93 808.737 3015.43 812.656 2999.34 812.656C2977.47 812.656 2962.83 793.475 2955.41 755.112C2944.68 772.85 2930.66 787.494 2913.33 799.044C2896.01 810.181 2872.7 815.75 2843.41 815.75C2814.54 815.75 2791.23 806.675 2773.49 788.525C2755.76 770.375 2747.09 748.306 2747.51 722.319C2747.51 652.194 2770.81 596.919 2817.42 556.494C2837.22 539.581 2855.58 528.444 2872.49 523.081C2889.82 517.719 2907.97 515.037 2926.94 515.037C2945.92 515.037 2961.39 518.337 2973.35 524.937C2979.12 512.975 2985.72 506.994 2993.15 506.994C3007.59 506.994 3021.2 513.387 3033.99 526.175C3047.19 538.55 3053.79 550.306 3053.79 561.444C3048.01 575.056 3039.56 591.35 3028.42 610.325C3025.12 629.3 3023.47 655.906 3023.47 690.144C3023.47 724.381 3027.8 741.5 3036.46 741.5C3047.19 741.5 3073.18 720.05 3114.43 677.15C3121.85 668.9 3127.21 664.775 3130.51 664.775ZM2838.46 701.9C2838.46 733.662 2850.22 749.544 2873.73 749.544C2898.89 749.131 2919.72 735.725 2936.22 709.325C2942 700.25 2946.74 689.112 2950.46 675.912C2950.46 629.712 2954.58 590.112 2962.83 557.112C2929.42 563.712 2900.34 579.8 2875.59 605.375C2850.84 630.95 2838.46 663.125 2838.46 701.9Z" fill="black"/>
<path d="M3144.14 777.387C3139.61 766.25 3136.31 753.462 3134.24 739.025C3132.18 724.175 3131.15 703.55 3131.15 677.15C3131.15 650.75 3136.1 615.069 3146 570.106H3118.16C3113.21 570.106 3110.73 568.044 3110.73 563.919C3110.73 554.019 3111.56 545.975 3113.21 539.787C3115.27 533.187 3119.81 525.762 3126.82 517.512H3141.67C3147.44 517.512 3153.63 517.306 3160.23 516.894C3180.03 453.369 3200.24 421.606 3220.87 421.606C3237.37 422.019 3248.92 432.537 3255.52 453.162C3257.17 458.937 3259.03 465.125 3261.09 471.725L3235.72 516.275C3264.59 517.1 3282.74 517.512 3290.17 517.512C3298.01 517.512 3302.13 518.337 3302.54 519.987C3303.37 521.225 3303.78 523.287 3303.78 526.175C3303.78 533.6 3301.93 542.881 3298.21 554.019C3294.91 565.156 3290.99 570.519 3286.46 570.106L3224.58 567.012C3215.92 617.337 3211.59 659 3211.59 692C3211.59 725 3216.33 741.5 3225.82 741.5C3233.66 741.5 3247.89 735.106 3268.51 722.319C3289.14 709.119 3303.99 696.537 3313.06 684.575C3322.14 672.612 3329.56 666.631 3335.34 666.631C3341.11 666.631 3344 673.644 3344 687.669C3344 701.694 3339.05 716.131 3329.15 730.981C3319.25 745.419 3306.67 758.825 3291.41 771.2C3276.56 783.162 3259.85 793.062 3241.29 800.9C3223.14 808.737 3207.26 812.656 3193.64 812.656C3180.03 812.656 3169.51 809.562 3162.09 803.375C3155.08 796.775 3149.09 788.112 3144.14 777.387Z" fill="black"/>
<path d="M1111.73 783.775C1111.73 808.112 1088.02 820.281 1040.58 820.281C1030.27 820.281 1024.08 815.125 1022.02 804.812C1020.37 794.087 1019.54 779.237 1019.54 760.262C1019.54 720.25 1027.58 670.75 1043.67 611.762C1070.48 514.412 1099.15 457.075 1129.68 439.75C1133.8 437.275 1138.34 436.037 1143.29 436.037C1148.24 436.037 1150.72 444.081 1150.72 460.169C1150.72 476.256 1149.89 490.487 1148.24 502.862C1144.94 527.612 1138.96 559.581 1130.3 598.769C1122.05 637.956 1117.92 661.056 1117.92 668.069L1111.73 783.775ZM1153.81 617.331C1153.81 611.969 1156.7 608.462 1162.47 606.812C1168.66 605.162 1176.29 603.719 1185.37 602.481C1194.44 600.831 1204.34 598.562 1215.07 595.675C1225.79 592.787 1235.69 587.425 1244.77 579.587C1265.8 561.437 1276.32 531.119 1276.32 488.631C1276.32 461.406 1267.04 440.575 1248.48 426.137C1230.33 411.7 1203.93 404.481 1169.28 404.481C1135.04 404.481 1102.87 411.7 1072.75 426.137C1061.62 431.5 1051.51 436.45 1042.43 440.987C1033.77 445.525 1025.73 447.794 1018.3 447.794C1010.88 447.794 1007.17 445.525 1007.17 440.987C1007.17 433.975 1013.97 422.425 1027.58 406.337C1041.2 391.487 1062.65 377.669 1091.93 364.881C1121.63 352.094 1152.78 345.7 1185.37 345.7C1246.83 345.287 1294.68 359.725 1328.92 389.012C1358.62 414.587 1373.47 447.794 1373.47 488.631C1373.47 529.056 1358.82 565.356 1329.53 597.531C1300.25 629.294 1263.53 645.175 1219.4 645.175C1175.67 645.175 1153.81 635.894 1153.81 617.331Z" fill="black"/>
<path d="M1505.45 743.556C1537.62 743.556 1568.77 730.769 1598.88 705.194C1610.02 695.706 1619.09 687.044 1626.1 679.206C1633.12 670.956 1638.48 666.831 1642.19 666.831C1647.97 666.831 1650.85 672.606 1650.85 684.156C1650.85 695.706 1647.76 708.7 1641.57 723.137C1635.39 737.162 1625.07 750.981 1610.64 764.594C1575.16 798.006 1526.49 814.712 1464.61 814.712C1415.52 814.712 1382.11 796.975 1364.37 761.5C1358.19 749.125 1355.09 731.387 1355.09 708.287C1355.09 685.187 1359.63 661.262 1368.7 636.512C1377.78 611.35 1389.74 589.694 1404.59 571.544C1419.85 553.394 1437.39 539.369 1457.19 529.469C1476.99 519.156 1498.02 514 1520.3 514C1542.99 514 1560.31 519.569 1572.27 530.706C1584.65 541.844 1590.84 556.281 1590.84 574.019C1590.84 591.756 1586.3 606.4 1577.22 617.95C1568.56 629.087 1557.22 638.575 1543.19 646.412C1529.17 653.837 1513.49 660.644 1496.17 666.831C1479.25 672.606 1462.55 679.206 1446.05 686.631V702.1C1446.46 716.95 1452.65 727.469 1464.61 733.656C1476.57 739.844 1490.19 743.144 1505.45 743.556ZM1494.93 569.069C1473.48 569.069 1458.63 594.025 1450.38 643.937C1459.04 638.162 1467.09 633.006 1474.51 628.469C1482.35 623.931 1489.15 619.6 1494.93 615.475C1507.3 606.4 1513.7 596.087 1514.11 584.537C1514.11 574.225 1507.72 569.069 1494.93 569.069Z" fill="black"/>
<path d="M1640.94 777.587C1636.4 766.45 1633.1 753.662 1631.04 739.225C1628.97 724.375 1627.94 703.75 1627.94 677.35C1627.94 650.95 1632.89 615.269 1642.79 570.306H1614.95C1610 570.306 1607.52 568.244 1607.52 564.119C1607.52 554.219 1608.35 546.175 1610 539.987C1612.06 533.387 1616.6 525.962 1623.61 517.712H1638.46C1644.24 517.712 1650.42 517.506 1657.02 517.094C1676.82 453.569 1697.04 421.806 1717.66 421.806C1734.16 422.219 1745.71 432.737 1752.31 453.362C1753.96 459.137 1755.82 465.325 1757.88 471.925L1732.51 516.475C1761.39 517.3 1779.54 517.712 1786.96 517.712C1794.8 517.712 1798.92 518.537 1799.34 520.187C1800.16 521.425 1800.57 523.487 1800.57 526.375C1800.57 533.8 1798.72 543.081 1795 554.219C1791.7 565.356 1787.79 570.719 1783.25 570.306L1721.37 567.212C1712.71 617.537 1708.38 659.2 1708.38 692.2C1708.38 725.2 1713.12 741.7 1722.61 741.7C1730.45 741.7 1744.68 735.306 1765.3 722.519C1785.93 709.319 1800.78 696.737 1809.85 684.775C1818.93 672.812 1826.35 666.831 1832.13 666.831C1837.9 666.831 1840.79 673.844 1840.79 687.869C1840.79 701.894 1835.84 716.331 1825.94 731.181C1816.04 745.619 1803.46 759.025 1788.2 771.4C1773.35 783.362 1756.64 793.262 1738.08 801.1C1719.93 808.937 1704.05 812.856 1690.44 812.856C1676.82 812.856 1666.3 809.762 1658.88 803.575C1651.87 796.975 1645.89 788.312 1640.94 777.587Z" fill="black"/>
<path d="M1948.07 743.556C1980.25 743.556 2011.39 730.769 2041.5 705.194C2052.64 695.706 2061.72 687.044 2068.73 679.206C2075.74 670.956 2081.1 666.831 2084.82 666.831C2090.59 666.831 2093.48 672.606 2093.48 684.156C2093.48 695.706 2090.38 708.7 2084.2 723.137C2078.01 737.162 2067.7 750.981 2053.26 764.594C2017.78 798.006 1969.11 814.712 1907.23 814.712C1858.15 814.712 1824.73 796.975 1807 761.5C1800.81 749.125 1797.72 731.387 1797.72 708.287C1797.72 685.187 1802.25 661.262 1811.33 636.512C1820.4 611.35 1832.37 589.694 1847.22 571.544C1862.48 553.394 1880.01 539.369 1899.81 529.469C1919.61 519.156 1940.65 514 1962.92 514C1985.61 514 2002.93 519.569 2014.9 530.706C2027.27 541.844 2033.46 556.281 2033.46 574.019C2033.46 591.756 2028.92 606.4 2019.85 617.95C2011.18 629.087 1999.84 638.575 1985.82 646.412C1971.79 653.837 1956.12 660.644 1938.79 666.831C1921.88 672.606 1905.17 679.206 1888.67 686.631V702.1C1889.08 716.95 1895.27 727.469 1907.23 733.656C1919.2 739.844 1932.81 743.144 1948.07 743.556ZM1937.55 569.069C1916.1 569.069 1901.25 594.025 1893 643.937C1901.67 638.162 1909.71 633.006 1917.13 628.469C1924.97 623.931 1931.78 619.6 1937.55 615.475C1949.93 606.4 1956.32 596.087 1956.73 584.537C1956.73 574.225 1950.34 569.069 1937.55 569.069Z" fill="black"/>
<path d="M2324 606.931C2333.07 606.931 2340.7 610.231 2346.89 616.831C2353.49 623.019 2356.79 630.856 2356.79 640.344C2356.79 645.706 2355.55 651.481 2353.08 657.669C2346.48 672.931 2337.2 685.719 2325.24 696.031C2313.27 706.344 2300.07 711.5 2285.64 711.5C2274.09 711.5 2264.19 707.375 2255.94 699.125C2248.1 690.875 2244.18 679.737 2244.18 665.712C2244.18 657.875 2244.59 649.419 2245.42 640.344C2246.24 633.744 2246.65 629.206 2246.65 626.731C2246.65 623.431 2245.83 620.956 2244.18 619.306C2242.94 617.656 2241.29 616.831 2239.23 616.831C2233.45 616.831 2225.62 623.844 2215.72 637.869C2205.82 651.481 2195.92 669.631 2186.02 692.319C2176.12 715.006 2168.07 738.931 2161.89 764.094C2157.35 783.894 2152.19 797.094 2146.42 803.694C2140.64 810.294 2131.15 813.594 2117.95 813.594C2102.28 813.594 2091.14 805.344 2084.54 788.844C2078.35 772.344 2075.26 745.944 2075.26 709.644C2075.26 656.019 2082.89 605.075 2098.15 556.812C2101.87 544.85 2107.85 536.187 2116.1 530.825C2124.76 525.05 2136.72 522.162 2151.99 522.162C2160.24 522.162 2166.01 523.194 2169.31 525.256C2172.61 527.319 2174.26 531.237 2174.26 537.012C2174.26 543.612 2171.17 558.462 2164.98 581.562C2160.85 598.062 2157.55 612.5 2155.08 624.875C2152.6 637.25 2150.54 652.512 2148.89 670.662C2162.5 635.187 2177.77 606.312 2194.68 584.037C2211.59 561.762 2228.09 545.881 2244.18 536.394C2260.27 526.906 2274.91 522.162 2288.11 522.162C2300.07 522.162 2309.15 525.669 2315.34 532.681C2321.94 539.281 2325.24 549.181 2325.24 562.381C2325.24 570.219 2322.97 585.069 2318.43 606.931H2324Z" fill="black"/>
<path fill-rule="evenodd" clip-rule="evenodd" d="M623.272 826.213C623.989 826.483 624.65 826.885 625.221 827.396L643.372 843.656C645.847 845.874 646.755 849.357 645.677 852.501C640.978 866.201 641.206 877.664 646.359 886.889C656.266 904.625 675.265 931.738 710.034 960.67L711.139 960.853C728.749 963.859 742.875 970.322 744.932 979.233C748.742 995.737 715.32 1016.65 684.595 1024.64C653.87 1032.63 628.888 1023.5 625.078 1007C621.464 991.348 630.748 970.321 659.066 962.481C637.367 940.462 623.194 920.078 614.377 902.932C604.219 883.18 604.412 859.099 614.954 830.689L615.277 829.827C616.486 826.621 620.066 825.003 623.272 826.213ZM311.666 857.102C312.599 857.377 313.454 857.867 314.163 858.533L332.206 875.501C334.426 877.588 335.318 880.726 334.53 883.669C331.901 893.463 332.907 903.724 337.546 914.454C345.406 932.635 360.677 945.369 384.704 962.552L385.811 962.739C403.261 965.77 417.217 972.206 419.261 981.06C423.071 997.564 389.65 1018.48 358.925 1026.47C328.2 1034.45 303.218 1025.33 299.408 1008.83C295.883 993.562 304.625 973.185 331.327 964.914C319.436 953.297 310.522 941.334 304.163 927.328C296.21 909.816 296.144 887.807 303.964 861.303C304.93 858.016 308.379 856.135 311.666 857.102Z" fill="#FFAF53"/>
<path fill-rule="evenodd" clip-rule="evenodd" d="M323.887 304.677C280.627 327.7 227.84 331.083 181.633 314.763C165.754 309.155 149.215 304.423 134.127 302.22C133.676 302.154 133.197 302.085 132.695 302.015C123.402 300.704 114.792 308.72 117.177 317.798C128.868 362.295 167.021 451.74 167.021 451.74C167.021 451.74 173.163 546.992 194.546 649.405C202.842 689.138 206.59 738.706 208.07 784.495C209.789 837.677 271.803 868.249 304.131 825.986C306.453 828.902 308.992 831.807 311.697 834.682C349.71 875.077 414.421 852.414 445.342 806.365C450.623 811.053 455.957 815.522 461.279 819.769C510.263 858.856 581.224 835.802 601.017 776.342C605.006 782.188 610.596 788.755 617.038 795.559C648.925 829.24 703.846 812.74 717.205 768.325C765.767 805.42 826.394 794.355 818.25 733.792C810.036 672.718 790.329 594.417 748.081 500.856C689.088 370.212 558.043 172.4 527.349 130.423C525.72 128.196 522.619 124.717 519.123 120.986C510.481 111.76 494.832 113.317 489.642 124.844C476.244 154.598 464.656 178.796 454.88 197.437C428.62 247.508 376.303 277.469 326.115 303.506C325.373 303.891 324.63 304.281 323.887 304.677Z" fill="#27272A"/>
<path fill-rule="evenodd" clip-rule="evenodd" d="M521.211 475.809C554.448 468.744 575.087 433.356 567.31 396.767C559.533 360.178 526.284 336.244 493.047 343.308C459.809 350.373 439.17 385.762 446.947 422.351C454.724 458.94 487.973 482.874 521.211 475.809ZM527.107 438.896C539.676 436.224 547.48 422.842 544.539 409.006C541.598 395.17 529.025 386.119 516.457 388.79C503.888 391.462 496.083 404.844 499.024 418.68C501.965 432.516 514.538 441.567 527.107 438.896Z" fill="white"/>
<path fill-rule="evenodd" clip-rule="evenodd" d="M290.071 541.44C316.605 535.8 333.061 507.454 326.828 478.127C320.594 448.8 294.031 429.597 267.497 435.237C240.963 440.877 224.506 469.224 230.74 498.551C236.973 527.878 263.537 547.08 290.071 541.44ZM294.961 511.825C304.994 509.692 311.218 498.973 308.86 487.883C306.503 476.793 296.458 469.531 286.424 471.664C276.39 473.797 270.167 484.516 272.524 495.606C274.882 506.696 284.927 513.957 294.961 511.825Z" fill="white"/>
</svg>
