<svg width="3752" height="940" viewBox="0 0 3752 940" fill="none" xmlns="http://www.w3.org/2000/svg">
<path fill-rule="evenodd" clip-rule="evenodd" d="M528.327 718.685C529.021 718.946 529.66 719.335 530.213 719.829L547.766 735.554C550.159 737.699 551.037 741.067 549.995 744.107C545.451 757.356 545.671 768.442 550.654 777.363C560.235 794.515 578.608 820.735 612.233 848.714L613.302 848.891C630.332 851.799 643.992 858.048 645.981 866.666C649.666 882.627 617.345 902.854 587.632 910.577C557.919 918.3 533.759 909.479 530.074 893.519C526.58 878.382 535.557 858.048 562.943 850.466C541.959 829.172 528.252 809.459 519.726 792.878C509.903 773.776 510.088 750.488 520.283 723.014L520.596 722.18C521.765 719.08 525.227 717.515 528.327 718.685ZM226.991 748.555C227.893 748.82 228.721 749.294 229.406 749.938L246.855 766.348C249.001 768.367 249.865 771.401 249.102 774.247C246.56 783.718 247.533 793.642 252.019 804.018C259.621 821.6 274.388 833.915 297.624 850.533L298.695 850.713C315.57 853.644 329.067 859.868 331.043 868.431C334.728 884.391 302.407 904.619 272.694 912.342C242.981 920.065 218.821 911.243 215.136 895.283C211.728 880.521 220.182 860.815 246.005 852.816C234.506 841.582 225.885 830.013 219.735 816.469C212.044 799.533 211.98 778.249 219.542 752.617C220.477 749.438 223.812 747.619 226.991 748.555Z" fill="url(#paint0_linear_581_50)"/>
<path fill-rule="evenodd" clip-rule="evenodd" d="M188.726 244.204C178.753 250.922 165.766 252.003 154.943 246.761C131.646 235.477 89.591 216.955 55.2888 211.946C54.8525 211.882 54.389 211.816 53.9039 211.747C44.9163 210.48 36.5898 218.232 38.8963 227.011V227.011C50.203 270.043 87.0993 356.543 87.0993 356.543C87.0993 356.543 93.039 448.657 113.718 547.698C129.796 624.702 128.209 739.898 126.707 787.349C126.437 795.875 136.141 800.837 142.69 795.372C162.857 778.544 196.781 748.419 219.694 718.464C240.565 744.684 279.594 769.896 297.512 780.701C302.544 783.736 309.024 781.617 311.611 776.34C318.718 761.845 333.838 732.875 356.256 699.49C395.228 734.085 437.161 756.36 454.691 764.908C459.427 767.217 464.994 765.228 467.339 760.51C476.274 742.537 497.15 699.459 506.804 670.455C521.904 692.588 560.744 725.4 579.816 740.885C585.135 745.204 593.018 742.854 595.217 736.366C601.308 718.397 612.206 685.843 619.166 662.703C648.008 684.734 683.43 733.195 701.527 759.416C706.341 766.391 716.47 764.686 717.79 756.315C725.111 709.879 731.729 587.194 649.025 404.041C591.975 277.699 465.246 86.4006 435.562 45.8066C433.986 43.6526 430.987 40.2884 427.607 36.6797C419.249 27.7573 404.116 29.2632 399.096 40.4107V40.4107C386.139 69.1856 374.934 92.5866 365.479 110.614C361.083 118.996 354.499 130.963 347.829 142.923C332.485 170.437 304.509 188.302 274.768 198.692C263.506 202.626 251.175 207.736 238.8 214.322C216.891 225.981 199.973 236.628 188.726 244.204Z" fill="url(#paint1_linear_581_50)"/>
<path fill-rule="evenodd" clip-rule="evenodd" d="M188.726 244.204C178.753 250.922 165.766 252.003 154.943 246.761C131.646 235.477 89.591 216.955 55.2888 211.946C54.8525 211.882 54.389 211.816 53.9039 211.747C44.9163 210.48 36.5898 218.232 38.8963 227.011V227.011C50.203 270.043 87.0993 356.543 87.0993 356.543C87.0993 356.543 93.039 448.657 113.718 547.698C129.796 624.702 128.209 739.898 126.707 787.349C126.437 795.875 136.141 800.837 142.69 795.372C162.857 778.544 196.781 748.419 219.694 718.464C240.565 744.684 279.594 769.896 297.512 780.701C302.544 783.736 309.024 781.617 311.611 776.34C318.718 761.845 333.838 732.875 356.256 699.49C395.228 734.085 437.161 756.36 454.691 764.908C459.427 767.217 464.994 765.228 467.339 760.51C476.274 742.537 497.15 699.459 506.804 670.455C521.904 692.588 560.744 725.4 579.816 740.885C585.135 745.204 593.018 742.854 595.217 736.366C601.308 718.397 612.206 685.843 619.166 662.703C648.008 684.734 683.43 733.195 701.527 759.416C706.341 766.391 716.47 764.686 717.79 756.315C725.111 709.879 731.729 587.194 649.025 404.041C591.975 277.699 465.246 86.4006 435.562 45.8066C433.986 43.6526 430.987 40.2884 427.607 36.6797C419.249 27.7573 404.116 29.2632 399.096 40.4107V40.4107C386.139 69.1856 374.934 92.5866 365.479 110.614C361.083 118.996 354.499 130.963 347.829 142.923C332.485 170.437 304.509 188.302 274.768 198.692C263.506 202.626 251.175 207.736 238.8 214.322C216.891 225.981 199.973 236.628 188.726 244.204Z" fill="url(#paint2_radial_581_50)"/>
<path fill-rule="evenodd" clip-rule="evenodd" d="M429.628 379.822C461.77 372.99 481.73 338.767 474.209 303.382C466.688 267.998 434.534 244.852 402.391 251.684C370.248 258.517 350.288 292.74 357.81 328.124C365.331 363.508 397.485 386.654 429.628 379.822ZM435.33 344.125C447.485 341.541 455.033 328.6 452.189 315.219C449.345 301.839 437.186 293.086 425.031 295.67C412.876 298.253 405.328 311.195 408.172 324.575C411.017 337.956 423.176 346.709 435.33 344.125Z" fill="white"/>
<path fill-rule="evenodd" clip-rule="evenodd" d="M206.09 443.284C231.75 437.829 247.665 410.416 241.636 382.055C235.608 353.694 209.919 335.124 184.259 340.578C158.599 346.032 142.684 373.445 148.712 401.807C154.741 430.168 180.429 448.738 206.09 443.284ZM210.809 414.64C220.512 412.578 226.531 402.211 224.251 391.486C221.971 380.762 212.257 373.739 202.554 375.802C192.85 377.864 186.832 388.231 189.112 398.956C191.391 409.68 201.105 416.703 210.809 414.64Z" fill="white"/>
<path d="M1059.74 317.645C1061.21 312.762 1063.89 309.1 1067.8 306.658C1071.71 303.729 1076.1 302.264 1080.98 302.264H1135.18C1140.55 302.264 1145.19 303.729 1149.1 306.658C1153 309.1 1155.69 312.762 1157.15 317.645L1282.4 712.42C1283.86 716.814 1284.6 720.477 1284.6 723.406C1284.6 736.59 1276.78 743.182 1261.16 743.182H1223.07C1211.84 743.182 1204.52 737.811 1201.1 727.068L1179.86 656.023V656.756H1033.38L1012.13 727.068C1011.16 731.951 1008.72 735.857 1004.81 738.787C1000.9 741.717 996.266 743.182 990.895 743.182H955.738C948.414 743.182 942.555 741.473 938.16 738.055C934.254 734.148 932.301 729.266 932.301 723.406C932.301 721.941 932.301 720.477 932.301 719.012C932.789 717.059 933.277 714.861 933.766 712.42L1059.74 317.645ZM1053.15 593.035H1160.82L1106.62 410.662L1053.15 593.035ZM1394.46 809.1C1417.41 819.842 1439.38 825.213 1460.38 825.213C1478.93 825.213 1494.56 819.598 1507.25 808.367C1519.95 797.625 1526.54 779.07 1527.03 752.703V736.59C1517.75 742.449 1507.74 746.6 1497 749.041C1486.74 751.482 1476.25 752.703 1465.5 752.703C1445 752.703 1425.95 749.041 1408.38 741.717C1391.29 734.393 1376.64 723.895 1364.43 710.223C1352.22 696.062 1342.7 679.217 1335.87 659.686C1329.03 640.154 1325.61 617.938 1325.61 593.035C1325.61 569.109 1328.79 546.893 1335.13 526.385C1341.97 505.877 1351.25 488.299 1362.96 473.65C1375.17 458.514 1389.58 446.795 1406.18 438.494C1423.27 429.705 1442.07 425.311 1462.57 425.311C1475.27 425.311 1487.23 427.264 1498.46 431.17C1509.69 434.588 1520.19 440.447 1529.96 448.748V442.889C1529.96 435.564 1534.11 431.902 1542.41 431.902H1577.56C1592.7 431.902 1600.27 439.471 1600.27 454.607V736.59C1600.27 788.836 1588.79 826.434 1565.85 849.383C1542.9 872.82 1509.69 884.539 1466.24 884.539C1461.35 884.539 1453.05 883.807 1441.33 882.342C1429.62 881.365 1417.41 879.168 1404.71 875.75C1392.51 872.82 1381.52 868.67 1371.75 863.299C1361.99 858.416 1356.86 852.068 1356.37 844.256C1356.37 841.814 1356.86 839.129 1357.84 836.199L1362.23 823.016C1365.65 812.273 1372.49 806.902 1382.74 806.902C1387.13 806.902 1391.04 807.635 1394.46 809.1ZM1527.03 501.482C1512.87 490.252 1497.24 484.637 1480.15 484.637C1454.27 484.637 1434.25 494.646 1420.09 514.666C1405.93 534.686 1398.85 560.564 1398.85 592.303C1398.85 621.111 1405.45 645.037 1418.63 664.08C1431.81 682.635 1450.12 692.4 1473.56 693.377C1482.84 693.377 1491.87 691.668 1500.66 688.25C1509.94 684.832 1518.73 679.461 1527.03 672.137V501.482ZM1734.3 615.74C1737.23 643.084 1745.78 664.08 1759.94 678.729C1774.59 693.377 1792.41 700.701 1813.4 700.701C1823.17 700.701 1832.69 698.992 1841.97 695.574C1851.25 692.156 1860.28 687.518 1869.07 681.658C1873.95 678.24 1879.08 676.531 1884.45 676.531C1892.75 676.531 1899.34 680.682 1904.22 688.982L1910.82 700.701C1913.26 705.584 1914.48 709.734 1914.48 713.152C1914.48 719.5 1911.79 724.871 1906.42 729.266C1892.26 740.008 1876.88 747.82 1860.28 752.703C1844.17 757.098 1827.56 759.295 1810.47 759.295C1788.5 759.295 1768.24 755.633 1749.68 748.309C1731.13 740.984 1715.02 730.242 1701.34 716.082C1688.16 701.922 1677.66 684.588 1669.85 664.08C1662.53 643.084 1658.86 619.158 1658.86 592.303C1658.86 566.912 1662.28 543.963 1669.12 523.455C1675.95 502.947 1685.47 485.369 1697.68 470.721C1710.38 456.072 1725.51 444.842 1743.09 437.029C1761.16 429.217 1780.93 425.311 1802.42 425.311C1843.92 425.311 1875.9 439.471 1898.37 467.791C1921.31 495.623 1932.79 533.465 1932.79 581.316C1932.79 582.293 1932.79 583.514 1932.79 584.979L1932.06 593.035C1932.06 594.012 1932.06 595.232 1932.06 596.697C1931.08 607.928 1925.22 613.543 1914.48 613.543H1734.3V615.74ZM1734.3 560.809H1862.48V559.344C1861.99 535.418 1856.13 516.863 1844.9 503.68C1834.16 490.496 1819.51 483.904 1800.95 483.904C1782.4 483.904 1767.26 490.74 1755.54 504.412C1744.31 517.596 1737.23 535.662 1734.3 558.611V560.809ZM1988.45 453.875C1988.45 447.039 1990.41 441.668 1994.31 437.762C1998.71 433.367 2004.32 431.17 2011.16 431.17H2038.99C2045.83 431.17 2051.2 433.367 2055.1 437.762C2059.5 441.668 2061.7 447.039 2061.7 453.875V469.988C2071.46 453.387 2083.67 441.912 2098.32 435.564C2112.96 428.729 2129.32 425.311 2147.39 425.311C2183.03 425.311 2209.16 436.297 2225.76 458.27C2242.36 479.754 2250.66 510.76 2250.66 551.287V729.998C2250.66 736.834 2248.46 742.449 2244.07 746.844C2240.16 751.238 2234.79 753.436 2227.96 753.436H2199.39C2192.55 753.436 2186.94 751.238 2182.54 746.844C2178.64 742.449 2176.69 736.834 2176.69 729.998V559.344C2176.69 538.348 2173.27 521.258 2166.43 508.074C2159.6 494.402 2147.14 487.566 2129.08 487.566C2116.38 487.566 2103.93 491.473 2091.72 499.285C2080.01 507.098 2070.48 517.84 2063.16 531.512V729.998C2063.16 736.834 2060.96 742.449 2056.57 746.844C2052.66 751.238 2047.29 753.436 2040.46 753.436H2011.16C2004.32 753.436 1998.71 751.238 1994.31 746.844C1990.41 742.449 1988.45 736.834 1988.45 729.998V453.875ZM2428.64 750.506C2411.06 750.506 2396.66 748.064 2385.43 743.182C2374.68 737.811 2366.14 730.242 2359.79 720.477C2353.44 710.711 2349.05 698.748 2346.61 684.588C2344.17 669.939 2342.95 653.338 2342.95 634.783V483.172H2321.71C2314.87 483.172 2309.25 481.219 2304.86 477.312C2300.95 472.918 2299 467.303 2299 460.467V451.678C2299 444.842 2300.95 439.471 2304.86 435.564C2308.77 431.17 2314.14 428.484 2320.97 427.508C2332.2 426.531 2339.77 422.381 2343.68 415.057C2347.58 407.244 2349.54 394.061 2349.54 375.506V356.463C2349.54 351.58 2352.22 349.139 2357.59 349.139H2393.48C2400.32 349.139 2405.69 351.336 2409.6 355.73C2413.99 359.637 2416.19 365.008 2416.19 371.844V426.043H2464.53C2471.36 426.043 2476.73 428.24 2480.64 432.635C2485.04 436.541 2487.23 441.912 2487.23 448.748V460.467C2487.23 467.303 2485.04 472.918 2480.64 477.312C2476.73 481.219 2471.36 483.172 2464.53 483.172H2416.19V645.037C2416.68 657.732 2418.63 668.719 2422.05 677.996C2425.95 686.785 2433.52 691.18 2444.75 691.18C2450.61 691.18 2457.2 689.959 2464.53 687.518C2468.43 686.541 2471.36 686.053 2473.32 686.053C2484.06 686.053 2490.41 691.424 2492.36 702.166L2496.02 715.35C2496.51 716.814 2496.75 718.768 2496.75 721.209C2496.75 728.045 2493.82 733.416 2487.96 737.322C2482.59 741.229 2476 744.158 2468.19 746.111C2460.87 748.064 2453.3 749.285 2445.48 749.773C2438.16 750.262 2432.54 750.506 2428.64 750.506ZM2707.69 325.701C2707.69 318.865 2709.64 313.25 2713.55 308.855C2717.95 304.461 2723.56 302.264 2730.4 302.264H2765.55C2772.39 302.264 2777.76 304.461 2781.67 308.855C2786.06 313.25 2788.26 318.865 2788.26 325.701V485.369H2945.73V325.701C2945.73 318.865 2947.68 313.25 2951.59 308.855C2955.98 304.461 2961.6 302.264 2968.43 302.264H3003.59C3010.43 302.264 3016.04 304.461 3020.44 308.855C3024.83 313.25 3027.03 318.865 3027.03 325.701V719.744C3027.03 726.58 3024.83 732.195 3020.44 736.59C3016.04 740.496 3010.43 742.449 3003.59 742.449H2968.43C2953.3 742.449 2945.73 734.881 2945.73 719.744V550.555H2788.26V719.744C2788.26 734.881 2780.69 742.449 2765.55 742.449H2730.4C2715.26 742.449 2707.69 734.881 2707.69 719.744V325.701ZM3300.22 716.082V716.814C3290.46 732.439 3278.25 743.67 3263.6 750.506C3248.95 756.854 3232.84 760.027 3215.26 760.027C3180.1 760.027 3154.22 749.041 3137.62 727.068C3121.02 705.096 3112.72 673.846 3112.72 633.318V454.607C3112.72 439.471 3120.29 431.902 3135.43 431.902H3163.99C3179.13 431.902 3186.7 439.471 3186.7 454.607V625.994C3187.18 645.525 3190.85 662.371 3197.68 676.531C3204.52 690.691 3216.48 697.771 3233.57 697.771C3245.78 697.771 3257.74 694.354 3269.46 687.518C3281.67 680.193 3291.68 669.695 3299.49 656.023V454.607C3299.49 439.471 3307.06 431.902 3322.19 431.902H3350.76C3365.89 431.902 3373.46 439.471 3373.46 454.607V730.73C3373.46 745.867 3365.89 753.436 3350.76 753.436H3323.66C3316.82 753.436 3311.21 751.482 3306.81 747.576C3302.91 743.67 3300.95 738.299 3300.95 731.463L3300.22 716.082ZM3457.69 325.701C3457.69 310.564 3465.26 302.996 3480.4 302.996H3508.23C3515.06 302.996 3520.44 305.193 3524.34 309.588C3528.74 313.494 3530.93 318.865 3530.93 325.701L3531.67 435.564V434.832C3541.43 427.996 3551.93 423.113 3563.16 420.184C3574.88 417.254 3586.6 415.789 3598.32 415.789C3640.8 415.789 3673.76 429.949 3697.19 458.27C3721.12 486.59 3733.08 525.652 3733.08 575.457C3733.08 598.406 3730.4 620.379 3725.03 641.375C3719.65 662.371 3711.6 680.926 3700.86 697.039C3690.11 712.664 3676.69 725.359 3660.57 735.125C3644.46 744.402 3625.9 749.041 3604.91 749.041C3590.75 749.041 3577.08 746.844 3563.89 742.449C3551.2 737.566 3539.72 730.242 3529.47 720.477V728.533C3529.47 737.811 3524.59 742.449 3514.82 742.449H3480.4C3465.26 742.449 3457.69 734.881 3457.69 719.744V325.701ZM3530.93 672.137C3538.75 678.973 3547.05 683.855 3555.84 686.785C3564.62 689.715 3573.41 691.18 3582.2 691.18C3595.39 691.18 3606.62 688.006 3615.89 681.658C3625.66 675.311 3633.72 667.01 3640.06 656.756C3646.41 646.014 3651.05 633.807 3653.98 620.135C3656.91 606.463 3658.38 592.303 3658.38 577.654C3658.38 546.893 3652.27 522.234 3640.06 503.68C3627.86 484.637 3608.81 475.115 3582.94 475.115C3563.89 475.115 3546.56 481.951 3530.93 495.623V672.137Z" fill="black"/>
<defs>
<linearGradient id="paint0_linear_581_50" x1="689.231" y1="922.663" x2="687.565" y2="664.033" gradientUnits="userSpaceOnUse">
<stop stop-color="#003FFF"/>
<stop offset="1" stop-color="#1A55FF" stop-opacity="0.64"/>
</linearGradient>
<linearGradient id="paint1_linear_581_50" x1="83.5599" y1="116.189" x2="221.999" y2="823.634" gradientUnits="userSpaceOnUse">
<stop stop-color="#002BFF"/>
<stop offset="0.449946" stop-color="#103BFF"/>
<stop offset="1" stop-color="#507CFD"/>
</linearGradient>
<radialGradient id="paint2_radial_581_50" cx="0" cy="0" r="1" gradientUnits="userSpaceOnUse" gradientTransform="translate(91.0828 533.123) rotate(-23.8705) scale(283.114 877.068)">
<stop stop-color="white" stop-opacity="0.2"/>
<stop offset="1" stop-color="white" stop-opacity="0.01"/>
</radialGradient>
</defs>
</svg>
