<svg width="2337" height="478" viewBox="0 0 2337 478" fill="none" xmlns="http://www.w3.org/2000/svg">
<path d="M1708.44 367.562C1719.16 359.725 1728.86 350.237 1737.52 339.1C1746.18 327.55 1753.4 321.775 1759.18 321.775C1765.36 321.775 1768.46 330.85 1768.46 349C1768.46 366.737 1763.3 383.65 1752.99 399.737C1743.09 415.412 1729.89 428.612 1713.39 439.337C1679.56 461.612 1639.55 472.75 1593.35 472.75C1537.25 472.75 1493.73 458.725 1462.79 430.675C1431.86 402.625 1416.39 363.644 1416.39 313.731C1416.39 252.269 1431.24 193.9 1460.94 138.625C1470.84 120.475 1481.98 103.769 1494.35 88.5062C1484.86 77.3687 1477.23 65.8186 1471.46 53.8562C1466.09 41.4811 1463.41 32.1999 1463.41 26.0124C1463.41 14.8749 1467.54 9.30614 1475.79 9.30614C1481.56 9.71866 1488.16 13.6374 1495.59 21.0624L1514.77 39.6249C1519.72 44.5749 1524.88 48.6999 1530.24 51.9999C1571.08 17.3499 1615.01 0.0249023 1662.03 0.0249023C1709.47 0.0249023 1740.2 13.2249 1754.23 39.6249C1759.18 49.5249 1761.65 61.6937 1761.65 76.1312C1761.65 97.9937 1752.16 116.35 1733.19 131.2C1714.21 146.05 1688.64 153.475 1656.46 153.475C1624.7 153.475 1591.7 146.875 1557.46 133.675C1528.18 183.587 1513.53 235.769 1513.53 290.219C1513.53 365.706 1543.64 403.45 1603.87 403.45C1640.99 403.45 1675.85 391.487 1708.44 367.562ZM1587.16 95.3124C1608.2 102.325 1631.09 105.831 1655.84 105.831C1680.59 105.831 1692.97 99.0249 1692.97 85.4124C1692.97 69.3249 1682.86 61.2812 1662.65 61.2812C1635.01 61.2812 1609.85 72.6249 1587.16 95.3124Z" fill="#FEF4E1"/>
<path d="M2123.51 321.775C2130.94 321.775 2134.65 331.262 2134.65 350.237C2134.65 360.55 2130.32 373.131 2121.66 387.981C2112.99 402.419 2101.65 415.825 2087.62 428.2C2074.01 440.162 2058.75 450.062 2041.84 457.9C2024.93 465.737 2008.43 469.656 1992.34 469.656C1970.47 469.656 1955.83 450.475 1948.41 412.112C1937.68 429.85 1923.66 444.494 1906.33 456.044C1889.01 467.181 1865.7 472.75 1836.41 472.75C1807.54 472.75 1784.23 463.675 1766.49 445.525C1748.76 427.375 1740.09 405.306 1740.51 379.319C1740.51 309.194 1763.81 253.919 1810.42 213.494C1830.22 196.581 1848.58 185.444 1865.49 180.081C1882.82 174.719 1900.97 172.037 1919.94 172.037C1938.92 172.037 1954.39 175.337 1966.35 181.937C1972.12 169.975 1978.72 163.994 1986.15 163.994C2000.59 163.994 2014.2 170.387 2026.99 183.175C2040.19 195.55 2046.79 207.306 2046.79 218.444C2041.01 232.056 2032.56 248.35 2021.42 267.325C2018.12 286.3 2016.47 312.906 2016.47 347.144C2016.47 381.381 2020.8 398.5 2029.46 398.5C2040.19 398.5 2066.18 377.05 2107.43 334.15C2114.85 325.9 2120.21 321.775 2123.51 321.775ZM1831.46 358.9C1831.46 390.662 1843.22 406.544 1866.73 406.544C1891.89 406.131 1912.72 392.725 1929.22 366.325C1935 357.25 1939.74 346.112 1943.46 332.912C1943.46 286.712 1947.58 247.112 1955.83 214.112C1922.42 220.712 1893.34 236.8 1868.59 262.375C1843.84 287.95 1831.46 320.125 1831.46 358.9Z" fill="#FEF4E1"/>
<path d="M2137.14 434.387C2132.61 423.25 2129.31 410.462 2127.24 396.025C2125.18 381.175 2124.15 360.55 2124.15 334.15C2124.15 307.75 2129.1 272.069 2139 227.106H2111.16C2106.21 227.106 2103.73 225.044 2103.73 220.919C2103.73 211.019 2104.56 202.975 2106.21 196.787C2108.27 190.187 2112.81 182.762 2119.82 174.512H2134.67C2140.44 174.512 2146.63 174.306 2153.23 173.894C2173.03 110.369 2193.24 78.6062 2213.87 78.6062C2230.37 79.0187 2241.92 89.5374 2248.52 110.162C2250.17 115.937 2252.03 122.125 2254.09 128.725L2228.72 173.275C2257.59 174.1 2275.74 174.512 2283.17 174.512C2291.01 174.512 2295.13 175.337 2295.54 176.987C2296.37 178.225 2296.78 180.287 2296.78 183.175C2296.78 190.6 2294.93 199.881 2291.21 211.019C2287.91 222.156 2283.99 227.519 2279.46 227.106L2217.58 224.012C2208.92 274.337 2204.59 316 2204.59 349C2204.59 382 2209.33 398.5 2218.82 398.5C2226.66 398.5 2240.89 392.106 2261.51 379.319C2282.14 366.119 2296.99 353.537 2306.06 341.575C2315.14 329.612 2322.56 323.631 2328.34 323.631C2334.11 323.631 2337 330.644 2337 344.669C2337 358.694 2332.05 373.131 2322.15 387.981C2312.25 402.419 2299.67 415.825 2284.41 428.2C2269.56 440.162 2252.85 450.062 2234.29 457.9C2216.14 465.737 2200.26 469.656 2186.64 469.656C2173.03 469.656 2162.51 466.562 2155.09 460.375C2148.08 453.775 2142.09 445.112 2137.14 434.387Z" fill="#FEF4E1"/>
<path d="M104.735 440.775C104.735 465.112 81.016 477.281 33.5785 477.281C23.266 477.281 17.0785 472.125 15.016 461.812C13.366 451.087 12.541 436.237 12.541 417.262C12.541 377.25 20.5848 327.75 36.6723 268.762C63.4848 171.412 92.1535 114.075 122.679 96.7499C126.804 94.2749 131.341 93.0374 136.291 93.0374C141.241 93.0374 143.716 101.081 143.716 117.169C143.716 133.256 142.891 147.487 141.241 159.862C137.941 184.612 131.96 216.581 123.297 255.769C115.047 294.956 110.922 318.056 110.922 325.069L104.735 440.775ZM146.81 274.331C146.81 268.969 149.697 265.462 155.472 263.812C161.66 262.162 169.291 260.719 178.366 259.481C187.441 257.831 197.341 255.562 208.066 252.675C218.791 249.787 228.691 244.425 237.766 236.587C258.804 218.437 269.322 188.119 269.322 145.631C269.322 118.406 260.041 97.5749 241.479 83.1374C223.329 68.6999 196.929 61.4811 162.279 61.4811C128.041 61.4811 95.866 68.6999 65.7535 83.1374C54.616 88.4999 44.5098 93.4499 35.4348 97.9874C26.7723 102.525 18.7285 104.794 11.3035 104.794C3.87852 104.794 0.166016 102.525 0.166016 97.9874C0.166016 90.9749 6.97227 79.4249 20.5848 63.3374C34.1973 48.4873 55.6473 34.6686 84.9348 21.8811C114.635 9.09361 145.779 2.69986 178.366 2.69986C239.829 2.28736 287.679 16.7249 321.916 46.0124C351.616 71.5874 366.466 104.794 366.466 145.631C366.466 186.056 351.822 222.356 322.535 254.531C293.247 286.294 256.535 302.175 212.397 302.175C168.672 302.175 146.81 292.894 146.81 274.331Z" fill="#FEF4E1"/>
<path d="M498.448 400.556C530.623 400.556 561.767 387.769 591.88 362.194C603.017 352.706 612.092 344.044 619.105 336.206C626.117 327.956 631.48 323.831 635.192 323.831C640.967 323.831 643.855 329.606 643.855 341.156C643.855 352.706 640.761 365.7 634.573 380.137C628.386 394.162 618.073 407.981 603.636 421.594C568.161 455.006 519.486 471.712 457.611 471.712C408.523 471.712 375.111 453.975 357.373 418.5C351.186 406.125 348.092 388.387 348.092 365.287C348.092 342.187 352.63 318.262 361.705 293.512C370.78 268.35 382.742 246.694 397.592 228.544C412.855 210.394 430.386 196.369 450.186 186.469C469.986 176.156 491.023 171 513.298 171C535.986 171 553.311 176.569 565.273 187.706C577.648 198.844 583.836 213.281 583.836 231.019C583.836 248.756 579.298 263.4 570.223 274.95C561.561 286.087 550.217 295.575 536.192 303.412C522.167 310.837 506.492 317.644 489.167 323.831C472.255 329.606 455.548 336.206 439.048 343.631V359.1C439.461 373.95 445.648 384.469 457.611 390.656C469.573 396.844 483.186 400.144 498.448 400.556ZM487.93 226.069C466.48 226.069 451.63 251.025 443.38 300.937C452.042 295.162 460.086 290.006 467.511 285.469C475.348 280.931 482.155 276.6 487.93 272.475C500.305 263.4 506.698 253.087 507.111 241.537C507.111 231.225 500.717 226.069 487.93 226.069Z" fill="#FEF4E1"/>
<path d="M633.935 434.587C629.398 423.45 626.098 410.662 624.035 396.225C621.973 381.375 620.941 360.75 620.941 334.35C620.941 307.95 625.891 272.269 635.791 227.306H607.948C602.998 227.306 600.523 225.244 600.523 221.119C600.523 211.219 601.348 203.175 602.998 196.987C605.06 190.387 609.598 182.962 616.61 174.712H631.46C637.235 174.712 643.423 174.506 650.023 174.094C669.823 110.569 690.035 78.8061 710.66 78.8061C727.16 79.2186 738.71 89.7374 745.31 110.362C746.96 116.137 748.816 122.325 750.879 128.925L725.51 173.475C754.385 174.3 772.535 174.712 779.96 174.712C787.798 174.712 791.923 175.537 792.335 177.187C793.16 178.425 793.573 180.487 793.573 183.375C793.573 190.8 791.716 200.081 788.004 211.219C784.704 222.356 780.785 227.719 776.248 227.306L714.373 224.212C705.71 274.537 701.379 316.2 701.379 349.2C701.379 382.2 706.123 398.7 715.61 398.7C723.448 398.7 737.679 392.306 758.304 379.519C778.929 366.319 793.779 353.737 802.854 341.775C811.929 329.812 819.354 323.831 825.129 323.831C830.904 323.831 833.791 330.844 833.791 344.869C833.791 358.894 828.841 373.331 818.941 388.181C809.041 402.619 796.46 416.025 781.198 428.4C766.348 440.362 749.641 450.262 731.079 458.1C712.929 465.937 697.048 469.856 683.435 469.856C669.823 469.856 659.304 466.762 651.879 460.575C644.866 453.975 638.885 445.312 633.935 434.587Z" fill="#FEF4E1"/>
<path d="M941.072 400.556C973.247 400.556 1004.39 387.769 1034.5 362.194C1045.64 352.706 1054.72 344.044 1061.73 336.206C1068.74 327.956 1074.1 323.831 1077.82 323.831C1083.59 323.831 1086.48 329.606 1086.48 341.156C1086.48 352.706 1083.38 365.7 1077.2 380.137C1071.01 394.162 1060.7 407.981 1046.26 421.594C1010.78 455.006 962.11 471.712 900.235 471.712C851.147 471.712 817.735 453.975 799.997 418.5C793.81 406.125 790.716 388.387 790.716 365.287C790.716 342.187 795.253 318.262 804.328 293.512C813.403 268.35 825.366 246.694 840.216 228.544C855.478 210.394 873.01 196.369 892.81 186.469C912.61 176.156 933.647 171 955.922 171C978.61 171 995.935 176.569 1007.9 187.706C1020.27 198.844 1026.46 213.281 1026.46 231.019C1026.46 248.756 1021.92 263.4 1012.85 274.95C1004.18 286.087 992.841 295.575 978.816 303.412C964.791 310.837 949.116 317.644 931.791 323.831C914.878 329.606 898.172 336.206 881.672 343.631V359.1C882.085 373.95 888.272 384.469 900.235 390.656C912.197 396.844 925.81 400.144 941.072 400.556ZM930.553 226.069C909.103 226.069 894.253 251.025 886.003 300.937C894.666 295.162 902.71 290.006 910.135 285.469C917.972 280.931 924.778 276.6 930.553 272.475C942.928 263.4 949.322 253.087 949.735 241.537C949.735 231.225 943.341 226.069 930.553 226.069Z" fill="#FEF4E1"/>
<path d="M1317 263.931C1326.07 263.931 1333.7 267.231 1339.89 273.831C1346.49 280.019 1349.79 287.856 1349.79 297.344C1349.79 302.706 1348.55 308.481 1346.08 314.669C1339.48 329.931 1330.2 342.719 1318.24 353.031C1306.27 363.344 1293.07 368.5 1278.64 368.5C1267.09 368.5 1257.19 364.375 1248.94 356.125C1241.1 347.875 1237.18 336.737 1237.18 322.712C1237.18 314.875 1237.59 306.419 1238.42 297.344C1239.24 290.744 1239.65 286.206 1239.65 283.731C1239.65 280.431 1238.83 277.956 1237.18 276.306C1235.94 274.656 1234.29 273.831 1232.23 273.831C1226.45 273.831 1218.62 280.844 1208.72 294.869C1198.82 308.481 1188.92 326.631 1179.02 349.319C1169.12 372.006 1161.07 395.931 1154.89 421.094C1150.35 440.894 1145.19 454.094 1139.42 460.694C1133.64 467.294 1124.15 470.594 1110.95 470.594C1095.28 470.594 1084.14 462.344 1077.54 445.844C1071.35 429.344 1068.26 402.944 1068.26 366.644C1068.26 313.019 1075.89 262.075 1091.15 213.812C1094.87 201.85 1100.85 193.187 1109.1 187.825C1117.76 182.05 1129.72 179.162 1144.99 179.162C1153.24 179.162 1159.01 180.194 1162.31 182.256C1165.61 184.319 1167.26 188.237 1167.26 194.012C1167.26 200.612 1164.17 215.462 1157.98 238.562C1153.85 255.062 1150.55 269.5 1148.08 281.875C1145.6 294.25 1143.54 309.512 1141.89 327.662C1155.5 292.187 1170.77 263.312 1187.68 241.037C1204.59 218.762 1221.09 202.881 1237.18 193.394C1253.27 183.906 1267.91 179.162 1281.11 179.162C1293.07 179.162 1302.15 182.669 1308.34 189.681C1314.94 196.281 1318.24 206.181 1318.24 219.381C1318.24 227.219 1315.97 242.069 1311.43 263.931H1317Z" fill="#FEF4E1"/>
</svg>
