<svg width="106" height="20" viewBox="0 0 106 20" fill="none" xmlns="http://www.w3.org/2000/svg">
<path d="M4.37824 18.4456C4.37824 19.4646 3.38515 19.9741 1.39896 19.9741C0.967184 19.9741 0.708117 19.7582 0.621762 19.3264C0.552677 18.8774 0.518135 18.2556 0.518135 17.4611C0.518135 15.7858 0.854922 13.7133 1.5285 11.2435C2.65112 7.16753 3.85147 4.76684 5.12953 4.04145C5.30224 3.93782 5.49223 3.88601 5.69948 3.88601C5.90673 3.88601 6.01036 4.2228 6.01036 4.89637C6.01036 5.56995 5.97582 6.1658 5.90673 6.68394C5.76856 7.72021 5.51813 9.05872 5.15544 10.6995C4.81002 12.3402 4.6373 13.3074 4.6373 13.601L4.37824 18.4456ZM6.13989 11.4767C6.13989 11.2522 6.26079 11.1054 6.50259 11.0363C6.76166 10.9672 7.08117 10.9067 7.46114 10.8549C7.8411 10.7858 8.25561 10.6908 8.70466 10.5699C9.15371 10.4491 9.56822 10.2245 9.94818 9.89637C10.829 9.13644 11.2694 7.86701 11.2694 6.08808C11.2694 4.94819 10.8808 4.07599 10.1036 3.4715C9.34369 2.86701 8.23834 2.56477 6.78756 2.56477C5.35406 2.56477 4.00691 2.86701 2.74611 3.4715C2.27979 3.69603 1.85665 3.90328 1.47668 4.09326C1.11399 4.28325 0.777202 4.37824 0.466321 4.37824C0.15544 4.37824 0 4.28325 0 4.09326C0 3.79965 0.284974 3.31606 0.854922 2.64249C1.42487 2.02073 2.32297 1.44214 3.54922 0.906736C4.79274 0.37133 6.09672 0.103627 7.46114 0.103627C10.0345 0.0863562 12.038 0.690847 13.4715 1.9171C14.715 2.98791 15.3368 4.37824 15.3368 6.08808C15.3368 7.78066 14.7237 9.30052 13.4974 10.6477C12.2712 11.9775 10.734 12.6425 8.88601 12.6425C7.05527 12.6425 6.13989 12.2539 6.13989 11.4767Z" fill="#FEF4E1"/>
<path d="M21.1219 16.7617C22.469 16.7617 23.773 16.2263 25.0338 15.1554C25.5001 14.7582 25.8801 14.3955 26.1737 14.0674C26.4673 13.7219 26.6918 13.5492 26.8473 13.5492C27.0891 13.5492 27.21 13.791 27.21 14.2746C27.21 14.7582 27.0804 15.3022 26.8214 15.9067C26.5623 16.494 26.1305 17.0725 25.526 17.6425C24.0407 19.0415 22.0027 19.7409 19.412 19.7409C17.3568 19.7409 15.9578 18.9983 15.2151 17.513C14.9561 16.9948 14.8265 16.2522 14.8265 15.285C14.8265 14.3178 15.0165 13.3161 15.3965 12.2798C15.7765 11.2263 16.2773 10.3195 16.8991 9.55959C17.5381 8.79965 18.2721 8.21244 19.1012 7.79793C19.9302 7.36615 20.811 7.15026 21.7436 7.15026C22.6936 7.15026 23.4189 7.38342 23.9198 7.84974C24.4379 8.31606 24.697 8.92055 24.697 9.66321C24.697 10.4059 24.507 11.019 24.1271 11.5026C23.7644 11.9689 23.2894 12.3661 22.7022 12.6943C22.115 13.0052 21.4587 13.2902 20.7333 13.5492C20.0252 13.791 19.3257 14.0674 18.6348 14.3782V15.0259C18.6521 15.6477 18.9112 16.0881 19.412 16.3472C19.9129 16.6062 20.4828 16.7444 21.1219 16.7617ZM20.6815 9.45596C19.7834 9.45596 19.1616 10.5009 18.8162 12.5907C19.1789 12.3489 19.5157 12.133 19.8265 11.943C20.1547 11.753 20.4397 11.5717 20.6815 11.399C21.1996 11.019 21.4673 10.5872 21.4846 10.1036C21.4846 9.67185 21.2169 9.45596 20.6815 9.45596Z" fill="#FEF4E1"/>
<path d="M27.0537 18.1865C26.8637 17.7202 26.7256 17.1848 26.6392 16.5803C26.5528 15.9585 26.5097 15.095 26.5097 13.9896C26.5097 12.8843 26.7169 11.3903 27.1314 9.50777H25.9656C25.7584 9.50777 25.6547 9.42142 25.6547 9.2487C25.6547 8.8342 25.6893 8.49741 25.7584 8.23834C25.8447 7.962 26.0347 7.65112 26.3283 7.3057H26.9501C27.1919 7.3057 27.4509 7.29706 27.7273 7.27979C28.5563 4.62003 29.4026 3.29016 30.2661 3.29016C30.957 3.30743 31.4406 3.74784 31.7169 4.6114C31.786 4.8532 31.8637 5.11226 31.9501 5.3886L30.8879 7.25389C32.0969 7.28843 32.8568 7.3057 33.1677 7.3057C33.4958 7.3057 33.6686 7.34024 33.6858 7.40933C33.7204 7.46114 33.7376 7.5475 33.7376 7.66839C33.7376 7.97927 33.6599 8.36788 33.5045 8.8342C33.3663 9.30052 33.2022 9.52504 33.0123 9.50777L30.4216 9.37824C30.0589 11.4853 29.8775 13.2297 29.8775 14.6114C29.8775 15.9931 30.0762 16.6839 30.4734 16.6839C30.8015 16.6839 31.3974 16.4162 32.261 15.8808C33.1245 15.3282 33.7463 14.8014 34.1262 14.3005C34.5062 13.7997 34.8171 13.5492 35.0589 13.5492C35.3007 13.5492 35.4216 13.8428 35.4216 14.4301C35.4216 15.0173 35.2143 15.6218 34.7998 16.2435C34.3853 16.848 33.8585 17.4093 33.2195 17.9275C32.5977 18.4283 31.8983 18.8428 31.1211 19.171C30.3611 19.4991 29.6962 19.6632 29.1262 19.6632C28.5563 19.6632 28.1159 19.5337 27.805 19.2746C27.5114 18.9983 27.261 18.6356 27.0537 18.1865Z" fill="#FEF4E1"/>
<path d="M40.1724 16.7617C41.5196 16.7617 42.8235 16.2263 44.0843 15.1554C44.5507 14.7582 44.9306 14.3955 45.2242 14.0674C45.5178 13.7219 45.7424 13.5492 45.8978 13.5492C46.1396 13.5492 46.2605 13.791 46.2605 14.2746C46.2605 14.7582 46.131 15.3022 45.8719 15.9067C45.6128 16.494 45.1811 17.0725 44.5766 17.6425C43.0913 19.0415 41.0533 19.7409 38.4626 19.7409C36.4073 19.7409 35.0084 18.9983 34.2657 17.513C34.0066 16.9948 33.8771 16.2522 33.8771 15.285C33.8771 14.3178 34.0671 13.3161 34.447 12.2798C34.827 11.2263 35.3279 10.3195 35.9496 9.55959C36.5887 8.79965 37.3227 8.21244 38.1517 7.79793C38.9807 7.36615 39.8615 7.15026 40.7942 7.15026C41.7441 7.15026 42.4695 7.38342 42.9704 7.84974C43.4885 8.31606 43.7476 8.92055 43.7476 9.66321C43.7476 10.4059 43.5576 11.019 43.1776 11.5026C42.8149 11.9689 42.34 12.3661 41.7527 12.6943C41.1655 13.0052 40.5092 13.2902 39.7838 13.5492C39.0757 13.791 38.3762 14.0674 37.6854 14.3782V15.0259C37.7027 15.6477 37.9617 16.0881 38.4626 16.3472C38.9634 16.6062 39.5334 16.7444 40.1724 16.7617ZM39.732 9.45596C38.8339 9.45596 38.2122 10.5009 37.8667 12.5907C38.2294 12.3489 38.5662 12.133 38.8771 11.943C39.2052 11.753 39.4902 11.5717 39.732 11.399C40.2501 11.019 40.5178 10.5872 40.5351 10.1036C40.5351 9.67185 40.2674 9.45596 39.732 9.45596Z" fill="#FEF4E1"/>
<path d="M48.7467 15.2332L48.9022 18.3938C48.9022 18.8083 48.6863 19.1796 48.2545 19.5078C47.8227 19.8359 47.2355 20 46.4929 20C46.0611 20 45.7588 19.7755 45.5861 19.3264C45.4307 18.8774 45.353 18.2211 45.353 17.3575C45.353 15.544 45.4393 14.1278 45.612 13.1088C45.802 12.0725 46.1647 11.0276 46.7001 9.97409C45.9056 9.21416 45.5084 8.55786 45.5084 8.00518C45.5084 6.84801 46.1302 6.26943 47.3737 6.26943C48.0127 6.26943 48.574 6.60622 49.0576 7.27979C49.403 7.74611 49.6535 8.29016 49.8089 8.91192C50.0507 8.99827 50.353 9.04145 50.7157 9.04145C51.2165 9.04145 51.7951 8.87738 52.4514 8.54922L53.125 8.21244C53.3322 8.10881 53.5136 8.05699 53.669 8.05699C54.1699 8.05699 54.6707 8.79102 55.1716 10.2591C55.0162 10.9326 54.8435 11.5803 54.6535 12.2021C54.4808 12.8238 54.2735 13.5751 54.0317 14.456C53.7899 15.3368 53.6604 15.9326 53.6431 16.2435C53.6431 16.5371 53.7381 16.6839 53.9281 16.6839C54.1872 16.6839 54.5067 16.5199 54.8866 16.1917C55.2666 15.8636 55.6466 15.5095 56.0265 15.1295C56.4065 14.7323 56.7519 14.3696 57.0628 14.0415C57.391 13.7133 57.6155 13.5492 57.7364 13.5492C57.9782 13.5492 58.0991 13.8428 58.0991 14.4301C58.0991 15.6218 57.5723 16.7962 56.5188 17.9534C55.4825 19.1105 54.2908 19.6805 52.9436 19.6632C52.1492 19.6632 51.5533 19.3437 51.1561 18.7047C50.7588 18.0656 50.5516 17.2884 50.5343 16.3731C50.5343 14.5596 50.9402 12.8411 51.7519 11.2176C51.372 11.3731 50.9402 11.4508 50.4566 11.4508C49.9903 11.4508 49.6535 11.4335 49.4462 11.399C49.2908 12.0553 49.1353 12.7202 48.9799 13.3938C48.8245 14.0501 48.7467 14.6632 48.7467 15.2332Z" fill="#FEF4E1"/>
<path d="M80.1825 15.3886C80.6316 15.0604 81.0375 14.6632 81.4001 14.1969C81.7628 13.7133 82.0651 13.4715 82.3069 13.4715C82.5659 13.4715 82.6955 13.8515 82.6955 14.6114C82.6955 15.3541 82.4796 16.0622 82.0478 16.7358C81.6333 17.3921 81.0806 17.9447 80.3898 18.3938C78.9735 19.3264 77.2982 19.7927 75.3639 19.7927C73.015 19.7927 71.1929 19.2055 69.8976 18.0311C68.6022 16.8567 67.9546 15.2245 67.9546 13.1347C67.9546 10.5613 68.5763 8.11744 69.8198 5.80311C70.2343 5.04318 70.7007 4.3437 71.2188 3.70466C70.8216 3.23834 70.5021 2.75475 70.2603 2.25389C70.0357 1.73575 69.9235 1.34715 69.9235 1.08808C69.9235 0.621761 70.0962 0.388601 70.4416 0.388601C70.6834 0.405873 70.9597 0.569949 71.2706 0.880828L72.0737 1.65803C72.281 1.86529 72.4969 2.038 72.7214 2.17617C74.4312 0.725388 76.2706 0 78.2395 0C80.2257 0 81.5124 0.552677 82.0996 1.65803C82.3069 2.07254 82.4105 2.58204 82.4105 3.18653C82.4105 4.1019 82.0133 4.87047 81.2188 5.49223C80.4243 6.11399 79.3535 6.42487 78.0064 6.42487C76.6765 6.42487 75.2948 6.14853 73.8613 5.59586C72.635 7.68566 72.0219 9.87047 72.0219 12.1503C72.0219 15.3109 73.2827 16.8912 75.8043 16.8912C77.3587 16.8912 78.8181 16.3903 80.1825 15.3886ZM75.1048 3.98964C75.9856 4.28325 76.9442 4.43005 77.9805 4.43005C79.0167 4.43005 79.5349 4.14508 79.5349 3.57513C79.5349 2.90155 79.1117 2.56477 78.2654 2.56477C77.1083 2.56477 76.0547 3.03972 75.1048 3.98964Z" fill="#FEF4E1"/>
<path d="M97.3024 13.4715C97.6133 13.4715 97.7687 13.8687 97.7687 14.6632C97.7687 15.095 97.5874 15.6218 97.2247 16.2435C96.862 16.848 96.3871 17.4093 95.7998 17.9275C95.2299 18.4283 94.5909 18.8428 93.8827 19.171C93.1746 19.4991 92.4838 19.6632 91.8102 19.6632C90.8948 19.6632 90.2817 18.8601 89.9708 17.2539C89.5218 17.9965 88.9346 18.6097 88.2092 19.0933C87.4838 19.5596 86.508 19.7927 85.2817 19.7927C84.0727 19.7927 83.0969 19.4128 82.3542 18.6529C81.6116 17.8929 81.2489 16.9689 81.2662 15.8808C81.2662 12.9447 82.242 10.6304 84.1936 8.93782C85.0226 8.22971 85.7912 7.76339 86.4993 7.53886C87.2247 7.31434 87.9846 7.20207 88.7791 7.20207C89.5736 7.20207 90.2213 7.34024 90.7221 7.61658C90.9639 7.11572 91.2402 6.86529 91.5511 6.86529C92.1556 6.86529 92.7256 7.13299 93.261 7.66839C93.8137 8.18653 94.09 8.67876 94.09 9.14508C93.8482 9.71503 93.4941 10.3972 93.0278 11.1917C92.8896 11.9862 92.8206 13.1002 92.8206 14.5337C92.8206 15.9672 93.0019 16.6839 93.3646 16.6839C93.8137 16.6839 94.9017 15.7858 96.6289 13.9896C96.9397 13.6442 97.1643 13.4715 97.3024 13.4715ZM85.0744 15.0259C85.0744 16.3558 85.5667 17.0207 86.5511 17.0207C87.6047 17.0035 88.4769 16.4421 89.1677 15.3368C89.4095 14.9568 89.6081 14.4905 89.7636 13.9378C89.7636 12.0035 89.9363 10.3454 90.2817 8.96373C88.8827 9.24007 87.6651 9.91364 86.6289 10.9845C85.5926 12.0553 85.0744 13.4024 85.0744 15.0259Z" fill="#FEF4E1"/>
<path d="M97.6141 18.1865C97.4241 17.7202 97.286 17.1848 97.1996 16.5803C97.1133 15.9585 97.0701 15.095 97.0701 13.9896C97.0701 12.8843 97.2773 11.3903 97.6918 9.50777H96.526C96.3188 9.50777 96.2151 9.42142 96.2151 9.2487C96.2151 8.8342 96.2497 8.49741 96.3188 8.23834C96.4051 7.962 96.5951 7.65112 96.8887 7.3057H97.5105C97.7523 7.3057 98.0114 7.29706 98.2877 7.27979C99.1167 4.62003 99.963 3.29016 100.827 3.29016C101.517 3.30743 102.001 3.74784 102.277 4.6114C102.346 4.8532 102.424 5.11226 102.51 5.3886L101.448 7.25389C102.657 7.28843 103.417 7.3057 103.728 7.3057C104.056 7.3057 104.229 7.34024 104.246 7.40933C104.281 7.46114 104.298 7.5475 104.298 7.66839C104.298 7.97927 104.22 8.36788 104.065 8.8342C103.927 9.30052 103.763 9.52504 103.573 9.50777L100.982 9.37824C100.619 11.4853 100.438 13.2297 100.438 14.6114C100.438 15.9931 100.637 16.6839 101.034 16.6839C101.362 16.6839 101.958 16.4162 102.821 15.8808C103.685 15.3282 104.307 14.8014 104.687 14.3005C105.067 13.7997 105.378 13.5492 105.619 13.5492C105.861 13.5492 105.982 13.8428 105.982 14.4301C105.982 15.0173 105.775 15.6218 105.36 16.2435C104.946 16.848 104.419 17.4093 103.78 17.9275C103.158 18.4283 102.459 18.8428 101.681 19.171C100.922 19.4991 100.257 19.6632 99.6866 19.6632C99.1167 19.6632 98.6763 19.5337 98.3654 19.2746C98.0718 18.9983 97.8214 18.6356 97.6141 18.1865Z" fill="#FEF4E1"/>
</svg>
