<svg width="115" height="32" viewBox="0 0 115 32" fill="none" xmlns="http://www.w3.org/2000/svg">
<path fill-rule="evenodd" clip-rule="evenodd" d="M17.0167 24.4736C17.0403 24.4826 17.0621 24.4958 17.0809 24.5126L17.6792 25.0485C17.7607 25.1216 17.7906 25.2364 17.7551 25.34C17.6003 25.7915 17.6077 26.1693 17.7776 26.4733C18.1041 27.0578 18.7302 27.9514 19.8761 28.9049L19.9125 28.9109C20.4929 29.01 20.9584 29.223 21.0262 29.5167C21.1518 30.0606 20.0503 30.7499 19.0377 31.0131C18.0251 31.2763 17.2018 30.9757 17.0762 30.4318C16.9571 29.9159 17.2631 29.223 18.1964 28.9646C17.4812 28.2389 17.0141 27.5671 16.7236 27.002C16.3888 26.3511 16.3951 25.5575 16.7426 24.6212L16.7532 24.5928C16.7931 24.4871 16.911 24.4338 17.0167 24.4736ZM6.74751 25.4916C6.77826 25.5006 6.80645 25.5168 6.8298 25.5387L7.42445 26.098C7.49759 26.1668 7.52701 26.2702 7.50102 26.3672C7.4144 26.6899 7.44754 27.0281 7.60043 27.3817C7.85948 27.9809 8.36275 28.4006 9.15461 28.9669L9.19108 28.973C9.76617 29.0729 10.2261 29.285 10.2935 29.5768C10.4191 30.1207 9.31759 30.8101 8.305 31.0733C7.29241 31.3365 6.46909 31.0358 6.34351 30.4919C6.22737 29.9888 6.51547 29.3173 7.39548 29.0447C7.0036 28.6618 6.70982 28.2676 6.50023 27.806C6.23814 27.2289 6.23596 26.5035 6.49366 25.63C6.52551 25.5217 6.63917 25.4597 6.74751 25.4916Z" fill="#FFAF53"/>
<path fill-rule="evenodd" clip-rule="evenodd" d="M7.14992 7.28546C5.72422 8.04422 3.98454 8.15573 2.46171 7.61787C1.93838 7.43304 1.39333 7.2771 0.89608 7.20449C0.881214 7.20232 0.865418 7.20006 0.848885 7.19773C0.5426 7.15454 0.258842 7.41873 0.337446 7.71789C0.722763 9.18436 1.98014 12.1322 1.98014 12.1322C1.98014 12.1322 2.18256 15.2713 2.88728 18.6465C3.1607 19.956 3.28421 21.5896 3.33298 23.0987C3.38962 24.8514 5.43341 25.8589 6.49882 24.466C6.57534 24.5622 6.65901 24.6579 6.74818 24.7526C8.00094 26.0839 10.1336 25.337 11.1527 23.8194C11.3267 23.9739 11.5025 24.1212 11.6779 24.2611C13.2922 25.5493 15.6309 24.7895 16.2832 22.8299C16.4146 23.0226 16.5989 23.239 16.8112 23.4633C17.8621 24.5733 19.6721 24.0295 20.1123 22.5657C21.7128 23.7882 23.7109 23.4236 23.4424 21.4277C23.1717 19.4149 22.5223 16.8343 21.1299 13.7509C19.1857 9.44528 14.8669 2.92606 13.8553 1.54266C13.8016 1.46926 13.6994 1.35461 13.5842 1.23163C13.2994 0.927565 12.7837 0.978883 12.6126 1.35878C12.1711 2.33939 11.7892 3.13687 11.467 3.75121C10.6015 5.40138 8.87736 6.38878 7.22334 7.24687C7.19888 7.25957 7.1744 7.27243 7.14992 7.28546Z" fill="#27272A"/>
<path fill-rule="evenodd" clip-rule="evenodd" d="M13.6528 12.9254C14.7482 12.6926 15.4284 11.5263 15.1721 10.3204C14.9157 9.11459 13.82 8.32581 12.7246 8.55864C11.6292 8.79148 10.949 9.95775 11.2053 11.1636C11.4616 12.3694 12.5574 13.1582 13.6528 12.9254ZM13.8471 11.7089C14.2613 11.6209 14.5186 11.1798 14.4216 10.7238C14.3247 10.2678 13.9103 9.96956 13.4961 10.0576C13.0819 10.1457 12.8247 10.5867 12.9216 11.0427C13.0185 11.4987 13.4329 11.797 13.8471 11.7089Z" fill="white"/>
<path fill-rule="evenodd" clip-rule="evenodd" d="M6.03534 15.0883C6.90981 14.9025 7.45217 13.9683 7.24673 13.0017C7.04129 12.0352 6.16585 11.4024 5.29138 11.5882C4.41691 11.7741 3.87455 12.7083 4.07999 13.6748C4.28543 14.6414 5.16087 15.2742 6.03534 15.0883ZM6.19617 14.1122C6.52685 14.0419 6.73195 13.6886 6.65426 13.3231C6.57657 12.9577 6.24552 12.7183 5.91484 12.7886C5.58415 12.8589 5.37906 13.2122 5.45675 13.5777C5.53444 13.9432 5.86548 14.1825 6.19617 14.1122Z" fill="white"/>
<path d="M34.6753 22.6693C34.6753 23.4736 33.8915 23.8757 32.3239 23.8757C31.9831 23.8757 31.7786 23.7053 31.7105 23.3645C31.6559 23.0101 31.6287 22.5194 31.6287 21.8923C31.6287 20.5701 31.8945 18.9343 32.4261 16.985C33.3122 13.7679 34.2596 11.8731 35.2683 11.3006C35.4046 11.2188 35.5545 11.1779 35.7181 11.1779C35.8817 11.1779 35.9635 11.4437 35.9635 11.9754C35.9635 12.507 35.9362 12.9773 35.8817 13.3862C35.7727 14.2041 35.575 15.2606 35.2887 16.5556C35.0161 17.8506 34.8798 18.6139 34.8798 18.8457L34.6753 22.6693ZM36.0657 17.169C36.0657 16.9918 36.1612 16.8759 36.352 16.8214C36.5565 16.7669 36.8086 16.7191 37.1085 16.6783C37.4084 16.6237 37.7356 16.5488 38.09 16.4533C38.4444 16.3579 38.7716 16.1807 39.0715 15.9217C39.7667 15.3219 40.1143 14.32 40.1143 12.916C40.1143 12.0163 39.8076 11.3279 39.1942 10.8508C38.5944 10.3737 37.722 10.1351 36.5769 10.1351C35.4455 10.1351 34.3822 10.3737 33.3871 10.8508C33.0191 11.028 32.6851 11.1916 32.3852 11.3415C32.099 11.4915 31.8331 11.5664 31.5878 11.5664C31.3424 11.5664 31.2197 11.4915 31.2197 11.3415C31.2197 11.1098 31.4446 10.7281 31.8945 10.1965C32.3443 9.70573 33.0532 9.24907 34.021 8.8265C35.0025 8.40392 36.0317 8.19263 37.1085 8.19263C39.1396 8.179 40.7209 8.6561 41.8523 9.62394C42.8338 10.4691 43.3245 11.5664 43.3245 12.916C43.3245 14.2518 42.8406 15.4514 41.8728 16.5147C40.9049 17.5643 39.6917 18.0891 38.2331 18.0891C36.7882 18.0891 36.0657 17.7824 36.0657 17.169Z" fill="#18181B"/>
<path d="M47.8905 21.3402C48.9537 21.3402 49.9829 20.9177 50.978 20.0725C51.3461 19.759 51.646 19.4727 51.8777 19.2137C52.1094 18.9411 52.2867 18.8048 52.4093 18.8048C52.6002 18.8048 52.6956 18.9956 52.6956 19.3773C52.6956 19.759 52.5934 20.1884 52.3889 20.6655C52.1844 21.1289 51.8436 21.5856 51.3665 22.0354C50.1942 23.1396 48.5857 23.6917 46.541 23.6917C44.9188 23.6917 43.8147 23.1055 43.2285 21.9332C43.024 21.5243 42.9218 20.9381 42.9218 20.1747C42.9218 19.4114 43.0717 18.6207 43.3716 17.8029C43.6715 16.9713 44.0668 16.2557 44.5576 15.6559C45.0619 15.0561 45.6413 14.5926 46.2956 14.2655C46.9499 13.9247 47.6451 13.7543 48.3812 13.7543C49.131 13.7543 49.7035 13.9383 50.0988 14.3064C50.5077 14.6744 50.7122 15.1515 50.7122 15.7377C50.7122 16.3238 50.5623 16.8078 50.2624 17.1894C49.9761 17.5575 49.6012 17.871 49.1378 18.13C48.6743 18.3754 48.1563 18.6003 47.5838 18.8048C47.0249 18.9956 46.4728 19.2137 45.9275 19.4591V19.9703C45.9412 20.461 46.1457 20.8086 46.541 21.0131C46.9363 21.2176 47.3861 21.3266 47.8905 21.3402ZM47.5429 15.5741C46.834 15.5741 46.3433 16.3988 46.0707 18.0482C46.3569 17.8574 46.6228 17.687 46.8681 17.537C47.1271 17.3871 47.352 17.244 47.5429 17.1076C47.9518 16.8078 48.1631 16.467 48.1768 16.0853C48.1768 15.7445 47.9655 15.5741 47.5429 15.5741Z" fill="#18181B"/>
<path d="M52.5723 22.4648C52.4223 22.0968 52.3133 21.6742 52.2451 21.1971C52.177 20.7064 52.1429 20.0248 52.1429 19.1524C52.1429 18.28 52.3065 17.1008 52.6336 15.615H51.7135C51.5499 15.615 51.4681 15.5468 51.4681 15.4105C51.4681 15.0834 51.4954 14.8176 51.5499 14.6131C51.6181 14.395 51.768 14.1496 51.9998 13.877H52.4905C52.6813 13.877 52.8858 13.8702 53.1039 13.8565C53.7582 11.7573 54.4262 10.7076 55.1077 10.7076C55.653 10.7213 56.0347 11.0689 56.2528 11.7505C56.3073 11.9413 56.3687 12.1458 56.4368 12.3639L55.5985 13.8361C56.5527 13.8633 57.1525 13.877 57.3978 13.877C57.6568 13.877 57.7931 13.9042 57.8068 13.9588C57.834 13.9997 57.8477 14.0678 57.8477 14.1632C57.8477 14.4086 57.7863 14.7153 57.6636 15.0834C57.5546 15.4514 57.4251 15.6286 57.2752 15.615L55.2304 15.5128C54.9442 17.1758 54.801 18.5526 54.801 19.6431C54.801 20.7336 54.9578 21.2789 55.2713 21.2789C55.5303 21.2789 56.0006 21.0676 56.6822 20.645C57.3638 20.2088 57.8545 19.7931 58.1544 19.3977C58.4543 19.0024 58.6996 18.8048 58.8905 18.8048C59.0813 18.8048 59.1767 19.0365 59.1767 19.5C59.1767 19.9635 59.0132 20.4406 58.686 20.9313C58.3589 21.4084 57.9431 21.8514 57.4387 22.2604C56.948 22.6557 56.3959 22.9828 55.7825 23.2418C55.1827 23.5008 54.6579 23.6303 54.2081 23.6303C53.7582 23.6303 53.4106 23.5281 53.1652 23.3236C52.9335 23.1055 52.7359 22.8193 52.5723 22.4648Z" fill="#18181B"/>
<path d="M62.9264 21.3402C63.9897 21.3402 65.0189 20.9177 66.014 20.0725C66.382 19.759 66.6819 19.4727 66.9136 19.2137C67.1454 18.9411 67.3226 18.8048 67.4453 18.8048C67.6361 18.8048 67.7315 18.9956 67.7315 19.3773C67.7315 19.759 67.6293 20.1884 67.4248 20.6655C67.2204 21.1289 66.8796 21.5856 66.4025 22.0354C65.2302 23.1396 63.6216 23.6917 61.5769 23.6917C59.9548 23.6917 58.8506 23.1055 58.2644 21.9332C58.06 21.5243 57.9577 20.9381 57.9577 20.1747C57.9577 19.4114 58.1077 18.6207 58.4076 17.8029C58.7075 16.9713 59.1028 16.2557 59.5935 15.6559C60.0979 15.0561 60.6772 14.5926 61.3315 14.2655C61.9858 13.9247 62.6811 13.7543 63.4172 13.7543C64.1669 13.7543 64.7394 13.9383 65.1347 14.3064C65.5437 14.6744 65.7481 15.1515 65.7481 15.7377C65.7481 16.3238 65.5982 16.8078 65.2983 17.1894C65.012 17.5575 64.6372 17.871 64.1737 18.13C63.7102 18.3754 63.1922 18.6003 62.6197 18.8048C62.0608 18.9956 61.5087 19.2137 60.9635 19.4591V19.9703C60.9771 20.461 61.1816 20.8086 61.5769 21.0131C61.9722 21.2176 62.4221 21.3266 62.9264 21.3402ZM62.5788 15.5741C61.87 15.5741 61.3792 16.3988 61.1066 18.0482C61.3929 17.8574 61.6587 17.687 61.9041 17.537C62.1631 17.3871 62.388 17.244 62.5788 17.1076C62.9878 16.8078 63.1991 16.467 63.2127 16.0853C63.2127 15.7445 63.0014 15.5741 62.5788 15.5741Z" fill="#18181B"/>
<path d="M69.6938 20.1338L69.8165 22.6284C69.8165 22.9556 69.6461 23.2486 69.3053 23.5076C68.9645 23.7666 68.5011 23.8961 67.9149 23.8961C67.5741 23.8961 67.3356 23.7189 67.1993 23.3645C67.0766 23.0101 67.0152 22.4921 67.0152 21.8105C67.0152 20.3792 67.0834 19.2614 67.2197 18.4572C67.3697 17.6393 67.6559 16.8146 68.0785 15.983C67.4514 15.3833 67.1379 14.8653 67.1379 14.4291C67.1379 13.5157 67.6287 13.0591 68.6101 13.0591C69.1145 13.0591 69.5575 13.3249 69.9392 13.8565C70.2118 14.2246 70.4095 14.654 70.5322 15.1447C70.723 15.2129 70.9616 15.2469 71.2478 15.2469C71.6431 15.2469 72.0998 15.1174 72.6178 14.8584L73.1494 14.5926C73.313 14.5108 73.4561 14.4699 73.5788 14.4699C73.9741 14.4699 74.3694 15.0493 74.7648 16.208C74.6421 16.7396 74.5058 17.2508 74.3558 17.7415C74.2195 18.2322 74.0559 18.8252 73.8651 19.5204C73.6742 20.2156 73.572 20.6859 73.5584 20.9313C73.5584 21.163 73.6333 21.2789 73.7833 21.2789C73.9878 21.2789 74.2399 21.1494 74.5398 20.8904C74.8397 20.6314 75.1396 20.3519 75.4395 20.0521C75.7394 19.7385 76.012 19.4523 76.2574 19.1933C76.5164 18.9343 76.6936 18.8048 76.789 18.8048C76.9799 18.8048 77.0753 19.0365 77.0753 19.5C77.0753 20.4406 76.6595 21.3675 75.828 22.2808C75.0101 23.1941 74.0696 23.644 73.0063 23.6303C72.3792 23.6303 71.909 23.3781 71.5954 22.8738C71.2819 22.3694 71.1183 21.756 71.1047 21.0335C71.1047 19.6022 71.425 18.2459 72.0657 16.9645C71.7658 17.0872 71.425 17.1485 71.0434 17.1485C70.6753 17.1485 70.4095 17.1349 70.2459 17.1076C70.1232 17.6256 70.0005 18.1505 69.8779 18.6821C69.7552 19.2001 69.6938 19.684 69.6938 20.1338Z" fill="#18181B"/>
<path d="M94.505 20.2565C94.8594 19.9975 95.1798 19.684 95.466 19.316C95.7523 18.9343 95.9908 18.7434 96.1817 18.7434C96.3862 18.7434 96.4884 19.0433 96.4884 19.6431C96.4884 20.2293 96.318 20.7882 95.9772 21.3198C95.6501 21.8378 95.2138 22.274 94.6686 22.6284C93.5508 23.3645 92.2285 23.7326 90.7018 23.7326C88.8479 23.7326 87.4098 23.2691 86.3874 22.3422C85.3651 21.4152 84.8539 20.127 84.8539 18.4776C84.8539 16.4465 85.3446 14.5177 86.3261 12.691C86.6533 12.0912 87.0213 11.5392 87.4302 11.0348C87.1167 10.6668 86.8645 10.2851 86.6737 9.88975C86.4965 9.48081 86.4079 9.1741 86.4079 8.96963C86.4079 8.60157 86.5442 8.41755 86.8168 8.41755C87.0077 8.43118 87.2258 8.56068 87.4711 8.80605L88.105 9.41947C88.2686 9.58305 88.439 9.71936 88.6162 9.82841C89.9657 8.68336 91.4175 8.11084 92.9715 8.11084C94.5391 8.11084 95.5546 8.54705 96.0181 9.41947C96.1817 9.74662 96.2635 10.1488 96.2635 10.6259C96.2635 11.3483 95.95 11.9549 95.3229 12.4457C94.6959 12.9364 93.8507 13.1818 92.7874 13.1818C91.7378 13.1818 90.6473 12.9637 89.5159 12.5275C88.548 14.1769 88.0641 15.9013 88.0641 17.7006C88.0641 20.1952 89.0592 21.4425 91.0494 21.4425C92.2763 21.4425 93.4281 21.0472 94.505 20.2565ZM90.4973 11.2597C91.1925 11.4915 91.9491 11.6073 92.767 11.6073C93.5849 11.6073 93.9938 11.3824 93.9938 10.9326C93.9938 10.4009 93.6599 10.1351 92.9919 10.1351C92.0786 10.1351 91.2471 10.51 90.4973 11.2597Z" fill="#18181B"/>
<path d="M108.017 18.7434C108.263 18.7434 108.385 19.057 108.385 19.684C108.385 20.0248 108.242 20.4406 107.956 20.9313C107.67 21.4084 107.295 21.8514 106.831 22.2604C106.381 22.6557 105.877 22.9828 105.318 23.2418C104.759 23.5008 104.214 23.6303 103.682 23.6303C102.96 23.6303 102.476 22.9965 102.231 21.7287C101.876 22.3149 101.413 22.7988 100.84 23.1805C100.268 23.5485 99.4974 23.7326 98.5296 23.7326C97.5754 23.7326 96.8052 23.4327 96.2191 22.8329C95.6329 22.2331 95.3466 21.5038 95.3603 20.645C95.3603 18.3277 96.1305 16.501 97.6708 15.1652C98.3251 14.6063 98.9317 14.2382 99.4906 14.061C100.063 13.8838 100.663 13.7952 101.29 13.7952C101.917 13.7952 102.428 13.9042 102.824 14.1223C103.014 13.727 103.232 13.5294 103.478 13.5294C103.955 13.5294 104.405 13.7407 104.827 14.1632C105.264 14.5722 105.482 14.9607 105.482 15.3287C105.291 15.7786 105.011 16.317 104.643 16.9441C104.534 17.5711 104.48 18.4504 104.48 19.5818C104.48 20.7132 104.623 21.2789 104.909 21.2789C105.264 21.2789 106.122 20.5701 107.486 19.1524C107.731 18.8797 107.908 18.7434 108.017 18.7434ZM98.366 19.9703C98.366 21.0199 98.7545 21.5447 99.5315 21.5447C100.363 21.5311 101.051 21.0881 101.597 20.2156C101.788 19.9157 101.944 19.5477 102.067 19.1115C102.067 17.5847 102.203 16.2761 102.476 15.1856C101.372 15.4037 100.411 15.9353 99.5929 16.7805C98.775 17.6256 98.366 18.6889 98.366 19.9703Z" fill="#18181B"/>
<path d="M108.263 22.4648C108.113 22.0968 108.004 21.6742 107.936 21.1971C107.868 20.7064 107.834 20.0248 107.834 19.1524C107.834 18.28 107.997 17.1008 108.324 15.615H107.404C107.241 15.615 107.159 15.5468 107.159 15.4105C107.159 15.0834 107.186 14.8176 107.241 14.6131C107.309 14.395 107.459 14.1496 107.691 13.877H108.181C108.372 13.877 108.577 13.8702 108.795 13.8565C109.449 11.7573 110.117 10.7076 110.799 10.7076C111.344 10.7213 111.726 11.0689 111.944 11.7505C111.998 11.9413 112.06 12.1458 112.128 12.3639L111.289 13.8361C112.244 13.8633 112.843 13.877 113.089 13.877C113.348 13.877 113.484 13.9042 113.498 13.9588C113.525 13.9997 113.539 14.0678 113.539 14.1632C113.539 14.4086 113.477 14.7153 113.355 15.0834C113.245 15.4514 113.116 15.6286 112.966 15.615L110.921 15.5128C110.635 17.1758 110.492 18.5526 110.492 19.6431C110.492 20.7336 110.649 21.2789 110.962 21.2789C111.221 21.2789 111.691 21.0676 112.373 20.645C113.055 20.2088 113.545 19.7931 113.845 19.3977C114.145 19.0024 114.391 18.8048 114.581 18.8048C114.772 18.8048 114.868 19.0365 114.868 19.5C114.868 19.9635 114.704 20.4406 114.377 20.9313C114.05 21.4084 113.634 21.8514 113.13 22.2604C112.639 22.6557 112.087 22.9828 111.473 23.2418C110.874 23.5008 110.349 23.6303 109.899 23.6303C109.449 23.6303 109.101 23.5281 108.856 23.3236C108.624 23.1055 108.427 22.8193 108.263 22.4648Z" fill="#18181B"/>
</svg>
