<svg width="114" height="32" viewBox="0 0 114 32" fill="none" xmlns="http://www.w3.org/2000/svg">
<path fill-rule="evenodd" clip-rule="evenodd" d="M30.531 10.0714C30.3801 10.2311 30.3047 10.4353 30.3047 10.6837V25.0075C30.3047 25.5577 30.5798 25.8329 31.13 25.8329H32.408C32.9582 25.8329 33.2333 25.5577 33.2333 25.0075V20.2684H35.0172C35.7271 20.2684 36.3972 20.1664 37.0273 19.9622C37.6573 19.7581 38.2076 19.4431 38.678 19.0171C39.1483 18.5911 39.5211 18.0497 39.7961 17.393C40.0713 16.7363 40.2089 15.9553 40.2089 15.0501C40.2089 14.1449 40.0713 13.3683 39.7961 12.7205C39.5211 12.0726 39.1483 11.5357 38.678 11.1097C38.2076 10.6837 37.6573 10.3687 37.0273 10.1646C36.3972 9.96048 35.7271 9.84955 35.0172 9.83179H31.13C30.8815 9.83179 30.6819 9.91165 30.531 10.0714ZM35.0172 17.8989H33.2333V12.2014H35.0172C35.7271 12.2014 36.3262 12.4277 36.8143 12.8803C37.3024 13.3329 37.5464 14.0562 37.5464 15.0501C37.5464 16.0263 37.2935 16.7408 36.7877 17.1934C36.2818 17.646 35.6917 17.8812 35.0172 17.8989Z" fill="#27272A"/>
<path fill-rule="evenodd" clip-rule="evenodd" d="M44.7079 23.5166C44.1843 22.9841 43.8693 22.2209 43.7628 21.227V21.1471H50.3123C50.7028 21.1471 50.9158 20.943 50.9513 20.5347V20.4016L50.9779 20.1087V19.9756C50.9779 18.2362 50.5652 16.8562 49.7399 15.8356C48.9146 14.815 47.7476 14.3047 46.2388 14.3047C45.4579 14.3047 44.7434 14.4467 44.0956 14.7307C43.4478 15.0146 42.8975 15.4229 42.4449 15.9554C41.9923 16.4879 41.6417 17.1268 41.3932 17.8723C41.1448 18.6178 41.0205 19.452 41.0205 20.375C41.0205 21.3512 41.1581 22.2165 41.4332 22.9708C41.7083 23.7252 42.09 24.3597 42.578 24.8745C43.0662 25.3892 43.6475 25.7797 44.3219 26.0459C44.9963 26.3121 45.7329 26.4453 46.5317 26.4453C47.153 26.4453 47.7609 26.361 48.3555 26.1923C48.9501 26.0237 49.5048 25.7442 50.0194 25.3537C50.2147 25.1939 50.3123 24.9987 50.3123 24.7679C50.3123 24.686 50.293 24.5925 50.2544 24.4874C50.2345 24.4331 50.2094 24.3758 50.1792 24.3153L49.9396 23.8893C49.7621 23.5876 49.5225 23.4367 49.2207 23.4367C49.0255 23.4367 48.8391 23.4989 48.6616 23.6231C48.3422 23.8361 48.0138 24.0047 47.6765 24.129C47.3392 24.2532 46.9932 24.3153 46.6382 24.3153C45.875 24.3153 45.2316 24.0491 44.7079 23.5166ZM48.422 19.2301H43.7628V19.1503C43.8693 18.316 44.1311 17.6549 44.5482 17.1667C44.9653 16.6786 45.5111 16.4346 46.1855 16.4346C46.8601 16.4346 47.397 16.6742 47.7964 17.1534C48.1957 17.6327 48.4043 18.3072 48.422 19.1769V19.2301Z" fill="#27272A"/>
<path d="M56.315 26.1259C55.676 26.1259 55.1569 26.0327 54.7575 25.8463C54.3581 25.66 54.0431 25.3893 53.8123 25.0343C53.5816 24.6793 53.4218 24.24 53.3331 23.7164C53.2444 23.1928 53.2 22.5938 53.2 21.9193V16.4081H52.4279C52.1794 16.4081 51.9797 16.3327 51.8288 16.1818C51.678 16.0309 51.6025 15.8312 51.6025 15.5827V15.2633C51.6025 15.0148 51.6735 14.8151 51.8155 14.6642C51.9575 14.5133 52.1528 14.4202 52.4013 14.3847C52.8095 14.3492 53.0846 14.1939 53.2266 13.9187C53.3686 13.6436 53.4396 13.1688 53.4396 12.4944V11.8021C53.4396 11.6246 53.5372 11.5359 53.7325 11.5359H55.037C55.2855 11.5359 55.4852 11.6113 55.6361 11.7622C55.787 11.9131 55.8624 12.1127 55.8624 12.3612V14.3314H57.6196C57.8681 14.3314 58.0677 14.4069 58.2186 14.5577C58.3695 14.7086 58.4449 14.9083 58.4449 15.1568V15.5827C58.4449 15.8312 58.3695 16.0309 58.2186 16.1818C58.0677 16.3327 57.8681 16.4081 57.6196 16.4081H55.8624V22.292C55.8801 22.7535 55.9556 23.1484 56.0887 23.4768C56.2218 23.8051 56.4925 23.9693 56.9007 23.9693C57.1137 23.9693 57.3533 23.925 57.6196 23.8362C57.7616 23.8007 57.8681 23.783 57.9391 23.783C58.3296 23.783 58.5603 23.9782 58.6313 24.3687L58.7644 24.8479C58.7822 24.9012 58.791 24.9722 58.791 25.0609C58.791 25.3094 58.689 25.5046 58.4849 25.6466C58.2807 25.7886 58.0411 25.8951 57.766 25.9661C57.4909 26.0371 57.2158 26.0815 56.9407 26.0993C56.6655 26.117 56.457 26.1259 56.315 26.1259Z" fill="#27272A"/>
<path fill-rule="evenodd" clip-rule="evenodd" d="M63.4237 23.5166C62.9001 22.9841 62.5851 22.2209 62.4786 21.227V21.1471H69.0281C69.4186 21.1471 69.6316 20.943 69.6671 20.5347V20.4016L69.6937 20.1087V19.9756C69.6937 18.2362 69.281 16.8562 68.4557 15.8356C67.6304 14.815 66.4634 14.3047 64.9546 14.3047C64.1737 14.3047 63.4592 14.4467 62.8114 14.7307C62.1636 15.0146 61.6133 15.4229 61.1608 15.9554C60.7081 16.4879 60.3575 17.1268 60.109 17.8723C59.8606 18.6178 59.7363 19.452 59.7363 20.375C59.7363 21.3512 59.8739 22.2165 60.149 22.9708C60.4241 23.7252 60.8058 24.3597 61.2938 24.8745C61.782 25.3892 62.3633 25.7797 63.0377 26.0459C63.7122 26.3121 64.4487 26.4453 65.2476 26.4453C65.8688 26.4453 66.4767 26.361 67.0713 26.1923C67.6659 26.0237 68.2206 25.7442 68.7352 25.3537C68.9305 25.1939 69.0281 24.9987 69.0281 24.7679C69.0281 24.6437 68.9838 24.4928 68.895 24.3153L68.6554 23.8893C68.4779 23.5876 68.2383 23.4367 67.9365 23.4367C67.7413 23.4367 67.5549 23.4989 67.3774 23.6231C67.058 23.8361 66.7296 24.0047 66.3923 24.129C66.0551 24.2532 65.709 24.3153 65.354 24.3153C64.5908 24.3153 63.9474 24.0491 63.4237 23.5166ZM67.1377 19.2301H62.4785V19.1503C62.585 18.316 62.8468 17.6549 63.2639 17.1667C63.681 16.6786 64.2268 16.4346 64.9012 16.4346C65.5758 16.4346 66.1127 16.6742 66.5121 17.1534C66.9114 17.6327 67.12 18.3072 67.1377 19.1769V19.2301Z" fill="#27272A"/>
<path d="M71.4365 15.3962C71.4365 15.1477 71.512 14.9436 71.6628 14.7839C71.8137 14.6241 72.0134 14.5443 72.2619 14.5443H73.2203C73.4688 14.5443 73.6685 14.6241 73.8194 14.7839C73.9702 14.9436 74.0457 15.1477 74.0457 15.3962V16.6209C74.3829 15.9465 74.8 15.4095 75.297 15.0102C75.794 14.6108 76.4063 14.4111 77.1341 14.4111C77.2761 14.4111 77.4225 14.4333 77.5734 14.4777C77.7242 14.5221 77.7997 14.6507 77.7997 14.8637V16.5943C77.7997 16.7541 77.7021 16.8339 77.5068 16.8339H77.3204C76.575 16.8517 75.9404 17.1135 75.4168 17.6193C74.8932 18.1252 74.4628 18.7686 74.1256 19.5496L74.0989 19.6827V25.3802C74.0989 25.9305 73.8238 26.2056 73.2736 26.2056H72.2619C71.7116 26.2056 71.4365 25.9305 71.4365 25.3802V15.3962Z" fill="#27272A"/>
<path d="M90.6771 26.046C89.5944 26.046 88.6226 25.8552 87.7618 25.4735C86.901 25.0919 86.1732 24.5461 85.5786 23.8362C84.984 23.1262 84.5314 22.2653 84.2208 21.2536C83.9102 20.2419 83.7549 19.0971 83.7549 17.8191C83.7549 16.5589 83.9102 15.4185 84.2208 14.3979C84.5314 13.3773 84.984 12.5121 85.5786 11.8021C86.1732 11.0921 86.8965 10.5463 87.7485 10.1647C88.6005 9.78309 89.5678 9.59229 90.6505 9.59229C90.8458 9.59229 91.1697 9.61891 91.6223 9.67216C92.0749 9.72541 92.5319 9.80972 92.9934 9.92509C93.4549 10.0405 93.8676 10.2002 94.2315 10.4043C94.5953 10.6084 94.7772 10.8614 94.7772 11.1631C94.7772 11.3051 94.7595 11.4116 94.724 11.4826L94.4311 12.2014C94.3601 12.3967 94.2581 12.5387 94.125 12.6274C93.9918 12.7162 93.8454 12.7605 93.6857 12.7605C93.4904 12.7605 93.3218 12.7251 93.1798 12.6541C92.7893 12.4411 92.39 12.2813 91.9817 12.1748C91.5735 12.0683 91.183 12.0151 90.8103 12.0151C90.118 12.0151 89.5146 12.1659 88.9998 12.4677C88.4851 12.7694 88.0635 13.1821 87.7352 13.7057C87.4068 14.2293 87.1628 14.8417 87.003 15.5428C86.8433 16.2439 86.7634 16.9938 86.7634 17.7925C86.7634 18.5912 86.8433 19.3456 87.003 20.0555C87.1628 20.7655 87.4113 21.3823 87.7485 21.9059C88.0857 22.4295 88.5117 22.8466 89.0264 23.1572C89.5412 23.4679 90.1447 23.6232 90.8369 23.6232C91.2451 23.6232 91.6445 23.561 92.035 23.4368C92.4255 23.3126 92.8159 23.1528 93.2064 22.9576C93.3839 22.8688 93.5437 22.8244 93.6857 22.8244C94.0229 22.8244 94.2714 23.0108 94.4311 23.3836L94.724 24.1024C94.7595 24.2089 94.7772 24.3154 94.7772 24.4219C94.7595 24.7236 94.5731 24.9766 94.2181 25.1807C93.8632 25.3848 93.4549 25.5534 92.9934 25.6865C92.5319 25.8197 92.0793 25.9128 91.6356 25.9661C91.1919 26.0193 90.8724 26.046 90.6771 26.046Z" fill="#27272A"/>
<path fill-rule="evenodd" clip-rule="evenodd" d="M101.899 18.4847V19.1769H101.846C101.278 19.1769 100.63 19.2168 99.9023 19.2967C99.1746 19.3766 98.4912 19.5452 97.8521 19.8026C97.2131 20.0599 96.6719 20.4415 96.228 20.9474C95.7844 21.4532 95.5625 22.1322 95.5625 22.9841C95.5625 24.1201 95.8865 24.9765 96.5342 25.5533C97.1821 26.1302 97.9763 26.4186 98.9172 26.4186C99.5029 26.4186 100.075 26.2988 100.634 26.0592C101.194 25.8196 101.677 25.4424 102.085 24.9277C102.281 25.4779 102.587 25.8595 103.004 26.0725C103.421 26.2855 103.887 26.392 104.402 26.392C104.526 26.392 104.664 26.3831 104.814 26.3654C104.892 26.3563 104.967 26.3414 105.039 26.3207C105.108 26.301 105.175 26.2759 105.24 26.2456C105.374 26.1835 105.484 26.0947 105.573 25.9793C105.662 25.864 105.706 25.7175 105.706 25.54L105.626 24.3153C105.591 24.1378 105.484 24.0491 105.307 24.0491L105.041 24.0757C104.703 24.0402 104.535 23.7829 104.535 23.3036V18.4048C104.535 17.6416 104.442 16.9982 104.255 16.4745C104.069 15.9509 103.803 15.5294 103.457 15.2099C103.11 14.8904 102.693 14.6597 102.205 14.5177C101.717 14.3757 101.162 14.3047 100.541 14.3047C100.364 14.3047 100.04 14.3313 99.5693 14.3846C99.0991 14.4378 98.6199 14.5266 98.1318 14.6508C97.6436 14.7751 97.2131 14.9348 96.8406 15.13C96.4678 15.3253 96.2812 15.5649 96.2812 15.8489C96.2812 15.9199 96.2991 16.0264 96.3347 16.1684L96.5476 16.7275C96.6897 17.1002 96.9292 17.2866 97.2664 17.2866C97.4438 17.2866 97.5947 17.2511 97.719 17.1801C98.1272 16.9848 98.531 16.8206 98.9304 16.6875C99.3298 16.5544 99.7246 16.4879 100.115 16.4879C100.63 16.4879 101.052 16.6343 101.38 16.9272C101.708 17.22 101.881 17.7392 101.899 18.4847ZM101.873 20.9873H101.899V23.064C101.562 23.4545 101.185 23.7518 100.768 23.9559C100.351 24.16 99.929 24.2621 99.5029 24.2621C99.1479 24.2621 98.8508 24.16 98.6111 23.9559C98.3716 23.7518 98.2517 23.3835 98.2517 22.851C98.2517 22.5992 98.2805 22.3853 98.3386 22.2094C98.3625 22.1374 98.3914 22.0717 98.4248 22.0123C98.54 21.8082 98.6865 21.6485 98.864 21.5331C99.0415 21.4177 99.2456 21.3334 99.4763 21.2802C99.7073 21.2269 99.938 21.1826 100.169 21.1471C100.488 21.0938 100.803 21.0583 101.114 21.0406C101.424 21.0228 101.677 21.0051 101.873 20.9873Z" fill="#27272A"/>
<path d="M110.778 26.1259C110.139 26.1259 109.62 26.0327 109.22 25.8463C108.821 25.66 108.506 25.3893 108.275 25.0343C108.044 24.6793 107.885 24.24 107.796 23.7164C107.707 23.1928 107.663 22.5938 107.663 21.9193V16.4081H106.891C106.642 16.4081 106.443 16.3327 106.292 16.1818C106.141 16.0309 106.065 15.8312 106.065 15.5827V15.2633C106.065 15.0148 106.136 14.8151 106.278 14.6642C106.42 14.5133 106.616 14.4202 106.864 14.3847C107.272 14.3492 107.548 14.1939 107.689 13.9187C107.831 13.6436 107.902 13.1688 107.902 12.4944V11.8021C107.902 11.6246 108 11.5359 108.195 11.5359H109.5C109.748 11.5359 109.948 11.6113 110.099 11.7622C110.25 11.9131 110.325 12.1127 110.325 12.3612V14.3314H112.082C112.331 14.3314 112.531 14.4069 112.682 14.5577C112.832 14.7086 112.908 14.9083 112.908 15.1568V15.5827C112.908 15.8312 112.832 16.0309 112.682 16.1818C112.531 16.3327 112.331 16.4081 112.082 16.4081H110.325V22.292C110.343 22.7535 110.418 23.1484 110.552 23.4768C110.685 23.8051 110.955 23.9693 111.364 23.9693C111.577 23.9693 111.816 23.925 112.082 23.8362C112.224 23.8007 112.331 23.783 112.402 23.783C112.792 23.783 113.023 23.9782 113.094 24.3687L113.227 24.8479C113.245 24.9012 113.254 24.9722 113.254 25.0609C113.254 25.3094 113.152 25.5046 112.948 25.6466C112.744 25.7886 112.504 25.8951 112.229 25.9661C111.954 26.0371 111.679 26.0815 111.404 26.0993C111.128 26.117 110.92 26.1259 110.778 26.1259Z" fill="#27272A"/>
<path fill-rule="evenodd" clip-rule="evenodd" d="M17.0167 24.4736C17.0403 24.4826 17.0621 24.4958 17.0809 24.5126L17.6792 25.0485C17.7607 25.1216 17.7906 25.2364 17.7551 25.34C17.6003 25.7915 17.6077 26.1693 17.7776 26.4733C18.1041 27.0578 18.7302 27.9514 19.8761 28.9049L19.9125 28.9109C20.4929 29.01 20.9584 29.223 21.0262 29.5167C21.1518 30.0606 20.0503 30.7499 19.0377 31.0131C18.0251 31.2763 17.2018 30.9757 17.0762 30.4318C16.9571 29.9159 17.2631 29.223 18.1964 28.9646C17.4812 28.2389 17.0141 27.5671 16.7236 27.002C16.3888 26.3511 16.3951 25.5575 16.7426 24.6212L16.7532 24.5928C16.7931 24.4871 16.911 24.4338 17.0167 24.4736ZM6.74751 25.4916C6.77826 25.5006 6.80645 25.5168 6.8298 25.5387L7.42445 26.098C7.49759 26.1668 7.52701 26.2702 7.50102 26.3672C7.4144 26.6899 7.44754 27.0281 7.60043 27.3817C7.85948 27.9809 8.36275 28.4006 9.15461 28.9669L9.19108 28.973C9.76617 29.0729 10.2261 29.285 10.2935 29.5768C10.4191 30.1207 9.31759 30.8101 8.305 31.0733C7.29241 31.3365 6.46909 31.0358 6.34351 30.4919C6.22737 29.9888 6.51547 29.3173 7.39548 29.0447C7.0036 28.6618 6.70982 28.2676 6.50023 27.806C6.23814 27.2289 6.23596 26.5035 6.49366 25.63C6.52551 25.5217 6.63917 25.4597 6.74751 25.4916Z" fill="#FFAF53"/>
<path fill-rule="evenodd" clip-rule="evenodd" d="M7.14992 7.28546C5.72422 8.04422 3.98454 8.15573 2.46171 7.61787C1.93838 7.43304 1.39333 7.2771 0.89608 7.20449C0.881214 7.20232 0.865418 7.20006 0.848885 7.19773C0.5426 7.15454 0.258842 7.41873 0.337446 7.71789C0.722763 9.18436 1.98014 12.1322 1.98014 12.1322C1.98014 12.1322 2.18256 15.2713 2.88728 18.6465C3.1607 19.956 3.28421 21.5896 3.33298 23.0987C3.38962 24.8514 5.43341 25.8589 6.49882 24.466C6.57534 24.5622 6.65901 24.6579 6.74818 24.7526C8.00094 26.0839 10.1336 25.337 11.1527 23.8194C11.3267 23.9739 11.5025 24.1212 11.6779 24.2611C13.2922 25.5493 15.6309 24.7895 16.2832 22.8299C16.4146 23.0226 16.5989 23.239 16.8112 23.4633C17.8621 24.5733 19.6721 24.0295 20.1123 22.5657C21.7128 23.7882 23.7109 23.4236 23.4424 21.4277C23.1717 19.4149 22.5223 16.8343 21.1299 13.7509C19.1857 9.44528 14.8669 2.92606 13.8553 1.54266C13.8016 1.46926 13.6994 1.35461 13.5842 1.23163C13.2994 0.927565 12.7837 0.978883 12.6126 1.35878C12.1711 2.33939 11.7892 3.13687 11.467 3.75121C10.6015 5.40138 8.87736 6.38878 7.22334 7.24687C7.19888 7.25957 7.1744 7.27243 7.14992 7.28546Z" fill="#27272A"/>
<path fill-rule="evenodd" clip-rule="evenodd" d="M13.6528 12.9254C14.7482 12.6926 15.4284 11.5263 15.1721 10.3204C14.9157 9.11459 13.82 8.32581 12.7246 8.55864C11.6292 8.79148 10.949 9.95775 11.2053 11.1636C11.4616 12.3694 12.5574 13.1582 13.6528 12.9254ZM13.8471 11.7089C14.2613 11.6209 14.5186 11.1798 14.4216 10.7238C14.3247 10.2678 13.9103 9.96956 13.4961 10.0576C13.0819 10.1457 12.8247 10.5867 12.9216 11.0427C13.0185 11.4987 13.4329 11.797 13.8471 11.7089Z" fill="white"/>
<path fill-rule="evenodd" clip-rule="evenodd" d="M6.03534 15.0883C6.90981 14.9025 7.45217 13.9683 7.24673 13.0017C7.04129 12.0352 6.16585 11.4024 5.29138 11.5882C4.41691 11.7741 3.87455 12.7083 4.07999 13.6748C4.28543 14.6414 5.16087 15.2742 6.03534 15.0883ZM6.19617 14.1122C6.52685 14.0419 6.73195 13.6886 6.65426 13.3231C6.57657 12.9577 6.24552 12.7183 5.91484 12.7886C5.58415 12.8589 5.37906 13.2122 5.45675 13.5777C5.53444 13.9432 5.86548 14.1825 6.19617 14.1122Z" fill="white"/>
</svg>
