<svg width="114" height="32" viewBox="0 0 114 32" fill="none" xmlns="http://www.w3.org/2000/svg">
<path fill-rule="evenodd" clip-rule="evenodd" d="M17.0167 24.4735C17.0403 24.4824 17.0621 24.4957 17.0809 24.5125L17.6792 25.0484C17.7607 25.1215 17.7906 25.2363 17.7551 25.3399C17.6003 25.7914 17.6077 26.1692 17.7776 26.4732C18.1041 27.0577 18.7302 27.9513 19.8761 28.9048L19.9125 28.9108C20.4929 29.0099 20.9584 29.2229 21.0262 29.5166C21.1518 30.0605 20.0503 30.7498 19.0377 31.013C18.0251 31.2762 17.2018 30.9756 17.0762 30.4317C16.9571 29.9158 17.2631 29.2228 18.1964 28.9645C17.4812 28.2388 17.0141 27.567 16.7236 27.0019C16.3888 26.351 16.3951 25.5573 16.7426 24.621L16.7532 24.5926C16.7931 24.487 16.911 24.4337 17.0167 24.4735ZM6.74751 25.4915C6.77826 25.5005 6.80645 25.5167 6.8298 25.5386L7.42445 26.0979C7.49759 26.1666 7.52701 26.2701 7.50102 26.367C7.4144 26.6898 7.44754 27.028 7.60043 27.3816C7.85948 27.9808 8.36275 28.4004 9.15461 28.9668L9.19108 28.9729C9.76617 29.0728 10.2261 29.2849 10.2935 29.5767C10.4191 30.1206 9.31759 30.81 8.305 31.0731C7.29241 31.3363 6.46909 31.0357 6.34351 30.4918C6.22737 29.9887 6.51547 29.3172 7.39548 29.0446C7.0036 28.6617 6.70982 28.2675 6.50023 27.8059C6.23814 27.2287 6.23596 26.5034 6.49366 25.6299C6.52551 25.5216 6.63917 25.4596 6.74751 25.4915Z" fill="#FFAF53"/>
<path fill-rule="evenodd" clip-rule="evenodd" d="M7.14992 7.28546C5.72422 8.04422 3.98454 8.15573 2.46171 7.61787C1.93838 7.43304 1.39333 7.2771 0.89608 7.20449C0.881214 7.20232 0.865418 7.20006 0.848885 7.19773C0.5426 7.15454 0.258842 7.41873 0.337446 7.71789C0.722763 9.18436 1.98014 12.1322 1.98014 12.1322C1.98014 12.1322 2.18256 15.2713 2.88728 18.6465C3.1607 19.956 3.28421 21.5896 3.33298 23.0987C3.38962 24.8514 5.43341 25.8589 6.49882 24.466C6.57534 24.5622 6.65901 24.6579 6.74818 24.7526C8.00094 26.0839 10.1336 25.337 11.1527 23.8194C11.3267 23.9739 11.5025 24.1212 11.6779 24.2611C13.2922 25.5493 15.6309 24.7895 16.2832 22.8299C16.4146 23.0226 16.5989 23.239 16.8112 23.4633C17.8621 24.5733 19.6721 24.0295 20.1123 22.5657C21.7128 23.7882 23.7109 23.4236 23.4424 21.4277C23.1717 19.4149 22.5223 16.8343 21.1299 13.7509C19.1857 9.44528 14.8669 2.92606 13.8553 1.54266C13.8016 1.46926 13.6994 1.35461 13.5842 1.23163C13.2994 0.927565 12.7837 0.978883 12.6126 1.35878C12.1711 2.33939 11.7892 3.13687 11.467 3.75121C10.6015 5.40138 8.87736 6.38878 7.22334 7.24687C7.19888 7.25957 7.1744 7.27243 7.14992 7.28546Z" fill="#F4F4F5"/>
<path fill-rule="evenodd" clip-rule="evenodd" d="M13.6528 12.9255C14.7482 12.6926 15.4284 11.5263 15.1721 10.3205C14.9157 9.11465 13.82 8.32587 12.7246 8.5587C11.6292 8.79154 10.949 9.95781 11.2053 11.1637C11.4616 12.3695 12.5574 13.1583 13.6528 12.9255ZM13.8471 11.709C14.2613 11.6209 14.5186 11.1799 14.4216 10.7239C14.3247 10.2679 13.9103 9.96962 13.4961 10.0577C13.0819 10.1457 12.8247 10.5867 12.9216 11.0427C13.0185 11.4987 13.4329 11.797 13.8471 11.709Z" fill="black"/>
<path fill-rule="evenodd" clip-rule="evenodd" d="M6.03485 15.0882C6.90932 14.9023 7.45168 13.9681 7.24624 13.0016C7.0408 12.0351 6.16536 11.4023 5.29089 11.5881C4.41642 11.774 3.87406 12.7082 4.0795 13.6747C4.28494 14.6412 5.16038 15.2741 6.03485 15.0882ZM6.19568 14.1121C6.52636 14.0418 6.73146 13.6885 6.65377 13.323C6.57608 12.9575 6.24503 12.7182 5.91435 12.7885C5.58367 12.8588 5.37858 13.2121 5.45626 13.5776C5.53395 13.9431 5.865 14.1823 6.19568 14.1121Z" fill="black"/>
<path d="M33.0362 23.8961C33.0362 24.7003 32.2523 25.1024 30.6847 25.1024C30.3439 25.1024 30.1395 24.932 30.0713 24.5913C30.0168 24.2368 29.9895 23.7461 29.9895 23.1191C29.9895 21.7968 30.2553 20.161 30.787 18.2117C31.673 14.9947 32.6204 13.0999 33.6291 12.5274C33.7654 12.4456 33.9154 12.4047 34.079 12.4047C34.2425 12.4047 34.3243 12.6705 34.3243 13.2021C34.3243 13.7338 34.2971 14.204 34.2425 14.613C34.1335 15.4309 33.9358 16.4873 33.6496 17.7823C33.3769 19.0773 33.2406 19.8407 33.2406 20.0724L33.0362 23.8961ZM34.4266 18.3957C34.4266 18.2185 34.522 18.1027 34.7128 18.0481C34.9173 17.9936 35.1695 17.9459 35.4694 17.905C35.7693 17.8505 36.0964 17.7755 36.4509 17.6801C36.8053 17.5847 37.1324 17.4074 37.4323 17.1484C38.1275 16.5487 38.4751 15.5467 38.4751 14.1427C38.4751 13.243 38.1684 12.5546 37.555 12.0775C36.9552 11.6004 36.0828 11.3619 34.9378 11.3619C33.8063 11.3619 32.7431 11.6004 31.748 12.0775C31.3799 12.2547 31.046 12.4183 30.7461 12.5683C30.4598 12.7182 30.194 12.7932 29.9486 12.7932C29.7033 12.7932 29.5806 12.7182 29.5806 12.5683C29.5806 12.3365 29.8055 11.9548 30.2553 11.4232C30.7052 10.9325 31.414 10.4758 32.3818 10.0532C33.3633 9.63066 34.3925 9.41937 35.4694 9.41937C37.5005 9.40574 39.0817 9.88285 40.2132 10.8507C41.1946 11.6958 41.6854 12.7932 41.6854 14.1427C41.6854 15.4786 41.2014 16.6782 40.2336 17.7414C39.2658 18.791 38.0526 19.3159 36.594 19.3159C35.149 19.3159 34.4266 19.0092 34.4266 18.3957Z" fill="#F4F4F5"/>
<path d="M46.2513 22.567C47.3146 22.567 48.3438 22.1444 49.3389 21.2992C49.7069 20.9857 50.0068 20.6995 50.2385 20.4405C50.4703 20.1678 50.6475 20.0315 50.7702 20.0315C50.961 20.0315 51.0564 20.2224 51.0564 20.604C51.0564 20.9857 50.9542 21.4151 50.7497 21.8922C50.5453 22.3557 50.2045 22.8123 49.7274 23.2622C48.5551 24.3663 46.9465 24.9184 44.9018 24.9184C43.2797 24.9184 42.1755 24.3323 41.5893 23.16C41.3849 22.751 41.2826 22.1648 41.2826 21.4015C41.2826 20.6381 41.4326 19.8475 41.7325 19.0296C42.0324 18.1981 42.4277 17.4824 42.9184 16.8826C43.4228 16.2828 44.0021 15.8194 44.6564 15.4922C45.3108 15.1514 46.006 14.981 46.7421 14.981C47.4918 14.981 48.0643 15.1651 48.4596 15.5331C48.8686 15.9012 49.0731 16.3783 49.0731 16.9644C49.0731 17.5506 48.9231 18.0345 48.6232 18.4162C48.337 18.7842 47.9621 19.0978 47.4986 19.3568C47.0351 19.6021 46.5171 19.827 45.9446 20.0315C45.3857 20.2224 44.8336 20.4405 44.2884 20.6858V21.197C44.302 21.6877 44.5065 22.0353 44.9018 22.2398C45.2971 22.4443 45.747 22.5533 46.2513 22.567ZM45.9037 16.8008C45.1949 16.8008 44.7042 17.6256 44.4315 19.275C44.7178 19.0841 44.9836 18.9137 45.229 18.7638C45.488 18.6138 45.7129 18.4707 45.9037 18.3344C46.3127 18.0345 46.524 17.6937 46.5376 17.312C46.5376 16.9712 46.3263 16.8008 45.9037 16.8008Z" fill="#F4F4F5"/>
<path d="M50.9331 23.6916C50.7832 23.3235 50.6741 22.901 50.606 22.4238C50.5378 21.9331 50.5037 21.2515 50.5037 20.3791C50.5037 19.5067 50.6673 18.3276 50.9945 16.8417H50.0743C49.9108 16.8417 49.829 16.7736 49.829 16.6373C49.829 16.3101 49.8562 16.0443 49.9108 15.8398C49.9789 15.6217 50.1289 15.3763 50.3606 15.1037H50.8513C51.0422 15.1037 51.2466 15.0969 51.4647 15.0833C52.1191 12.984 52.787 11.9344 53.4686 11.9344C54.0138 11.948 54.3955 12.2956 54.6136 12.9772C54.6682 13.168 54.7295 13.3725 54.7976 13.5906L53.9593 15.0628C54.9135 15.0901 55.5133 15.1037 55.7587 15.1037C56.0177 15.1037 56.154 15.131 56.1676 15.1855C56.1949 15.2264 56.2085 15.2946 56.2085 15.39C56.2085 15.6353 56.1472 15.9421 56.0245 16.3101C55.9154 16.6782 55.7859 16.8554 55.636 16.8417L53.5913 16.7395C53.305 18.4025 53.1619 19.7793 53.1619 20.8699C53.1619 21.9604 53.3186 22.5056 53.6322 22.5056C53.8912 22.5056 54.3614 22.2943 55.043 21.8718C55.7246 21.4356 56.2153 21.0198 56.5152 20.6245C56.8151 20.2292 57.0605 20.0315 57.2513 20.0315C57.4422 20.0315 57.5376 20.2633 57.5376 20.7267C57.5376 21.1902 57.374 21.6673 57.0469 22.158C56.7197 22.6351 56.3039 23.0782 55.7996 23.4871C55.3088 23.8824 54.7568 24.2096 54.1433 24.4686C53.5436 24.7276 53.0187 24.8571 52.5689 24.8571C52.1191 24.8571 51.7715 24.7548 51.5261 24.5504C51.2943 24.3323 51.0967 24.046 50.9331 23.6916Z" fill="#F4F4F5"/>
<path d="M61.2873 22.567C62.3505 22.567 63.3797 22.1444 64.3748 21.2992C64.7429 20.9857 65.0427 20.6995 65.2745 20.4405C65.5062 20.1678 65.6834 20.0315 65.8061 20.0315C65.997 20.0315 66.0924 20.2224 66.0924 20.604C66.0924 20.9857 65.9901 21.4151 65.7857 21.8922C65.5812 22.3557 65.2404 22.8123 64.7633 23.2622C63.591 24.3663 61.9825 24.9184 59.9377 24.9184C58.3156 24.9184 57.2114 24.3323 56.6253 23.16C56.4208 22.751 56.3186 22.1648 56.3186 21.4015C56.3186 20.6381 56.4685 19.8475 56.7684 19.0296C57.0683 18.1981 57.4636 17.4824 57.9544 16.8826C58.4587 16.2828 59.0381 15.8194 59.6924 15.4922C60.3467 15.1514 61.0419 14.981 61.778 14.981C62.5277 14.981 63.1003 15.1651 63.4956 15.5331C63.9045 15.9012 64.109 16.3783 64.109 16.9644C64.109 17.5506 63.959 18.0345 63.6591 18.4162C63.3729 18.7842 62.998 19.0978 62.5345 19.3568C62.0711 19.6021 61.5531 19.827 60.9806 20.0315C60.4217 20.2224 59.8696 20.4405 59.3243 20.6858V21.197C59.338 21.6877 59.5424 22.0353 59.9377 22.2398C60.3331 22.4443 60.7829 22.5533 61.2873 22.567ZM60.9397 16.8008C60.2308 16.8008 59.7401 17.6256 59.4675 19.275C59.7537 19.0841 60.0195 18.9137 60.2649 18.7638C60.5239 18.6138 60.7488 18.4707 60.9397 18.3344C61.3486 18.0345 61.5599 17.6937 61.5735 17.312C61.5735 16.9712 61.3622 16.8008 60.9397 16.8008Z" fill="#F4F4F5"/>
<path d="M68.0547 21.3606L68.1774 23.8552C68.1774 24.1823 68.007 24.4754 67.6662 24.7344C67.3254 24.9934 66.8619 25.1229 66.2758 25.1229C65.935 25.1229 65.6964 24.9457 65.5601 24.5913C65.4374 24.2368 65.3761 23.7188 65.3761 23.0373C65.3761 21.606 65.4442 20.4882 65.5806 19.6839C65.7305 18.866 66.0168 18.0413 66.4393 17.2098C65.8123 16.61 65.4988 16.092 65.4988 15.6558C65.4988 14.7425 65.9895 14.2858 66.971 14.2858C67.4753 14.2858 67.9184 14.5516 68.3 15.0833C68.5727 15.4513 68.7703 15.8807 68.893 16.3715C69.0839 16.4396 69.3224 16.4737 69.6087 16.4737C70.004 16.4737 70.4606 16.3442 70.9786 16.0852L71.5103 15.8194C71.6738 15.7376 71.817 15.6967 71.9397 15.6967C72.335 15.6967 72.7303 16.276 73.1256 17.4347C73.0029 17.9663 72.8666 18.4775 72.7167 18.9683C72.5803 19.459 72.4168 20.052 72.2259 20.7472C72.0351 21.4424 71.9328 21.9127 71.9192 22.158C71.9192 22.3898 71.9942 22.5056 72.1441 22.5056C72.3486 22.5056 72.6008 22.3761 72.9007 22.1171C73.2006 21.8581 73.5005 21.5787 73.8004 21.2788C74.1003 20.9653 74.3729 20.679 74.6182 20.42C74.8772 20.161 75.0545 20.0315 75.1499 20.0315C75.3407 20.0315 75.4361 20.2633 75.4361 20.7267C75.4361 21.6673 75.0204 22.5942 74.1889 23.5076C73.371 24.4209 72.4304 24.8707 71.3671 24.8571C70.7401 24.8571 70.2698 24.6049 69.9563 24.1005C69.6427 23.5962 69.4792 22.9827 69.4655 22.2603C69.4655 20.829 69.7859 19.4726 70.4266 18.1913C70.1267 18.3139 69.7859 18.3753 69.4042 18.3753C69.0361 18.3753 68.7703 18.3617 68.6068 18.3344C68.4841 18.8524 68.3614 19.3772 68.2387 19.9088C68.116 20.4268 68.0547 20.9107 68.0547 21.3606Z" fill="#F4F4F5"/>
<path d="M92.8658 21.4833C93.2203 21.2243 93.5406 20.9107 93.8269 20.5427C94.1131 20.161 94.3517 19.9702 94.5425 19.9702C94.747 19.9702 94.8492 20.2701 94.8492 20.8699C94.8492 21.456 94.6788 22.0149 94.3381 22.5465C94.0109 23.0645 93.5747 23.5007 93.0294 23.8552C91.9116 24.5913 90.5894 24.9593 89.0627 24.9593C87.2088 24.9593 85.7706 24.4958 84.7483 23.5689C83.7259 22.642 83.2147 21.3538 83.2147 19.7044C83.2147 17.6733 83.7055 15.7444 84.6869 13.9178C85.0141 13.318 85.3821 12.7659 85.7911 12.2615C85.4776 11.8935 85.2254 11.5118 85.0345 11.1165C84.8573 10.7076 84.7687 10.4008 84.7687 10.1964C84.7687 9.82832 84.905 9.64429 85.1777 9.64429C85.3685 9.65793 85.5866 9.78743 85.832 10.0328L86.4659 10.6462C86.6294 10.8098 86.7998 10.9461 86.977 11.0552C88.3266 9.91011 89.7783 9.33759 91.3323 9.33759C92.8999 9.33759 93.9155 9.77379 94.3789 10.6462C94.5425 10.9734 94.6243 11.3755 94.6243 11.8526C94.6243 12.5751 94.3108 13.1817 93.6837 13.6724C93.0567 14.1631 92.2115 14.4085 91.1483 14.4085C90.0987 14.4085 89.0081 14.1904 87.8767 13.7542C86.9089 15.4036 86.425 17.128 86.425 18.9274C86.425 21.4219 87.4201 22.6692 89.4103 22.6692C90.6371 22.6692 91.789 22.2739 92.8658 21.4833ZM88.8582 12.4865C89.5534 12.7182 90.3099 12.8341 91.1278 12.8341C91.9457 12.8341 92.3547 12.6092 92.3547 12.1593C92.3547 11.6277 92.0207 11.3619 91.3528 11.3619C90.4394 11.3619 89.6079 11.7367 88.8582 12.4865Z" fill="#F4F4F5"/>
<path d="M106.378 19.9702C106.623 19.9702 106.746 20.2837 106.746 20.9107C106.746 21.2515 106.603 21.6673 106.317 22.158C106.03 22.6351 105.656 23.0782 105.192 23.4871C104.742 23.8824 104.238 24.2096 103.679 24.4686C103.12 24.7276 102.575 24.8571 102.043 24.8571C101.321 24.8571 100.837 24.2232 100.591 22.9555C100.237 23.5416 99.7735 24.0256 99.201 24.4072C98.6285 24.7753 97.8583 24.9593 96.8904 24.9593C95.9362 24.9593 95.1661 24.6594 94.5799 24.0596C93.9938 23.4598 93.7075 22.7306 93.7211 21.8718C93.7211 19.5544 94.4913 17.7278 96.0317 16.3919C96.686 15.833 97.2926 15.465 97.8515 15.2877C98.424 15.1105 99.0238 15.0219 99.6508 15.0219C100.278 15.0219 100.789 15.131 101.184 15.3491C101.375 14.9538 101.593 14.7561 101.839 14.7561C102.316 14.7561 102.766 14.9674 103.188 15.39C103.624 15.7989 103.843 16.1874 103.843 16.5555C103.652 17.0053 103.372 17.5438 103.004 18.1708C102.895 18.7979 102.841 19.6771 102.841 20.8085C102.841 21.9399 102.984 22.5056 103.27 22.5056C103.624 22.5056 104.483 21.7968 105.846 20.3791C106.092 20.1065 106.269 19.9702 106.378 19.9702ZM96.7269 21.197C96.7269 22.2466 97.1154 22.7715 97.8924 22.7715C98.7239 22.7578 99.4123 22.3148 99.9575 21.4424C100.148 21.1425 100.305 20.7744 100.428 20.3382C100.428 18.8115 100.564 17.5029 100.837 16.4123C99.7326 16.6305 98.7716 17.1621 97.9537 18.0072C97.1358 18.8524 96.7269 19.9156 96.7269 21.197Z" fill="#F4F4F5"/>
<path d="M106.624 23.6916C106.474 23.3235 106.365 22.901 106.297 22.4238C106.229 21.9331 106.195 21.2515 106.195 20.3791C106.195 19.5067 106.358 18.3276 106.685 16.8417H105.765C105.602 16.8417 105.52 16.7736 105.52 16.6373C105.52 16.3101 105.547 16.0443 105.602 15.8398C105.67 15.6217 105.82 15.3763 106.051 15.1037H106.542C106.733 15.1037 106.938 15.0969 107.156 15.0833C107.81 12.984 108.478 11.9344 109.159 11.9344C109.705 11.948 110.086 12.2956 110.304 12.9772C110.359 13.168 110.42 13.3725 110.489 13.5906L109.65 15.0628C110.604 15.0901 111.204 15.1037 111.45 15.1037C111.709 15.1037 111.845 15.131 111.858 15.1855C111.886 15.2264 111.899 15.2946 111.899 15.39C111.899 15.6353 111.838 15.9421 111.715 16.3101C111.606 16.6782 111.477 16.8554 111.327 16.8417L109.282 16.7395C108.996 18.4025 108.853 19.7793 108.853 20.8699C108.853 21.9604 109.01 22.5056 109.323 22.5056C109.582 22.5056 110.052 22.2943 110.734 21.8718C111.415 21.4356 111.906 21.0198 112.206 20.6245C112.506 20.2292 112.751 20.0315 112.942 20.0315C113.133 20.0315 113.228 20.2633 113.228 20.7267C113.228 21.1902 113.065 21.6673 112.738 22.158C112.411 22.6351 111.995 23.0782 111.49 23.4871C111 23.8824 110.448 24.2096 109.834 24.4686C109.234 24.7276 108.71 24.8571 108.26 24.8571C107.81 24.8571 107.462 24.7548 107.217 24.5504C106.985 24.3323 106.788 24.046 106.624 23.6916Z" fill="#F4F4F5"/>
</svg>
