<svg width="21" height="20" viewBox="0 0 21 20" fill="none" xmlns="http://www.w3.org/2000/svg">
<path d="M5.33366 16.6666C6.25033 16.6666 7.00033 15.9166 7.00033 14.9999V9.16658C7.00033 8.24992 6.25033 7.49992 5.33366 7.49992C4.41699 7.49992 3.66699 8.24992 3.66699 9.16658V14.9999C3.66699 15.9166 4.41699 16.6666 5.33366 16.6666Z" fill="#6B7280"/>
<path d="M13.667 12.4999V14.9999C13.667 15.9166 14.417 16.6666 15.3337 16.6666C16.2503 16.6666 17.0003 15.9166 17.0003 14.9999V12.4999C17.0003 11.5833 16.2503 10.8333 15.3337 10.8333C14.417 10.8333 13.667 11.5833 13.667 12.4999Z" fill="#6B7280"/>
<path d="M10.3337 16.6666C11.2503 16.6666 12.0003 15.9166 12.0003 14.9999V4.99992C12.0003 4.08325 11.2503 3.33325 10.3337 3.33325C9.41699 3.33325 8.66699 4.08325 8.66699 4.99992V14.9999C8.66699 15.9166 9.41699 16.6666 10.3337 16.6666Z" fill="#6B7280"/>
</svg>
