<svg width="364" height="271" viewBox="0 0 364 271" fill="none" xmlns="http://www.w3.org/2000/svg">
<g filter="url(#filter0_d_2026_4934)">
<path d="M12.64 62.24C10.8267 62.24 8.96 61.8667 7.04 61.12C5.17333 60.3733 3.6 59.3867 2.32 58.16C1.04 56.9333 0.4 55.5733 0.4 54.08C0.4 53.6 0.533333 53.2 0.8 52.88C1.12 52.56 1.46667 52.4 1.84 52.4C2.42667 52.4 3.12 52.6933 3.92 53.28C4.72 53.8667 5.68 54.4533 6.8 55.04C7.97333 55.6267 9.36 55.92 10.96 55.92C10.2133 55.5467 9.49333 54.8533 8.8 53.84C8.16 52.8267 7.84 51.8667 7.84 50.96C7.84 50.16 8.10667 48.8533 8.64 47.04C9.17333 45.1733 9.81333 42.9867 10.56 40.48C11.36 37.92 12.16 35.1733 12.96 32.24C13.76 29.3067 14.4267 26.32 14.96 23.28C15.4933 20.24 15.7867 17.3067 15.84 14.48C14.8267 14.48 13.92 14.1867 13.12 13.6C12.3733 13.0133 11.7867 12.3467 11.36 11.6C10.9333 10.8533 10.72 10.24 10.72 9.76C10.72 9.01333 11.3333 8.4 12.56 7.92C13.84 7.38666 15.3867 7.01333 17.2 6.8C19.0133 6.53333 20.72 6.4 22.32 6.4C29.7867 6.4 35.5467 7.41333 39.6 9.44C43.6533 11.4667 45.68 14.4 45.68 18.24C45.68 21.44 44.32 24.3467 41.6 26.96C38.9333 29.5733 35.0133 31.68 29.84 33.28C33.04 33.44 35.84 34 38.24 34.96C40.6933 35.8667 42.5867 37.04 43.92 38.48C45.3067 39.92 46 41.52 46 43.28C46 45.5733 45.28 47.7067 43.84 49.68C42.4 51.6 40.48 53.3333 38.08 54.88C35.7333 56.4267 33.0933 57.76 30.16 58.88C27.2267 59.9467 24.24 60.7733 21.2 61.36C18.16 61.9467 15.3067 62.24 12.64 62.24ZM19.52 31.84C20.3733 31.2533 21.5467 30.6667 23.04 30.08C24.5867 29.44 26.24 28.7733 28 28.08C29.76 27.3867 31.44 26.6133 33.04 25.76C34.64 24.8533 35.9467 23.8133 36.96 22.64C37.9733 21.4667 38.48 20.1333 38.48 18.64C38.48 16.6667 37.52 15.2533 35.6 14.4C33.7333 13.4933 31.4933 13.04 28.88 13.04C27.44 13.04 25.9467 13.1467 24.4 13.36C22.9067 13.52 21.4667 13.7333 20.08 14C21.5733 15.6 22.32 17.12 22.32 18.56C22.32 20.0533 21.3867 24.48 19.52 31.84ZM12.24 55.92C15.5467 55.8133 18.7733 55.36 21.92 54.56C25.12 53.76 28 52.7467 30.56 51.52C33.12 50.24 35.1733 48.8533 36.72 47.36C38.2667 45.8667 39.04 44.4 39.04 42.96C39.04 42.16 38.5333 41.4133 37.52 40.72C36.5067 40.0267 35.1467 39.44 33.44 38.96C31.7867 38.4267 30 38.0267 28.08 37.76C26.16 37.44 24.2667 37.28 22.4 37.28C20.96 37.28 19.7067 36.5333 18.64 35.04C15.3867 47.8933 13.2533 54.8533 12.24 55.92ZM62.2975 62.4C60.6975 62.4 59.0442 61.92 57.3375 60.96C55.6842 59.9467 54.2975 58.6933 53.1775 57.2C52.0575 55.7067 51.4975 54.2133 51.4975 52.72C51.4975 50.3733 52.0042 47.84 53.0175 45.12C54.0308 42.4 55.3908 39.7333 57.0975 37.12C58.8042 34.4533 60.6708 32.0533 62.6975 29.92C64.7242 27.7333 66.7775 26 68.8575 24.72C70.9908 23.3867 72.9375 22.72 74.6975 22.72C77.0975 22.72 79.3108 23.92 81.3375 26.32C82.2975 27.4933 83.0442 28.6133 83.5775 29.68C84.1108 30.6933 84.3775 31.7067 84.3775 32.72C84.3775 33.7333 84.2175 34.7467 83.8975 35.76C83.6308 36.7733 83.1242 37.8133 82.3775 38.88C83.0175 39.68 83.3375 40.3733 83.3375 40.96C83.3375 42.9333 82.9908 45.52 82.2975 48.72C81.6575 51.8667 81.0175 55.76 80.3775 60.4C80.2175 61.7333 79.7375 62.4 78.9375 62.4C78.2975 62.4 77.7375 62.08 77.2575 61.44C76.8308 60.7467 76.4842 59.8933 76.2175 58.88C76.0042 57.8667 75.8175 56.8533 75.6575 55.84C75.5508 54.8267 75.4975 54 75.4975 53.36C70.7508 59.3867 66.3508 62.4 62.2975 62.4ZM61.9775 55.76C63.6842 55.76 65.5242 54.9867 67.4975 53.44C69.5242 51.8933 71.4175 49.8133 73.1775 47.2C74.9375 44.5333 76.2175 41.5733 77.0175 38.32C77.1775 37.5733 77.6308 37.0667 78.3775 36.8C78.3775 31.84 77.3908 29.36 75.4175 29.36C74.0842 29.36 72.6442 29.9467 71.0975 31.12C69.5508 32.24 68.0308 33.7333 66.5375 35.6C65.0442 37.4133 63.6575 39.3867 62.3775 41.52C61.0975 43.6533 60.0842 45.7067 59.3375 47.68C58.5908 49.6533 58.2175 51.3333 58.2175 52.72C58.2175 53.6267 58.5908 54.3733 59.3375 54.96C60.0842 55.4933 60.9642 55.76 61.9775 55.76ZM103.638 62.4C101.078 62.4 98.6775 61.9733 96.4375 61.12C94.1975 60.2133 92.3842 59.12 90.9975 57.84C89.6108 56.56 88.9175 55.3867 88.9175 54.32C88.9175 53.7867 89.0508 53.28 89.3175 52.8C89.6375 52.32 90.0642 52.08 90.5975 52.08C91.3975 52.08 92.2242 52.4267 93.0775 53.12C93.9308 53.8133 95.0508 54.5067 96.4375 55.2C97.8242 55.8933 99.6908 56.24 102.038 56.24C104.864 56.24 107.024 55.92 108.518 55.28C110.064 54.5867 110.838 53.5733 110.838 52.24C110.838 51.0133 110.064 49.7333 108.518 48.4C107.024 47.0667 105.344 45.8667 103.478 44.8C101.664 43.7333 99.9575 42.4267 98.3575 40.88C96.8108 39.3333 96.0375 37.76 96.0375 36.16C96.0375 34.72 96.6775 33.2267 97.9575 31.68C99.2375 30.1333 100.838 28.6933 102.758 27.36C104.678 25.9733 106.624 24.8533 108.598 24C110.624 23.1467 112.358 22.72 113.798 22.72C115.024 22.72 116.198 23.2 117.318 24.16C118.491 25.12 119.451 26.24 120.198 27.52C120.944 28.8 121.318 29.9467 121.318 30.96C121.318 31.8667 120.891 32.32 120.038 32.32C119.451 32.32 118.838 32.08 118.198 31.6C117.558 31.12 116.838 30.6667 116.038 30.24C115.291 29.76 114.464 29.52 113.558 29.52C112.918 29.52 112.038 29.7333 110.918 30.16C109.798 30.5333 108.651 31.0667 107.478 31.76C106.358 32.4533 105.398 33.2267 104.598 34.08C103.798 34.88 103.398 35.68 103.398 36.48C103.398 37.7067 105.851 39.8133 110.758 42.8C112.624 43.9733 114.304 45.4933 115.798 47.36C117.344 49.1733 118.118 51.12 118.118 53.2C118.118 54.5867 117.451 56 116.118 57.44C114.784 58.88 112.998 60.08 110.758 61.04C108.571 61.9467 106.198 62.4 103.638 62.4ZM138.1 62.4C135.327 62.4 132.873 61.84 130.74 60.72C128.66 59.5467 127.007 57.9733 125.78 56C124.607 54.0267 124.02 51.7867 124.02 49.28C124.02 47.1467 124.367 44.88 125.06 42.48C125.807 40.08 126.82 37.7333 128.1 35.44C129.433 33.0933 130.953 30.96 132.66 29.04C134.42 27.12 136.287 25.6 138.26 24.48C140.233 23.3067 142.287 22.72 144.42 22.72C146.02 22.72 147.54 23.1467 148.98 24C150.473 24.8 151.807 25.8667 152.98 27.2C154.207 28.5333 155.167 29.9733 155.86 31.52C156.553 33.0667 156.9 34.5333 156.9 35.92C156.9 37.68 156.393 39.1733 155.38 40.4C154.367 41.6267 153.06 42.64 151.46 43.44C149.86 44.1867 148.127 44.7467 146.26 45.12C144.447 45.44 142.74 45.6 141.14 45.6C137.673 45.6 134.42 45.1733 131.38 44.32C130.633 46.6667 130.26 48.7467 130.26 50.56C130.26 52.4267 130.82 53.8667 131.94 54.88C133.113 55.8933 135.033 56.4 137.7 56.4C139.62 56.4 141.487 56.16 143.3 55.68C145.113 55.2 146.66 54.7467 147.94 54.32C149.273 53.84 150.1 53.6 150.42 53.6C151.807 53.6 152.5 54.1333 152.5 55.2C152.5 55.8933 152.047 56.6667 151.14 57.52C150.233 58.3733 149.06 59.1733 147.62 59.92C146.18 60.6133 144.607 61.2 142.9 61.68C141.247 62.16 139.647 62.4 138.1 62.4ZM140.5 40.48C143.22 40.48 145.593 40.0533 147.62 39.2C149.647 38.2933 150.66 37.12 150.66 35.68C150.66 34.72 150.34 33.7333 149.7 32.72C149.113 31.6533 148.367 30.7733 147.46 30.08C146.553 29.3867 145.673 29.04 144.82 29.04C142.847 29.04 140.793 30.08 138.66 32.16C136.527 34.1867 134.713 36.72 133.22 39.76C135.353 40.24 137.78 40.48 140.5 40.48ZM169.156 62.4C167.609 62.4 166.116 61.8933 164.676 60.88C163.289 59.8667 162.142 58.6133 161.236 57.12C160.382 55.6267 159.956 54.1067 159.956 52.56C159.956 50.3733 160.329 47.9467 161.076 45.28C161.822 42.6133 162.836 39.9733 164.116 37.36C165.449 34.6933 166.996 32.2667 168.756 30.08C170.569 27.84 172.516 26.0533 174.596 24.72C176.676 23.3867 178.836 22.72 181.076 22.72C184.862 22.72 187.502 24.9867 188.996 29.52C190.382 23.8667 191.449 18.8 192.196 14.32C192.942 9.84 193.369 5.97333 193.476 2.72C193.582 1.12 194.169 0.319998 195.236 0.319998C195.822 0.319998 196.489 0.693331 197.236 1.44C198.036 2.18666 198.729 3.09333 199.316 4.16C199.956 5.22666 200.276 6.21333 200.276 7.12C200.276 7.76 200.062 9.25333 199.636 11.6C199.262 13.8933 198.702 16.72 197.956 20.08C197.262 23.3867 196.489 26.96 195.636 30.8C194.782 34.5867 193.876 38.3467 192.916 42.08C191.956 45.8133 191.022 49.2267 190.116 52.32C189.262 55.36 188.462 57.8133 187.716 59.68C187.022 61.4933 186.462 62.4 186.036 62.4C185.342 62.4 184.542 61.92 183.636 60.96C183.262 60.5867 182.942 60.16 182.676 59.68C182.409 59.2 182.276 58.5867 182.276 57.84C182.276 57.4667 182.329 56.9867 182.436 56.4C182.596 55.76 182.729 55.0933 182.836 54.4C177.609 59.7333 173.049 62.4 169.156 62.4ZM170.036 56C171.102 56 172.409 55.5733 173.956 54.72C175.502 53.8667 177.102 52.72 178.756 51.28C180.409 49.7867 181.929 48.08 183.316 46.16C184.702 44.24 185.742 42.24 186.436 40.16C186.436 36.8533 185.929 34.24 184.916 32.32C183.956 30.3467 182.782 29.36 181.396 29.36C179.742 29.36 178.036 30.08 176.276 31.52C174.516 32.96 172.889 34.8533 171.396 37.2C169.956 39.5467 168.782 42.1067 167.876 44.88C166.969 47.6 166.516 50.24 166.516 52.8C166.516 53.76 166.862 54.5333 167.556 55.12C168.249 55.7067 169.076 56 170.036 56ZM236.228 62.4C234.415 62.4 232.788 61.84 231.348 60.72C229.908 59.5467 228.761 57.9733 227.908 56C227.108 53.9733 226.708 51.6533 226.708 49.04C226.708 46.96 227.028 44.7467 227.668 42.4C228.308 40 229.215 37.6533 230.388 35.36C231.561 33.0133 232.948 30.9067 234.548 29.04C236.148 27.12 237.908 25.6 239.828 24.48C241.801 23.3067 243.881 22.72 246.068 22.72C248.148 22.72 250.015 23.3333 251.668 24.56C253.375 25.7867 254.708 27.4667 255.668 29.6C256.681 31.68 257.188 34 257.188 36.56C257.188 39.9733 256.601 43.2267 255.428 46.32C254.255 49.4133 252.655 52.1867 250.628 54.64C248.655 57.04 246.415 58.9333 243.908 60.32C241.455 61.7067 238.895 62.4 236.228 62.4ZM236.628 56.96C238.281 56.96 239.908 56.2933 241.508 54.96C243.161 53.5733 244.655 51.8133 245.988 49.68C247.375 47.4933 248.468 45.2267 249.268 42.88C250.068 40.48 250.468 38.2933 250.468 36.32C250.468 35.0933 250.281 33.84 249.908 32.56C249.588 31.2267 249.161 30.1067 248.628 29.2C248.095 28.24 247.561 27.76 247.028 27.76C245.748 27.76 244.468 28.2667 243.188 29.28C241.908 30.2933 240.681 31.6267 239.508 33.28C238.335 34.9333 237.295 36.7467 236.388 38.72C235.481 40.64 234.761 42.56 234.228 44.48C233.748 46.4 233.508 48.1333 233.508 49.68C233.508 51.3867 233.801 53.04 234.388 54.64C234.975 56.1867 235.721 56.96 236.628 56.96ZM266.158 62.4C265.625 62.4 265.011 62.1333 264.318 61.6C263.678 61.0133 263.118 60.32 262.638 59.52C262.158 58.72 261.918 58.0267 261.918 57.44C261.918 57.0667 262.211 56.0267 262.798 54.32C263.385 52.56 264.078 50.32 264.878 47.6C265.678 44.88 266.371 41.8667 266.958 38.56C267.545 35.2 267.838 31.76 267.838 28.24C267.838 24.3467 268.398 22.4 269.518 22.4C270.318 22.4 271.118 22.6933 271.918 23.28C272.718 23.8667 273.385 24.6133 273.918 25.52C274.505 26.3733 274.798 27.28 274.798 28.24C274.798 29.2 274.585 30.8267 274.158 33.12C273.785 35.4133 273.251 37.9467 272.558 40.72C271.918 43.44 271.198 46.0267 270.398 48.48H270.638C273.411 43.6267 275.811 39.6267 277.838 36.48C279.918 33.3333 281.678 30.8267 283.118 28.96C284.558 27.0933 285.758 25.7333 286.718 24.88C287.731 23.9733 288.558 23.3867 289.198 23.12C289.838 22.8533 290.398 22.72 290.878 22.72C292.265 22.72 293.598 23.2533 294.878 24.32C296.211 25.3333 297.305 26.6133 298.158 28.16C299.011 29.7067 299.438 31.3067 299.438 32.96C299.438 34.2933 299.225 36.16 298.798 38.56C298.371 40.9067 297.785 43.44 297.038 46.16C296.345 48.88 295.518 51.4933 294.558 54C293.598 56.4533 292.558 58.48 291.438 60.08C290.371 61.6267 289.278 62.4 288.158 62.4C286.985 62.4 286.398 61.6 286.398 60C286.398 58.72 286.718 57.0933 287.358 55.12C287.998 53.0933 288.745 50.9333 289.598 48.64C290.451 46.2933 291.198 43.9733 291.838 41.68C292.478 39.3867 292.798 37.3067 292.798 35.44C292.798 34.48 292.611 33.44 292.238 32.32C291.918 31.1467 291.358 30.56 290.558 30.56C290.078 30.56 289.571 30.6933 289.038 30.96C288.505 31.2267 287.811 31.8667 286.958 32.88C286.105 33.84 284.958 35.36 283.518 37.44C282.078 39.4667 280.211 42.2667 277.918 45.84C275.625 49.4133 272.745 53.9467 269.278 59.44C268.585 60.5067 267.971 61.28 267.438 61.76C266.958 62.1867 266.531 62.4 266.158 62.4ZM68.85 250.53C65.9033 250.53 64.43 248.887 64.43 245.6C64.43 241.973 65.1667 237.61 66.64 232.51C68.1133 227.523 69.8133 222.31 71.74 216.87C73.78 211.43 75.5367 206.443 77.01 201.91H76.5C70.9467 211.317 64.6567 218.797 57.63 224.35C50.7167 229.79 43.9167 232.51 37.23 232.51C33.9433 232.51 30.5433 231.717 27.03 230.13C23.63 228.43 20.4567 226.163 17.51 223.33C14.6767 220.497 12.3533 217.323 10.54 213.81C8.72667 210.297 7.82 206.67 7.82 202.93C7.82 197.037 8.78333 190.803 10.71 184.23C12.75 177.543 15.47 170.857 18.87 164.17C22.27 157.483 26.2367 151.137 30.77 145.13C35.3033 139.01 40.12 133.57 45.22 128.81C50.4333 124.05 55.76 120.31 61.2 117.59C66.64 114.87 71.91 113.51 77.01 113.51C79.5033 113.51 81.77 114.473 83.81 116.4C85.9633 118.327 87.6633 120.537 88.91 123.03C90.27 125.523 90.95 127.62 90.95 129.32C90.95 131.02 90.3267 131.87 89.08 131.87C88.2867 131.87 87.04 131.473 85.34 130.68C83.7533 129.773 81.43 129.32 78.37 129.32C73.4967 129.32 68.51 130.907 63.41 134.08C58.31 137.253 53.38 141.503 48.62 146.83C43.86 152.157 39.5533 158.107 35.7 164.68C31.8467 171.14 28.7867 177.713 26.52 184.4C24.3667 191.087 23.29 197.32 23.29 203.1C23.29 207.18 24.5933 210.693 27.2 213.64C29.8067 216.473 32.8667 217.89 36.38 217.89C40.0067 217.89 44.0867 216.587 48.62 213.98C53.1533 211.26 57.8 207.52 62.56 202.76C67.32 198 71.74 192.56 75.82 186.44V185.93C72.9867 186.837 70.4367 187.517 68.17 187.97C66.0167 188.31 63.8633 188.48 61.71 188.48C58.65 188.48 56.0433 187.687 53.89 186.1C51.7367 184.4 50.66 182.813 50.66 181.34C50.66 180.66 51.2267 179.867 52.36 178.96C53.4933 178.053 55.8733 177.26 59.5 176.58C63.24 175.787 68.85 175.39 76.33 175.39C80.5233 175.39 83.8667 177.09 86.36 180.49C88.8533 183.89 90.1 187.913 90.1 192.56C90.1 194.033 89.7033 196.527 88.91 200.04C88.1167 203.44 87.0967 207.35 85.85 211.77C84.6033 216.077 83.1867 220.497 81.6 225.03C80.1267 229.563 78.54 233.757 76.84 237.61C75.2533 241.463 73.78 244.58 72.42 246.96C71.06 249.34 69.87 250.53 68.85 250.53ZM119.08 232.85C118.06 232.85 116.813 232.283 115.34 231.15C113.98 229.903 112.79 228.43 111.77 226.73C110.75 224.917 110.24 223.103 110.24 221.29C110.24 219.137 110.92 215.567 112.28 210.58C113.64 205.48 115.34 199.53 117.38 192.73C119.42 185.93 121.46 178.79 123.5 171.31C125.653 163.83 127.41 156.52 128.77 149.38C130.243 142.24 131.036 135.837 131.15 130.17C128.43 127.677 127.07 125.41 127.07 123.37C127.07 122.01 128.146 120.65 130.3 119.29C132.453 117.817 135.23 116.513 138.63 115.38C142.03 114.133 145.656 113.17 149.51 112.49C153.476 111.697 157.216 111.3 160.73 111.3C167.983 111.3 174.386 112.603 179.94 115.21C185.606 117.703 190.026 121.217 193.2 125.75C196.373 130.17 197.96 135.383 197.96 141.39C197.96 149.55 195.296 156.917 189.97 163.49C184.643 169.95 177.163 175.503 167.53 180.15C157.896 184.797 146.676 188.367 133.87 190.86C125.596 218.853 120.666 232.85 119.08 232.85ZM137.61 177.6C146.676 175.22 154.61 172.16 161.41 168.42C168.21 164.68 173.48 160.6 177.22 156.18C181.073 151.647 183 147.057 183 142.41C183 137.423 181.13 133.343 177.39 130.17C173.65 126.883 169.343 125.24 164.47 125.24C160.73 125.24 157.386 125.637 154.44 126.43C151.606 127.223 148.206 128.527 144.24 130.34C145.373 132.833 145.94 135.157 145.94 137.31C145.94 143.657 143.163 157.087 137.61 177.6ZM232.464 232.17C231.331 232.17 230.084 231.603 228.724 230.47C227.364 229.223 226.174 227.693 225.154 225.88C224.134 224.067 223.624 222.31 223.624 220.61C223.624 217.663 224.191 213.697 225.324 208.71C226.458 203.61 227.874 197.83 229.574 191.37C231.388 184.797 233.258 177.883 235.184 170.63C237.111 163.377 238.811 156.123 240.284 148.87C241.871 141.503 242.948 134.533 243.514 127.96C237.961 128.073 232.691 128.357 227.704 128.81C222.718 129.15 218.298 129.32 214.444 129.32C213.311 129.32 212.064 128.753 210.704 127.62C209.344 126.487 208.211 125.127 207.304 123.54C206.398 121.84 205.944 120.253 205.944 118.78C205.944 118.213 206.171 117.703 206.624 117.25C207.078 116.683 208.154 116.23 209.854 115.89C211.554 115.437 214.274 115.097 218.014 114.87C221.754 114.643 226.911 114.473 233.484 114.36C240.058 114.133 248.444 114.02 258.644 114.02C260.571 114.02 263.121 114.133 266.294 114.36C269.581 114.587 273.038 114.983 276.664 115.55C280.291 116.117 283.748 116.853 287.034 117.76C290.321 118.667 292.984 119.8 295.024 121.16C297.064 122.52 298.084 124.163 298.084 126.09C298.084 128.243 296.214 129.32 292.474 129.32C287.941 129.433 282.614 129.263 276.494 128.81C270.374 128.243 264.084 127.903 257.624 127.79C257.171 131.077 256.321 135.61 255.074 141.39C253.941 147.17 252.581 153.573 250.994 160.6C249.521 167.627 247.991 174.71 246.404 181.85C244.818 188.877 243.288 195.45 241.814 201.57C240.454 207.577 239.321 212.563 238.414 216.53C237.508 220.383 236.941 222.593 236.714 223.16C235.128 229.167 233.711 232.17 232.464 232.17ZM312.391 262.26C310.351 262.26 309.161 261.92 308.821 261.24C308.481 260.673 308.311 259.823 308.311 258.69C308.311 258.237 308.821 256.593 309.841 253.76C310.974 250.927 312.448 247.243 314.261 242.71C316.188 238.29 318.228 233.417 320.381 228.09C315.168 227.637 309.784 227.297 304.231 227.07C298.678 226.73 293.011 226.56 287.231 226.56C283.038 226.56 280.034 225.767 278.221 224.18C276.408 222.593 275.501 220.837 275.501 218.91C275.501 215.963 276.861 213.413 279.581 211.26C284.568 207.18 289.724 202.477 295.051 197.15C300.378 191.71 305.648 186.043 310.861 180.15C316.188 174.257 321.231 168.477 325.991 162.81C330.751 157.03 335.058 151.76 338.911 147C342.764 142.127 345.938 138.16 348.431 135.1C350.924 131.927 352.454 130.057 353.021 129.49C353.701 128.81 354.324 128.243 354.891 127.79C355.458 127.337 356.138 127.11 356.931 127.11C358.404 127.11 359.141 128.017 359.141 129.83C359.141 131.87 358.064 135.043 355.911 139.35C353.871 143.657 351.038 148.643 347.411 154.31C343.898 159.863 339.874 165.7 335.341 171.82C330.921 177.94 326.274 183.947 321.401 189.84C316.641 195.62 311.938 200.947 307.291 205.82C302.758 210.58 298.621 214.377 294.881 217.21C299.528 217.097 304.458 216.927 309.671 216.7C314.998 216.36 320.154 216.077 325.141 215.85C327.521 209.843 329.788 203.95 331.941 198.17C334.094 192.39 335.738 187.403 336.871 183.21C337.551 180.943 338.854 179.64 340.781 179.3C342.821 178.847 344.861 178.62 346.901 178.62C349.168 178.62 350.924 178.79 352.171 179.13C353.418 179.47 354.041 180.773 354.041 183.04C354.041 183.833 353.474 185.873 352.341 189.16C351.208 192.333 349.678 196.3 347.751 201.06C345.938 205.707 343.841 210.637 341.461 215.85C343.274 215.85 345.144 215.963 347.071 216.19C349.111 216.303 350.811 216.757 352.171 217.55C353.644 218.23 354.381 219.477 354.381 221.29C354.381 222.31 353.928 223.67 353.021 225.37C352.228 227.07 351.151 228.6 349.791 229.96C348.431 231.32 346.958 232 345.371 232C344.238 232 342.538 231.773 340.271 231.32C338.118 230.753 336.248 230.357 334.661 230.13C331.828 235.91 328.994 241.237 326.161 246.11C323.328 250.983 320.721 254.893 318.341 257.84C315.961 260.787 313.978 262.26 312.391 262.26Z" fill="#FFA700"/>
</g>
<defs>
<filter id="filter0_d_2026_4934" x="0.400024" y="0.32" width="362.741" height="269.94" filterUnits="userSpaceOnUse" color-interpolation-filters="sRGB">
<feFlood flood-opacity="0" result="BackgroundImageFix"/>
<feColorMatrix in="SourceAlpha" type="matrix" values="0 0 0 0 0 0 0 0 0 0 0 0 0 0 0 0 0 0 127 0" result="hardAlpha"/>
<feOffset dx="4" dy="8"/>
<feComposite in2="hardAlpha" operator="out"/>
<feColorMatrix type="matrix" values="0 0 0 0 0 0 0 0 0 0 0 0 0 0 0 0 0 0 1 0"/>
<feBlend mode="normal" in2="BackgroundImageFix" result="effect1_dropShadow_2026_4934"/>
<feBlend mode="normal" in="SourceGraphic" in2="effect1_dropShadow_2026_4934" result="shape"/>
</filter>
</defs>
</svg>
