<svg width="375" height="78" viewBox="0 0 375 78" fill="none" xmlns="http://www.w3.org/2000/svg">
<path d="M5.66 77.44C5.07333 77.44 4.34 76.9267 3.46 75.9C2.58 74.8733 1.81 73.7367 1.15 72.49C0.49 71.17 0.16 70.07 0.16 69.19C0.16 66.2567 0.6 62.8833 1.48 59.07C2.36 55.1833 3.42333 51.0767 4.67 46.75C5.99 42.35 7.27333 37.9133 8.52 33.44C9.76667 28.8933 10.83 24.42 11.71 20.02C12.59 15.62 13.03 11.5133 13.03 7.69999C13.03 5.93999 13.69 4.54666 15.01 3.52C16.4033 2.49333 18.7133 1.79666 21.94 1.43C25.1667 0.989997 29.6033 0.769998 35.25 0.769998C40.6033 0.769998 44.8567 0.916665 48.01 1.21C51.1633 1.50333 53.51 1.90666 55.05 2.42C56.59 2.86 57.58 3.3 58.02 3.74C58.5333 4.18 58.79 4.58333 58.79 4.95C58.79 5.31666 58.4233 5.72 57.69 6.15999C57.03 6.6 55.49 7.07666 53.07 7.59C50.65 8.03 46.9467 8.54333 41.96 9.13C36.9733 9.71666 30.2267 10.4133 21.72 11.22C21.8667 13.86 21.5733 17.16 20.84 21.12C20.1067 25.0067 19.0067 29.9567 17.54 35.97C22.8933 36.2633 27.44 36.19 31.18 35.75C34.9933 35.2367 38.55 34.98 41.85 34.98C44.6367 34.98 46.03 35.5667 46.03 36.74C46.03 37.9867 45.2233 39.0867 43.61 40.04C41.9967 40.92 39.9067 41.69 37.34 42.35C34.8467 43.01 32.17 43.5233 29.31 43.89C26.5233 44.2567 23.8833 44.5133 21.39 44.66C18.8967 44.8067 16.9167 44.8433 15.45 44.77C15.01 47.1167 14.46 49.7567 13.8 52.69C13.14 55.55 12.4433 58.4467 11.71 61.38C10.9767 64.24 10.2433 66.88 9.51 69.3C8.77667 71.72 8.08 73.7 7.42 75.24C6.76 76.7067 6.17333 77.44 5.66 77.44ZM66.4754 77.55C62.6621 77.55 59.2887 76.78 56.3554 75.24C53.4954 73.6267 51.2221 71.4633 49.5354 68.75C47.9221 66.0367 47.1154 62.9567 47.1154 59.51C47.1154 56.5767 47.5921 53.46 48.5454 50.16C49.5721 46.86 50.9654 43.6333 52.7254 40.48C54.5587 37.2533 56.6487 34.32 58.9954 31.68C61.4154 29.04 63.9821 26.95 66.6954 25.41C69.4087 23.7967 72.2321 22.99 75.1654 22.99C77.3654 22.99 79.4554 23.5767 81.4354 24.75C83.4887 25.85 85.3221 27.3167 86.9354 29.15C88.6221 30.9833 89.9421 32.9633 90.8954 35.09C91.8487 37.2167 92.3254 39.2333 92.3254 41.14C92.3254 43.56 91.6287 45.6133 90.2354 47.3C88.8421 48.9867 87.0454 50.38 84.8454 51.48C82.6454 52.5067 80.2621 53.2767 77.6954 53.79C75.2021 54.23 72.8554 54.45 70.6554 54.45C65.8887 54.45 61.4154 53.8633 57.2354 52.69C56.2087 55.9167 55.6954 58.7767 55.6954 61.27C55.6954 63.8367 56.4654 65.8167 58.0054 67.21C59.6187 68.6033 62.2587 69.3 65.9254 69.3C68.5654 69.3 71.1321 68.97 73.6254 68.31C76.1187 67.65 78.2454 67.0267 80.0054 66.44C81.8387 65.78 82.9754 65.45 83.4154 65.45C85.3221 65.45 86.2754 66.1833 86.2754 67.65C86.2754 68.6033 85.6521 69.6667 84.4054 70.84C83.1587 72.0133 81.5454 73.1133 79.5654 74.14C77.5854 75.0933 75.4221 75.9 73.0754 76.56C70.8021 77.22 68.6021 77.55 66.4754 77.55ZM69.7754 47.41C73.5154 47.41 76.7787 46.8233 79.5654 45.65C82.3521 44.4033 83.7454 42.79 83.7454 40.81C83.7454 39.49 83.3054 38.1333 82.4254 36.74C81.6187 35.2733 80.5921 34.0633 79.3454 33.11C78.0987 32.1567 76.8887 31.68 75.7154 31.68C73.0021 31.68 70.1787 33.11 67.2454 35.97C64.3121 38.7567 61.8187 42.24 59.7654 46.42C62.6987 47.08 66.0354 47.41 69.7754 47.41ZM110.167 77.55C107.967 77.55 105.694 76.89 103.347 75.57C101.074 74.1767 99.1669 72.4533 97.6269 70.4C96.0869 68.3467 95.3169 66.2933 95.3169 64.24C95.3169 61.0133 96.0135 57.53 97.4069 53.79C98.8002 50.05 100.67 46.3833 103.017 42.79C105.364 39.1233 107.93 35.8233 110.717 32.89C113.504 29.8833 116.327 27.5 119.187 25.74C122.12 23.9067 124.797 22.99 127.217 22.99C130.517 22.99 133.56 24.64 136.347 27.94C137.667 29.5533 138.694 31.0933 139.427 32.56C140.16 33.9533 140.527 35.3467 140.527 36.74C140.527 38.1333 140.307 39.5267 139.867 40.92C139.5 42.3133 138.804 43.7433 137.777 45.21C138.657 46.31 139.097 47.2633 139.097 48.07C139.097 50.7833 138.62 54.34 137.667 58.74C136.787 63.0667 135.907 68.42 135.027 74.8C134.807 76.6333 134.147 77.55 133.047 77.55C132.167 77.55 131.397 77.11 130.737 76.23C130.15 75.2767 129.674 74.1033 129.307 72.71C129.014 71.3167 128.757 69.9233 128.537 68.53C128.39 67.1367 128.317 66 128.317 65.12C121.79 73.4067 115.74 77.55 110.167 77.55ZM109.727 68.42C112.074 68.42 114.604 67.3567 117.317 65.23C120.104 63.1033 122.707 60.2433 125.127 56.65C127.547 52.9833 129.307 48.9133 130.407 44.44C130.627 43.4133 131.25 42.7167 132.277 42.35C132.277 35.53 130.92 32.12 128.207 32.12C126.374 32.12 124.394 32.9267 122.267 34.54C120.14 36.08 118.05 38.1333 115.997 40.7C113.944 43.1933 112.037 45.9067 110.277 48.84C108.517 51.7733 107.124 54.5967 106.097 57.31C105.07 60.0233 104.557 62.3333 104.557 64.24C104.557 65.4867 105.07 66.5133 106.097 67.32C107.124 68.0533 108.334 68.42 109.727 68.42ZM164.699 77.55C162.353 77.55 160.226 77.11 158.319 76.23C156.413 75.2767 154.909 74.1033 153.809 72.71C152.783 71.3167 152.269 69.96 152.269 68.64C152.269 65.4133 153.186 61.05 155.019 55.55C156.926 50.05 159.016 43.23 161.289 35.09C159.603 35.4567 158.173 35.75 156.999 35.97C155.826 36.19 154.946 36.3 154.359 36.3C153.186 36.3 152.013 35.7133 150.839 34.54C149.739 33.2933 149.189 32.12 149.189 31.02C149.189 29.26 153.956 27.5733 163.489 25.96C164.809 19.8733 165.469 14.4833 165.469 9.79C165.469 7.59 166.203 6.49 167.669 6.49C168.256 6.49 169.099 6.78333 170.199 7.37C171.373 7.95667 172.473 8.83667 173.499 10.01C174.526 11.1833 175.039 12.6867 175.039 14.52C175.039 15.6933 174.856 17.1233 174.489 18.81C174.196 20.4233 173.756 22.3667 173.169 24.64C175.296 24.4933 177.166 24.3467 178.779 24.2C180.466 24.0533 181.933 23.98 183.179 23.98C187.579 23.98 189.779 24.97 189.779 26.95C189.779 27.3167 189.339 27.83 188.459 28.49C187.653 29.0767 185.929 29.7733 183.289 30.58C180.649 31.3133 176.616 32.1567 171.189 33.11C170.896 34.2833 170.383 36.1167 169.649 38.61C168.916 41.1033 168.109 43.89 167.229 46.97C166.349 49.9767 165.506 52.91 164.699 55.77C163.893 58.63 163.196 61.05 162.609 63.03C162.096 65.01 161.839 66.1833 161.839 66.55C161.839 67.9433 162.646 68.64 164.259 68.64C165.799 68.64 167.449 68.42 169.209 67.98C170.969 67.4667 172.693 66.9167 174.379 66.33C176.066 65.67 177.496 65.12 178.669 64.68C179.916 64.1667 180.723 63.91 181.089 63.91C182.409 63.91 183.069 64.6067 183.069 66C183.069 67.1 182.446 68.31 181.199 69.63C180.026 70.95 178.449 72.2333 176.469 73.48C174.563 74.6533 172.546 75.6433 170.419 76.45C168.366 77.1833 166.459 77.55 164.699 77.55ZM202.838 77.55C200.492 77.55 198.365 76.89 196.458 75.57C194.625 74.25 193.158 72.6 192.058 70.62C190.958 68.64 190.408 66.6967 190.408 64.79C190.408 62.0033 190.775 58.8133 191.508 55.22C192.242 51.5533 193.232 47.85 194.478 44.11C195.725 40.2967 197.045 36.8133 198.438 33.66C199.905 30.5067 201.335 27.94 202.728 25.96C204.195 23.98 205.515 22.99 206.688 22.99C208.008 22.99 209.145 23.6133 210.098 24.86C211.125 26.0333 211.638 27.39 211.638 28.93C211.638 29.5167 210.648 31.8633 208.668 35.97C207.348 38.6833 205.992 41.7633 204.598 45.21C203.278 48.5833 202.142 51.9933 201.188 55.44C200.235 58.8133 199.758 61.8933 199.758 64.68C199.758 65.8533 200.125 66.8433 200.858 67.65C201.592 68.3833 202.472 68.75 203.498 68.75C206.358 68.75 209.695 66.2933 213.508 61.38C216.075 58.08 218.495 54.4133 220.768 50.38C223.042 46.3467 225.058 42.2033 226.818 37.95C228.578 33.6967 229.972 29.7367 230.998 26.07C231.292 24.8967 231.585 24.09 231.878 23.65C232.245 23.21 232.905 22.99 233.858 22.99C234.518 22.99 235.288 23.4667 236.168 24.42C237.122 25.3 237.928 26.4 238.588 27.72C239.248 28.9667 239.578 30.1767 239.578 31.35C239.578 31.7167 239.322 32.8533 238.808 34.76C238.295 36.5933 237.598 38.9033 236.718 41.69C235.912 44.4767 235.032 47.4833 234.078 50.71C233.125 53.8633 232.172 56.9433 231.218 59.95C230.265 62.9567 229.422 65.6333 228.688 67.98C228.028 70.2533 227.552 71.9033 227.258 72.93C226.378 76.01 225.132 77.55 223.518 77.55C222.272 77.55 221.355 77.0367 220.768 76.01C220.255 74.91 219.998 73.6267 219.998 72.16C219.998 70.9133 220.292 69.1533 220.878 66.88C221.465 64.6067 222.052 62.4433 222.638 60.39C219.558 65.3767 216.222 69.4833 212.628 72.71C209.108 75.9367 205.845 77.55 202.838 77.55ZM249.417 77.77C248.097 77.77 247.071 77.0367 246.337 75.57C245.604 74.1033 245.237 72.82 245.237 71.72C245.237 70.0333 245.567 68.1633 246.227 66.11C246.887 63.9833 247.621 61.5633 248.427 58.85C249.234 56.0633 249.967 52.8367 250.627 49.17C251.287 45.5033 251.617 41.25 251.617 36.41C251.617 35.0167 251.544 33.4767 251.397 31.79C251.324 30.03 251.287 28.4533 251.287 27.06C251.287 25.96 251.471 25.0067 251.837 24.2C252.277 23.3933 252.901 22.99 253.707 22.99C255.467 22.99 256.897 24.0167 257.997 26.07C259.171 28.1233 259.757 30.3233 259.757 32.67C259.757 34.5033 259.647 36.1533 259.427 37.62C265.807 27.94 271.857 23.1 277.577 23.1C281.171 23.1 282.967 23.98 282.967 25.74C282.967 26.62 282.564 27.4633 281.757 28.27C281.024 29.0767 279.741 29.8833 277.907 30.69C275.414 31.8633 273.141 33.3667 271.087 35.2C269.034 37.0333 267.054 39.5267 265.147 42.68C263.314 45.76 261.444 49.7933 259.537 54.78C257.704 59.7667 255.687 65.9633 253.487 73.37C253.047 74.8367 252.461 75.9367 251.727 76.67C250.994 77.4033 250.224 77.77 249.417 77.77ZM301.622 77.55C297.809 77.55 294.435 76.78 291.502 75.24C288.642 73.6267 286.369 71.4633 284.682 68.75C283.069 66.0367 282.262 62.9567 282.262 59.51C282.262 56.5767 282.739 53.46 283.692 50.16C284.719 46.86 286.112 43.6333 287.872 40.48C289.705 37.2533 291.795 34.32 294.142 31.68C296.562 29.04 299.129 26.95 301.842 25.41C304.555 23.7967 307.379 22.99 310.312 22.99C312.512 22.99 314.602 23.5767 316.582 24.75C318.635 25.85 320.469 27.3167 322.082 29.15C323.769 30.9833 325.089 32.9633 326.042 35.09C326.995 37.2167 327.472 39.2333 327.472 41.14C327.472 43.56 326.775 45.6133 325.382 47.3C323.989 48.9867 322.192 50.38 319.992 51.48C317.792 52.5067 315.409 53.2767 312.842 53.79C310.349 54.23 308.002 54.45 305.802 54.45C301.035 54.45 296.562 53.8633 292.382 52.69C291.355 55.9167 290.842 58.7767 290.842 61.27C290.842 63.8367 291.612 65.8167 293.152 67.21C294.765 68.6033 297.405 69.3 301.072 69.3C303.712 69.3 306.279 68.97 308.772 68.31C311.265 67.65 313.392 67.0267 315.152 66.44C316.985 65.78 318.122 65.45 318.562 65.45C320.469 65.45 321.422 66.1833 321.422 67.65C321.422 68.6033 320.799 69.6667 319.552 70.84C318.305 72.0133 316.692 73.1133 314.712 74.14C312.732 75.0933 310.569 75.9 308.222 76.56C305.949 77.22 303.749 77.55 301.622 77.55ZM304.922 47.41C308.662 47.41 311.925 46.8233 314.712 45.65C317.499 44.4033 318.892 42.79 318.892 40.81C318.892 39.49 318.452 38.1333 317.572 36.74C316.765 35.2733 315.739 34.0633 314.492 33.11C313.245 32.1567 312.035 31.68 310.862 31.68C308.149 31.68 305.325 33.11 302.392 35.97C299.459 38.7567 296.965 42.24 294.912 46.42C297.845 47.08 301.182 47.41 304.922 47.41ZM350.593 77.55C347.073 77.55 343.773 76.9633 340.693 75.79C337.613 74.5433 335.12 73.04 333.213 71.28C331.307 69.52 330.353 67.9067 330.353 66.44C330.353 65.7067 330.537 65.01 330.903 64.35C331.343 63.69 331.93 63.36 332.663 63.36C333.763 63.36 334.9 63.8367 336.073 64.79C337.247 65.7433 338.787 66.6967 340.693 67.65C342.6 68.6033 345.167 69.08 348.393 69.08C352.28 69.08 355.25 68.64 357.303 67.76C359.43 66.8067 360.493 65.4133 360.493 63.58C360.493 61.8933 359.43 60.1333 357.303 58.3C355.25 56.4667 352.94 54.8167 350.373 53.35C347.88 51.8833 345.533 50.0867 343.333 47.96C341.207 45.8333 340.143 43.67 340.143 41.47C340.143 39.49 341.023 37.4367 342.783 35.31C344.543 33.1833 346.743 31.2033 349.383 29.37C352.023 27.4633 354.7 25.9233 357.413 24.75C360.2 23.5767 362.583 22.99 364.563 22.99C366.25 22.99 367.863 23.65 369.403 24.97C371.017 26.29 372.337 27.83 373.363 29.59C374.39 31.35 374.903 32.9267 374.903 34.32C374.903 35.5667 374.317 36.19 373.143 36.19C372.337 36.19 371.493 35.86 370.613 35.2C369.733 34.54 368.743 33.9167 367.643 33.33C366.617 32.67 365.48 32.34 364.233 32.34C363.353 32.34 362.143 32.6333 360.603 33.22C359.063 33.7333 357.487 34.4667 355.873 35.42C354.333 36.3733 353.013 37.4367 351.913 38.61C350.813 39.71 350.263 40.81 350.263 41.91C350.263 43.5967 353.637 46.4933 360.383 50.6C362.95 52.2133 365.26 54.3033 367.313 56.87C369.44 59.3633 370.503 62.04 370.503 64.9C370.503 66.8067 369.587 68.75 367.753 70.73C365.92 72.71 363.463 74.36 360.383 75.68C357.377 76.9267 354.113 77.55 350.593 77.55Z" fill="#27272A"/>
</svg>
