<svg width="183" height="28" viewBox="0 0 183 28" fill="none" xmlns="http://www.w3.org/2000/svg">
<path d="M13.65 20.38C14.27 20.38 14.71 20.55 14.97 20.89C15.23 21.21 15.36 21.55 15.36 21.91C15.36 22.41 15.11 22.94 14.61 23.5C14.11 24.06 13.46 24.58 12.66 25.06C11.88 25.52 11.04 25.9 10.14 26.2C9.24 26.5 8.38 26.65 7.56 26.65C6.34 26.65 5.17 26.32 4.05 25.66C2.95 24.98 2.05 24.03 1.35 22.81C0.67 21.59 0.33 20.14 0.33 18.46C0.33 17.08 0.59 15.71 1.11 14.35C1.65 12.99 2.36 11.68 3.24 10.42C4.14 9.16 5.12 7.99 6.18 6.91C7.26 5.83 8.34 4.89 9.42 4.09C10.52 3.29 11.53 2.67 12.45 2.23C13.37 1.77 14.11 1.54 14.67 1.54C15.37 1.54 15.89 1.72 16.23 2.08C16.59 2.42 16.77 2.9 16.77 3.52C16.77 4.02 16.67 4.41 16.47 4.69C16.29 4.95 16 5.18 15.6 5.38C14.32 6.04 13.02 6.84 11.7 7.78C10.4 8.72 9.21 9.76 8.13 10.9C7.05 12.02 6.18 13.2 5.52 14.44C4.86 15.68 4.53 16.94 4.53 18.22C4.53 19.62 4.81 20.68 5.37 21.4C5.93 22.12 6.69 22.48 7.65 22.48C8.13 22.48 8.65 22.38 9.21 22.18C9.77 21.96 10.32 21.71 10.86 21.43C11.42 21.15 11.94 20.91 12.42 20.71C12.92 20.49 13.33 20.38 13.65 20.38ZM31.6226 26.47C30.1026 26.47 28.7526 26.08 27.5726 25.3C26.3926 24.52 25.4626 23.44 24.7826 22.06C24.1226 20.66 23.7926 19.06 23.7926 17.26C23.7926 15.92 24.0626 14.62 24.6026 13.36C25.1426 12.08 25.7426 10.96 26.4026 10C26.3226 9.7 26.2826 9.33 26.2826 8.89C26.2826 8.35 26.5026 7.73 26.9426 7.03C27.3826 6.33 27.9926 5.65 28.7726 4.99C29.5726 4.33 30.5026 3.78 31.5626 3.34C32.6426 2.9 33.8126 2.68 35.0726 2.68C37.0326 2.68 38.6826 3.08 40.0226 3.88C41.3626 4.68 42.3726 5.73 43.0526 7.03C43.7526 8.33 44.1026 9.74 44.1026 11.26C44.1026 13.46 43.7426 15.49 43.0226 17.35C42.3026 19.21 41.3426 20.82 40.1426 22.18C38.9426 23.54 37.6026 24.6 36.1226 25.36C34.6426 26.1 33.1426 26.47 31.6226 26.47ZM31.9826 7.66C32.0026 7.72 32.0126 7.78 32.0126 7.84C32.0126 8.04 31.9726 8.26 31.8926 8.5C31.8126 8.72 31.6526 8.94 31.4126 9.16C31.0126 9.56 30.6126 10.12 30.2126 10.84C29.8126 11.54 29.4426 12.32 29.1026 13.18C28.7826 14.04 28.5226 14.92 28.3226 15.82C28.1226 16.72 28.0226 17.58 28.0226 18.4C28.0226 19.52 28.2826 20.45 28.8026 21.19C29.3426 21.93 30.1826 22.3 31.3226 22.3C32.2826 22.3 33.1926 22.08 34.0526 21.64C34.9126 21.18 35.7026 20.57 36.4226 19.81C37.1426 19.03 37.7626 18.17 38.2826 17.23C38.8026 16.27 39.2026 15.3 39.4826 14.32C39.7826 13.32 39.9326 12.37 39.9326 11.47C39.9326 10.63 39.7526 9.85 39.3926 9.13C39.0526 8.41 38.5526 7.83 37.8926 7.39C37.2326 6.93 36.4126 6.7 35.4326 6.7C34.7126 6.7 34.0626 6.79 33.4826 6.97C32.9226 7.15 32.4226 7.38 31.9826 7.66ZM65.4253 27.73C65.0053 27.73 64.6153 27.63 64.2553 27.43C63.8953 27.23 63.6053 26.88 63.3853 26.38C63.1853 25.88 63.1253 25.18 63.2053 24.28C62.5053 21.92 61.8653 19.57 61.2853 17.23C60.7253 14.89 60.1953 12.48 59.6953 10C58.9753 11.64 58.3253 13.32 57.7453 15.04C57.1653 16.74 56.6453 18.35 56.1853 19.87C55.7253 21.37 55.3053 22.63 54.9253 23.65C54.6253 24.55 54.3253 25.22 54.0253 25.66C53.7253 26.08 53.4253 26.35 53.1253 26.47C52.8453 26.61 52.5653 26.68 52.2853 26.68C51.6053 26.68 51.0853 26.52 50.7253 26.2C50.3653 25.88 50.1853 25.3 50.1853 24.46C50.1853 24.02 50.3053 23.35 50.5453 22.45C50.7853 21.53 51.1053 20.48 51.5053 19.3C51.9253 18.1 52.4053 16.85 52.9453 15.55C53.4853 14.23 54.0553 12.95 54.6553 11.71C55.2553 10.47 55.8553 9.35 56.4553 8.35C57.0553 7.33 57.6353 6.52 58.1953 5.92C58.7553 5.32 59.2553 5.02 59.6953 5.02C60.0753 5.02 60.4253 5.06 60.7453 5.14C61.0653 5.2 61.3753 5.38 61.6753 5.68C61.9753 5.96 62.2853 6.43 62.6053 7.09C62.8653 7.59 63.1253 8.31 63.3853 9.25C63.6453 10.17 63.8953 11.23 64.1353 12.43C64.3753 13.61 64.6153 14.85 64.8553 16.15C65.1153 17.45 65.3753 18.72 65.6353 19.96C66.3953 16.5 67.0053 13.46 67.4653 10.84C67.9453 8.2 68.2953 6.13 68.5153 4.63C68.7353 3.13 68.8553 2.34 68.8753 2.26C69.0153 1.68 69.1653 1.28 69.3253 1.06C69.4853 0.819999 69.6653 0.679999 69.8653 0.64C70.0653 0.579999 70.2953 0.549999 70.5553 0.549999C70.5753 0.549999 70.5853 0.549999 70.5853 0.549999C71.1053 0.549999 71.6153 0.759999 72.1153 1.18C72.6353 1.6 72.8953 2.17 72.8953 2.89C72.8953 3.13 72.8453 3.67 72.7453 4.51C72.6453 5.33 72.4953 6.37 72.2953 7.63C72.1153 8.87 71.8753 10.25 71.5753 11.77C71.2753 13.27 70.9253 14.84 70.5253 16.48C70.1453 18.1 69.7153 19.71 69.2353 21.31C68.7553 22.91 68.2253 24.41 67.6453 25.81C67.3253 26.61 66.9453 27.13 66.5053 27.37C66.0853 27.61 65.7253 27.73 65.4253 27.73ZM82.8178 7.48C81.8578 7.48 81.1478 7.39 80.6878 7.21C80.2478 7.01 79.9578 6.78 79.8178 6.52C79.6978 6.24 79.6378 5.99 79.6378 5.77C79.6378 5.49 79.7978 5.17 80.1178 4.81C80.4378 4.43 81.0578 4.15 81.9778 3.97C82.8978 3.77 83.9878 3.59 85.2478 3.43C86.5078 3.25 87.8478 3.1 89.2678 2.98C90.6878 2.84 92.1278 2.72 93.5878 2.62C95.0478 2.52 96.4378 2.45 97.7578 2.41C99.0778 2.35 100.248 2.32 101.268 2.32C102.328 2.32 103.148 2.38 103.728 2.5C104.308 2.62 104.718 2.77 104.958 2.95C105.218 3.13 105.368 3.32 105.408 3.52C105.468 3.72 105.498 3.91 105.498 4.09C105.498 4.13 105.498 4.16 105.498 4.18C105.498 4.42 105.438 4.68 105.318 4.96C105.218 5.24 104.988 5.48 104.628 5.68C104.268 5.86 103.728 5.95 103.008 5.95C102.748 5.95 102.168 5.99 101.268 6.07C100.368 6.15 99.2678 6.25 97.9678 6.37C96.6678 6.49 95.2878 6.61 93.8278 6.73C93.6078 7.63 93.3578 8.68 93.0778 9.88C92.8178 11.08 92.5478 12.34 92.2678 13.66C92.0078 14.98 91.7578 16.28 91.5178 17.56C91.2778 18.82 91.0778 19.99 90.9178 21.07C90.7578 22.13 90.6478 23 90.5878 23.68C90.5078 24.6 90.2378 25.25 89.7778 25.63C89.3378 25.99 88.8978 26.17 88.4578 26.17C88.1378 26.17 87.8178 26.1 87.4978 25.96C87.1778 25.84 86.9178 25.57 86.7178 25.15C86.5178 24.71 86.4178 24.06 86.4178 23.2C86.4178 22.32 86.4978 21.24 86.6578 19.96C86.8178 18.66 87.0278 17.27 87.2878 15.79C87.5678 14.31 87.8778 12.82 88.2178 11.32C88.5778 9.82 88.9478 8.42 89.3278 7.12C87.9878 7.22 86.7478 7.31 85.6078 7.39C84.4678 7.45 83.5378 7.48 82.8178 7.48ZM107.337 26.56C106.857 26.56 106.437 26.42 106.077 26.14C105.717 25.86 105.537 25.26 105.537 24.34C105.537 23.92 105.687 23.25 105.987 22.33C106.287 21.41 106.687 20.33 107.187 19.09C107.707 17.83 108.287 16.5 108.927 15.1C109.567 13.7 110.237 12.31 110.937 10.93C111.637 9.55 112.317 8.27 112.977 7.09C113.637 5.91 114.247 4.91 114.807 4.09C115.387 3.25 115.857 2.69 116.217 2.41C116.737 2.03 117.257 1.84 117.777 1.84C118.057 1.84 118.327 1.87 118.587 1.93C118.867 1.99 119.097 2.09 119.277 2.23C119.697 2.49 120.067 2.99 120.387 3.73C120.727 4.45 121.027 5.32 121.287 6.34C121.567 7.36 121.797 8.46 121.977 9.64C122.177 10.8 122.347 11.95 122.487 13.09C123.247 12.99 123.767 12.94 124.047 12.94C124.647 12.94 125.177 13.03 125.637 13.21C126.097 13.37 126.337 13.71 126.357 14.23C126.397 14.73 126.237 15.15 125.877 15.49C125.537 15.83 125.097 16.08 124.557 16.24C124.317 16.32 123.737 16.45 122.817 16.63C122.877 17.65 122.907 18.51 122.907 19.21C122.907 20.99 122.807 22.37 122.607 23.35C122.427 24.33 122.187 25.03 121.887 25.45C121.607 25.87 121.307 26.12 120.987 26.2C120.687 26.3 120.417 26.35 120.177 26.35C120.157 26.35 120.137 26.35 120.117 26.35C119.537 26.35 119.107 26.2 118.827 25.9C118.567 25.6 118.437 25.1 118.437 24.4V22.27C118.437 21.61 118.427 20.87 118.407 20.05C118.387 19.23 118.347 18.36 118.287 17.44C117.107 17.64 115.927 17.84 114.747 18.04C113.587 18.22 112.587 18.38 111.747 18.52C111.367 19.42 111.037 20.23 110.757 20.95C110.477 21.65 110.287 22.2 110.187 22.6C109.887 23.58 109.607 24.35 109.347 24.91C109.087 25.45 108.837 25.83 108.597 26.05C108.377 26.29 108.167 26.43 107.967 26.47C107.767 26.53 107.557 26.56 107.337 26.56ZM113.397 14.83C114.237 14.63 115.047 14.45 115.827 14.29C116.607 14.11 117.347 13.95 118.047 13.81C117.947 12.57 117.827 11.36 117.687 10.18C117.547 9 117.387 7.95 117.207 7.03C116.687 8.03 116.077 9.23 115.377 10.63C114.697 12.01 114.037 13.41 113.397 14.83ZM147.214 20.38C147.834 20.38 148.274 20.55 148.534 20.89C148.794 21.21 148.924 21.55 148.924 21.91C148.924 22.41 148.674 22.94 148.174 23.5C147.674 24.06 147.024 24.58 146.224 25.06C145.444 25.52 144.604 25.9 143.704 26.2C142.804 26.5 141.944 26.65 141.124 26.65C139.904 26.65 138.734 26.32 137.614 25.66C136.514 24.98 135.614 24.03 134.914 22.81C134.234 21.59 133.894 20.14 133.894 18.46C133.894 17.08 134.154 15.71 134.674 14.35C135.214 12.99 135.924 11.68 136.804 10.42C137.704 9.16 138.684 7.99 139.744 6.91C140.824 5.83 141.904 4.89 142.984 4.09C144.084 3.29 145.094 2.67 146.014 2.23C146.934 1.77 147.674 1.54 148.234 1.54C148.934 1.54 149.454 1.72 149.794 2.08C150.154 2.42 150.334 2.9 150.334 3.52C150.334 4.02 150.234 4.41 150.034 4.69C149.854 4.95 149.564 5.18 149.164 5.38C147.884 6.04 146.584 6.84 145.264 7.78C143.964 8.72 142.774 9.76 141.694 10.9C140.614 12.02 139.744 13.2 139.084 14.44C138.424 15.68 138.094 16.94 138.094 18.22C138.094 19.62 138.374 20.68 138.934 21.4C139.494 22.12 140.254 22.48 141.214 22.48C141.694 22.48 142.214 22.38 142.774 22.18C143.334 21.96 143.884 21.71 144.424 21.43C144.984 21.15 145.504 20.91 145.984 20.71C146.484 20.49 146.894 20.38 147.214 20.38ZM159.956 7.48C158.996 7.48 158.286 7.39 157.826 7.21C157.386 7.01 157.096 6.78 156.956 6.52C156.836 6.24 156.776 5.99 156.776 5.77C156.776 5.49 156.936 5.17 157.256 4.81C157.576 4.43 158.196 4.15 159.116 3.97C160.036 3.77 161.126 3.59 162.386 3.43C163.646 3.25 164.986 3.1 166.406 2.98C167.826 2.84 169.266 2.72 170.726 2.62C172.186 2.52 173.576 2.45 174.896 2.41C176.216 2.35 177.386 2.32 178.406 2.32C179.466 2.32 180.286 2.38 180.866 2.5C181.446 2.62 181.856 2.77 182.096 2.95C182.356 3.13 182.506 3.32 182.546 3.52C182.606 3.72 182.636 3.91 182.636 4.09C182.636 4.13 182.636 4.16 182.636 4.18C182.636 4.42 182.576 4.68 182.456 4.96C182.356 5.24 182.126 5.48 181.766 5.68C181.406 5.86 180.866 5.95 180.146 5.95C179.886 5.95 179.306 5.99 178.406 6.07C177.506 6.15 176.406 6.25 175.106 6.37C173.806 6.49 172.426 6.61 170.966 6.73C170.746 7.63 170.496 8.68 170.216 9.88C169.956 11.08 169.686 12.34 169.406 13.66C169.146 14.98 168.896 16.28 168.656 17.56C168.416 18.82 168.216 19.99 168.056 21.07C167.896 22.13 167.786 23 167.726 23.68C167.646 24.6 167.376 25.25 166.916 25.63C166.476 25.99 166.036 26.17 165.596 26.17C165.276 26.17 164.956 26.1 164.636 25.96C164.316 25.84 164.056 25.57 163.856 25.15C163.656 24.71 163.556 24.06 163.556 23.2C163.556 22.32 163.636 21.24 163.796 19.96C163.956 18.66 164.166 17.27 164.426 15.79C164.706 14.31 165.016 12.82 165.356 11.32C165.716 9.82 166.086 8.42 166.466 7.12C165.126 7.22 163.886 7.31 162.746 7.39C161.606 7.45 160.676 7.48 159.956 7.48Z" fill="#FEF4E1"/>
</svg>
