<svg width="475" height="95" viewBox="0 0 475 95" fill="none" xmlns="http://www.w3.org/2000/svg">
<path d="M5.7 84.8C3.96667 84.8 2.7 83.9667 1.9 82.3C1.1 80.6333 0.700001 77.6667 0.700001 73.4C0.700001 67.4 1.06667 61.0667 1.8 54.4C2.6 47.6667 3.63333 40.4 4.9 32.6C6.03333 26.4 8.73333 21.6333 13 18.3C17.3333 14.9667 23.1333 12.2333 30.4 10.1C34.9333 8.76666 39.6333 7.53333 44.5 6.4C49.3667 5.26666 53.9333 4.36666 58.2 3.7C62.5333 2.96666 66.1 2.6 68.9 2.6C71.0333 2.6 72.7 2.93333 73.9 3.6C75.1 4.26666 75.9333 5.1 76.4 6.1C76.9333 7.03333 77.2 7.9 77.2 8.7C77.2 9.96666 76.9 11.1 76.3 12.1C75.7 13.1 74.4 13.8667 72.4 14.4C71.5333 14.6667 69.7 15.1333 66.9 15.8C64.1667 16.4 60.8 17.1333 56.8 18C52.8667 18.8667 48.7 19.8 44.3 20.8C39.9 21.7333 35.6333 22.7 31.5 23.7C27.4333 24.9 24.4333 26.3667 22.5 28.1C20.6333 29.7667 19.4 32.2 18.8 35.4C18.6667 36.0667 18.5333 37 18.4 38.2C21.1333 37.3333 24.0667 36.6333 27.2 36.1C30.3333 35.5667 33.2333 35.1667 35.9 34.9C38.5667 34.6333 40.5333 34.5 41.8 34.5C43.1333 34.5 44.5333 34.7333 46 35.2C47.5333 35.6 48.8333 36.2333 49.9 37.1C51.0333 37.9 51.6 38.9333 51.6 40.2C51.6 41.4 51.1333 42.5 50.2 43.5C49.2667 44.4333 47.3667 45.3333 44.5 46.2C43.9 46.4 42.5333 46.6667 40.4 47C38.3333 47.3333 35.8667 47.7667 33 48.3C30.2 48.7667 27.3333 49.3 24.4 49.9C21.5333 50.5 19 51.1333 16.8 51.8C16.3333 55.4 15.9 59 15.5 62.6C15.1 66.2 14.7667 69.3333 14.5 72C14.2333 74.6 14.0333 76.2333 13.9 76.9C13.5 79.3667 12.5333 81.3 11 82.7C9.46667 84.1 7.7 84.8 5.7 84.8ZM78.6664 87.4C74.5331 87.4 71.1997 85.9667 68.6664 83.1C66.1331 80.1667 64.8664 75.4667 64.8664 69C64.8664 64.8667 65.3331 60.7333 66.2664 56.6C67.2664 52.4 68.6331 48.4333 70.3664 44.7C72.1664 40.9 74.2331 37.5333 76.5664 34.6C78.9664 31.6667 81.5997 29.3667 84.4664 27.7C87.3331 25.9667 90.2997 25.1 93.3664 25.1C98.5664 25.1 102.633 26.5 105.566 29.3C108.5 32.1 109.966 35.6667 109.966 40C109.966 43.3333 109.033 46.3667 107.166 49.1C105.366 51.7667 102.9 54.1667 99.7664 56.3C96.6331 58.4333 93.1331 60.3667 89.2664 62.1C85.3997 63.8333 81.4331 65.4 77.3664 66.8C77.0331 69.2 76.8664 71.3333 76.8664 73.2C76.8664 74.3333 77.4997 74.9 78.7664 74.9C81.7664 74.9 84.9664 74.4333 88.3664 73.5C91.8331 72.5 95.3331 71.2333 98.8664 69.7C102.4 68.1 105.8 66.4667 109.066 64.8C112.333 63.0667 115.3 61.4333 117.966 59.9C120.7 58.3 122.933 57.0333 124.666 56.1C126.466 55.1 127.633 54.6 128.166 54.6C129.633 54.6 130.7 55.0333 131.366 55.9C132.033 56.7667 132.366 57.7 132.366 58.7C132.366 59.1667 131.466 60.2 129.666 61.8C127.933 63.4 125.533 65.3 122.466 67.5C119.466 69.6333 116.066 71.8667 112.266 74.2C108.533 76.4667 104.633 78.6333 100.566 80.7C96.5664 82.7 92.6664 84.3 88.8664 85.5C85.1331 86.7667 81.7331 87.4 78.6664 87.4ZM79.0664 57.9C81.7997 56.3 84.4997 54.6333 87.1664 52.9C89.8997 51.1 92.1664 49.1 93.9664 46.9C95.7664 44.6333 96.6664 42 96.6664 39C96.6664 38.1333 96.4331 37.5667 95.9664 37.3C95.4997 36.9667 94.8331 36.8 93.9664 36.8C91.6331 36.8 89.4997 37.8333 87.5664 39.9C85.6997 41.9667 84.0331 44.6333 82.5664 47.9C81.1664 51.1 79.9997 54.4333 79.0664 57.9ZM131.225 87.8C129.092 87.8 127.158 87.2 125.425 86C123.692 84.8667 122.325 83.3667 121.325 81.5C120.325 79.5667 119.825 77.5 119.825 75.3C119.825 71.1667 120.725 67.1333 122.525 63.2C124.392 59.2667 126.825 55.5333 129.825 52C132.825 48.4667 136.092 45.2333 139.625 42.3C143.225 39.3 146.792 36.7333 150.325 34.6C153.925 32.4667 157.192 30.8 160.125 29.6C163.125 28.4 165.458 27.8 167.125 27.8C169.058 27.8 170.625 28.2333 171.825 29.1C173.092 29.9 173.725 31.1667 173.725 32.9C173.725 33.4333 173.592 33.8667 173.325 34.2C174.192 34.4 174.892 34.9 175.425 35.7C175.958 36.5 176.225 37.7 176.225 39.3C176.225 39.9667 176.058 41.7 175.725 44.5C175.392 47.3 175.025 50.7 174.625 54.7C174.292 58.7 174.125 62.8667 174.125 67.2C174.125 67.8667 174.225 68.4667 174.425 69C174.625 69.4667 175.058 69.7 175.725 69.7C178.392 69.7 181.092 69.1667 183.825 68.1C186.625 66.9667 189.325 65.6 191.925 64C194.592 62.3333 196.992 60.7 199.125 59.1C201.325 57.4333 203.158 56.0667 204.625 55C206.158 53.8667 207.158 53.3 207.625 53.3C209.892 53.3 211.025 54.4333 211.025 56.7C211.025 57.3 210.292 58.5667 208.825 60.5C207.425 62.3667 205.492 64.5333 203.025 67C200.558 69.4 197.792 71.8 194.725 74.2C191.725 76.5333 188.592 78.4667 185.325 80C182.125 81.5333 179.025 82.3 176.025 82.3C172.358 82.3 169.558 81.4333 167.625 79.7C165.758 77.9667 164.425 75.6333 163.625 72.7C162.892 69.7 162.492 66.3333 162.425 62.6C159.025 67.4667 155.492 71.8 151.825 75.6C148.225 79.3333 144.658 82.3 141.125 84.5C137.592 86.7 134.292 87.8 131.225 87.8ZM166.625 37.7C160.092 40.8333 154.225 44.4333 149.025 48.5C143.825 52.5 139.692 56.7 136.625 61.1C133.625 65.5 132.125 69.7333 132.125 73.8C132.125 74.9333 132.658 75.5 133.725 75.5C134.992 75.5 136.658 74.7667 138.725 73.3C140.858 71.8333 143.158 69.9 145.625 67.5C148.092 65.0333 150.558 62.3 153.025 59.3C155.492 56.2333 157.792 53.1 159.925 49.9C162.058 46.7 163.758 43.6333 165.025 40.7C165.492 39.6333 166.025 38.6333 166.625 37.7ZM274.619 33.6C274.619 34.4 274.352 35.1 273.819 35.7C273.285 36.3 272.619 36.7667 271.819 37.1C270.685 37.5667 268.719 38.1667 265.919 38.9C263.119 39.6333 259.719 40.4667 255.719 41.4C251.785 42.3333 247.552 43.3 243.019 44.3C238.485 45.2333 233.952 46.1333 229.419 47C227.685 53.4 225.919 60 224.119 66.8C222.319 73.5333 220.519 80.1667 218.719 86.7C218.052 89.0333 217.252 90.8 216.319 92C215.385 93.2667 213.785 93.9 211.519 93.9C209.052 93.9 207.385 93.1 206.519 91.5C205.719 89.9667 205.619 87.8667 206.219 85.2C207.952 77.9333 209.552 71.1667 211.019 64.9C212.552 58.6333 213.785 53.5667 214.719 49.7C210.719 50.3667 207.219 50.9 204.219 51.3C201.219 51.6333 199.085 51.7667 197.819 51.7C196.419 51.5667 195.252 51 194.319 50C193.385 49 192.952 47.7667 193.019 46.3C193.152 44.9667 193.752 43.8333 194.819 42.9C195.885 41.9 197.152 41.3 198.619 41.1C200.685 40.9 203.352 40.6 206.619 40.2C209.885 39.8 213.485 39.3333 217.419 38.8C218.285 35.4 219.285 31.9 220.419 28.3C221.552 24.6333 222.719 21.1333 223.919 17.8C225.185 14.4 226.385 11.4333 227.519 8.9C228.652 6.36666 229.685 4.53333 230.619 3.39999C231.352 2.53333 232.252 1.86666 233.319 1.4C234.452 0.933328 235.552 0.699994 236.619 0.699994C238.019 0.699994 239.152 1.2 240.019 2.2C240.885 3.2 241.319 4.36666 241.319 5.69999C241.319 6.23333 241.285 6.8 241.219 7.4C241.152 7.93333 241.019 8.46666 240.819 8.99999C239.552 12.3333 238.185 16.3667 236.719 21.1C235.319 25.8333 233.852 31.0333 232.319 36.7C237.319 35.9667 242.219 35.2333 247.019 34.5C251.885 33.7 256.285 32.9667 260.219 32.3C264.219 31.5667 267.419 30.9333 269.819 30.4C271.152 29.9333 272.285 30.0333 273.219 30.7C274.152 31.3 274.619 32.2667 274.619 33.6ZM293.763 94.5C292.23 94.5 290.83 93.8667 289.563 92.6C288.363 91.4 287.763 89.3667 287.763 86.5C287.763 84.3667 287.93 81.4 288.263 77.6C288.663 73.7333 289.397 68.7667 290.463 62.7C288.13 67.5 285.697 71.7667 283.163 75.5C280.63 79.2333 278.13 82.1667 275.663 84.3C273.263 86.3667 270.963 87.4 268.763 87.4C265.23 87.4 262.43 86.3333 260.363 84.2C258.297 82 257.263 77.9 257.263 71.9C257.263 69.0333 257.497 65.8 257.963 62.2C258.497 58.6 259.163 55 259.963 51.4C260.763 47.8 261.563 44.6 262.363 41.8C263.23 38.9333 263.997 36.8 264.663 35.4C265.197 34.2 265.863 33.2667 266.663 32.6C267.53 31.9333 268.63 31.6 269.963 31.6C272.097 31.6 273.73 32.3 274.863 33.7C275.997 35.1 276.563 36.5333 276.563 38C276.563 39.1333 276.297 40.7667 275.763 42.9C275.297 45.0333 274.697 47.4 273.963 50C273.297 52.6 272.597 55.2667 271.863 58C271.13 60.7333 270.497 63.3 269.963 65.7C269.497 68.1 269.263 70.1333 269.263 71.8C269.263 73.8667 270.063 74.9 271.663 74.9C272.597 74.9 273.797 74 275.263 72.2C276.797 70.4 278.397 68 280.063 65C281.797 61.9333 283.53 58.6 285.263 55C287.063 51.3333 288.697 47.6333 290.163 43.9C291.697 40.1 292.997 36.6 294.063 33.4C294.73 31.4 295.63 30 296.763 29.2C297.897 28.4 299.197 28 300.663 28C302.93 28 304.663 28.6333 305.863 29.9C307.13 31.1667 307.763 32.9667 307.763 35.3C307.763 36.3667 307.597 38.1667 307.263 40.7C306.93 43.2333 306.497 46.2 305.963 49.6C305.497 53 304.93 56.6 304.263 60.4C303.597 64.2 302.93 67.9333 302.263 71.6C301.663 75.2667 301.063 78.6333 300.463 81.7C299.863 84.7 299.363 87.1 298.963 88.9C298.297 91.5667 297.497 93.1667 296.563 93.7C295.63 94.2333 294.697 94.5 293.763 94.5ZM324.644 88.4C322.977 88.4 321.544 87.8 320.344 86.6C319.21 85.4 318.644 83.6667 318.644 81.4C318.644 80.4 318.777 78.7667 319.044 76.5C319.377 74.1667 319.777 71.5 320.244 68.5C320.777 65.5 321.277 62.3667 321.744 59.1C322.277 55.8333 322.71 52.7333 323.044 49.8C323.444 46.8667 323.71 44.3667 323.844 42.3C323.977 39.7667 324.644 37.9667 325.844 36.9C327.044 35.7667 328.477 35.2 330.144 35.2C331.477 35.2 332.677 35.5333 333.744 36.2C334.877 36.8 335.577 38.1 335.844 40.1C336.177 42.0333 336.21 44.8333 335.944 48.5C338.877 43.1667 341.844 38.4 344.844 34.2C347.91 30 351.11 26.6667 354.444 24.2C359.977 20 364.977 17.9 369.444 17.9C371.977 17.9 373.644 18.4667 374.444 19.6C375.244 20.7333 375.644 21.9 375.644 23.1C375.644 23.9 375.444 24.6333 375.044 25.3C374.71 25.9667 373.977 26.6667 372.844 27.4C371.71 28.1333 369.977 29.1 367.644 30.3C364.51 31.9 361.41 34 358.344 36.6C355.344 39.2 352.344 42.5333 349.344 46.6C346.344 50.6667 343.31 55.6667 340.244 61.6C337.177 67.5333 334.01 74.6 330.744 82.8C330.144 85.0667 329.277 86.5667 328.144 87.3C327.077 88.0333 325.91 88.4 324.644 88.4ZM383.354 87.4C379.221 87.4 375.887 85.9667 373.354 83.1C370.821 80.1667 369.554 75.4667 369.554 69C369.554 64.8667 370.021 60.7333 370.954 56.6C371.954 52.4 373.321 48.4333 375.054 44.7C376.854 40.9 378.921 37.5333 381.254 34.6C383.654 31.6667 386.287 29.3667 389.154 27.7C392.021 25.9667 394.987 25.1 398.054 25.1C403.254 25.1 407.321 26.5 410.254 29.3C413.187 32.1 414.654 35.6667 414.654 40C414.654 43.3333 413.721 46.3667 411.854 49.1C410.054 51.7667 407.587 54.1667 404.454 56.3C401.321 58.4333 397.821 60.3667 393.954 62.1C390.087 63.8333 386.121 65.4 382.054 66.8C381.721 69.2 381.554 71.3333 381.554 73.2C381.554 74.3333 382.187 74.9 383.454 74.9C386.454 74.9 389.654 74.4333 393.054 73.5C396.521 72.5 400.021 71.2333 403.554 69.7C407.087 68.1 410.487 66.4667 413.754 64.8C417.021 63.0667 419.987 61.4333 422.654 59.9C425.387 58.3 427.621 57.0333 429.354 56.1C431.154 55.1 432.321 54.6 432.854 54.6C434.321 54.6 435.387 55.0333 436.054 55.9C436.721 56.7667 437.054 57.7 437.054 58.7C437.054 59.1667 436.154 60.2 434.354 61.8C432.621 63.4 430.221 65.3 427.154 67.5C424.154 69.6333 420.754 71.8667 416.954 74.2C413.221 76.4667 409.321 78.6333 405.254 80.7C401.254 82.7 397.354 84.3 393.554 85.5C389.821 86.7667 386.421 87.4 383.354 87.4ZM383.754 57.9C386.487 56.3 389.187 54.6333 391.854 52.9C394.587 51.1 396.854 49.1 398.654 46.9C400.454 44.6333 401.354 42 401.354 39C401.354 38.1333 401.121 37.5667 400.654 37.3C400.187 36.9667 399.521 36.8 398.654 36.8C396.321 36.8 394.187 37.8333 392.254 39.9C390.387 41.9667 388.721 44.6333 387.254 47.9C385.854 51.1 384.687 54.4333 383.754 57.9ZM440.289 89.1C437.422 89.1 435.389 88.7 434.189 87.9C433.056 87.1 432.489 85.9333 432.489 84.4C432.489 83.0667 432.956 81.9333 433.889 81C434.822 80 436.889 79 440.089 78C443.822 76.8667 447.356 75.5667 450.689 74.1C454.089 72.5667 456.856 70.9 458.989 69.1C461.189 67.3 462.289 65.4 462.289 63.4C462.289 62.0667 461.822 61.1 460.889 60.5C460.022 59.9 458.989 59.6 457.789 59.6C456.789 59.6 455.322 59.7667 453.389 60.1C451.522 60.3667 449.456 60.7333 447.189 61.2C444.922 61.6 442.722 61.9667 440.589 62.3C438.522 62.5667 436.756 62.7 435.289 62.7C431.822 62.7 429.256 61.9333 427.589 60.4C425.922 58.8 425.089 56.7667 425.089 54.3C425.089 52.9667 425.789 51.1333 427.189 48.8C428.589 46.4667 430.456 43.9 432.789 41.1C435.122 38.3 437.722 35.5 440.589 32.7C443.456 29.9 446.356 27.3333 449.289 25C452.289 22.6 455.122 20.7 457.789 19.3C460.456 17.8333 462.722 17.1 464.589 17.1C466.722 17.1 468.422 17.7667 469.689 19.1C471.022 20.4333 471.689 22.2333 471.689 24.5C471.689 25.5667 471.589 26.7333 471.389 28C471.189 29.2 470.689 30.3 469.889 31.3C469.089 32.2333 467.856 32.9 466.189 33.3C464.522 33.7 462.256 33.6333 459.389 33.1C457.122 34.7667 454.756 36.6 452.289 38.6C449.889 40.5333 447.622 42.5667 445.489 44.7C443.356 46.7667 441.589 48.8 440.189 50.8C442.656 50 445.456 49.3667 448.589 48.9C451.722 48.3667 454.889 48.1 458.089 48.1C461.956 48.1 465.089 48.8 467.489 50.2C469.956 51.5333 471.756 53.3333 472.889 55.6C474.089 57.8667 474.689 60.3667 474.689 63.1C474.689 66.1667 473.689 69.2333 471.689 72.3C469.689 75.3667 467.022 78.1667 463.689 80.7C460.356 83.2333 456.656 85.2667 452.589 86.8C448.522 88.3333 444.422 89.1 440.289 89.1Z" fill="#27272A"/>
</svg>
