<svg width="463" height="90" viewBox="0 0 463 90" fill="none" xmlns="http://www.w3.org/2000/svg">
<g filter="url(#filter0_d_34_61)">
<path d="M6.72 78.12C4.58667 78.12 2.98667 77.5333 1.92 76.36C0.853334 75.1867 0.32 73.9867 0.32 72.76C0.32 71.32 0.586667 70.2267 1.12 69.48C1.65333 68.7333 2.69333 68.1733 4.24 67.8C6.26667 67.3733 8.37333 66.84 10.56 66.2C12.8 65.56 14.9333 64.8933 16.96 64.2C19.04 63.4533 20.8533 62.7067 22.4 61.96C23.9467 61.16 25.0667 60.4133 25.76 59.72C24.9067 59.24 23.5467 58.68 21.68 58.04C19.8133 57.3467 17.7333 56.5467 15.44 55.64C13.2 54.68 11.04 53.56 8.96 52.28C6.88 51 5.17333 49.5067 3.84 47.8C2.50667 46.0933 1.84 44.1467 1.84 41.96C1.84 38.92 2.61333 36.0667 4.16 33.4C5.70667 30.7333 7.76 28.2533 10.32 25.96C12.88 23.6667 15.6533 21.56 18.64 19.64C21.68 17.72 24.6933 15.9867 27.68 14.44C30.72 12.84 33.44 11.4267 35.84 10.2C36.7467 9.66666 37.6 9.32 38.4 9.16C39.2533 8.94667 40.0267 8.84 40.72 8.84C43.12 8.84 44.7733 9.42666 45.68 10.6C46.5867 11.7733 47.04 12.9733 47.04 14.2C47.04 15.0533 46.64 16.0667 45.84 17.24C45.04 18.36 43.76 19.4 42 20.36C40.2933 21.32 38.0267 22.0133 35.2 22.44C34.72 22.4933 34.2933 22.5467 33.92 22.6C31.7867 23.6667 29.4933 24.9467 27.04 26.44C24.5867 27.9333 22.2667 29.5067 20.08 31.16C17.9467 32.76 16.1867 34.36 14.8 35.96C13.4133 37.56 12.72 39 12.72 40.28C12.72 41.72 13.3067 43.0267 14.48 44.2C15.6533 45.32 17.1467 46.36 18.96 47.32C20.8267 48.2267 22.7733 49.1067 24.8 49.96C26.88 50.8133 28.8267 51.6933 30.64 52.6C32.5067 53.4533 34.0267 54.4133 35.2 55.48C36.3733 56.5467 36.96 57.7467 36.96 59.08C36.96 60.8933 36.3467 62.6267 35.12 64.28C33.8933 65.9333 32.2933 67.48 30.32 68.92C28.3467 70.3067 26.1867 71.56 23.84 72.68C21.4933 73.8 19.1733 74.76 16.88 75.56C14.64 76.4133 12.6133 77.0533 10.8 77.48C8.98667 77.9067 7.62667 78.12 6.72 78.12ZM55.6813 81.24C53.2279 81.24 51.4679 80.5467 50.4013 79.16C49.3346 77.7733 48.8013 75.7467 48.8013 73.08C48.8013 70.6267 49.2546 67.4267 50.1613 63.48C51.1213 59.48 52.3746 55.0267 53.9213 50.12C55.5213 45.16 57.3079 40.0667 59.2813 34.84C61.2546 29.56 63.3079 24.3867 65.4413 19.32C67.5746 14.2 69.6546 9.50666 71.6813 5.24C72.6413 3.37333 73.6546 2.09333 74.7213 1.4C75.7879 0.706665 76.9613 0.359998 78.2413 0.359998C79.4679 0.359998 80.5079 0.706665 81.3613 1.4C82.2146 2.04 82.6413 3.08 82.6413 4.52C82.6413 4.84 82.2146 6.06666 81.3613 8.2C80.5079 10.28 79.3879 13 78.0013 16.36C76.6146 19.6667 75.0946 23.4 73.4413 27.56C71.7879 31.6667 70.1346 35.96 68.4813 40.44C66.8279 44.8667 65.3346 49.24 64.0013 53.56C62.6679 57.88 61.6013 61.88 60.8013 65.56C62.6679 63.0533 64.6679 60.28 66.8013 57.24C68.9879 54.1467 71.2013 51.08 73.4413 48.04C75.7346 44.9467 77.9746 42.12 80.1613 39.56C82.4013 37 84.4813 34.9467 86.4012 33.4C88.3213 31.8533 90.0013 31.08 91.4413 31.08C94.1079 31.08 96.2413 31.8267 97.8413 33.32C99.4946 34.76 100.321 37.2667 100.321 40.84C100.321 42.4933 100.001 44.4933 99.3613 46.84C98.7213 49.1333 97.9479 51.56 97.0413 54.12C96.1879 56.6267 95.4413 59.0533 94.8013 61.4C94.1613 63.7467 93.8413 65.8 93.8413 67.56C93.8413 68.52 94.2946 69 95.2013 69C97.8146 69 100.455 68.44 103.121 67.32C105.841 66.2 108.428 64.8133 110.881 63.16C113.388 61.4533 115.655 59.7733 117.681 58.12C119.761 56.4133 121.441 55 122.721 53.88C123.628 53.0267 124.455 52.4667 125.201 52.2C125.948 51.88 126.641 51.72 127.281 51.72C129.468 51.72 130.561 52.8133 130.561 55C130.561 55.4267 130.481 55.96 130.321 56.6C130.161 57.1867 129.655 57.9333 128.801 58.84C127.948 59.7467 126.668 61.0267 124.961 62.68C123.255 64.3333 121.255 66.0933 118.961 67.96C116.721 69.8267 114.268 71.6133 111.601 73.32C108.988 74.9733 106.295 76.3333 103.521 77.4C100.748 78.4667 98.0546 79 95.4413 79C91.4946 79 88.4546 77.88 86.3213 75.64C84.1879 73.4533 83.1213 70.4667 83.1213 66.68C83.1213 64.0667 83.6546 60.7867 84.7213 56.84C85.7879 52.84 86.9879 48.76 88.3213 44.6C86.4546 46.4133 84.5079 48.5733 82.4813 51.08C80.4546 53.5333 78.4013 56.1467 76.3213 58.92C74.2413 61.64 72.1879 64.3333 70.1613 67C68.1879 69.6133 66.2946 72.0133 64.4813 74.2C62.6679 76.3333 61.0146 78.04 59.5213 79.32C58.0279 80.6 56.7479 81.24 55.6813 81.24ZM136.709 77.64C132.923 77.64 129.883 76.3067 127.589 73.64C125.296 70.92 124.149 67.2933 124.149 62.76C124.149 61.32 124.336 59.8533 124.709 58.36C125.136 56.8667 125.643 55.48 126.229 54.2C125.909 53.72 125.643 53.1067 125.429 52.36C125.269 51.56 125.189 50.6267 125.189 49.56C125.189 46.0933 125.803 42.92 127.029 40.04C128.256 37.1067 129.909 34.5733 131.989 32.44C134.069 30.3067 136.363 28.6533 138.869 27.48C141.376 26.3067 143.909 25.72 146.469 25.72C150.843 25.72 154.416 27.1867 157.189 30.12C160.016 33.0533 161.429 37.6133 161.429 43.8C161.429 46.8933 160.949 50.04 159.989 53.24C159.029 56.44 157.723 59.5067 156.069 62.44C154.469 65.32 152.603 67.9067 150.469 70.2C148.389 72.4933 146.149 74.3067 143.749 75.64C141.403 76.9733 139.056 77.64 136.709 77.64ZM135.429 50.6C135.696 51.1867 135.829 51.88 135.829 52.68C135.829 53.48 135.669 54.3067 135.349 55.16C135.029 56.0133 134.709 57.16 134.389 58.6C134.069 59.9867 133.909 61.9867 133.909 64.6C133.909 65.2933 133.989 65.88 134.149 66.36C134.363 66.7867 134.816 67 135.509 67C137.323 67 139.029 66.4133 140.629 65.24C142.283 64.0667 143.749 62.52 145.029 60.6C146.363 58.68 147.483 56.5467 148.389 54.2C149.349 51.8 150.069 49.3733 150.549 46.92C151.083 44.4133 151.349 42.0933 151.349 39.96C151.349 38.5733 151.083 37.6133 150.549 37.08C150.016 36.5467 149.083 36.28 147.749 36.28C145.936 36.28 144.069 36.8667 142.149 38.04C140.283 39.16 138.709 40.7067 137.429 42.68C136.149 44.6 135.509 46.7867 135.509 49.24C135.509 49.72 135.483 50.1733 135.429 50.6ZM181.213 78.52C180.093 78.52 179.026 78.28 178.013 77.8C176.999 77.32 176.093 76.3867 175.293 75C174.493 73.6667 173.853 71.6933 173.373 69.08C172.893 66.4133 172.653 62.8933 172.653 58.52C172.653 54.4133 172.866 50.4933 173.293 46.76C173.719 42.9733 174.333 39.6133 175.133 36.68C175.933 33.6933 176.893 31.3467 178.013 29.64C179.133 27.88 180.386 27 181.773 27C182.999 27 184.013 27.5867 184.812 28.76C185.613 29.9333 186.013 31.6133 186.013 33.8C186.013 35.5067 185.799 37.7467 185.372 40.52C184.999 43.2933 184.546 46.28 184.013 49.48C183.479 52.6267 182.999 55.6933 182.573 58.68C182.199 61.6133 182.013 64.12 182.013 66.2C182.013 66.5733 182.066 66.9467 182.173 67.32C182.279 67.64 182.439 67.8 182.653 67.8C182.973 67.8 183.506 67.0267 184.253 65.48C184.999 63.9333 185.906 61.9067 186.973 59.4C188.093 56.84 189.293 54.0667 190.573 51.08C191.906 48.0933 193.293 45.16 194.733 42.28C196.226 39.3467 197.719 36.7333 199.213 34.44C200.493 32.4667 202.013 30.9467 203.773 29.88C205.533 28.8133 207.159 28.28 208.653 28.28C209.986 28.28 211.293 28.6267 212.573 29.32C213.906 30.0133 214.999 31.0533 215.853 32.44C216.706 33.8267 217.133 35.56 217.133 37.64C217.133 38.44 217.026 39.7733 216.813 41.64C216.653 43.4533 216.439 45.5333 216.173 47.88C215.906 50.1733 215.639 52.4933 215.373 54.84C215.106 57.1333 214.866 59.1867 214.653 61C214.493 62.8133 214.413 64.0933 214.413 64.84C214.413 64.9467 214.413 65.08 214.413 65.24C214.413 65.8267 214.439 66.4133 214.493 67C214.546 67.5333 214.706 67.8 214.973 67.8C215.559 67.8 216.306 67.1333 217.213 65.8C218.173 64.4133 219.239 62.5733 220.413 60.28C221.639 57.9867 222.919 55.4267 224.253 52.6C225.586 49.7733 226.946 46.8667 228.333 43.88C229.773 40.84 231.186 37.96 232.573 35.24C233.639 32.9467 234.546 31.5067 235.293 30.92C236.039 30.28 236.759 29.96 237.453 29.96C238.413 29.96 239.426 30.44 240.493 31.4C241.559 32.36 242.093 33.8533 242.093 35.88C242.093 36.5733 242.066 37.2667 242.013 37.96C241.959 38.6533 241.773 39.3733 241.453 40.12C239.319 45.5067 237.106 50.4933 234.813 55.08C232.573 59.6133 230.333 63.56 228.093 66.92C225.853 70.28 223.693 72.8933 221.613 74.76C219.533 76.6267 217.586 77.56 215.773 77.56C212.039 77.56 209.159 76.5733 207.133 74.6C205.159 72.5733 204.173 69.8533 204.173 66.44C204.173 65.16 204.253 63.5333 204.413 61.56C204.573 59.5333 204.759 57.3467 204.973 55C205.239 52.6 205.506 50.2267 205.773 47.88C206.039 45.5333 206.306 43.3733 206.573 41.4C206.679 40.6533 206.546 40.1733 206.173 39.96C205.853 39.7467 205.559 39.9867 205.293 40.68C204.599 42.4933 203.853 44.4667 203.053 46.6C202.253 48.7333 201.506 50.6 200.813 52.2C199.693 54.8667 198.386 57.72 196.893 60.76C195.453 63.8 193.879 66.68 192.173 69.4C190.466 72.0667 188.679 74.2533 186.813 75.96C184.946 77.6667 183.079 78.52 181.213 78.52ZM262.356 77.24C259.369 77.24 256.782 76.5467 254.596 75.16C252.409 73.8267 250.729 72.0933 249.556 69.96C248.382 67.7733 247.796 65.5333 247.796 63.24C247.796 59.4 248.382 55.8533 249.556 52.6C250.729 49.2933 252.276 46.3067 254.196 43.64C256.116 40.92 258.196 38.52 260.436 36.44C262.729 34.36 264.942 32.6267 267.076 31.24C269.262 29.8 271.209 28.7333 272.916 28.04C274.622 27.2933 275.876 26.92 276.676 26.92C278.116 26.92 279.129 27.24 279.716 27.88C280.356 28.4667 280.676 29.4533 280.676 30.84C280.676 31.64 280.089 32.6 278.916 33.72C277.796 34.84 276.302 36.12 274.436 37.56C272.622 39 270.702 40.6267 268.676 42.44C266.649 44.2533 264.702 46.28 262.836 48.52C261.022 50.76 259.529 53.2133 258.356 55.88C257.236 58.5467 256.676 61.4533 256.676 64.6C256.676 65.7733 256.889 66.68 257.316 67.32C257.796 67.96 258.569 68.28 259.636 68.28C262.676 68.28 265.929 67.7467 269.396 66.68C272.916 65.56 276.409 64.1733 279.876 62.52C283.396 60.8133 286.702 59.0533 289.796 57.24C292.942 55.4267 295.636 53.8 297.876 52.36C298.782 51.72 299.556 51.2133 300.196 50.84C300.836 50.4667 301.289 50.28 301.556 50.28C303.156 50.28 303.956 51.1067 303.956 52.76C303.956 53.6133 303.316 54.76 302.036 56.2C300.542 58.0667 298.516 59.9867 295.956 61.96C293.449 63.9333 290.649 65.8267 287.556 67.64C284.516 69.4533 281.396 71.08 278.196 72.52C275.049 73.96 272.089 75.1067 269.316 75.96C266.542 76.8133 264.222 77.24 262.356 77.24ZM302.302 78.04C300.595 78.04 299.049 77.56 297.662 76.6C296.275 75.6933 295.182 74.4933 294.382 73C293.582 71.4533 293.182 69.8 293.182 68.04C293.182 64.7333 293.902 61.5067 295.342 58.36C296.835 55.2133 298.782 52.2267 301.182 49.4C303.582 46.5733 306.195 43.9867 309.022 41.64C311.902 39.24 314.755 37.1867 317.582 35.48C320.462 33.7733 323.075 32.44 325.422 31.48C327.822 30.52 329.689 30.04 331.022 30.04C332.569 30.04 333.822 30.3867 334.782 31.08C335.795 31.72 336.302 32.7333 336.302 34.12C336.302 34.5467 336.195 34.8933 335.982 35.16C336.675 35.32 337.235 35.72 337.662 36.36C338.089 37 338.302 37.96 338.302 39.24C338.302 39.7733 338.169 41.16 337.902 43.4C337.635 45.64 337.342 48.36 337.022 51.56C336.755 54.76 336.622 58.0933 336.622 61.56C336.622 62.0933 336.702 62.5733 336.862 63C337.022 63.3733 337.369 63.56 337.902 63.56C340.035 63.56 342.195 63.1333 344.382 62.28C346.622 61.3733 348.782 60.28 350.862 59C352.995 57.6667 354.915 56.36 356.622 55.08C358.382 53.7467 359.849 52.6533 361.022 51.8C362.249 50.8933 363.049 50.44 363.422 50.44C365.235 50.44 366.142 51.3467 366.142 53.16C366.142 53.64 365.555 54.6533 364.382 56.2C363.262 57.6933 361.715 59.4267 359.742 61.4C357.769 63.32 355.555 65.24 353.102 67.16C350.702 69.0267 348.195 70.5733 345.582 71.8C343.022 73.0267 340.542 73.64 338.142 73.64C335.209 73.64 332.969 72.9467 331.422 71.56C329.929 70.1733 328.862 68.3067 328.222 65.96C327.635 63.56 327.315 60.8667 327.262 57.88C324.542 61.7733 321.715 65.24 318.782 68.28C315.902 71.2667 313.049 73.64 310.222 75.4C307.395 77.16 304.755 78.04 302.302 78.04ZM330.622 37.96C325.395 40.4667 320.702 43.3467 316.542 46.6C312.382 49.8 309.075 53.16 306.622 56.68C304.222 60.2 303.022 63.5867 303.022 66.84C303.022 67.7467 303.449 68.2 304.302 68.2C305.315 68.2 306.649 67.6133 308.302 66.44C310.009 65.2667 311.849 63.72 313.822 61.8C315.795 59.8267 317.769 57.64 319.742 55.24C321.715 52.7867 323.555 50.28 325.262 47.72C326.969 45.16 328.329 42.7067 329.342 40.36C329.715 39.5067 330.142 38.7067 330.622 37.96ZM367.131 79.08C364.838 79.08 363.211 78.76 362.251 78.12C361.345 77.48 360.891 76.5467 360.891 75.32C360.891 74.2533 361.265 73.3467 362.011 72.6C362.758 71.8 364.411 71 366.971 70.2C369.958 69.2933 372.785 68.2533 375.451 67.08C378.171 65.8533 380.385 64.52 382.091 63.08C383.851 61.64 384.731 60.12 384.731 58.52C384.731 57.4533 384.358 56.68 383.611 56.2C382.918 55.72 382.091 55.48 381.131 55.48C380.331 55.48 379.158 55.6133 377.611 55.88C376.118 56.0933 374.465 56.3867 372.651 56.76C370.838 57.08 369.078 57.3733 367.371 57.64C365.718 57.8533 364.305 57.96 363.131 57.96C360.358 57.96 358.305 57.3467 356.971 56.12C355.638 54.84 354.971 53.2133 354.971 51.24C354.971 50.1733 355.531 48.7067 356.651 46.84C357.771 44.9733 359.265 42.92 361.131 40.68C362.998 38.44 365.078 36.2 367.371 33.96C369.665 31.72 371.985 29.6667 374.331 27.8C376.731 25.88 378.998 24.36 381.131 23.24C383.265 22.0667 385.078 21.48 386.571 21.48C388.278 21.48 389.638 22.0133 390.651 23.08C391.718 24.1467 392.251 25.5867 392.251 27.4C392.251 28.2533 392.171 29.1867 392.011 30.2C391.851 31.16 391.451 32.04 390.811 32.84C390.171 33.5867 389.185 34.12 387.851 34.44C386.518 34.76 384.705 34.7067 382.411 34.28C380.598 35.6133 378.705 37.08 376.731 38.68C374.811 40.2267 372.998 41.8533 371.291 43.56C369.585 45.2133 368.171 46.84 367.051 48.44C369.025 47.8 371.265 47.2933 373.771 46.92C376.278 46.4933 378.811 46.28 381.371 46.28C384.465 46.28 386.971 46.84 388.891 47.96C390.865 49.0267 392.305 50.4667 393.211 52.28C394.171 54.0933 394.651 56.0933 394.651 58.28C394.651 60.7333 393.851 63.1867 392.251 65.64C390.651 68.0933 388.518 70.3333 385.851 72.36C383.185 74.3867 380.225 76.0133 376.971 77.24C373.718 78.4667 370.438 79.08 367.131 79.08ZM415.568 77.72C412.261 77.72 409.594 76.5733 407.568 74.28C405.541 71.9333 404.528 68.1733 404.528 63C404.528 59.6933 404.901 56.3867 405.648 53.08C406.448 49.72 407.541 46.5467 408.928 43.56C410.368 40.52 412.021 37.8267 413.888 35.48C415.808 33.1333 417.914 31.2933 420.207 29.96C422.501 28.5733 424.874 27.88 427.328 27.88C431.488 27.88 434.741 29 437.087 31.24C439.434 33.48 440.608 36.3333 440.608 39.8C440.608 42.4667 439.861 44.8933 438.368 47.08C436.928 49.2133 434.954 51.1333 432.448 52.84C429.941 54.5467 427.141 56.0933 424.048 57.48C420.954 58.8667 417.781 60.12 414.528 61.24C414.261 63.16 414.128 64.8667 414.128 66.36C414.128 67.2667 414.634 67.72 415.648 67.72C418.048 67.72 420.608 67.3467 423.328 66.6C426.101 65.8 428.901 64.7867 431.728 63.56C434.554 62.28 437.274 60.9733 439.888 59.64C442.501 58.2533 444.874 56.9467 447.008 55.72C449.194 54.44 450.981 53.4267 452.368 52.68C453.808 51.88 454.741 51.48 455.168 51.48C456.341 51.48 457.194 51.8267 457.728 52.52C458.261 53.2133 458.528 53.96 458.528 54.76C458.528 55.1333 457.808 55.96 456.368 57.24C454.981 58.52 453.061 60.04 450.608 61.8C448.208 63.5067 445.488 65.2933 442.448 67.16C439.461 68.9733 436.341 70.7067 433.088 72.36C429.888 73.96 426.768 75.24 423.728 76.2C420.741 77.2133 418.021 77.72 415.568 77.72ZM415.888 54.12C418.074 52.84 420.234 51.5067 422.368 50.12C424.554 48.68 426.368 47.08 427.808 45.32C429.248 43.5067 429.968 41.4 429.968 39C429.968 38.3067 429.781 37.8533 429.408 37.64C429.034 37.3733 428.501 37.24 427.808 37.24C425.941 37.24 424.234 38.0667 422.688 39.72C421.194 41.3733 419.861 43.5067 418.688 46.12C417.568 48.68 416.634 51.3467 415.888 54.12Z" fill="#3F3F46"/>
</g>
<defs>
<filter id="filter0_d_34_61" x="0.319824" y="0.360107" width="462.208" height="88.8799" filterUnits="userSpaceOnUse" color-interpolation-filters="sRGB">
<feFlood flood-opacity="0" result="BackgroundImageFix"/>
<feColorMatrix in="SourceAlpha" type="matrix" values="0 0 0 0 0 0 0 0 0 0 0 0 0 0 0 0 0 0 127 0" result="hardAlpha"/>
<feOffset dx="4" dy="8"/>
<feComposite in2="hardAlpha" operator="out"/>
<feColorMatrix type="matrix" values="0 0 0 0 0.996078 0 0 0 0 0.8 0 0 0 0 0.419608 0 0 0 1 0"/>
<feBlend mode="normal" in2="BackgroundImageFix" result="effect1_dropShadow_34_61"/>
<feBlend mode="normal" in="SourceGraphic" in2="effect1_dropShadow_34_61" result="shape"/>
</filter>
</defs>
</svg>
