<svg width="542" height="251" viewBox="0 0 542 251" fill="none" xmlns="http://www.w3.org/2000/svg">
<g filter="url(#filter0_d_1_102)">
<path d="M12.72 72.88C10.5333 72.88 8.88 72.5333 7.76 71.84C6.69333 71.2 5.97333 70.4533 5.6 69.6C5.28 68.7467 5.12 68.08 5.12 67.6C5.12 66.0533 5.81333 64.7733 7.2 63.76C8.64 62.6933 10.24 62.16 12 62.16C13.7067 62.16 15.8133 61.92 18.32 61.44C20.88 60.9067 23.5733 60.16 26.4 59.2C29.28 58.24 32.0267 57.04 34.64 55.6C37.3067 54.16 39.6267 52.5067 41.6 50.64C43.5733 48.7733 44.9333 46.72 45.68 44.48C44.5067 44.2667 43.3333 44.1067 42.16 44C40.9867 43.84 39.8133 43.76 38.64 43.76C34.6933 43.76 30.6133 44.1867 26.4 45.04C22.1867 45.8933 18 46.72 13.84 47.52C12.8267 47.7333 11.92 47.5467 11.12 46.96C11.0133 48.08 10.9067 49.12 10.8 50.08C10.7467 50.9867 10.6933 51.9733 10.64 53.04C10.5333 55.6533 10.2933 57.68 9.92 59.12C9.6 60.5067 9.22667 61.4933 8.8 62.08C8.37333 62.6667 7.92 63.0133 7.44 63.12C6.96 63.2267 6.50667 63.28 6.08 63.28C5.92 63.28 5.81333 63.28 5.76 63.28C4.8 63.28 3.89333 63.04 3.04 62.56C2.18667 62.08 1.49333 61.0933 0.960001 59.6C0.426667 58.0533 0.16 55.7333 0.16 52.64C0.16 42.8267 1.22667 34.5067 3.36 27.68C5.54667 20.8 8.66667 15.5733 12.72 12C16.8267 8.37333 21.7333 6.56 27.44 6.56C31.92 6.56 35.4133 7.78666 37.92 10.24C40.4267 12.64 41.68 16.1067 41.68 20.64C41.68 22.9333 41.2267 25.2267 40.32 27.52C39.4133 29.8133 38.1333 32.08 36.48 34.32C37.4933 34.1067 38.48 33.9467 39.44 33.84C40.4 33.68 41.3067 33.6 42.16 33.6C47.1733 33.6 50.88 34.5067 53.28 36.32C55.68 38.08 56.88 40.4533 56.88 43.44C56.88 46.4267 56.0267 49.2267 54.32 51.84C52.6667 54.4533 50.4533 56.8533 47.68 59.04C44.96 61.1733 41.9467 63.12 38.64 64.88C35.3333 66.5867 32.0267 68.0533 28.72 69.28C25.4133 70.4533 22.3467 71.3333 19.52 71.92C16.6933 72.56 14.4267 72.88 12.72 72.88ZM12.08 38.72C12.4 38.56 12.7467 38.4533 13.12 38.4C17.92 37.6 21.6 36.5067 24.16 35.12C26.72 33.7333 28.48 32 29.44 29.92C30.4 27.84 30.88 25.36 30.88 22.48C30.88 21.7333 30.7733 20.9333 30.56 20.08C30.3467 19.2267 29.92 18.5067 29.28 17.92C28.6933 17.28 27.7867 16.96 26.56 16.96C22.5067 16.96 19.3333 18.8 17.04 22.48C14.8 26.1067 13.1467 31.52 12.08 38.72ZM73.9738 73.04C72.2671 73.04 70.7204 72.56 69.3338 71.6C67.9471 70.6933 66.8538 69.4933 66.0538 68C65.2538 66.4533 64.8538 64.8 64.8538 63.04C64.8538 59.7333 65.5738 56.5067 67.0138 53.36C68.5071 50.2133 70.4538 47.2267 72.8537 44.4C75.2538 41.5733 77.8671 38.9867 80.6938 36.64C83.5738 34.24 86.4271 32.1867 89.2538 30.48C92.1338 28.7733 94.7471 27.44 97.0938 26.48C99.4938 25.52 101.36 25.04 102.694 25.04C104.24 25.04 105.494 25.3867 106.454 26.08C107.467 26.72 107.974 27.7333 107.974 29.12C107.974 29.5467 107.867 29.8933 107.654 30.16C108.347 30.32 108.907 30.72 109.334 31.36C109.76 32 109.974 32.96 109.974 34.24C109.974 34.7733 109.84 36.16 109.574 38.4C109.307 40.64 109.014 43.36 108.694 46.56C108.427 49.76 108.294 53.0933 108.294 56.56C108.294 57.0933 108.374 57.5733 108.534 58C108.694 58.3733 109.04 58.56 109.574 58.56C111.707 58.56 113.867 58.1333 116.054 57.28C118.294 56.3733 120.454 55.28 122.534 54C124.667 52.6667 126.587 51.36 128.294 50.08C130.054 48.7467 131.52 47.6533 132.694 46.8C133.92 45.8933 134.72 45.44 135.094 45.44C136.907 45.44 137.814 46.3467 137.814 48.16C137.814 48.64 137.227 49.6533 136.054 51.2C134.934 52.6933 133.387 54.4267 131.414 56.4C129.44 58.32 127.227 60.24 124.774 62.16C122.374 64.0267 119.867 65.5733 117.254 66.8C114.694 68.0267 112.214 68.64 109.814 68.64C106.88 68.64 104.64 67.9467 103.094 66.56C101.6 65.1733 100.534 63.3067 99.8938 60.96C99.3071 58.56 98.9871 55.8667 98.9338 52.88C96.2138 56.7733 93.3871 60.24 90.4538 63.28C87.5738 66.2667 84.7204 68.64 81.8938 70.4C79.0671 72.16 76.4271 73.04 73.9738 73.04ZM102.294 32.96C97.0671 35.4667 92.3738 38.3467 88.2138 41.6C84.0538 44.8 80.7471 48.16 78.2938 51.68C75.8938 55.2 74.6938 58.5867 74.6938 61.84C74.6938 62.7467 75.1204 63.2 75.9738 63.2C76.9871 63.2 78.3204 62.6133 79.9738 61.44C81.6804 60.2667 83.5204 58.72 85.4938 56.8C87.4671 54.8267 89.4404 52.64 91.4138 50.24C93.3871 47.7867 95.2271 45.28 96.9338 42.72C98.6404 40.16 100 37.7067 101.014 35.36C101.387 34.5067 101.814 33.7067 102.294 32.96ZM138.803 74.08C136.51 74.08 134.883 73.76 133.923 73.12C133.016 72.48 132.563 71.5467 132.563 70.32C132.563 69.2533 132.936 68.3467 133.683 67.6C134.43 66.8 136.083 66 138.643 65.2C141.63 64.2933 144.456 63.2533 147.123 62.08C149.843 60.8533 152.056 59.52 153.763 58.08C155.523 56.64 156.403 55.12 156.403 53.52C156.403 52.4533 156.03 51.68 155.283 51.2C154.59 50.72 153.763 50.48 152.803 50.48C152.003 50.48 150.83 50.6133 149.283 50.88C147.79 51.0933 146.136 51.3867 144.323 51.76C142.51 52.08 140.75 52.3733 139.043 52.64C137.39 52.8533 135.976 52.96 134.803 52.96C132.03 52.96 129.976 52.3467 128.643 51.12C127.31 49.84 126.643 48.2133 126.643 46.24C126.643 45.1733 127.203 43.7067 128.323 41.84C129.443 39.9733 130.936 37.92 132.803 35.68C134.67 33.44 136.75 31.2 139.043 28.96C141.336 26.72 143.656 24.6667 146.003 22.8C148.403 20.88 150.67 19.36 152.803 18.24C154.936 17.0667 156.75 16.48 158.243 16.48C159.95 16.48 161.31 17.0133 162.323 18.08C163.39 19.1467 163.923 20.5867 163.923 22.4C163.923 23.2533 163.843 24.1867 163.683 25.2C163.523 26.16 163.123 27.04 162.483 27.84C161.843 28.5867 160.856 29.12 159.523 29.44C158.19 29.76 156.376 29.7067 154.083 29.28C152.27 30.6133 150.376 32.08 148.403 33.68C146.483 35.2267 144.67 36.8533 142.963 38.56C141.256 40.2133 139.843 41.84 138.723 43.44C140.696 42.8 142.936 42.2933 145.443 41.92C147.95 41.4933 150.483 41.28 153.043 41.28C156.136 41.28 158.643 41.84 160.563 42.96C162.536 44.0267 163.976 45.4667 164.883 47.28C165.843 49.0933 166.323 51.0933 166.323 53.28C166.323 55.7333 165.523 58.1867 163.923 60.64C162.323 63.0933 160.19 65.3333 157.523 67.36C154.856 69.3867 151.896 71.0133 148.643 72.24C145.39 73.4667 142.11 74.08 138.803 74.08ZM187.239 72.72C183.933 72.72 181.266 71.5733 179.239 69.28C177.213 66.9333 176.199 63.1733 176.199 58C176.199 54.6933 176.573 51.3867 177.319 48.08C178.119 44.72 179.213 41.5467 180.599 38.56C182.039 35.52 183.693 32.8267 185.559 30.48C187.479 28.1333 189.586 26.2933 191.879 24.96C194.173 23.5733 196.546 22.88 198.999 22.88C203.159 22.88 206.413 24 208.759 26.24C211.106 28.48 212.279 31.3333 212.279 34.8C212.279 37.4667 211.533 39.8933 210.039 42.08C208.599 44.2133 206.626 46.1333 204.119 47.84C201.613 49.5467 198.813 51.0933 195.719 52.48C192.626 53.8667 189.453 55.12 186.199 56.24C185.933 58.16 185.799 59.8667 185.799 61.36C185.799 62.2667 186.306 62.72 187.319 62.72C189.719 62.72 192.279 62.3467 194.999 61.6C197.773 60.8 200.573 59.7867 203.399 58.56C206.226 57.28 208.946 55.9733 211.559 54.64C214.173 53.2533 216.546 51.9467 218.679 50.72C220.866 49.44 222.653 48.4267 224.039 47.68C225.479 46.88 226.413 46.48 226.839 46.48C228.013 46.48 228.866 46.8267 229.399 47.52C229.933 48.2133 230.199 48.96 230.199 49.76C230.199 50.1333 229.479 50.96 228.039 52.24C226.653 53.52 224.733 55.04 222.279 56.8C219.879 58.5067 217.159 60.2933 214.119 62.16C211.133 63.9733 208.013 65.7067 204.759 67.36C201.559 68.96 198.439 70.24 195.399 71.2C192.413 72.2133 189.693 72.72 187.239 72.72ZM187.559 49.12C189.746 47.84 191.906 46.5067 194.039 45.12C196.226 43.68 198.039 42.08 199.479 40.32C200.919 38.5067 201.639 36.4 201.639 34C201.639 33.3067 201.453 32.8533 201.079 32.64C200.706 32.3733 200.173 32.24 199.479 32.24C197.613 32.24 195.906 33.0667 194.359 34.72C192.866 36.3733 191.533 38.5067 190.359 41.12C189.239 43.68 188.306 46.3467 187.559 49.12ZM258.918 27.2C261.851 20.2133 264.438 13.0133 266.678 5.59999C267.104 4.10666 267.718 2.96 268.518 2.16C269.371 1.36 270.544 0.959997 272.038 0.959997C273.264 0.959997 274.198 1.33333 274.838 2.08C275.478 2.77333 275.798 3.73333 275.798 4.96C275.798 5.97333 275.371 7.78666 274.518 10.4C273.664 12.96 272.624 16.2133 271.398 20.16C270.171 24.1067 268.944 28.6667 267.718 33.84C266.491 39.0133 265.451 44.6933 264.598 50.88C263.744 57.0667 263.318 63.68 263.318 70.72C263.318 72.64 262.944 74.2133 262.198 75.44C261.504 76.72 260.278 77.36 258.518 77.36C256.598 77.36 255.184 76.6933 254.278 75.36C253.424 74.0267 252.998 72.32 252.998 70.24C252.998 66.1333 253.131 62.72 253.398 60C253.718 57.2267 254.038 54.8533 254.358 52.88C251.744 57.36 248.971 61.2267 246.038 64.48C243.158 67.68 240.384 70.1333 237.718 71.84C235.051 73.6 232.758 74.48 230.838 74.48C227.691 74.48 225.131 73.6 223.158 71.84C221.184 70.08 220.198 67.4133 220.198 63.84C220.198 61.0667 220.864 58.2133 222.198 55.28C223.531 52.2933 225.291 49.36 227.478 46.48C229.664 43.6 232.064 40.9067 234.678 38.4C237.344 35.84 240.011 33.6 242.678 31.68C245.344 29.7067 247.824 28.16 250.118 27.04C252.411 25.92 254.278 25.36 255.718 25.36C257.318 25.36 258.384 25.9733 258.918 27.2ZM257.078 31.52C256.758 31.7333 256.411 31.9467 256.038 32.16C255.718 32.32 255.398 32.5067 255.078 32.72C253.051 34 250.891 35.5467 248.598 37.36C246.304 39.12 244.038 41.0933 241.798 43.28C239.558 45.4133 237.504 47.6533 235.638 50C233.824 52.2933 232.358 54.5867 231.238 56.88C230.171 59.12 229.638 61.28 229.638 63.36C229.638 63.7333 229.798 64 230.118 64.16C230.438 64.32 230.731 64.4 230.998 64.4C232.864 64.4 234.864 63.5733 236.998 61.92C239.184 60.2667 241.398 57.9733 243.638 55.04C245.931 52.0533 248.198 48.56 250.438 44.56C252.731 40.56 254.944 36.2133 257.078 31.52ZM373.162 74.08C371.082 74.08 369.562 73.52 368.602 72.4C367.642 71.3333 367.162 69.1733 367.162 65.92C367.162 63.1467 367.615 59.5467 368.522 55.12C369.429 50.6933 370.442 45.92 371.562 40.8C365.642 47.4133 358.815 51.6267 351.082 53.44C349.535 56.64 347.722 59.5733 345.642 62.24C343.562 64.9067 341.295 67.0667 338.842 68.72C336.442 70.32 333.935 71.12 331.322 71.12C328.069 71.12 325.269 70.0533 322.922 67.92C320.629 65.7867 319.482 62.5067 319.482 58.08C319.482 55.0933 319.935 52.56 320.842 50.48C321.749 48.3467 322.789 46.7467 323.962 45.68C323.002 43.6533 322.522 41.3333 322.522 38.72C322.522 35.2 323.482 32.08 325.402 29.36C327.322 26.64 329.855 24.5067 333.002 22.96C336.202 21.4133 339.669 20.64 343.402 20.64C345.482 20.64 347.455 21.1733 349.322 22.24C351.242 23.2533 352.789 24.8267 353.962 26.96C355.189 29.04 355.802 31.68 355.802 34.88C355.802 37.5467 355.402 40.48 354.602 43.68C358.389 41.44 362.122 38.3733 365.802 34.48C369.535 30.5867 372.869 26.2133 375.802 21.36C376.709 19.92 377.989 19.2 379.642 19.2C381.029 19.2 382.122 19.6267 382.922 20.48C383.775 21.28 384.202 22.3467 384.202 23.68C384.202 23.9467 384.042 24.8267 383.722 26.32C383.402 27.8133 382.975 29.76 382.442 32.16C381.909 34.5067 381.322 37.0933 380.682 39.92C380.095 42.7467 379.509 45.6267 378.922 48.56C378.335 51.4933 377.802 54.2667 377.322 56.88C378.709 54.3733 380.202 51.7067 381.802 48.88C383.455 46 385.162 43.1733 386.922 40.4C388.682 37.5733 390.415 35.0133 392.122 32.72C393.829 30.4267 395.402 28.6133 396.842 27.28C398.282 25.8933 399.509 25.2 400.522 25.2C402.549 25.2 404.255 25.7867 405.642 26.96C407.029 28.1333 407.722 29.3333 407.722 30.56C407.722 31.7867 407.589 33.68 407.322 36.24C407.055 38.8 406.709 41.68 406.282 44.88C405.909 48.0267 405.509 51.2 405.082 54.4C404.655 57.6 404.309 60.5067 404.042 63.12C403.775 65.68 403.642 67.6 403.642 68.88C403.642 69.9467 403.135 70.96 402.122 71.92C401.109 72.88 399.962 73.36 398.682 73.36C398.575 73.36 398.389 73.36 398.122 73.36C397.482 73.4133 396.895 73.3067 396.362 73.04C395.829 72.8267 395.375 72.0267 395.002 70.64C394.682 69.2533 394.522 66.9067 394.522 63.6C394.522 61.36 394.629 58.9067 394.842 56.24C395.055 53.5733 395.322 50.9067 395.642 48.24C396.015 45.52 396.415 42.9867 396.842 40.64C395.455 42.9333 393.909 45.5467 392.202 48.48C390.549 51.36 388.815 54.32 387.002 57.36C385.189 60.3467 383.402 63.12 381.642 65.68C379.935 68.1867 378.335 70.2133 376.842 71.76C375.402 73.3067 374.175 74.08 373.162 74.08ZM343.082 47.36C343.775 45.28 344.335 43.12 344.762 40.88C345.189 38.5867 345.402 36.3467 345.402 34.16C345.402 33.2533 345.215 32.3733 344.842 31.52C344.469 30.6667 343.829 30.24 342.922 30.24C341.109 30.24 339.322 30.6133 337.562 31.36C335.855 32.1067 334.442 33.1733 333.322 34.56C332.202 35.9467 331.642 37.6 331.642 39.52C331.642 41.2267 332.202 42.6667 333.322 43.84C334.495 45.0133 335.935 45.8933 337.642 46.48C339.402 47.0667 341.135 47.36 342.842 47.36C342.895 47.36 342.975 47.36 343.082 47.36ZM339.802 54.4C337.935 54.3467 336.122 54.1067 334.362 53.68C332.602 53.2 331.002 52.5333 329.562 51.68C329.402 52.5333 329.242 53.36 329.082 54.16C328.922 54.9067 328.842 55.6267 328.842 56.32C328.842 57.4933 329.029 58.56 329.402 59.52C329.829 60.4267 330.682 60.88 331.962 60.88C333.295 60.88 334.629 60.2933 335.962 59.12C337.349 57.9467 338.629 56.3733 339.802 54.4ZM39.76 230C33.36 230 27.28 228.613 21.52 225.84C15.8667 222.96 11.2267 218.907 7.6 213.68C4.08 208.347 2.32 202.107 2.32 194.96C2.32 187.92 3.81333 180.933 6.8 174C9.78667 166.96 13.68 160.187 18.48 153.68C23.3867 147.067 28.6667 140.933 34.32 135.28C40.08 129.627 45.68 124.72 51.12 120.56C56.6667 116.293 61.5733 112.987 65.84 110.64C70.2133 108.187 73.4133 106.96 75.44 106.96C77.5733 106.96 79.76 107.867 82 109.68C84.24 111.493 85.4133 114.107 85.52 117.52C85.52 119.013 85.0933 120.72 84.24 122.64C83.3867 124.56 81.4133 126.48 78.32 128.4C75.6533 130 72.08 132.347 67.6 135.44C63.2267 138.533 58.5867 142.16 53.68 146.32C48.7733 150.48 44.08 155.12 39.6 160.24C35.2267 165.253 31.6533 170.587 28.88 176.24C26.1067 181.893 24.72 187.707 24.72 193.68C24.72 198.587 26.16 202.32 29.04 204.88C31.92 207.333 35.8133 208.56 40.72 208.56C44.1333 208.56 48.1867 207.6 52.88 205.68C57.68 203.76 62.5867 201.307 67.6 198.32C72.6133 195.227 77.2 191.92 81.36 188.4C85.6267 184.88 88.9333 181.52 91.28 178.32C87.2267 179.173 82.7467 180.133 77.84 181.2C73.04 182.16 68.56 183.013 64.4 183.76C60.24 184.4 57.2533 184.72 55.44 184.72C52.24 184.72 49.5733 184.08 47.44 182.8C45.3067 181.52 43.7067 180.027 42.64 178.32C41.5733 176.507 41.04 174.8 41.04 173.2C41.04 171.387 41.7333 169.52 43.12 167.6C44.5067 165.68 46.9067 164.453 50.32 163.92C52.56 163.6 55.6 163.12 59.44 162.48C63.28 161.733 67.28 161.04 71.44 160.4C75.7067 159.653 79.6 159.013 83.12 158.48C86.7467 157.947 89.4667 157.68 91.28 157.68C104.72 157.68 111.44 165.2 111.44 180.24C111.44 183.12 109.947 186.693 106.96 190.96C103.973 195.12 99.92 199.493 94.8 204.08C89.7867 208.56 84.1333 212.773 77.84 216.72C71.5467 220.667 65.0933 223.867 58.48 226.32C51.9733 228.773 45.7333 230 39.76 230ZM218.141 189.36C211.955 189.36 205.875 188.613 199.901 187.12C194.035 185.627 188.488 183.707 183.261 181.36C180.915 190.96 178.888 201.467 177.181 212.88C176.755 216.08 176.115 219.013 175.261 221.68C174.408 224.24 173.075 226.32 171.261 227.92C169.448 229.52 166.781 230.32 163.261 230.32C159.955 230.32 157.768 229.04 156.701 226.48C155.635 223.92 155.101 220.773 155.101 217.04C155.101 215.867 155.528 212.827 156.381 207.92C157.235 203.013 158.301 197.093 159.581 190.16C160.861 183.12 162.195 175.867 163.581 168.4C159.208 164.027 157.021 160.027 157.021 156.4C157.021 154.587 157.555 152.88 158.621 151.28C159.795 149.573 162.035 148.72 165.341 148.72C165.768 148.72 166.355 148.88 167.101 149.2C168.168 143.227 169.075 137.893 169.821 133.2C170.675 128.4 171.155 124.933 171.261 122.8C171.475 118.747 172.115 115.76 173.181 113.84C174.248 111.813 175.581 110.48 177.181 109.84C178.888 109.093 180.595 108.72 182.301 108.72C184.541 108.72 186.248 109.2 187.421 110.16C188.595 111.12 189.181 113.253 189.181 116.56C189.181 119.76 189.128 122.693 189.021 125.36C194.248 116.4 199.688 110.107 205.341 106.48C210.995 102.747 217.181 100.88 223.901 100.88C230.515 100.88 236.275 102.693 241.181 106.32C246.088 109.947 249.875 115.173 252.541 122C255.315 128.72 256.701 136.827 256.701 146.32C256.701 160.827 253.341 171.653 246.621 178.8C240.008 185.84 230.515 189.36 218.141 189.36ZM188.701 162.48C192.648 164.613 196.861 166.48 201.341 168.08C205.821 169.573 210.408 170.32 215.101 170.32C222.675 170.32 228.221 168.347 231.741 164.4C235.368 160.453 237.181 153.947 237.181 144.88C237.181 128.773 232.328 120.72 222.621 120.72C216.435 120.72 210.408 124.187 204.541 131.12C198.781 138.053 193.501 148.507 188.701 162.48ZM303.476 132.56C298.356 132.56 294.57 132.08 292.116 131.12C289.77 130.053 288.223 128.827 287.476 127.44C286.836 125.947 286.516 124.613 286.516 123.44C286.516 121.947 287.37 120.24 289.076 118.32C290.783 116.293 294.09 114.8 298.996 113.84C303.903 112.773 309.716 111.813 316.436 110.96C323.156 110 330.303 109.2 337.876 108.56C345.45 107.813 353.13 107.173 360.916 106.64C368.703 106.107 376.116 105.733 383.156 105.52C390.196 105.2 396.436 105.04 401.876 105.04C407.53 105.04 411.903 105.36 414.996 106C418.09 106.64 420.276 107.44 421.556 108.4C422.943 109.36 423.743 110.373 423.956 111.44C424.276 112.507 424.436 113.52 424.436 114.48C424.436 114.693 424.436 114.853 424.436 114.96C424.436 116.24 424.116 117.627 423.476 119.12C422.943 120.613 421.716 121.893 419.796 122.96C417.876 123.92 414.996 124.4 411.156 124.4C409.77 124.4 406.676 124.613 401.876 125.04C397.076 125.467 391.21 126 384.276 126.64C377.343 127.28 369.983 127.92 362.196 128.56C361.023 133.36 359.69 138.96 358.196 145.36C356.81 151.76 355.37 158.48 353.876 165.52C352.49 172.56 351.156 179.493 349.876 186.32C348.596 193.04 347.53 199.28 346.676 205.04C345.823 210.693 345.236 215.333 344.916 218.96C344.49 223.867 343.05 227.333 340.596 229.36C338.25 231.28 335.903 232.24 333.556 232.24C331.85 232.24 330.143 231.867 328.436 231.12C326.73 230.48 325.343 229.04 324.276 226.8C323.21 224.453 322.676 220.987 322.676 216.4C322.676 211.707 323.103 205.947 323.956 199.12C324.81 192.187 325.93 184.773 327.316 176.88C328.81 168.987 330.463 161.04 332.276 153.04C334.196 145.04 336.17 137.573 338.196 130.64C331.05 131.173 324.436 131.653 318.356 132.08C312.276 132.4 307.316 132.56 303.476 132.56ZM477.561 242.48C473.828 242.48 471.108 241.2 469.401 238.64C467.801 236.187 467.001 232.987 467.001 229.04C467.001 224.773 467.321 220.987 467.961 217.68C468.708 214.373 469.561 211.013 470.521 207.6C465.295 208.027 460.015 208.453 454.681 208.88C449.348 209.2 444.015 209.467 438.681 209.68C436.761 211.173 434.735 212.347 432.601 213.2C430.468 214.053 428.015 214.48 425.241 214.48C421.188 214.48 417.988 213.627 415.641 211.92C413.295 210.213 412.121 207.493 412.121 203.76C412.121 199.493 413.401 196.347 415.961 194.32C418.628 192.187 421.988 190.693 426.041 189.84C431.375 183.333 437.188 176.827 443.481 170.32C449.775 163.813 456.015 157.36 462.201 150.96C468.388 144.56 473.935 138.267 478.841 132.08C483.855 125.787 487.641 119.653 490.201 113.68C491.481 110.693 493.241 108.613 495.481 107.44C497.828 106.16 500.335 105.52 503.001 105.52C506.735 105.52 509.241 106.96 510.521 109.84C511.908 112.72 512.601 116.187 512.601 120.24C512.601 121.2 512.228 123.653 511.481 127.6C510.735 131.44 509.668 136.4 508.281 142.48C507.001 148.453 505.508 155.12 503.801 162.48C502.201 169.733 500.548 177.253 498.841 185.04C505.881 184.293 511.961 183.707 517.081 183.28C522.201 182.747 525.455 182.48 526.841 182.48C529.935 182.48 532.441 182.8 534.361 183.44C536.281 184.08 537.241 185.68 537.241 188.24C537.241 190.587 535.748 192.56 532.761 194.16C529.881 195.653 526.735 196.987 523.321 198.16C519.908 199.333 515.801 200.507 511.001 201.68C506.201 202.853 500.601 203.92 494.201 204.88C493.135 209.253 492.068 213.413 491.001 217.36C489.935 221.307 488.921 225.84 487.961 230.96C487.215 234.373 486.095 237.147 484.601 239.28C483.215 241.413 480.868 242.48 477.561 242.48ZM483.321 154.32C478.095 160.72 472.655 167.12 467.001 173.52C461.455 179.813 456.121 185.52 451.001 190.64C454.948 190.107 458.948 189.627 463.001 189.2C467.161 188.773 471.321 188.347 475.481 187.92L483.321 154.32Z" fill="#FFA700"/>
</g>
<defs>
<filter id="filter0_d_1_102" x="0.160156" y="0.959961" width="541.081" height="249.52" filterUnits="userSpaceOnUse" color-interpolation-filters="sRGB">
<feFlood flood-opacity="0" result="BackgroundImageFix"/>
<feColorMatrix in="SourceAlpha" type="matrix" values="0 0 0 0 0 0 0 0 0 0 0 0 0 0 0 0 0 0 127 0" result="hardAlpha"/>
<feOffset dx="4" dy="8"/>
<feComposite in2="hardAlpha" operator="out"/>
<feColorMatrix type="matrix" values="0 0 0 0 0 0 0 0 0 0 0 0 0 0 0 0 0 0 1 0"/>
<feBlend mode="normal" in2="BackgroundImageFix" result="effect1_dropShadow_1_102"/>
<feBlend mode="normal" in="SourceGraphic" in2="effect1_dropShadow_1_102" result="shape"/>
</filter>
</defs>
</svg>
