<svg width="167" height="32" viewBox="0 0 167 32" fill="none" xmlns="http://www.w3.org/2000/svg">
<path d="M1.85 24.15C1.67 24.15 1.45 24.05 1.19 23.85C0.95 23.63 0.74 23.37 0.56 23.07C0.38 22.75 0.29 22.43 0.29 22.11C0.29 21.73 0.41 21.1 0.65 20.22C0.89 19.32 1.19 18.27 1.55 17.07C1.91 15.87 2.27 14.61 2.63 13.29C3.01 11.97 3.32 10.68 3.56 9.42C3.82 8.16 3.96 7.03 3.98 6.03C3.5 5.59 3.26 5.19 3.26 4.83C3.26 4.59 3.45 4.35 3.83 4.11C4.21 3.85 4.7 3.62 5.3 3.42C5.9 3.2 6.54 3.03 7.22 2.91C7.92 2.77 8.58 2.7 9.2 2.7C10.48 2.7 11.61 2.93 12.59 3.39C13.59 3.83 14.37 4.45 14.93 5.25C15.49 6.03 15.77 6.95 15.77 8.01C15.77 9.45 15.3 10.75 14.36 11.91C13.42 13.05 12.1 14.03 10.4 14.85C8.7 15.67 6.72 16.3 4.46 16.74C3 21.68 2.13 24.15 1.85 24.15ZM5.12 14.4C6.72 13.98 8.12 13.44 9.32 12.78C10.52 12.12 11.45 11.4 12.11 10.62C12.79 9.82 13.13 9.01 13.13 8.19C13.13 7.31 12.8 6.59 12.14 6.03C11.48 5.45 10.72 5.16 9.86 5.16C9.2 5.16 8.61 5.23 8.09 5.37C7.59 5.51 6.99 5.74 6.29 6.06C6.49 6.5 6.59 6.91 6.59 7.29C6.59 8.41 6.1 10.78 5.12 14.4ZM21.152 24.15C20.472 24.15 19.862 23.94 19.322 23.52C18.782 23.08 18.352 22.49 18.032 21.75C17.732 20.99 17.582 20.12 17.582 19.14C17.582 18.36 17.702 17.53 17.942 16.65C18.182 15.75 18.522 14.87 18.962 14.01C19.402 13.13 19.922 12.34 20.522 11.64C21.122 10.92 21.782 10.35 22.502 9.93C23.242 9.49 24.022 9.27 24.842 9.27C25.622 9.27 26.322 9.5 26.942 9.96C27.582 10.42 28.082 11.05 28.442 11.85C28.822 12.63 29.012 13.5 29.012 14.46C29.012 15.74 28.792 16.96 28.352 18.12C27.912 19.28 27.312 20.32 26.552 21.24C25.812 22.14 24.972 22.85 24.032 23.37C23.112 23.89 22.152 24.15 21.152 24.15ZM21.302 22.11C21.922 22.11 22.532 21.86 23.132 21.36C23.752 20.84 24.312 20.18 24.812 19.38C25.332 18.56 25.742 17.71 26.042 16.83C26.342 15.93 26.492 15.11 26.492 14.37C26.492 13.91 26.422 13.44 26.282 12.96C26.162 12.46 26.002 12.04 25.802 11.7C25.602 11.34 25.402 11.16 25.202 11.16C24.722 11.16 24.242 11.35 23.762 11.73C23.282 12.11 22.822 12.61 22.382 13.23C21.942 13.85 21.552 14.53 21.212 15.27C20.872 15.99 20.602 16.71 20.402 17.43C20.222 18.15 20.132 18.8 20.132 19.38C20.132 20.02 20.242 20.64 20.462 21.24C20.682 21.82 20.962 22.11 21.302 22.11ZM37.7157 24.21C37.4357 24.21 37.1357 24.08 36.8157 23.82C36.5157 23.56 36.2757 23.22 36.0957 22.8C35.9157 22.38 35.7457 21.77 35.5857 20.97C35.4257 20.15 35.2757 19.24 35.1357 18.24C35.0157 17.22 34.9057 16.21 34.8057 15.21C34.7057 14.19 34.6257 13.25 34.5657 12.39C34.5257 11.51 34.5057 10.82 34.5057 10.32C34.5057 9.5 34.7557 9.09 35.2557 9.09C35.5557 9.09 35.8357 9.21 36.0957 9.45C36.3557 9.69 36.5757 9.98 36.7557 10.32C36.9557 10.66 37.0757 10.99 37.1157 11.31C37.2157 12.07 37.2657 12.97 37.2657 14.01C37.2657 15.05 37.2957 16.19 37.3557 17.43C37.4357 18.67 37.5957 19.98 37.8357 21.36C38.6557 19.94 39.4857 18.16 40.3257 16.02C40.8057 14.8 41.2357 13.67 41.6157 12.63C42.0157 11.59 42.3957 10.75 42.7557 10.11C43.1157 9.47 43.4657 9.15 43.8057 9.15C44.4657 9.15 45.0057 9.46 45.4257 10.08C45.8657 10.68 46.0857 11.47 46.0857 12.45C46.0857 13.39 46.0457 14.33 45.9657 15.27C45.9057 16.21 45.8757 17.15 45.8757 18.09C45.8757 18.87 45.8857 19.55 45.9057 20.13C45.9257 20.69 45.9857 21.14 46.0857 21.48C46.9457 20.58 47.6857 19.53 48.3057 18.33C48.9457 17.11 49.4257 15.98 49.7457 14.94C50.0257 14.02 50.2657 13.11 50.4657 12.21C50.6657 11.29 50.8757 10.53 51.0957 9.93C51.3157 9.33 51.5757 9.03 51.8757 9.03C52.2557 9.03 52.5957 9.19 52.8957 9.51C53.1957 9.81 53.3457 10.16 53.3457 10.56C53.3457 11.6 52.8857 13.28 51.9657 15.6C51.5857 16.68 51.1257 17.73 50.5857 18.75C50.0457 19.77 49.4857 20.7 48.9057 21.54C48.3257 22.36 47.7757 23.01 47.2557 23.49C46.7557 23.97 46.3257 24.21 45.9657 24.21C45.2657 24.21 44.7457 23.82 44.4057 23.04C44.2257 22.64 44.0857 22.04 43.9857 21.24C43.8857 20.44 43.8157 19.55 43.7757 18.57C43.7557 17.57 43.7557 16.56 43.7757 15.54C43.7957 14.52 43.8357 13.61 43.8957 12.81C42.5157 16.53 41.2957 19.37 40.2357 21.33C39.1957 23.25 38.3557 24.21 37.7157 24.21ZM62.1313 24.15C61.0913 24.15 60.1713 23.94 59.3713 23.52C58.5913 23.08 57.9713 22.49 57.5113 21.75C57.0713 21.01 56.8513 20.17 56.8513 19.23C56.8513 18.43 56.9813 17.58 57.2413 16.68C57.5213 15.78 57.9013 14.9 58.3813 14.04C58.8813 13.16 59.4513 12.36 60.0913 11.64C60.7513 10.92 61.4513 10.35 62.1913 9.93C62.9313 9.49 63.7013 9.27 64.5013 9.27C65.1013 9.27 65.6713 9.43 66.2113 9.75C66.7713 10.05 67.2713 10.45 67.7113 10.95C68.1713 11.45 68.5313 11.99 68.7913 12.57C69.0513 13.15 69.1813 13.7 69.1813 14.22C69.1813 14.88 68.9913 15.44 68.6113 15.9C68.2313 16.36 67.7413 16.74 67.1413 17.04C66.5413 17.32 65.8913 17.53 65.1913 17.67C64.5113 17.79 63.8713 17.85 63.2713 17.85C61.9713 17.85 60.7513 17.69 59.6113 17.37C59.3313 18.25 59.1913 19.03 59.1913 19.71C59.1913 20.41 59.4013 20.95 59.8213 21.33C60.2613 21.71 60.9813 21.9 61.9813 21.9C62.7013 21.9 63.4013 21.81 64.0813 21.63C64.7613 21.45 65.3413 21.28 65.8213 21.12C66.3213 20.94 66.6313 20.85 66.7513 20.85C67.2713 20.85 67.5313 21.05 67.5313 21.45C67.5313 21.71 67.3613 22 67.0213 22.32C66.6813 22.64 66.2413 22.94 65.7013 23.22C65.1613 23.48 64.5713 23.7 63.9313 23.88C63.3113 24.06 62.7113 24.15 62.1313 24.15ZM63.0313 15.93C64.0513 15.93 64.9413 15.77 65.7013 15.45C66.4613 15.11 66.8413 14.67 66.8413 14.13C66.8413 13.77 66.7213 13.4 66.4813 13.02C66.2613 12.62 65.9813 12.29 65.6413 12.03C65.3013 11.77 64.9713 11.64 64.6513 11.64C63.9113 11.64 63.1413 12.03 62.3413 12.81C61.5413 13.57 60.8613 14.52 60.3013 15.66C61.1013 15.84 62.0113 15.93 63.0313 15.93ZM74.9171 24.21C74.5571 24.21 74.2771 24.01 74.0771 23.61C73.8771 23.21 73.7771 22.86 73.7771 22.56C73.7771 22.1 73.8671 21.59 74.0471 21.03C74.2271 20.45 74.4271 19.79 74.6471 19.05C74.8671 18.29 75.0671 17.41 75.2471 16.41C75.4271 15.41 75.5171 14.25 75.5171 12.93C75.5171 12.55 75.4971 12.13 75.4571 11.67C75.4371 11.19 75.4271 10.76 75.4271 10.38C75.4271 10.08 75.4771 9.82 75.5771 9.6C75.6971 9.38 75.8671 9.27 76.0871 9.27C76.5671 9.27 76.9571 9.55 77.2571 10.11C77.5771 10.67 77.7371 11.27 77.7371 11.91C77.7371 12.41 77.7071 12.86 77.6471 13.26C79.3871 10.62 81.0371 9.3 82.5971 9.3C83.5771 9.3 84.0671 9.54 84.0671 10.02C84.0671 10.26 83.9571 10.49 83.7371 10.71C83.5371 10.93 83.1871 11.15 82.6871 11.37C82.0071 11.69 81.3871 12.1 80.8271 12.6C80.2671 13.1 79.7271 13.78 79.2071 14.64C78.7071 15.48 78.1971 16.58 77.6771 17.94C77.1771 19.3 76.6271 20.99 76.0271 23.01C75.9071 23.41 75.7471 23.71 75.5471 23.91C75.3471 24.11 75.1371 24.21 74.9171 24.21ZM92.1547 24.15C91.1147 24.15 90.1947 23.94 89.3947 23.52C88.6147 23.08 87.9947 22.49 87.5347 21.75C87.0947 21.01 86.8747 20.17 86.8747 19.23C86.8747 18.43 87.0047 17.58 87.2647 16.68C87.5447 15.78 87.9247 14.9 88.4047 14.04C88.9047 13.16 89.4747 12.36 90.1147 11.64C90.7747 10.92 91.4747 10.35 92.2147 9.93C92.9547 9.49 93.7247 9.27 94.5247 9.27C95.1247 9.27 95.6947 9.43 96.2347 9.75C96.7947 10.05 97.2947 10.45 97.7347 10.95C98.1947 11.45 98.5547 11.99 98.8147 12.57C99.0747 13.15 99.2047 13.7 99.2047 14.22C99.2047 14.88 99.0147 15.44 98.6347 15.9C98.2547 16.36 97.7647 16.74 97.1647 17.04C96.5647 17.32 95.9147 17.53 95.2147 17.67C94.5347 17.79 93.8947 17.85 93.2947 17.85C91.9947 17.85 90.7747 17.69 89.6347 17.37C89.3547 18.25 89.2147 19.03 89.2147 19.71C89.2147 20.41 89.4247 20.95 89.8447 21.33C90.2847 21.71 91.0047 21.9 92.0047 21.9C92.7247 21.9 93.4247 21.81 94.1047 21.63C94.7847 21.45 95.3647 21.28 95.8447 21.12C96.3447 20.94 96.6547 20.85 96.7747 20.85C97.2947 20.85 97.5547 21.05 97.5547 21.45C97.5547 21.71 97.3847 22 97.0447 22.32C96.7047 22.64 96.2647 22.94 95.7247 23.22C95.1847 23.48 94.5947 23.7 93.9547 23.88C93.3347 24.06 92.7347 24.15 92.1547 24.15ZM93.0547 15.93C94.0747 15.93 94.9647 15.77 95.7247 15.45C96.4847 15.11 96.8647 14.67 96.8647 14.13C96.8647 13.77 96.7447 13.4 96.5047 13.02C96.2847 12.62 96.0047 12.29 95.6647 12.03C95.3247 11.77 94.9947 11.64 94.6747 11.64C93.9347 11.64 93.1647 12.03 92.3647 12.81C91.5647 13.57 90.8847 14.52 90.3247 15.66C91.1247 15.84 92.0347 15.93 93.0547 15.93ZM106.801 24.15C106.221 24.15 105.661 23.96 105.121 23.58C104.601 23.2 104.171 22.73 103.831 22.17C103.511 21.61 103.351 21.04 103.351 20.46C103.351 19.64 103.491 18.73 103.771 17.73C104.051 16.73 104.431 15.74 104.911 14.76C105.411 13.76 105.991 12.85 106.651 12.03C107.331 11.19 108.061 10.52 108.841 10.02C109.621 9.52 110.431 9.27 111.271 9.27C112.691 9.27 113.681 10.12 114.241 11.82C114.761 9.7 115.161 7.8 115.441 6.12C115.721 4.44 115.881 2.99 115.921 1.77C115.961 1.17 116.181 0.869999 116.581 0.869999C116.801 0.869999 117.051 1.01 117.331 1.29C117.631 1.57 117.891 1.91 118.111 2.31C118.351 2.71 118.471 3.08 118.471 3.42C118.471 3.66 118.391 4.22 118.231 5.1C118.091 5.96 117.881 7.02 117.601 8.28C117.341 9.52 117.051 10.86 116.731 12.3C116.411 13.72 116.071 15.13 115.711 16.53C115.351 17.93 115.001 19.21 114.661 20.37C114.341 21.51 114.041 22.43 113.761 23.13C113.501 23.81 113.291 24.15 113.131 24.15C112.871 24.15 112.571 23.97 112.231 23.61C112.091 23.47 111.971 23.31 111.871 23.13C111.771 22.95 111.721 22.72 111.721 22.44C111.721 22.3 111.741 22.12 111.781 21.9C111.841 21.66 111.891 21.41 111.931 21.15C109.971 23.15 108.261 24.15 106.801 24.15ZM107.131 21.75C107.531 21.75 108.021 21.59 108.601 21.27C109.181 20.95 109.781 20.52 110.401 19.98C111.021 19.42 111.591 18.78 112.111 18.06C112.631 17.34 113.021 16.59 113.281 15.81C113.281 14.57 113.091 13.59 112.711 12.87C112.351 12.13 111.911 11.76 111.391 11.76C110.771 11.76 110.131 12.03 109.471 12.57C108.811 13.11 108.201 13.82 107.641 14.7C107.101 15.58 106.661 16.54 106.321 17.58C105.981 18.6 105.811 19.59 105.811 20.55C105.811 20.91 105.941 21.2 106.201 21.42C106.461 21.64 106.771 21.75 107.131 21.75ZM135.523 24.15C135.343 24.15 135.123 24.05 134.863 23.85C134.623 23.63 134.413 23.38 134.233 23.1C134.053 22.8 133.963 22.53 133.963 22.29C133.963 22.13 134.053 21.7 134.233 21C134.413 20.28 134.643 19.38 134.923 18.3C135.223 17.2 135.533 15.98 135.853 14.64C136.173 13.28 136.473 11.86 136.753 10.38C137.053 8.9 137.293 7.43 137.473 5.97C137.653 4.49 137.743 3.09 137.743 1.77C137.743 1.17 137.963 0.869999 138.403 0.869999C138.623 0.869999 138.873 1.01 139.153 1.29C139.453 1.57 139.713 1.91 139.933 2.31C140.153 2.71 140.263 3.1 140.263 3.48C140.263 5.94 139.723 9.45 138.643 14.01C141.023 10.79 143.183 9.18 145.123 9.18C145.843 9.18 146.453 9.42 146.953 9.9C147.453 10.38 147.833 10.98 148.093 11.7C148.373 12.42 148.503 13.15 148.483 13.89C148.483 14.65 148.353 15.49 148.093 16.41C147.833 17.31 147.463 18.22 146.983 19.14C146.503 20.06 145.933 20.9 145.273 21.66C144.633 22.4 143.923 23 143.143 23.46C142.363 23.92 141.533 24.15 140.653 24.15C139.193 24.15 137.813 23.47 136.513 22.11C136.033 23.47 135.703 24.15 135.523 24.15ZM140.293 21.84C140.953 21.84 141.613 21.6 142.273 21.12C142.953 20.64 143.573 20 144.133 19.2C144.693 18.4 145.143 17.51 145.483 16.53C145.823 15.55 145.993 14.57 145.993 13.59C145.993 12.41 145.633 11.82 144.913 11.82C144.153 11.82 143.313 12.2 142.393 12.96C141.473 13.7 140.573 14.69 139.693 15.93C138.813 17.17 138.023 18.54 137.323 20.04C138.263 21.24 139.253 21.84 140.293 21.84ZM156.324 31.95C155.564 31.95 154.814 31.78 154.074 31.44C153.334 31.12 152.714 30.71 152.214 30.21C151.734 29.73 151.494 29.25 151.494 28.77C151.494 28.51 151.614 28.2 151.854 27.84C152.094 27.5 152.314 27.33 152.514 27.33C152.634 27.33 152.754 27.38 152.874 27.48C153.014 27.6 153.184 27.77 153.384 27.99C154.564 29.31 155.554 29.97 156.354 29.97C156.774 29.97 157.164 29.71 157.524 29.19C157.904 28.67 158.324 27.77 158.784 26.49C159.264 25.23 159.864 23.48 160.584 21.24C159.184 23.18 157.784 24.15 156.384 24.15C155.824 24.15 155.284 23.97 154.764 23.61C154.244 23.25 153.814 22.77 153.474 22.17C153.154 21.57 152.994 20.92 152.994 20.22C152.994 19.64 153.084 18.9 153.264 18C153.464 17.08 153.724 16.12 154.044 15.12C154.364 14.1 154.714 13.15 155.094 12.27C155.474 11.39 155.854 10.67 156.234 10.11C156.634 9.55 156.994 9.27 157.314 9.27C157.714 9.27 158.054 9.43 158.334 9.75C158.634 10.07 158.784 10.41 158.784 10.77C158.784 10.97 158.674 11.32 158.454 11.82C158.234 12.32 157.964 12.92 157.644 13.62C157.324 14.32 157.004 15.08 156.684 15.9C156.384 16.7 156.124 17.51 155.904 18.33C155.684 19.13 155.574 19.9 155.574 20.64C155.574 20.96 155.674 21.23 155.874 21.45C156.074 21.65 156.314 21.75 156.594 21.75C157.074 21.75 157.624 21.46 158.244 20.88C158.864 20.28 159.494 19.49 160.134 18.51C160.774 17.51 161.374 16.43 161.934 15.27C162.274 14.53 162.624 13.69 162.984 12.75C163.364 11.81 163.744 10.76 164.124 9.6C164.224 9.38 164.424 9.27 164.724 9.27C164.944 9.27 165.174 9.38 165.414 9.6C165.654 9.82 165.864 10.1 166.044 10.44C166.224 10.78 166.314 11.15 166.314 11.55C166.314 11.81 166.184 12.37 165.924 13.23C165.664 14.09 165.314 15.14 164.874 16.38C164.454 17.6 163.994 18.9 163.494 20.28C163.014 21.64 162.534 22.97 162.054 24.27C161.574 25.57 161.164 26.7 160.824 27.66C159.804 30.52 158.304 31.95 156.324 31.95Z" fill="#FFA700"/>
</svg>
