<svg width="147" height="24" viewBox="0 0 147 24" fill="none" xmlns="http://www.w3.org/2000/svg">
<path d="M7.92 12.92C7.14667 12.92 6.38667 12.8267 5.64 12.64C4.90667 12.4533 4.21333 12.2133 3.56 11.92C3.26667 13.12 3.01333 14.4333 2.8 15.86C2.74667 16.26 2.66667 16.6267 2.56 16.96C2.45333 17.28 2.28667 17.54 2.06 17.74C1.83333 17.94 1.5 18.04 1.06 18.04C0.646667 18.04 0.373333 17.88 0.24 17.56C0.106667 17.24 0.0400002 16.8467 0.0400002 16.38C0.0400002 16.2333 0.0933335 15.8533 0.2 15.24C0.306667 14.6267 0.44 13.8867 0.6 13.02C0.76 12.14 0.926667 11.2333 1.1 10.3C0.553333 9.75333 0.28 9.25333 0.28 8.8C0.28 8.57333 0.346667 8.36 0.48 8.16C0.626667 7.94667 0.906667 7.84 1.32 7.84C1.37333 7.84 1.44667 7.86 1.54 7.9C1.67333 7.15333 1.78667 6.48667 1.88 5.9C1.98667 5.3 2.04667 4.86667 2.06 4.6C2.08667 4.09333 2.16667 3.72 2.3 3.48C2.43333 3.22667 2.6 3.06 2.8 2.98C3.01333 2.88667 3.22667 2.84 3.44 2.84C3.72 2.84 3.93333 2.9 4.08 3.02C4.22667 3.14 4.3 3.40667 4.3 3.82C4.3 4.22 4.29333 4.58667 4.28 4.92C4.93333 3.8 5.61333 3.01333 6.32 2.56C7.02667 2.09333 7.8 1.86 8.64 1.86C9.46667 1.86 10.1867 2.08667 10.8 2.54C11.4133 2.99333 11.8867 3.64667 12.22 4.5C12.5667 5.34 12.74 6.35333 12.74 7.54C12.74 9.35333 12.32 10.7067 11.48 11.6C10.6533 12.48 9.46667 12.92 7.92 12.92ZM4.24 9.56C4.73333 9.82667 5.26 10.06 5.82 10.26C6.38 10.4467 6.95333 10.54 7.54 10.54C8.48667 10.54 9.18 10.2933 9.62 9.8C10.0733 9.30667 10.3 8.49333 10.3 7.36C10.3 5.34667 9.69333 4.34 8.48 4.34C7.70667 4.34 6.95333 4.77333 6.22 5.64C5.5 6.50667 4.84 7.81333 4.24 9.56ZM20.3531 18.66C19.4065 18.66 18.6465 18.3267 18.0731 17.66C17.4998 16.98 17.2131 16.0733 17.2131 14.94C17.2131 14.58 17.2598 14.2133 17.3531 13.84C17.4598 13.4667 17.5865 13.12 17.7331 12.8C17.6531 12.68 17.5865 12.5267 17.5331 12.34C17.4931 12.14 17.4731 11.9067 17.4731 11.64C17.4731 10.7733 17.6265 9.98 17.9331 9.26C18.2398 8.52667 18.6531 7.89333 19.1731 7.36C19.6931 6.82667 20.2665 6.41333 20.8931 6.12C21.5198 5.82667 22.1531 5.68 22.7931 5.68C23.8865 5.68 24.7798 6.04667 25.4731 6.78C26.1798 7.51333 26.5331 8.65333 26.5331 10.2C26.5331 10.9733 26.4131 11.76 26.1731 12.56C25.9331 13.36 25.6065 14.1267 25.1931 14.86C24.7931 15.58 24.3265 16.2267 23.7931 16.8C23.2731 17.3733 22.7131 17.8267 22.1131 18.16C21.5265 18.4933 20.9398 18.66 20.3531 18.66ZM20.0331 11.9C20.0998 12.0467 20.1331 12.22 20.1331 12.42C20.1331 12.62 20.0931 12.8267 20.0131 13.04C19.9331 13.2533 19.8531 13.54 19.7731 13.9C19.6931 14.2467 19.6531 14.7467 19.6531 15.4C19.6531 15.5733 19.6731 15.72 19.7131 15.84C19.7665 15.9467 19.8798 16 20.0531 16C20.5065 16 20.9331 15.8533 21.3331 15.56C21.7465 15.2667 22.1131 14.88 22.4331 14.4C22.7665 13.92 23.0465 13.3867 23.2731 12.8C23.5131 12.2 23.6931 11.5933 23.8131 10.98C23.9465 10.3533 24.0131 9.77333 24.0131 9.24C24.0131 8.89333 23.9465 8.65333 23.8131 8.52C23.6798 8.38667 23.4465 8.32 23.1131 8.32C22.6598 8.32 22.1931 8.46667 21.7131 8.76C21.2465 9.04 20.8531 9.42667 20.5331 9.92C20.2131 10.4 20.0531 10.9467 20.0531 11.56C20.0531 11.68 20.0465 11.7933 20.0331 11.9ZM33.4789 18.88C33.1989 18.88 32.9322 18.82 32.6789 18.7C32.4256 18.58 32.1989 18.3467 31.9989 18C31.7989 17.6667 31.6389 17.1733 31.5189 16.52C31.3989 15.8533 31.3389 14.9733 31.3389 13.88C31.3389 12.8533 31.3922 11.8733 31.4989 10.94C31.6056 9.99333 31.7589 9.15333 31.9589 8.42C32.1589 7.67333 32.3989 7.08667 32.6789 6.66C32.9589 6.22 33.2722 6 33.6189 6C33.9256 6 34.1789 6.14667 34.3789 6.44C34.5789 6.73333 34.6789 7.15333 34.6789 7.7C34.6789 8.12667 34.6256 8.68667 34.5189 9.38C34.4256 10.0733 34.3122 10.82 34.1789 11.62C34.0456 12.4067 33.9256 13.1733 33.8189 13.92C33.7256 14.6533 33.6789 15.28 33.6789 15.8C33.6789 15.8933 33.6922 15.9867 33.7189 16.08C33.7456 16.16 33.7856 16.2 33.8389 16.2C33.9189 16.2 34.0522 16.0067 34.2389 15.62C34.4256 15.2333 34.6522 14.7267 34.9189 14.1C35.1989 13.46 35.4989 12.7667 35.8189 12.02C36.1522 11.2733 36.4989 10.54 36.8589 9.82C37.2322 9.08667 37.6056 8.43333 37.9789 7.86C38.2989 7.36667 38.6789 6.98667 39.1189 6.72C39.5589 6.45333 39.9656 6.32 40.3389 6.32C40.6722 6.32 40.9989 6.40667 41.3189 6.58C41.6522 6.75333 41.9256 7.01333 42.1389 7.36C42.3522 7.70667 42.4589 8.14 42.4589 8.66C42.4589 8.86 42.4322 9.19333 42.3789 9.66C42.3389 10.1133 42.2856 10.6333 42.2189 11.22C42.1522 11.7933 42.0856 12.3733 42.0189 12.96C41.9522 13.5333 41.8922 14.0467 41.8389 14.5C41.7989 14.9533 41.7789 15.2733 41.7789 15.46C41.7789 15.4867 41.7789 15.52 41.7789 15.56C41.7789 15.7067 41.7856 15.8533 41.7989 16C41.8122 16.1333 41.8522 16.2 41.9189 16.2C42.0656 16.2 42.2522 16.0333 42.4789 15.7C42.7189 15.3533 42.9856 14.8933 43.2789 14.32C43.5856 13.7467 43.9056 13.1067 44.2389 12.4C44.5722 11.6933 44.9122 10.9667 45.2589 10.22C45.6189 9.46 45.9722 8.74 46.3189 8.06C46.5856 7.48667 46.8122 7.12667 46.9989 6.98C47.1856 6.82 47.3656 6.74 47.5389 6.74C47.7789 6.74 48.0322 6.86 48.2989 7.1C48.5656 7.34 48.6989 7.71333 48.6989 8.22C48.6989 8.39333 48.6922 8.56667 48.6789 8.74C48.6656 8.91333 48.6189 9.09333 48.5389 9.28C48.0056 10.6267 47.4522 11.8733 46.8789 13.02C46.3189 14.1533 45.7589 15.14 45.1989 15.98C44.6389 16.82 44.0989 17.4733 43.5789 17.94C43.0589 18.4067 42.5722 18.64 42.1189 18.64C41.1856 18.64 40.4656 18.3933 39.9589 17.9C39.4656 17.3933 39.2189 16.7133 39.2189 15.86C39.2189 15.54 39.2389 15.1333 39.2789 14.64C39.3189 14.1333 39.3656 13.5867 39.4189 13C39.4856 12.4 39.5522 11.8067 39.6189 11.22C39.6856 10.6333 39.7522 10.0933 39.8189 9.6C39.8456 9.41333 39.8122 9.29333 39.7189 9.24C39.6389 9.18667 39.5656 9.24667 39.4989 9.42C39.3256 9.87333 39.1389 10.3667 38.9389 10.9C38.7389 11.4333 38.5522 11.9 38.3789 12.3C38.0989 12.9667 37.7722 13.68 37.3989 14.44C37.0389 15.2 36.6456 15.92 36.2189 16.6C35.7922 17.2667 35.3456 17.8133 34.8789 18.24C34.4122 18.6667 33.9456 18.88 33.4789 18.88ZM62.0584 9.34C62.0584 10.2067 61.5651 11.0667 60.5784 11.92C59.6051 12.76 58.0918 13.5067 56.0384 14.16C56.0384 14.1733 56.0384 14.1933 56.0384 14.22C56.0384 14.66 56.0918 15.0133 56.1984 15.28C56.3051 15.5333 56.5384 15.66 56.8984 15.66C57.4318 15.66 58.0251 15.5 58.6784 15.18C59.3451 14.8467 60.0318 14.4267 60.7384 13.92C61.4584 13.4 62.1584 12.8533 62.8384 12.28C63.5184 11.7067 64.1451 11.1667 64.7184 10.66C65.3051 10.14 65.7984 9.72 66.1984 9.4C66.6118 9.06667 66.8851 8.9 67.0184 8.9C67.2984 8.9 67.5318 9.00667 67.7184 9.22C67.9184 9.43333 68.0184 9.75333 68.0184 10.18C68.0184 10.42 68.0051 10.7067 67.9784 11.04C68.5651 10.0267 69.2451 9.19333 70.0184 8.54C70.7918 7.87333 71.5518 7.38 72.2984 7.06C73.0584 6.72667 73.7051 6.56 74.2384 6.56C74.8384 6.56 75.2451 6.68 75.4584 6.92C75.6718 7.14667 75.7784 7.38667 75.7784 7.64C75.7784 7.78667 75.7451 7.93333 75.6784 8.08C75.6251 8.21333 75.4784 8.36 75.2384 8.52C75.0118 8.68 74.6318 8.86667 74.0984 9.08C73.3918 9.34667 72.7184 9.66 72.0784 10.02C71.4518 10.38 70.8718 10.8733 70.3384 11.5C69.8184 12.1133 69.3451 12.94 68.9184 13.98C68.5051 15.0067 68.1584 16.3267 67.8784 17.94C67.7851 18.3933 67.6384 18.7 67.4384 18.86C67.2384 19.0333 67.0051 19.12 66.7384 19.12C66.7118 19.12 66.6651 19.12 66.5984 19.12C66.4784 19.1333 66.3518 19.12 66.2184 19.08C66.0984 19.0533 65.9784 18.94 65.8584 18.74C65.7518 18.5533 65.6651 18.2267 65.5984 17.76C65.5318 17.2933 65.4984 16.6267 65.4984 15.76C65.4984 15.24 65.5184 14.6933 65.5584 14.12C65.6118 13.5333 65.6784 12.9267 65.7584 12.3C65.0784 12.9667 64.3518 13.64 63.5784 14.32C62.8051 15 62.0051 15.6267 61.1784 16.2C60.3651 16.76 59.5651 17.2133 58.7784 17.56C58.0051 17.9067 57.2851 18.08 56.6184 18.08C55.7251 18.08 54.9918 17.7933 54.4184 17.22C53.8584 16.6333 53.5784 15.7333 53.5784 14.52C53.5784 13.32 53.7384 12.2333 54.0584 11.26C54.3918 10.2733 54.8184 9.42667 55.3384 8.72C55.8584 8.01333 56.4118 7.47333 56.9984 7.1C57.5984 6.71333 58.1584 6.52 58.6784 6.52C59.7851 6.52 60.6251 6.78667 61.1984 7.32C61.7718 7.84 62.0584 8.51333 62.0584 9.34ZM56.2984 12.38C56.6451 12.2067 57.0118 12.0067 57.3984 11.78C57.7984 11.54 58.1718 11.2933 58.5184 11.04C58.8651 10.7733 59.1451 10.5133 59.3584 10.26C59.5851 10.0067 59.6984 9.76667 59.6984 9.54C59.6984 9.16667 59.5918 8.94 59.3784 8.86C59.1784 8.76667 58.9051 8.72 58.5584 8.72C58.1984 8.72 57.8718 8.91333 57.5784 9.3C57.2851 9.67333 57.0318 10.14 56.8184 10.7C56.6051 11.26 56.4318 11.82 56.2984 12.38ZM80.4427 18.68C79.616 18.68 78.9493 18.3933 78.4427 17.82C77.936 17.2333 77.6827 16.2933 77.6827 15C77.6827 14.1733 77.776 13.3467 77.9627 12.52C78.1627 11.68 78.436 10.8867 78.7827 10.14C79.1427 9.38 79.556 8.70667 80.0227 8.12C80.5027 7.53333 81.0293 7.07333 81.6027 6.74C82.176 6.39333 82.7693 6.22 83.3827 6.22C84.4227 6.22 85.236 6.5 85.8227 7.06C86.4093 7.62 86.7027 8.33333 86.7027 9.2C86.7027 9.86667 86.516 10.4733 86.1427 11.02C85.7827 11.5533 85.2893 12.0333 84.6627 12.46C84.036 12.8867 83.336 13.2733 82.5627 13.62C81.7893 13.9667 80.996 14.28 80.1827 14.56C80.116 15.04 80.0827 15.4667 80.0827 15.84C80.0827 16.0667 80.2093 16.18 80.4627 16.18C81.0627 16.18 81.7027 16.0867 82.3827 15.9C83.076 15.7 83.776 15.4467 84.4827 15.14C85.1893 14.82 85.8693 14.4933 86.5227 14.16C87.176 13.8133 87.7693 13.4867 88.3027 13.18C88.8493 12.86 89.296 12.6067 89.6427 12.42C90.0027 12.22 90.236 12.12 90.3427 12.12C90.636 12.12 90.8493 12.2067 90.9827 12.38C91.116 12.5533 91.1827 12.74 91.1827 12.94C91.1827 13.0333 91.0027 13.24 90.6427 13.56C90.296 13.88 89.816 14.26 89.2027 14.7C88.6027 15.1267 87.9227 15.5733 87.1627 16.04C86.416 16.4933 85.636 16.9267 84.8227 17.34C84.0227 17.74 83.2427 18.06 82.4827 18.3C81.736 18.5533 81.056 18.68 80.4427 18.68ZM80.5227 12.78C81.0693 12.46 81.6093 12.1267 82.1427 11.78C82.6893 11.42 83.1427 11.02 83.5027 10.58C83.8627 10.1267 84.0427 9.6 84.0427 9C84.0427 8.82667 83.996 8.71333 83.9027 8.66C83.8093 8.59333 83.676 8.56 83.5027 8.56C83.036 8.56 82.6093 8.76667 82.2227 9.18C81.8493 9.59333 81.516 10.1267 81.2227 10.78C80.9427 11.42 80.7093 12.0867 80.5227 12.78ZM100.362 7.3C101.096 5.55333 101.742 3.75333 102.302 1.9C102.409 1.52667 102.562 1.24 102.762 1.04C102.976 0.839999 103.269 0.739999 103.642 0.739999C103.949 0.739999 104.182 0.833333 104.342 1.02C104.502 1.19333 104.582 1.43333 104.582 1.74C104.582 1.99333 104.476 2.44667 104.262 3.1C104.049 3.74 103.789 4.55333 103.482 5.54C103.176 6.52667 102.869 7.66667 102.562 8.96C102.256 10.2533 101.996 11.6733 101.782 13.22C101.569 14.7667 101.462 16.42 101.462 18.18C101.462 18.66 101.369 19.0533 101.182 19.36C101.009 19.68 100.702 19.84 100.262 19.84C99.7822 19.84 99.4289 19.6733 99.2022 19.34C98.9889 19.0067 98.8822 18.58 98.8822 18.06C98.8822 17.0333 98.9155 16.18 98.9822 15.5C99.0622 14.8067 99.1422 14.2133 99.2222 13.72C98.5689 14.84 97.8755 15.8067 97.1422 16.62C96.4222 17.42 95.7289 18.0333 95.0622 18.46C94.3955 18.9 93.8222 19.12 93.3422 19.12C92.5555 19.12 91.9155 18.9 91.4222 18.46C90.9289 18.02 90.6822 17.3533 90.6822 16.46C90.6822 15.7667 90.8489 15.0533 91.1822 14.32C91.5155 13.5733 91.9555 12.84 92.5022 12.12C93.0489 11.4 93.6489 10.7267 94.3022 10.1C94.9689 9.46 95.6355 8.9 96.3022 8.42C96.9689 7.92667 97.5889 7.54 98.1622 7.26C98.7355 6.98 99.2022 6.84 99.5622 6.84C99.9622 6.84 100.229 6.99333 100.362 7.3ZM99.9022 8.38C99.8222 8.43333 99.7355 8.48667 99.6422 8.54C99.5622 8.58 99.4822 8.62667 99.4022 8.68C98.8955 9 98.3555 9.38667 97.7822 9.84C97.2089 10.28 96.6422 10.7733 96.0822 11.32C95.5222 11.8533 95.0089 12.4133 94.5422 13C94.0889 13.5733 93.7222 14.1467 93.4422 14.72C93.1755 15.28 93.0422 15.82 93.0422 16.34C93.0422 16.4333 93.0822 16.5 93.1622 16.54C93.2422 16.58 93.3155 16.6 93.3822 16.6C93.8489 16.6 94.3489 16.3933 94.8822 15.98C95.4289 15.5667 95.9822 14.9933 96.5422 14.26C97.1155 13.5133 97.6822 12.64 98.2422 11.64C98.8155 10.64 99.3689 9.55333 99.9022 8.38ZM122.623 18.62C121.823 18.62 121.27 18.46 120.963 18.14C120.67 17.8333 120.523 17.4067 120.523 16.86C120.523 14.54 120.957 12.12 121.823 9.6C122.703 7.06667 123.937 4.52667 125.523 1.98C125.79 1.54 126.01 1.28 126.183 1.2C126.357 1.12 126.55 1.08 126.763 1.08C127.07 1.08 127.337 1.18667 127.563 1.4C127.803 1.61333 127.923 1.89333 127.923 2.24C127.923 2.34667 127.81 2.64 127.583 3.12C127.357 3.6 127.057 4.21333 126.683 4.96C126.323 5.70667 125.93 6.55333 125.503 7.5C125.077 8.43333 124.657 9.42 124.243 10.46C123.843 11.5 123.497 12.5467 123.203 13.6C123.657 13.0267 124.17 12.44 124.743 11.84C125.33 11.2267 125.937 10.6667 126.563 10.16C127.19 9.64 127.797 9.22667 128.383 8.92C128.97 8.6 129.497 8.44 129.963 8.44C130.403 8.44 130.81 8.54667 131.183 8.76C131.57 8.97333 131.883 9.30667 132.123 9.76C132.363 10.2133 132.483 10.8 132.483 11.52C132.483 12.3067 132.257 13.1133 131.803 13.94C131.363 14.7667 130.717 15.5333 129.863 16.24C129.023 16.9467 127.99 17.52 126.763 17.96C125.55 18.4 124.17 18.62 122.623 18.62ZM123.463 16.34C124.49 16.26 125.417 16.04 126.243 15.68C127.083 15.32 127.803 14.8733 128.403 14.34C129.003 13.8067 129.463 13.2467 129.783 12.66C130.103 12.06 130.263 11.4933 130.263 10.96C130.263 10.84 130.23 10.78 130.163 10.78C129.883 10.78 129.53 10.9067 129.103 11.16C128.677 11.4 128.21 11.7267 127.703 12.14C127.197 12.5533 126.683 13.0067 126.163 13.5C125.643 13.9933 125.15 14.4867 124.683 14.98C124.217 15.4733 123.81 15.9267 123.463 16.34ZM139.302 23.5C138.555 23.5 137.875 23.4533 137.262 23.36C136.649 23.28 136.049 23.1467 135.462 22.96C134.875 22.7733 134.242 22.5267 133.562 22.22C133.282 22.0867 133.049 21.9467 132.862 21.8C132.675 21.6533 132.582 21.4333 132.582 21.14C132.582 20.7133 132.715 20.3867 132.982 20.16C133.235 19.9467 133.589 19.84 134.042 19.84C134.282 19.84 134.589 19.92 134.962 20.08C135.335 20.2533 135.762 20.4467 136.242 20.66C136.735 20.8867 137.282 21.08 137.882 21.24C138.482 21.4133 139.129 21.5 139.822 21.5C140.529 21.5 141.189 21.2067 141.802 20.62C142.415 20.0333 142.909 19.2067 143.282 18.14C143.669 17.0867 143.862 15.84 143.862 14.4C143.862 14.0667 143.855 13.7067 143.842 13.32C143.829 12.92 143.815 12.5 143.802 12.06C143.322 12.9667 142.802 13.8133 142.242 14.6C141.682 15.3867 141.102 16.0267 140.502 16.52C139.915 17 139.322 17.24 138.722 17.24C137.989 17.24 137.455 17.0667 137.122 16.72C136.802 16.36 136.642 15.7933 136.642 15.02C136.642 14.3667 136.689 13.6533 136.782 12.88C136.889 12.0933 137.029 11.3 137.202 10.5C137.375 9.7 137.575 8.94 137.802 8.22C138.042 7.48667 138.295 6.85333 138.562 6.32C138.762 5.93333 139.069 5.74 139.482 5.74C139.749 5.74 140.015 5.86667 140.282 6.12C140.562 6.37333 140.702 6.71333 140.702 7.14C140.702 7.38 140.642 7.72667 140.522 8.18C140.402 8.63333 140.255 9.14667 140.082 9.72C139.922 10.28 139.755 10.8733 139.582 11.5C139.409 12.1133 139.262 12.72 139.142 13.32C139.022 13.9067 138.962 14.44 138.962 14.92C138.962 14.9733 139.002 15 139.082 15C139.242 15 139.455 14.8667 139.722 14.6C140.002 14.32 140.309 13.96 140.642 13.52C140.989 13.0667 141.335 12.5733 141.682 12.04C142.042 11.4933 142.389 10.9533 142.722 10.42C143.055 9.88667 143.355 9.4 143.622 8.96C143.582 8.74667 143.555 8.56 143.542 8.4C143.542 8.22667 143.542 8.08 143.542 7.96C143.542 7.41333 143.635 6.96 143.822 6.6C144.022 6.24 144.409 6.06 144.982 6.06C145.355 6.06 145.642 6.2 145.842 6.48C146.042 6.74667 146.142 7.12667 146.142 7.62C146.142 7.83333 146.109 8.08 146.042 8.36C145.975 8.62667 145.842 9.05333 145.642 9.64L145.862 9.02C145.982 10.22 146.082 11.2867 146.162 12.22C146.255 13.1533 146.302 14.08 146.302 15C146.302 16.7333 146.009 18.2333 145.422 19.5C144.849 20.78 144.035 21.7667 142.982 22.46C141.942 23.1533 140.715 23.5 139.302 23.5Z" fill="#FFA700"/>
</svg>
