<svg width="139" height="80" viewBox="0 0 139 80" fill="none" xmlns="http://www.w3.org/2000/svg">
<g filter="url(#filter0_d_4018_2163)">
<path d="M5.57277 28.7889C4.75677 28.7889 3.91677 28.6209 3.05277 28.2849C2.21277 27.9489 1.50477 27.5049 0.928766 26.9529C0.352766 26.4009 0.0647656 25.7889 0.0647656 25.1169C0.0647656 24.9009 0.124766 24.7209 0.244766 24.5769C0.388766 24.4329 0.544766 24.3609 0.712766 24.3609C0.976766 24.3609 1.28877 24.4929 1.64877 24.7569C2.00877 25.0209 2.44077 25.2849 2.94477 25.5489C3.47277 25.8129 4.09677 25.9449 4.81677 25.9449C4.48077 25.7769 4.15677 25.4649 3.84477 25.0089C3.55677 24.5529 3.41277 24.1209 3.41277 23.7129C3.41277 23.3529 3.53277 22.7649 3.77277 21.9489C4.01277 21.1089 4.30077 20.1249 4.63677 18.9969C4.99677 17.8449 5.35677 16.6089 5.71677 15.2889C6.07677 13.9689 6.37677 12.6249 6.61677 11.2569C6.85677 9.88891 6.98877 8.56891 7.01277 7.29691C6.55677 7.29691 6.14877 7.16491 5.78877 6.90091C5.45277 6.63691 5.18877 6.33691 4.99677 6.00091C4.80477 5.66491 4.70877 5.38891 4.70877 5.17291C4.70877 4.83691 4.98477 4.56091 5.53677 4.34491C6.11277 4.10491 6.80877 3.93691 7.62477 3.84091C8.44077 3.72091 9.20877 3.66091 9.92877 3.66091C13.2888 3.66091 15.8808 4.11691 17.7048 5.02891C19.5288 5.94091 20.4408 7.26091 20.4408 8.98891C20.4408 10.4289 19.8288 11.7369 18.6048 12.9129C17.4048 14.0889 15.6408 15.0369 13.3128 15.7569C14.7528 15.8289 16.0128 16.0809 17.0928 16.5129C18.1968 16.9209 19.0488 17.4489 19.6488 18.0969C20.2728 18.7449 20.5848 19.4649 20.5848 20.2569C20.5848 21.2889 20.2608 22.2489 19.6128 23.1369C18.9648 24.0009 18.1008 24.7809 17.0208 25.4769C15.9648 26.1729 14.7768 26.7729 13.4568 27.2769C12.1368 27.7569 10.7928 28.1289 9.42477 28.3929C8.05677 28.6569 6.77277 28.7889 5.57277 28.7889ZM8.66877 15.1089C9.05277 14.8449 9.58077 14.5809 10.2528 14.3169C10.9488 14.0289 11.6928 13.7289 12.4848 13.4169C13.2768 13.1049 14.0328 12.7569 14.7528 12.3729C15.4728 11.9649 16.0608 11.4969 16.5168 10.9689C16.9728 10.4409 17.2008 9.84091 17.2008 9.16891C17.2008 8.28091 16.7688 7.64491 15.9048 7.26091C15.0648 6.85291 14.0568 6.64891 12.8808 6.64891C12.2328 6.64891 11.5608 6.69691 10.8648 6.79291C10.1928 6.86491 9.54477 6.96091 8.92077 7.08091C9.59277 7.80091 9.92877 8.48491 9.92877 9.13291C9.92877 9.80491 9.50877 11.7969 8.66877 15.1089ZM5.39277 25.9449C6.88077 25.8969 8.33277 25.6929 9.74877 25.3329C11.1888 24.9729 12.4848 24.5169 13.6368 23.9649C14.7888 23.3889 15.7128 22.7649 16.4088 22.0929C17.1048 21.4209 17.4528 20.7609 17.4528 20.1129C17.4528 19.7529 17.2248 19.4169 16.7688 19.1049C16.3128 18.7929 15.7008 18.5289 14.9328 18.3129C14.1888 18.0729 13.3848 17.8929 12.5208 17.7729C11.6568 17.6289 10.8048 17.5569 9.96477 17.5569C9.31677 17.5569 8.75277 17.2209 8.27277 16.5489C6.80877 22.3329 5.84877 25.4649 5.39277 25.9449ZM27.9186 28.8609C27.1986 28.8609 26.4546 28.6449 25.6866 28.2129C24.9426 27.7569 24.3186 27.1929 23.8146 26.5209C23.3106 25.8489 23.0586 25.1769 23.0586 24.5049C23.0586 23.4489 23.2866 22.3089 23.7426 21.0849C24.1986 19.8609 24.8106 18.6609 25.5786 17.4849C26.3466 16.2849 27.1866 15.2049 28.0986 14.2449C29.0106 13.2609 29.9346 12.4809 30.8706 11.9049C31.8306 11.3049 32.7066 11.0049 33.4986 11.0049C34.5786 11.0049 35.5746 11.5449 36.4866 12.6249C36.9186 13.1529 37.2546 13.6569 37.4946 14.1369C37.7346 14.5929 37.8546 15.0489 37.8546 15.5049C37.8546 15.9609 37.7826 16.4169 37.6386 16.8729C37.5186 17.3289 37.2906 17.7969 36.9546 18.2769C37.2426 18.6369 37.3866 18.9489 37.3866 19.2129C37.3866 20.1009 37.2306 21.2649 36.9186 22.7049C36.6306 24.1209 36.3426 25.8729 36.0546 27.9609C35.9826 28.5609 35.7666 28.8609 35.4066 28.8609C35.1186 28.8609 34.8666 28.7169 34.6506 28.4289C34.4586 28.1169 34.3026 27.7329 34.1826 27.2769C34.0866 26.8209 34.0026 26.3649 33.9306 25.9089C33.8826 25.4529 33.8586 25.0809 33.8586 24.7929C31.7226 27.5049 29.7426 28.8609 27.9186 28.8609ZM27.7746 25.8729C28.5426 25.8729 29.3706 25.5249 30.2586 24.8289C31.1706 24.1329 32.0226 23.1969 32.8146 22.0209C33.6066 20.8209 34.1826 19.4889 34.5426 18.0249C34.6146 17.6889 34.8186 17.4609 35.1546 17.3409C35.1546 15.1089 34.7106 13.9929 33.8226 13.9929C33.2226 13.9929 32.5746 14.2569 31.8786 14.7849C31.1826 15.2889 30.4986 15.9609 29.8266 16.8009C29.1546 17.6169 28.5306 18.5049 27.9546 19.4649C27.3786 20.4249 26.9226 21.3489 26.5866 22.2369C26.2506 23.1249 26.0826 23.8809 26.0826 24.5049C26.0826 24.9129 26.2506 25.2489 26.5866 25.5129C26.9226 25.7529 27.3186 25.8729 27.7746 25.8729ZM46.5216 28.8609C45.3696 28.8609 44.2896 28.6689 43.2816 28.2849C42.2736 27.8769 41.4576 27.3849 40.8336 26.8089C40.2096 26.2329 39.8976 25.7049 39.8976 25.2249C39.8976 24.9849 39.9576 24.7569 40.0776 24.5409C40.2216 24.3249 40.4136 24.2169 40.6536 24.2169C41.0136 24.2169 41.3856 24.3729 41.7696 24.6849C42.1536 24.9969 42.6576 25.3089 43.2816 25.6209C43.9056 25.9329 44.7456 26.0889 45.8016 26.0889C47.0736 26.0889 48.0456 25.9449 48.7176 25.6569C49.4136 25.3449 49.7616 24.8889 49.7616 24.2889C49.7616 23.7369 49.4136 23.1609 48.7176 22.5609C48.0456 21.9609 47.2896 21.4209 46.4496 20.9409C45.6336 20.4609 44.8656 19.8729 44.1456 19.1769C43.4496 18.4809 43.1016 17.7729 43.1016 17.0529C43.1016 16.4049 43.3896 15.7329 43.9656 15.0369C44.5416 14.3409 45.2616 13.6929 46.1256 13.0929C46.9896 12.4689 47.8656 11.9649 48.7536 11.5809C49.6656 11.1969 50.4456 11.0049 51.0936 11.0049C51.6456 11.0049 52.1736 11.2209 52.6776 11.6529C53.2056 12.0849 53.6376 12.5889 53.9736 13.1649C54.3096 13.7409 54.4776 14.2569 54.4776 14.7129C54.4776 15.1209 54.2856 15.3249 53.9016 15.3249C53.6376 15.3249 53.3616 15.2169 53.0736 15.0009C52.7856 14.7849 52.4616 14.5809 52.1016 14.3889C51.7656 14.1729 51.3936 14.0649 50.9856 14.0649C50.6976 14.0649 50.3016 14.1609 49.7976 14.3529C49.2936 14.5209 48.7776 14.7609 48.2496 15.0729C47.7456 15.3849 47.3136 15.7329 46.9536 16.1169C46.5936 16.4769 46.4136 16.8369 46.4136 17.1969C46.4136 17.7489 47.5176 18.6969 49.7256 20.0409C50.5656 20.5689 51.3216 21.2529 51.9936 22.0929C52.6896 22.9089 53.0376 23.7849 53.0376 24.7209C53.0376 25.3449 52.7376 25.9809 52.1376 26.6289C51.5376 27.2769 50.7336 27.8169 49.7256 28.2489C48.7416 28.6569 47.6736 28.8609 46.5216 28.8609ZM62.0298 28.8609C60.7818 28.8609 59.6778 28.6089 58.7178 28.1049C57.7818 27.5769 57.0378 26.8689 56.4858 25.9809C55.9578 25.0929 55.6938 24.0849 55.6938 22.9569C55.6938 21.9969 55.8498 20.9769 56.1618 19.8969C56.4978 18.8169 56.9538 17.7609 57.5298 16.7289C58.1298 15.6729 58.8138 14.7129 59.5818 13.8489C60.3738 12.9849 61.2138 12.3009 62.1018 11.7969C62.9898 11.2689 63.9138 11.0049 64.8738 11.0049C65.5938 11.0049 66.2778 11.1969 66.9258 11.5809C67.5978 11.9409 68.1978 12.4209 68.7258 13.0209C69.2778 13.6209 69.7098 14.2689 70.0218 14.9649C70.3338 15.6609 70.4898 16.3209 70.4898 16.9449C70.4898 17.7369 70.2618 18.4089 69.8058 18.9609C69.3498 19.5129 68.7618 19.9689 68.0418 20.3289C67.3218 20.6649 66.5418 20.9169 65.7018 21.0849C64.8858 21.2289 64.1178 21.3009 63.3978 21.3009C61.8378 21.3009 60.3738 21.1089 59.0058 20.7249C58.6698 21.7809 58.5018 22.7169 58.5018 23.5329C58.5018 24.3729 58.7538 25.0209 59.2578 25.4769C59.7858 25.9329 60.6498 26.1609 61.8498 26.1609C62.7138 26.1609 63.5538 26.0529 64.3698 25.8369C65.1858 25.6209 65.8818 25.4169 66.4578 25.2249C67.0578 25.0089 67.4298 24.9009 67.5738 24.9009C68.1978 24.9009 68.5098 25.1409 68.5098 25.6209C68.5098 25.9329 68.3058 26.2809 67.8978 26.6649C67.4898 27.0489 66.9618 27.4089 66.3138 27.7449C65.6658 28.0569 64.9578 28.3209 64.1898 28.5369C63.4458 28.7529 62.7258 28.8609 62.0298 28.8609ZM63.1098 18.9969C64.3338 18.9969 65.4018 18.8049 66.3138 18.4209C67.2258 18.0129 67.6818 17.4849 67.6818 16.8369C67.6818 16.4049 67.5378 15.9609 67.2498 15.5049C66.9858 15.0249 66.6498 14.6289 66.2418 14.3169C65.8338 14.0049 65.4378 13.8489 65.0538 13.8489C64.1658 13.8489 63.2418 14.3169 62.2818 15.2529C61.3218 16.1649 60.5058 17.3049 59.8338 18.6729C60.7938 18.8889 61.8858 18.9969 63.1098 18.9969ZM76.0048 28.8609C75.3088 28.8609 74.6368 28.6329 73.9888 28.1769C73.3648 27.7209 72.8488 27.1569 72.4408 26.4849C72.0568 25.8129 71.8648 25.1289 71.8648 24.4329C71.8648 23.4489 72.0328 22.3569 72.3688 21.1569C72.7048 19.9569 73.1608 18.7689 73.7368 17.5929C74.3368 16.3929 75.0328 15.3009 75.8248 14.3169C76.6408 13.3089 77.5168 12.5049 78.4528 11.9049C79.3888 11.3049 80.3608 11.0049 81.3688 11.0049C83.0728 11.0049 84.2608 12.0249 84.9328 14.0649C85.5568 11.5209 86.0368 9.24091 86.3728 7.22491C86.7088 5.20891 86.9008 3.46891 86.9488 2.00491C86.9968 1.28491 87.2608 0.924907 87.7408 0.924907C88.0048 0.924907 88.3048 1.09291 88.6408 1.42891C89.0008 1.76491 89.3128 2.17291 89.5768 2.65291C89.8648 3.13291 90.0088 3.57691 90.0088 3.98491C90.0088 4.27291 89.9128 4.94491 89.7208 6.00091C89.5528 7.03291 89.3008 8.30491 88.9648 9.81691C88.6528 11.3049 88.3048 12.9129 87.9208 14.6409C87.5368 16.3449 87.1288 18.0369 86.6968 19.7169C86.2648 21.3969 85.8448 22.9329 85.4368 24.3249C85.0528 25.6929 84.6928 26.7969 84.3568 27.6369C84.0448 28.4529 83.7928 28.8609 83.6008 28.8609C83.2888 28.8609 82.9288 28.6449 82.5208 28.2129C82.3528 28.0449 82.2088 27.8529 82.0888 27.6369C81.9688 27.4209 81.9088 27.1449 81.9088 26.8089C81.9088 26.6409 81.9328 26.4249 81.9808 26.1609C82.0528 25.8729 82.1128 25.5729 82.1608 25.2609C79.8088 27.6609 77.7568 28.8609 76.0048 28.8609ZM76.4008 25.9809C76.8808 25.9809 77.4688 25.7889 78.1648 25.4049C78.8608 25.0209 79.5808 24.5049 80.3248 23.8569C81.0688 23.1849 81.7528 22.4169 82.3768 21.5529C83.0008 20.6889 83.4688 19.7889 83.7808 18.8529C83.7808 17.3649 83.5528 16.1889 83.0968 15.3249C82.6648 14.4369 82.1368 13.9929 81.5128 13.9929C80.7688 13.9929 80.0008 14.3169 79.2088 14.9649C78.4168 15.6129 77.6848 16.4649 77.0128 17.5209C76.3648 18.5769 75.8368 19.7289 75.4288 20.9769C75.0208 22.2009 74.8168 23.3889 74.8168 24.5409C74.8168 24.9729 74.9728 25.3209 75.2848 25.5849C75.5968 25.8489 75.9688 25.9809 76.4008 25.9809ZM106.187 28.8609C105.371 28.8609 104.639 28.6089 103.991 28.1049C103.343 27.5769 102.827 26.8689 102.443 25.9809C102.083 25.0689 101.903 24.0249 101.903 22.8489C101.903 21.9129 102.047 20.9169 102.335 19.8609C102.623 18.7809 103.031 17.7249 103.559 16.6929C104.087 15.6369 104.711 14.6889 105.431 13.8489C106.151 12.9849 106.943 12.3009 107.807 11.7969C108.695 11.2689 109.631 11.0049 110.615 11.0049C111.551 11.0049 112.391 11.2809 113.135 11.8329C113.903 12.3849 114.503 13.1409 114.935 14.1009C115.391 15.0369 115.619 16.0809 115.619 17.2329C115.619 18.7689 115.355 20.2329 114.827 21.6249C114.299 23.0169 113.579 24.2649 112.667 25.3689C111.779 26.4489 110.771 27.3009 109.643 27.9249C108.539 28.5489 107.387 28.8609 106.187 28.8609ZM106.367 26.4129C107.111 26.4129 107.843 26.1129 108.563 25.5129C109.307 24.8889 109.979 24.0969 110.579 23.1369C111.203 22.1529 111.695 21.1329 112.055 20.0769C112.415 18.9969 112.595 18.0129 112.595 17.1249C112.595 16.5729 112.511 16.0089 112.343 15.4329C112.199 14.8329 112.007 14.3289 111.767 13.9209C111.527 13.4889 111.287 13.2729 111.047 13.2729C110.471 13.2729 109.895 13.5009 109.319 13.9569C108.743 14.4129 108.191 15.0129 107.663 15.7569C107.135 16.5009 106.667 17.3169 106.259 18.2049C105.851 19.0689 105.527 19.9329 105.287 20.7969C105.071 21.6609 104.963 22.4409 104.963 23.1369C104.963 23.9049 105.095 24.6489 105.359 25.3689C105.623 26.0649 105.959 26.4129 106.367 26.4129ZM119.656 28.8609C119.416 28.8609 119.14 28.7409 118.828 28.5009C118.54 28.2369 118.288 27.9249 118.072 27.5649C117.856 27.2049 117.748 26.8929 117.748 26.6289C117.748 26.4609 117.88 25.9929 118.144 25.2249C118.408 24.4329 118.72 23.4249 119.08 22.2009C119.44 20.9769 119.752 19.6209 120.016 18.1329C120.28 16.6209 120.412 15.0729 120.412 13.4889C120.412 11.7369 120.664 10.8609 121.168 10.8609C121.528 10.8609 121.888 10.9929 122.248 11.2569C122.608 11.5209 122.908 11.8569 123.148 12.2649C123.412 12.6489 123.544 13.0569 123.544 13.4889C123.544 13.9209 123.448 14.6529 123.256 15.6849C123.088 16.7169 122.848 17.8569 122.536 19.1049C122.248 20.3289 121.924 21.4929 121.564 22.5969H121.672C122.92 20.4129 124 18.6129 124.912 17.1969C125.848 15.7809 126.64 14.6529 127.288 13.8129C127.936 12.9729 128.476 12.3609 128.908 11.9769C129.364 11.5689 129.736 11.3049 130.024 11.1849C130.312 11.0649 130.564 11.0049 130.78 11.0049C131.404 11.0049 132.004 11.2449 132.58 11.7249C133.18 12.1809 133.672 12.7569 134.056 13.4529C134.44 14.1489 134.632 14.8689 134.632 15.6129C134.632 16.2129 134.536 17.0529 134.344 18.1329C134.152 19.1889 133.888 20.3289 133.552 21.5529C133.24 22.7769 132.868 23.9529 132.436 25.0809C132.004 26.1849 131.536 27.0969 131.032 27.8169C130.552 28.5129 130.06 28.8609 129.556 28.8609C129.028 28.8609 128.764 28.5009 128.764 27.7809C128.764 27.2049 128.908 26.4729 129.196 25.5849C129.484 24.6729 129.82 23.7009 130.204 22.6689C130.588 21.6129 130.924 20.5689 131.212 19.5369C131.5 18.5049 131.644 17.5689 131.644 16.7289C131.644 16.2969 131.56 15.8289 131.392 15.3249C131.248 14.7969 130.996 14.5329 130.636 14.5329C130.42 14.5329 130.192 14.5929 129.952 14.7129C129.712 14.8329 129.4 15.1209 129.016 15.5769C128.632 16.0089 128.116 16.6929 127.468 17.6289C126.82 18.5409 125.98 19.8009 124.948 21.4089C123.916 23.0169 122.62 25.0569 121.06 27.5289C120.748 28.0089 120.472 28.3569 120.232 28.5729C120.016 28.7649 119.824 28.8609 119.656 28.8609ZM44.3827 68.6049C43.7587 68.6049 43.4467 68.2569 43.4467 67.5609C43.4467 66.7929 43.6027 65.8689 43.9147 64.7889C44.2267 63.7329 44.5867 62.6289 44.9947 61.4769C45.4267 60.3249 45.7987 59.2689 46.1107 58.3089H46.0027C44.8267 60.3009 43.4947 61.8849 42.0067 63.0609C40.5427 64.2129 39.1027 64.7889 37.6867 64.7889C36.9907 64.7889 36.2707 64.6209 35.5267 64.2849C34.8067 63.9249 34.1347 63.4449 33.5107 62.8449C32.9107 62.2449 32.4187 61.5729 32.0347 60.8289C31.6507 60.0849 31.4587 59.3169 31.4587 58.5249C31.4587 57.2769 31.6627 55.9569 32.0707 54.5649C32.5027 53.1489 33.0787 51.7329 33.7987 50.3169C34.5187 48.9009 35.3587 47.5569 36.3187 46.2849C37.2787 44.9889 38.2987 43.8369 39.3787 42.8289C40.4827 41.8209 41.6107 41.0289 42.7627 40.4529C43.9147 39.8769 45.0307 39.5889 46.1107 39.5889C46.6387 39.5889 47.1187 39.7929 47.5507 40.2009C48.0067 40.6089 48.3667 41.0769 48.6307 41.6049C48.9187 42.1329 49.0627 42.5769 49.0627 42.9369C49.0627 43.2969 48.9307 43.4769 48.6667 43.4769C48.4987 43.4769 48.2347 43.3929 47.8747 43.2249C47.5387 43.0329 47.0467 42.9369 46.3987 42.9369C45.3667 42.9369 44.3107 43.2729 43.2307 43.9449C42.1507 44.6169 41.1067 45.5169 40.0987 46.6449C39.0907 47.7729 38.1787 49.0329 37.3627 50.4249C36.5467 51.7929 35.8987 53.1849 35.4187 54.6009C34.9627 56.0169 34.7347 57.3369 34.7347 58.5609C34.7347 59.4249 35.0107 60.1689 35.5627 60.7929C36.1147 61.3929 36.7627 61.6929 37.5067 61.6929C38.2747 61.6929 39.1387 61.4169 40.0987 60.8649C41.0587 60.2889 42.0427 59.4969 43.0507 58.4889C44.0587 57.4809 44.9947 56.3289 45.8587 55.0329V54.9249C45.2587 55.1169 44.7187 55.2609 44.2387 55.3569C43.7827 55.4289 43.3267 55.4649 42.8707 55.4649C42.2227 55.4649 41.6707 55.2969 41.2147 54.9609C40.7587 54.6009 40.5307 54.2649 40.5307 53.9529C40.5307 53.8089 40.6507 53.6409 40.8907 53.4489C41.1307 53.2569 41.6347 53.0889 42.4027 52.9449C43.1947 52.7769 44.3827 52.6929 45.9667 52.6929C46.8547 52.6929 47.5627 53.0529 48.0907 53.7729C48.6187 54.4929 48.8827 55.3449 48.8827 56.3289C48.8827 56.6409 48.7987 57.1689 48.6307 57.9129C48.4627 58.6329 48.2467 59.4609 47.9827 60.3969C47.7187 61.3089 47.4187 62.2449 47.0827 63.2049C46.7707 64.1649 46.4347 65.0529 46.0747 65.8689C45.7387 66.6849 45.4267 67.3449 45.1387 67.8489C44.8507 68.3529 44.5987 68.6049 44.3827 68.6049ZM55.0196 64.8609C54.8036 64.8609 54.5396 64.7409 54.2276 64.5009C53.9396 64.2369 53.6876 63.9249 53.4716 63.5649C53.2556 63.1809 53.1476 62.7969 53.1476 62.4129C53.1476 61.9569 53.2916 61.2009 53.5796 60.1449C53.8676 59.0649 54.2276 57.8049 54.6596 56.3649C55.0916 54.9249 55.5236 53.4129 55.9556 51.8289C56.4116 50.2449 56.7836 48.6969 57.0716 47.1849C57.3836 45.6729 57.5516 44.3169 57.5756 43.1169C56.9996 42.5889 56.7116 42.1089 56.7116 41.6769C56.7116 41.3889 56.9396 41.1009 57.3956 40.8129C57.8516 40.5009 58.4396 40.2249 59.1596 39.9849C59.8796 39.7209 60.6476 39.5169 61.4636 39.3729C62.3036 39.2049 63.0956 39.1209 63.8396 39.1209C65.3756 39.1209 66.7316 39.3969 67.9076 39.9489C69.1076 40.4769 70.0436 41.2209 70.7156 42.1809C71.3876 43.1169 71.7236 44.2209 71.7236 45.4929C71.7236 47.2209 71.1596 48.7809 70.0316 50.1729C68.9036 51.5409 67.3196 52.7169 65.2796 53.7009C63.2396 54.6849 60.8636 55.4409 58.1516 55.9689C56.3996 61.8969 55.3556 64.8609 55.0196 64.8609ZM58.9436 53.1609C60.8636 52.6569 62.5436 52.0089 63.9836 51.2169C65.4236 50.4249 66.5396 49.5609 67.3316 48.6249C68.1476 47.6649 68.5556 46.6929 68.5556 45.7089C68.5556 44.6529 68.1596 43.7889 67.3676 43.1169C66.5756 42.4209 65.6636 42.0729 64.6316 42.0729C63.8396 42.0729 63.1316 42.1569 62.5076 42.3249C61.9076 42.4929 61.1876 42.7689 60.3476 43.1529C60.5876 43.6809 60.7076 44.1729 60.7076 44.6289C60.7076 45.9729 60.1196 48.8169 58.9436 53.1609ZM79.0305 64.7169C78.7905 64.7169 78.5265 64.5969 78.2385 64.3569C77.9505 64.0929 77.6985 63.7689 77.4825 63.3849C77.2665 63.0009 77.1585 62.6289 77.1585 62.2689C77.1585 61.6449 77.2785 60.8049 77.5185 59.7489C77.7585 58.6689 78.0585 57.4449 78.4185 56.0769C78.8025 54.6849 79.1985 53.2209 79.6065 51.6849C80.0145 50.1489 80.3745 48.6129 80.6865 47.0769C81.0225 45.5169 81.2505 44.0409 81.3705 42.6489C80.1945 42.6729 79.0785 42.7329 78.0225 42.8289C76.9665 42.9009 76.0305 42.9369 75.2145 42.9369C74.9745 42.9369 74.7105 42.8169 74.4225 42.5769C74.1345 42.3369 73.8945 42.0489 73.7025 41.7129C73.5105 41.3529 73.4145 41.0169 73.4145 40.7049C73.4145 40.5849 73.4625 40.4769 73.5585 40.3809C73.6545 40.2609 73.8825 40.1649 74.2425 40.0929C74.6025 39.9969 75.1785 39.9249 75.9705 39.8769C76.7625 39.8289 77.8545 39.7929 79.2465 39.7689C80.6385 39.7209 82.4145 39.6969 84.5745 39.6969C84.9825 39.6969 85.5225 39.7209 86.1945 39.7689C86.8905 39.8169 87.6225 39.9009 88.3905 40.0209C89.1585 40.1409 89.8905 40.2969 90.5865 40.4889C91.2825 40.6809 91.8465 40.9209 92.2785 41.2089C92.7105 41.4969 92.9265 41.8449 92.9265 42.2529C92.9265 42.7089 92.5305 42.9369 91.7385 42.9369C90.7785 42.9609 89.6505 42.9249 88.3545 42.8289C87.0585 42.7089 85.7265 42.6369 84.3585 42.6129C84.2625 43.3089 84.0825 44.2689 83.8185 45.4929C83.5785 46.7169 83.2905 48.0729 82.9545 49.5609C82.6425 51.0489 82.3185 52.5489 81.9825 54.0609C81.6465 55.5489 81.3225 56.9409 81.0105 58.2369C80.7225 59.5089 80.4825 60.5649 80.2905 61.4049C80.0985 62.2209 79.9785 62.6889 79.9305 62.8089C79.5945 64.0809 79.2945 64.7169 79.0305 64.7169ZM95.9561 71.0889C95.5241 71.0889 95.2721 71.0169 95.2001 70.8729C95.1281 70.7529 95.0921 70.5729 95.0921 70.3329C95.0921 70.2369 95.2001 69.8889 95.4161 69.2889C95.6561 68.6889 95.9681 67.9089 96.3521 66.9489C96.7601 66.0129 97.1921 64.9809 97.6481 63.8529C96.5441 63.7569 95.4041 63.6849 94.2281 63.6369C93.0521 63.5649 91.8521 63.5289 90.6281 63.5289C89.7401 63.5289 89.1041 63.3609 88.7201 63.0249C88.3361 62.6889 88.1441 62.3169 88.1441 61.9089C88.1441 61.2849 88.4321 60.7449 89.0081 60.2889C90.0641 59.4249 91.1561 58.4289 92.2841 57.3009C93.4121 56.1489 94.5281 54.9489 95.6321 53.7009C96.7601 52.4529 97.8281 51.2289 98.8361 50.0289C99.8441 48.8049 100.756 47.6889 101.572 46.6809C102.388 45.6489 103.06 44.8089 103.588 44.1609C104.116 43.4889 104.44 43.0929 104.56 42.9729C104.704 42.8289 104.836 42.7089 104.956 42.6129C105.076 42.5169 105.22 42.4689 105.388 42.4689C105.7 42.4689 105.856 42.6609 105.856 43.0449C105.856 43.4769 105.628 44.1489 105.172 45.0609C104.74 45.9729 104.14 47.0289 103.372 48.2289C102.628 49.4049 101.776 50.6409 100.816 51.9369C99.8801 53.2329 98.8961 54.5049 97.8641 55.7529C96.8561 56.9769 95.8601 58.1049 94.8761 59.1369C93.9161 60.1449 93.0401 60.9489 92.2481 61.5489C93.2321 61.5249 94.2761 61.4889 95.3801 61.4409C96.5081 61.3689 97.6001 61.3089 98.6561 61.2609C99.1601 59.9889 99.6401 58.7409 100.096 57.5169C100.552 56.2929 100.9 55.2369 101.14 54.3489C101.284 53.8689 101.56 53.5929 101.968 53.5209C102.4 53.4249 102.832 53.3769 103.264 53.3769C103.744 53.3769 104.116 53.4129 104.38 53.4849C104.644 53.5569 104.776 53.8329 104.776 54.3129C104.776 54.4809 104.656 54.9129 104.416 55.6089C104.176 56.2809 103.852 57.1209 103.444 58.1289C103.06 59.1129 102.616 60.1569 102.112 61.2609C102.496 61.2609 102.892 61.2849 103.3 61.3329C103.732 61.3569 104.092 61.4529 104.38 61.6209C104.692 61.7649 104.848 62.0289 104.848 62.4129C104.848 62.6289 104.752 62.9169 104.56 63.2769C104.392 63.6369 104.164 63.9609 103.876 64.2489C103.588 64.5369 103.276 64.6809 102.94 64.6809C102.7 64.6809 102.34 64.6329 101.86 64.5369C101.404 64.4169 101.008 64.3329 100.672 64.2849C100.072 65.5089 99.4721 66.6369 98.8721 67.6689C98.2721 68.7009 97.7201 69.5289 97.2161 70.1529C96.7121 70.7769 96.2921 71.0889 95.9561 71.0889Z" fill="#FFA700"/>
</g>
<defs>
<filter id="filter0_d_4018_2163" x="0.0646973" y="0.924927" width="138.567" height="78.1639" filterUnits="userSpaceOnUse" color-interpolation-filters="sRGB">
<feFlood flood-opacity="0" result="BackgroundImageFix"/>
<feColorMatrix in="SourceAlpha" type="matrix" values="0 0 0 0 0 0 0 0 0 0 0 0 0 0 0 0 0 0 127 0" result="hardAlpha"/>
<feOffset dx="4" dy="8"/>
<feComposite in2="hardAlpha" operator="out"/>
<feColorMatrix type="matrix" values="0 0 0 0 0 0 0 0 0 0 0 0 0 0 0 0 0 0 1 0"/>
<feBlend mode="normal" in2="BackgroundImageFix" result="effect1_dropShadow_4018_2163"/>
<feBlend mode="normal" in="SourceGraphic" in2="effect1_dropShadow_4018_2163" result="shape"/>
</filter>
</defs>
</svg>
