<svg width="282" height="63" viewBox="0 0 282 63" fill="none" xmlns="http://www.w3.org/2000/svg">
<g filter="url(#filter0_d_2026_4957)">
<path d="M15.75 53.93C12.7633 53.93 10.1033 53.3933 7.77 52.32C5.48333 51.2 3.66333 49.87 2.31 48.33C1.00333 46.7433 0.35 45.2733 0.35 43.92C0.35 42.52 0.77 41.82 1.61 41.82C2.21667 41.82 2.87 42.17 3.57 42.87C4.31667 43.5233 5.18 44.2933 6.16 45.18C7.14 46.02 8.26 46.79 9.52 47.49C10.78 48.1433 12.25 48.47 13.93 48.47C16.1233 48.47 18.1533 48.0733 20.02 47.28C21.9333 46.4867 23.4733 45.4833 24.64 44.27C25.8533 43.0567 26.46 41.7967 26.46 40.49C26.46 39.37 25.9 38.11 24.78 36.71C23.7067 35.31 22.3767 33.8633 20.79 32.37C19.2033 30.83 17.5933 29.3133 15.96 27.82C14.3733 26.28 13.02 24.81 11.9 23.41C10.8267 22.01 10.29 20.7733 10.29 19.7C10.29 17.6 10.9433 15.6633 12.25 13.89C13.5567 12.1167 15.2367 10.5767 17.29 9.27C19.39 7.96333 21.63 6.93666 24.01 6.19C26.39 5.44333 28.63 5.07 30.73 5.07C32.0833 5.07 33.2267 5.51333 34.16 6.4C35.0933 7.28667 35.56 8.22 35.56 9.2C35.56 9.76 34.9767 10.2033 33.81 10.53C32.6433 10.81 31.1967 11.1133 29.47 11.44C27.79 11.7667 26.0867 12.28 24.36 12.98C21.6533 14.0067 19.6233 14.94 18.27 15.78C16.9633 16.5733 16.31 17.4367 16.31 18.37C16.31 19.1167 16.8467 20.05 17.92 21.17C19.04 22.29 20.4167 23.5733 22.05 25.02C23.6833 26.4667 25.3167 28.03 26.95 29.71C28.63 31.3433 30.0067 33.07 31.08 34.89C32.2 36.71 32.76 38.5533 32.76 40.42C32.76 42.94 31.9433 45.2267 30.31 47.28C28.7233 49.3333 26.6233 50.9667 24.01 52.18C21.4433 53.3467 18.69 53.93 15.75 53.93ZM42.4375 54.35C42.0642 54.35 41.5742 54.1167 40.9675 53.65C40.4075 53.1367 39.8942 52.5533 39.4275 51.9C39.0075 51.2 38.7975 50.57 38.7975 50.01C38.7975 49.4967 38.8675 48.9367 39.0075 48.33C39.1475 47.7233 39.3342 46.9533 39.5675 46.02C40.0808 44.0133 40.6875 41.5633 41.3875 38.67C42.0875 35.7767 42.7875 32.6733 43.4875 29.36C44.2342 26.0467 44.9108 22.7333 45.5175 19.42C46.1708 16.1067 46.6842 13.0033 47.0575 10.11C47.4308 7.21667 47.6175 4.76666 47.6175 2.76C47.6175 0.939997 48.1775 0.0299981 49.2975 0.0299981C49.9042 0.0299981 50.5342 0.379998 51.1875 1.08C51.8875 1.73333 52.4708 2.52666 52.9375 3.46C53.4042 4.39333 53.6375 5.30333 53.6375 6.19C53.6375 7.73 53.4275 9.85333 53.0075 12.56C52.6342 15.22 52.0742 18.2767 51.3275 21.73C50.6275 25.1367 49.7642 28.73 48.7375 32.51C47.7575 36.2433 46.6608 39.93 45.4475 43.57H45.6575C48.2708 38.9033 50.5575 35.1 52.5175 32.16C54.4775 29.1733 56.1575 26.84 57.5575 25.16C58.9575 23.4333 60.1475 22.1733 61.1275 21.38C62.1075 20.5867 62.9242 20.0967 63.5775 19.91C64.2308 19.7233 64.7908 19.63 65.2575 19.63C66.0508 19.63 66.9608 20.12 67.9875 21.1C69.0608 22.08 69.9708 23.3167 70.7175 24.81C71.5108 26.2567 71.9075 27.68 71.9075 29.08C71.9075 29.78 71.7675 30.9 71.4875 32.44C71.2542 33.9333 70.9042 35.6367 70.4375 37.55C69.9708 39.4633 69.4108 41.4 68.7575 43.36C68.1508 45.32 67.4742 47.14 66.7275 48.82C65.9808 50.4533 65.2108 51.7833 64.4175 52.81C63.6242 53.8367 62.8075 54.35 61.9675 54.35C60.9408 54.35 60.4275 53.65 60.4275 52.25C60.4275 51.13 60.6842 49.6833 61.1975 47.91C61.7575 46.09 62.3875 44.13 63.0875 42.03C63.8342 39.93 64.4642 37.8767 64.9775 35.87C65.5375 33.8167 65.8175 32.0433 65.8175 30.55C65.8175 29.57 65.5842 28.8467 65.1175 28.38C64.6975 27.8667 64.1608 27.61 63.5075 27.61C62.6208 27.61 61.5475 28.2633 60.2875 29.57C59.0275 30.83 57.6742 32.4867 56.2275 34.54C54.8275 36.5467 53.4042 38.6933 51.9575 40.98C50.5575 43.2667 49.2042 45.4367 47.8975 47.49C46.6375 49.4967 45.5175 51.1533 44.5375 52.46C43.6042 53.72 42.9042 54.35 42.4375 54.35ZM85.5668 54.35C83.9801 54.35 82.5568 53.86 81.2968 52.88C80.0368 51.8533 79.0335 50.4767 78.2868 48.75C77.5868 46.9767 77.2368 44.9467 77.2368 42.66C77.2368 40.84 77.5168 38.9033 78.0768 36.85C78.6368 34.75 79.4301 32.6967 80.4568 30.69C81.4835 28.6367 82.6968 26.7933 84.0968 25.16C85.4968 23.48 87.0368 22.15 88.7168 21.17C90.4435 20.1433 92.2635 19.63 94.1768 19.63C95.9968 19.63 97.6301 20.1667 99.0768 21.24C100.57 22.3133 101.737 23.7833 102.577 25.65C103.463 27.47 103.907 29.5 103.907 31.74C103.907 34.7267 103.393 37.5733 102.367 40.28C101.34 42.9867 99.9401 45.4133 98.1668 47.56C96.4401 49.66 94.4801 51.3167 92.2868 52.53C90.1401 53.7433 87.9001 54.35 85.5668 54.35ZM85.9168 49.59C87.3635 49.59 88.7868 49.0067 90.1868 47.84C91.6335 46.6267 92.9401 45.0867 94.1068 43.22C95.3201 41.3067 96.2768 39.3233 96.9768 37.27C97.6768 35.17 98.0268 33.2567 98.0268 31.53C98.0268 30.4567 97.8635 29.36 97.5368 28.24C97.2568 27.0733 96.8835 26.0933 96.4168 25.3C95.9501 24.46 95.4835 24.04 95.0168 24.04C93.8968 24.04 92.7768 24.4833 91.6568 25.37C90.5368 26.2567 89.4635 27.4233 88.4368 28.87C87.4101 30.3167 86.5001 31.9033 85.7068 33.63C84.9135 35.31 84.2835 36.99 83.8168 38.67C83.3968 40.35 83.1868 41.8667 83.1868 43.22C83.1868 44.7133 83.4435 46.16 83.9568 47.56C84.4701 48.9133 85.1235 49.59 85.9168 49.59ZM117.216 54.49C116.562 54.49 115.862 54.1867 115.116 53.58C114.416 52.9733 113.856 52.18 113.436 51.2C113.016 50.22 112.619 48.7967 112.246 46.93C111.872 45.0167 111.522 42.8933 111.196 40.56C110.916 38.18 110.659 35.8233 110.426 33.49C110.192 31.11 110.006 28.9167 109.866 26.91C109.772 24.8567 109.726 23.2467 109.726 22.08C109.726 20.1667 110.309 19.21 111.476 19.21C112.176 19.21 112.829 19.49 113.436 20.05C114.042 20.61 114.556 21.2867 114.976 22.08C115.442 22.8733 115.722 23.6433 115.816 24.39C116.049 26.1633 116.166 28.2633 116.166 30.69C116.166 33.1167 116.236 35.7767 116.376 38.67C116.562 41.5633 116.936 44.62 117.496 47.84C119.409 44.5267 121.346 40.3733 123.306 35.38C124.426 32.5333 125.429 29.8967 126.316 27.47C127.249 25.0433 128.136 23.0833 128.976 21.59C129.816 20.0967 130.632 19.35 131.426 19.35C132.966 19.35 134.226 20.0733 135.206 21.52C136.232 22.92 136.746 24.7633 136.746 27.05C136.746 29.2433 136.652 31.4367 136.466 33.63C136.326 35.8233 136.256 38.0167 136.256 40.21C136.256 42.03 136.279 43.6167 136.326 44.97C136.372 46.2767 136.512 47.3267 136.746 48.12C138.752 46.02 140.479 43.57 141.926 40.77C143.419 37.9233 144.539 35.2867 145.286 32.86C145.939 30.7133 146.499 28.59 146.966 26.49C147.432 24.3433 147.922 22.57 148.436 21.17C148.949 19.77 149.556 19.07 150.256 19.07C151.142 19.07 151.936 19.4433 152.636 20.19C153.336 20.89 153.686 21.7067 153.686 22.64C153.686 25.0667 152.612 28.9867 150.466 34.4C149.579 36.92 148.506 39.37 147.246 41.75C145.986 44.13 144.679 46.3 143.326 48.26C141.972 50.1733 140.689 51.69 139.476 52.81C138.309 53.93 137.306 54.49 136.466 54.49C134.832 54.49 133.619 53.58 132.826 51.76C132.406 50.8267 132.079 49.4267 131.846 47.56C131.612 45.6933 131.449 43.6167 131.356 41.33C131.309 38.9967 131.309 36.64 131.356 34.26C131.402 31.88 131.496 29.7567 131.636 27.89C128.416 36.57 125.569 43.1967 123.096 47.77C120.669 52.25 118.709 54.49 117.216 54.49ZM167.045 54.35C165.225 54.35 163.452 53.86 161.725 52.88C159.998 51.9 158.575 50.5933 157.455 48.96C156.335 47.3267 155.775 45.53 155.775 43.57C155.775 41.7967 156.148 39.8367 156.895 37.69C157.642 35.5433 158.668 33.42 159.975 31.32C161.282 29.1733 162.775 27.2133 164.455 25.44C166.135 23.6667 167.908 22.2667 169.775 21.24C171.642 20.1667 173.508 19.63 175.375 19.63C176.635 19.63 177.802 20.05 178.875 20.89C179.995 21.6833 180.882 22.64 181.535 23.76C182.235 24.88 182.585 25.8833 182.585 26.77C182.585 27.2367 182.445 27.5867 182.165 27.82C181.885 28.0067 181.558 28.1 181.185 28.1C180.718 28.1 180.228 27.89 179.715 27.47C179.202 27.05 178.642 26.63 178.035 26.21C177.428 25.79 176.705 25.58 175.865 25.58C174.838 25.58 173.718 26 172.505 26.84C171.292 27.6333 170.055 28.73 168.795 30.13C167.582 31.4833 166.462 32.9767 165.435 34.61C164.408 36.1967 163.568 37.8067 162.915 39.44C162.308 41.0733 162.005 42.5433 162.005 43.85C162.005 45.2967 162.448 46.44 163.335 47.28C164.268 48.12 165.762 48.54 167.815 48.54C170.055 48.54 171.922 48.3067 173.415 47.84C174.955 47.3267 176.192 46.8367 177.125 46.37C178.105 45.8567 178.898 45.6 179.505 45.6C180.392 45.6 180.835 46.0433 180.835 46.93C180.835 47.63 180.368 48.4 179.435 49.24C178.548 50.08 177.382 50.8967 175.935 51.69C174.535 52.4367 173.042 53.0667 171.455 53.58C169.868 54.0933 168.398 54.35 167.045 54.35ZM194.647 54.35C193.247 54.35 191.8 53.93 190.307 53.09C188.86 52.2033 187.647 51.1067 186.667 49.8C185.687 48.4933 185.197 47.1867 185.197 45.88C185.197 43.8267 185.64 41.61 186.527 39.23C187.414 36.85 188.604 34.5167 190.097 32.23C191.59 29.8967 193.224 27.7967 194.997 25.93C196.77 24.0167 198.567 22.5 200.387 21.38C202.254 20.2133 203.957 19.63 205.497 19.63C207.597 19.63 209.534 20.68 211.307 22.78C212.147 23.8067 212.8 24.7867 213.267 25.72C213.734 26.6067 213.967 27.4933 213.967 28.38C213.967 29.2667 213.827 30.1533 213.547 31.04C213.314 31.9267 212.87 32.8367 212.217 33.77C212.777 34.47 213.057 35.0767 213.057 35.59C213.057 37.3167 212.754 39.58 212.147 42.38C211.587 45.1333 211.027 48.54 210.467 52.6C210.327 53.7667 209.907 54.35 209.207 54.35C208.647 54.35 208.157 54.07 207.737 53.51C207.364 52.9033 207.06 52.1567 206.827 51.27C206.64 50.3833 206.477 49.4967 206.337 48.61C206.244 47.7233 206.197 47 206.197 46.44C202.044 51.7133 198.194 54.35 194.647 54.35ZM194.367 48.54C195.86 48.54 197.47 47.8633 199.197 46.51C200.97 45.1567 202.627 43.3367 204.167 41.05C205.707 38.7167 206.827 36.1267 207.527 33.28C207.667 32.6267 208.064 32.1833 208.717 31.95C208.717 27.61 207.854 25.44 206.127 25.44C204.96 25.44 203.7 25.9533 202.347 26.98C200.994 27.96 199.664 29.2667 198.357 30.9C197.05 32.4867 195.837 34.2133 194.717 36.08C193.597 37.9467 192.71 39.7433 192.057 41.47C191.404 43.1967 191.077 44.6667 191.077 45.88C191.077 46.6733 191.404 47.3267 192.057 47.84C192.71 48.3067 193.48 48.54 194.367 48.54ZM230.82 54.35C228.58 54.35 226.48 53.9767 224.52 53.23C222.56 52.4367 220.973 51.48 219.76 50.36C218.546 49.24 217.94 48.2133 217.94 47.28C217.94 46.8133 218.056 46.37 218.29 45.95C218.57 45.53 218.943 45.32 219.41 45.32C220.11 45.32 220.833 45.6233 221.58 46.23C222.326 46.8367 223.306 47.4433 224.52 48.05C225.733 48.6567 227.366 48.96 229.42 48.96C231.893 48.96 233.783 48.68 235.09 48.12C236.443 47.5133 237.12 46.6267 237.12 45.46C237.12 44.3867 236.443 43.2667 235.09 42.1C233.783 40.9333 232.313 39.8833 230.68 38.95C229.093 38.0167 227.6 36.8733 226.2 35.52C224.846 34.1667 224.17 32.79 224.17 31.39C224.17 30.13 224.73 28.8233 225.85 27.47C226.97 26.1167 228.37 24.8567 230.05 23.69C231.73 22.4767 233.433 21.4967 235.16 20.75C236.933 20.0033 238.45 19.63 239.71 19.63C240.783 19.63 241.81 20.05 242.79 20.89C243.816 21.73 244.656 22.71 245.31 23.83C245.963 24.95 246.29 25.9533 246.29 26.84C246.29 27.6333 245.916 28.03 245.17 28.03C244.656 28.03 244.12 27.82 243.56 27.4C243 26.98 242.37 26.5833 241.67 26.21C241.016 25.79 240.293 25.58 239.5 25.58C238.94 25.58 238.17 25.7667 237.19 26.14C236.21 26.4667 235.206 26.9333 234.18 27.54C233.2 28.1467 232.36 28.8233 231.66 29.57C230.96 30.27 230.61 30.97 230.61 31.67C230.61 32.7433 232.756 34.5867 237.05 37.2C238.683 38.2267 240.153 39.5567 241.46 41.19C242.813 42.7767 243.49 44.48 243.49 46.3C243.49 47.5133 242.906 48.75 241.74 50.01C240.573 51.27 239.01 52.32 237.05 53.16C235.136 53.9533 233.06 54.35 230.82 54.35ZM260.974 54.35C258.548 54.35 256.401 53.86 254.534 52.88C252.714 51.8533 251.268 50.4767 250.194 48.75C249.168 47.0233 248.654 45.0633 248.654 42.87C248.654 41.0033 248.958 39.02 249.564 36.92C250.218 34.82 251.104 32.7667 252.224 30.76C253.391 28.7067 254.721 26.84 256.214 25.16C257.754 23.48 259.388 22.15 261.114 21.17C262.841 20.1433 264.638 19.63 266.504 19.63C267.904 19.63 269.234 20.0033 270.494 20.75C271.801 21.45 272.968 22.3833 273.994 23.55C275.068 24.7167 275.908 25.9767 276.514 27.33C277.121 28.6833 277.424 29.9667 277.424 31.18C277.424 32.72 276.981 34.0267 276.094 35.1C275.208 36.1733 274.064 37.06 272.664 37.76C271.264 38.4133 269.748 38.9033 268.114 39.23C266.528 39.51 265.034 39.65 263.634 39.65C260.601 39.65 257.754 39.2767 255.094 38.53C254.441 40.5833 254.114 42.4033 254.114 43.99C254.114 45.6233 254.604 46.8833 255.584 47.77C256.611 48.6567 258.291 49.1 260.624 49.1C262.304 49.1 263.938 48.89 265.524 48.47C267.111 48.05 268.464 47.6533 269.584 47.28C270.751 46.86 271.474 46.65 271.754 46.65C272.968 46.65 273.574 47.1167 273.574 48.05C273.574 48.6567 273.178 49.3333 272.384 50.08C271.591 50.8267 270.564 51.5267 269.304 52.18C268.044 52.7867 266.668 53.3 265.174 53.72C263.728 54.14 262.328 54.35 260.974 54.35ZM263.074 35.17C265.454 35.17 267.531 34.7967 269.304 34.05C271.078 33.2567 271.964 32.23 271.964 30.97C271.964 30.13 271.684 29.2667 271.124 28.38C270.611 27.4467 269.958 26.6767 269.164 26.07C268.371 25.4633 267.601 25.16 266.854 25.16C265.128 25.16 263.331 26.07 261.464 27.89C259.598 29.6633 258.011 31.88 256.704 34.54C258.571 34.96 260.694 35.17 263.074 35.17Z" fill="#3F3F46"/>
</g>
<defs>
<filter id="filter0_d_2026_4957" x="0.349976" y="0.0299683" width="281.074" height="62.46" filterUnits="userSpaceOnUse" color-interpolation-filters="sRGB">
<feFlood flood-opacity="0" result="BackgroundImageFix"/>
<feColorMatrix in="SourceAlpha" type="matrix" values="0 0 0 0 0 0 0 0 0 0 0 0 0 0 0 0 0 0 127 0" result="hardAlpha"/>
<feOffset dx="4" dy="8"/>
<feComposite in2="hardAlpha" operator="out"/>
<feColorMatrix type="matrix" values="0 0 0 0 0.996078 0 0 0 0 0.8 0 0 0 0 0.419608 0 0 0 1 0"/>
<feBlend mode="normal" in2="BackgroundImageFix" result="effect1_dropShadow_2026_4957"/>
<feBlend mode="normal" in="SourceGraphic" in2="effect1_dropShadow_2026_4957" result="shape"/>
</filter>
</defs>
</svg>
