<svg width="147" height="63" viewBox="0 0 147 63" fill="none" xmlns="http://www.w3.org/2000/svg">
<g filter="url(#filter0_d_4018_2163)">
<path d="M4.59067 25.6889C3.82534 25.6889 3.24667 25.5676 2.85467 25.3249C2.48134 25.1009 2.22934 24.8396 2.09867 24.5409C1.98667 24.2422 1.93067 24.0089 1.93067 23.8409C1.93067 23.2996 2.17334 22.8516 2.65867 22.4969C3.16267 22.1236 3.72267 21.9369 4.33867 21.9369C4.93601 21.9369 5.67334 21.8529 6.55067 21.6849C7.44667 21.4982 8.38934 21.2369 9.37867 20.9009C10.3867 20.5649 11.348 20.1449 12.2627 19.6409C13.196 19.1369 14.008 18.5582 14.6987 17.9049C15.3893 17.2516 15.8653 16.5329 16.1267 15.7489C15.716 15.6742 15.3053 15.6182 14.8947 15.5809C14.484 15.5249 14.0733 15.4969 13.6627 15.4969C12.2813 15.4969 10.8533 15.6462 9.37867 15.9449C7.90401 16.2436 6.43867 16.5329 4.98267 16.8129C4.62801 16.8876 4.31067 16.8222 4.03067 16.6169C3.99334 17.0089 3.95601 17.3729 3.91867 17.7089C3.90001 18.0262 3.88134 18.3716 3.86267 18.7449C3.82534 19.6596 3.74134 20.3689 3.61067 20.8729C3.49867 21.3582 3.36801 21.7036 3.21867 21.9089C3.06934 22.1142 2.91067 22.2356 2.74267 22.2729C2.57467 22.3102 2.41601 22.3289 2.26667 22.3289C2.21067 22.3289 2.17334 22.3289 2.15467 22.3289C1.81867 22.3289 1.50134 22.2449 1.20267 22.0769C0.904005 21.9089 0.661339 21.5636 0.474672 21.0409C0.288005 20.4996 0.194672 19.6876 0.194672 18.6049C0.194672 15.1702 0.568005 12.2582 1.31467 9.86891C2.08001 7.46091 3.17201 5.63157 4.59067 4.38091C6.02801 3.11157 7.74534 2.47691 9.74267 2.47691C11.3107 2.47691 12.5333 2.90624 13.4107 3.76491C14.288 4.60491 14.7267 5.81824 14.7267 7.40491C14.7267 8.20757 14.568 9.01024 14.2507 9.81291C13.9333 10.6156 13.4853 11.4089 12.9067 12.1929C13.2613 12.1182 13.6067 12.0622 13.9427 12.0249C14.2787 11.9689 14.596 11.9409 14.8947 11.9409C16.6493 11.9409 17.9467 12.2582 18.7867 12.8929C19.6267 13.5089 20.0467 14.3396 20.0467 15.3849C20.0467 16.4302 19.748 17.4102 19.1507 18.3249C18.572 19.2396 17.7973 20.0796 16.8267 20.8449C15.8747 21.5916 14.82 22.2729 13.6627 22.8889C12.5053 23.4862 11.348 23.9996 10.1907 24.4289C9.03334 24.8396 7.96001 25.1476 6.97067 25.3529C5.98134 25.5769 5.18801 25.6889 4.59067 25.6889ZM4.36667 13.7329C4.47867 13.6769 4.60001 13.6396 4.73067 13.6209C6.41067 13.3409 7.69867 12.9582 8.59467 12.4729C9.49067 11.9876 10.1067 11.3809 10.4427 10.6529C10.7787 9.92491 10.9467 9.05691 10.9467 8.04891C10.9467 7.78757 10.9093 7.50757 10.8347 7.20891C10.76 6.91024 10.6107 6.65824 10.3867 6.45291C10.1813 6.22891 9.86401 6.11691 9.43467 6.11691C8.01601 6.11691 6.90534 6.76091 6.10267 8.04891C5.31867 9.31824 4.74001 11.2129 4.36667 13.7329ZM26.0295 25.7449C25.4322 25.7449 24.8908 25.5769 24.4055 25.2409C23.9202 24.9236 23.5375 24.5036 23.2575 23.9809C22.9775 23.4396 22.8375 22.8609 22.8375 22.2449C22.8375 21.0876 23.0895 19.9582 23.5935 18.8569C24.1162 17.7556 24.7975 16.7102 25.6375 15.7209C26.4775 14.7316 27.3922 13.8262 28.3815 13.0049C29.3895 12.1649 30.3882 11.4462 31.3775 10.8489C32.3855 10.2516 33.3002 9.78491 34.1215 9.44891C34.9615 9.11291 35.6148 8.94491 36.0815 8.94491C36.6228 8.94491 37.0615 9.06624 37.3975 9.30891C37.7522 9.53291 37.9295 9.88757 37.9295 10.3729C37.9295 10.5222 37.8922 10.6436 37.8175 10.7369C38.0602 10.7929 38.2562 10.9329 38.4055 11.1569C38.5548 11.3809 38.6295 11.7169 38.6295 12.1649C38.6295 12.3516 38.5828 12.8369 38.4895 13.6209C38.3962 14.4049 38.2935 15.3569 38.1815 16.4769C38.0882 17.5969 38.0415 18.7636 38.0415 19.9769C38.0415 20.1636 38.0695 20.3316 38.1255 20.4809C38.1815 20.6116 38.3028 20.6769 38.4895 20.6769C39.2362 20.6769 39.9922 20.5276 40.7575 20.2289C41.5415 19.9116 42.2975 19.5289 43.0255 19.0809C43.7722 18.6142 44.4442 18.1569 45.0415 17.7089C45.6575 17.2422 46.1708 16.8596 46.5815 16.5609C47.0108 16.2436 47.2908 16.0849 47.4215 16.0849C48.0562 16.0849 48.3735 16.4022 48.3735 17.0369C48.3735 17.2049 48.1682 17.5596 47.7575 18.1009C47.3655 18.6236 46.8242 19.2302 46.1335 19.9209C45.4428 20.5929 44.6682 21.2649 43.8095 21.9369C42.9695 22.5902 42.0922 23.1316 41.1775 23.5609C40.2815 23.9902 39.4135 24.2049 38.5735 24.2049C37.5468 24.2049 36.7628 23.9622 36.2215 23.4769C35.6988 22.9916 35.3255 22.3382 35.1015 21.5169C34.8962 20.6769 34.7842 19.7342 34.7655 18.6889C33.8135 20.0516 32.8242 21.2649 31.7975 22.3289C30.7895 23.3742 29.7908 24.2049 28.8015 24.8209C27.8122 25.4369 26.8882 25.7449 26.0295 25.7449ZM35.9415 11.7169C34.1122 12.5942 32.4695 13.6022 31.0135 14.7409C29.5575 15.8609 28.4002 17.0369 27.5415 18.2689C26.7015 19.5009 26.2815 20.6862 26.2815 21.8249C26.2815 22.1422 26.4308 22.3009 26.7295 22.3009C27.0842 22.3009 27.5508 22.0956 28.1295 21.6849C28.7268 21.2742 29.3708 20.7329 30.0615 20.0609C30.7522 19.3702 31.4428 18.6049 32.1335 17.7649C32.8242 16.9062 33.4682 16.0289 34.0655 15.1329C34.6628 14.2369 35.1388 13.3782 35.4935 12.5569C35.6242 12.2582 35.7735 11.9782 35.9415 11.7169ZM48.7198 26.1089C47.9171 26.1089 47.3478 25.9969 47.0118 25.7729C46.6944 25.5489 46.5358 25.2222 46.5358 24.7929C46.5358 24.4196 46.6664 24.1022 46.9278 23.8409C47.1891 23.5609 47.7678 23.2809 48.6638 23.0009C49.7091 22.6836 50.6984 22.3196 51.6318 21.9089C52.5838 21.4796 53.3584 21.0129 53.9558 20.5089C54.5718 20.0049 54.8798 19.4729 54.8798 18.9129C54.8798 18.5396 54.7491 18.2689 54.4878 18.1009C54.2451 17.9329 53.9558 17.8489 53.6198 17.8489C53.3398 17.8489 52.9291 17.8956 52.3878 17.9889C51.8651 18.0636 51.2864 18.1662 50.6518 18.2969C50.0171 18.4089 49.4011 18.5116 48.8038 18.6049C48.2251 18.6796 47.7304 18.7169 47.3198 18.7169C46.3491 18.7169 45.6304 18.5022 45.1638 18.0729C44.6971 17.6249 44.4638 17.0556 44.4638 16.3649C44.4638 15.9916 44.6598 15.4782 45.0518 14.8249C45.4438 14.1716 45.9664 13.4529 46.6198 12.6689C47.2731 11.8849 48.0011 11.1009 48.8038 10.3169C49.6064 9.53291 50.4184 8.81424 51.2398 8.16091C52.0798 7.48891 52.8731 6.95691 53.6198 6.56491C54.3664 6.15424 55.0011 5.94891 55.5238 5.94891C56.1211 5.94891 56.5971 6.13557 56.9518 6.50891C57.3251 6.88224 57.5118 7.38624 57.5118 8.02091C57.5118 8.31957 57.4838 8.64624 57.4278 9.00091C57.3718 9.33691 57.2318 9.64491 57.0078 9.92491C56.7838 10.1862 56.4384 10.3729 55.9718 10.4849C55.5051 10.5969 54.8704 10.5782 54.0678 10.4289C53.4331 10.8956 52.7704 11.4089 52.0798 11.9689C51.4078 12.5102 50.7731 13.0796 50.1758 13.6769C49.5784 14.2556 49.0838 14.8249 48.6918 15.3849C49.3824 15.1609 50.1664 14.9836 51.0438 14.8529C51.9211 14.7036 52.8078 14.6289 53.7038 14.6289C54.7864 14.6289 55.6638 14.8249 56.3358 15.2169C57.0264 15.5902 57.5304 16.0942 57.8478 16.7289C58.1838 17.3636 58.3518 18.0636 58.3518 18.8289C58.3518 19.6876 58.0718 20.5462 57.5118 21.4049C56.9518 22.2636 56.2051 23.0476 55.2718 23.7569C54.3384 24.4662 53.3024 25.0356 52.1638 25.4649C51.0251 25.8942 49.8771 26.1089 48.7198 26.1089ZM65.6725 25.6329C64.5151 25.6329 63.5818 25.2316 62.8725 24.4289C62.1631 23.6076 61.8085 22.2916 61.8085 20.4809C61.8085 19.3236 61.9391 18.1662 62.2005 17.0089C62.4805 15.8329 62.8631 14.7222 63.3485 13.6769C63.8525 12.6129 64.4311 11.6702 65.0845 10.8489C65.7565 10.0276 66.4938 9.38357 67.2965 8.91691C68.0991 8.43157 68.9298 8.18891 69.7885 8.18891C71.2445 8.18891 72.3831 8.58091 73.2045 9.36491C74.0258 10.1489 74.4365 11.1476 74.4365 12.3609C74.4365 13.2942 74.1751 14.1436 73.6525 14.9089C73.1485 15.6556 72.4578 16.3276 71.5805 16.9249C70.7031 17.5222 69.7231 18.0636 68.6405 18.5489C67.5578 19.0342 66.4471 19.4729 65.3085 19.8649C65.2151 20.5369 65.1685 21.1342 65.1685 21.6569C65.1685 21.9742 65.3458 22.1329 65.7005 22.1329C66.5405 22.1329 67.4365 22.0022 68.3885 21.7409C69.3591 21.4609 70.3391 21.1062 71.3285 20.6769C72.3178 20.2289 73.2698 19.7716 74.1845 19.3049C75.0991 18.8196 75.9298 18.3622 76.6765 17.9329C77.4418 17.4849 78.0671 17.1302 78.5525 16.8689C79.0565 16.5889 79.3831 16.4489 79.5325 16.4489C79.9431 16.4489 80.2418 16.5702 80.4285 16.8129C80.6151 17.0556 80.7085 17.3169 80.7085 17.5969C80.7085 17.7276 80.4565 18.0169 79.9525 18.4649C79.4671 18.9129 78.7951 19.4449 77.9365 20.0609C77.0965 20.6582 76.1445 21.2836 75.0805 21.9369C74.0351 22.5716 72.9431 23.1782 71.8045 23.7569C70.6845 24.3169 69.5925 24.7649 68.5285 25.1009C67.4831 25.4556 66.5311 25.6329 65.6725 25.6329ZM65.7845 17.3729C66.5498 16.9249 67.3058 16.4582 68.0525 15.9729C68.8178 15.4689 69.4525 14.9089 69.9565 14.2929C70.4605 13.6582 70.7125 12.9209 70.7125 12.0809C70.7125 11.8382 70.6471 11.6796 70.5165 11.6049C70.3858 11.5116 70.1991 11.4649 69.9565 11.4649C69.3031 11.4649 68.7058 11.7542 68.1645 12.3329C67.6418 12.9116 67.1751 13.6582 66.7645 14.5729C66.3725 15.4689 66.0458 16.4022 65.7845 17.3729ZM90.7598 9.70091C91.7865 7.25557 92.6918 4.73557 93.4758 2.14091C93.6251 1.61824 93.8398 1.21691 94.1198 0.936907C94.4185 0.656907 94.8291 0.516907 95.3518 0.516907C95.7811 0.516907 96.1078 0.647574 96.3318 0.908907C96.5558 1.15157 96.6678 1.48757 96.6678 1.91691C96.6678 2.27157 96.5185 2.90624 96.2198 3.82091C95.9211 4.71691 95.5571 5.85557 95.1278 7.23691C94.6985 8.61824 94.2691 10.2142 93.8398 12.0249C93.4105 13.8356 93.0465 15.8236 92.7478 17.9889C92.4491 20.1542 92.2998 22.4689 92.2998 24.9329C92.2998 25.6049 92.1691 26.1556 91.9078 26.5849C91.6651 27.0329 91.2358 27.2569 90.6198 27.2569C89.9478 27.2569 89.4531 27.0236 89.1358 26.5569C88.8371 26.0902 88.6878 25.4929 88.6878 24.7649C88.6878 23.3276 88.7345 22.1329 88.8278 21.1809C88.9398 20.2102 89.0518 19.3796 89.1638 18.6889C88.2491 20.2569 87.2785 21.6102 86.2518 22.7489C85.2438 23.8689 84.2731 24.7276 83.3398 25.3249C82.4065 25.9409 81.6038 26.2489 80.9318 26.2489C79.8305 26.2489 78.9345 25.9409 78.2438 25.3249C77.5531 24.7089 77.2078 23.7756 77.2078 22.5249C77.2078 21.5542 77.4411 20.5556 77.9078 19.5289C78.3745 18.4836 78.9905 17.4569 79.7558 16.4489C80.5211 15.4409 81.3611 14.4982 82.2758 13.6209C83.2091 12.7249 84.1425 11.9409 85.0758 11.2689C86.0091 10.5782 86.8771 10.0369 87.6798 9.64491C88.4825 9.25291 89.1358 9.05691 89.6398 9.05691C90.1998 9.05691 90.5731 9.27157 90.7598 9.70091ZM90.1158 11.2129C90.0038 11.2876 89.8825 11.3622 89.7518 11.4369C89.6398 11.4929 89.5278 11.5582 89.4158 11.6329C88.7065 12.0809 87.9505 12.6222 87.1478 13.2569C86.3451 13.8729 85.5518 14.5636 84.7678 15.3289C83.9838 16.0756 83.2651 16.8596 82.6118 17.6809C81.9771 18.4836 81.4638 19.2862 81.0718 20.0889C80.6985 20.8729 80.5118 21.6289 80.5118 22.3569C80.5118 22.4876 80.5678 22.5809 80.6798 22.6369C80.7918 22.6929 80.8945 22.7209 80.9878 22.7209C81.6411 22.7209 82.3411 22.4316 83.0878 21.8529C83.8531 21.2742 84.6278 20.4716 85.4118 19.4449C86.2145 18.3996 87.0078 17.1769 87.7918 15.7769C88.5945 14.3769 89.3691 12.8556 90.1158 11.2129ZM130.745 26.1089C130.017 26.1089 129.485 25.9129 129.149 25.5209C128.813 25.1476 128.645 24.3916 128.645 23.2529C128.645 22.2822 128.804 21.0222 129.121 19.4729C129.439 17.9236 129.793 16.2529 130.185 14.4609C128.113 16.7756 125.724 18.2502 123.017 18.8849C122.476 20.0049 121.841 21.0316 121.113 21.9649C120.385 22.8982 119.592 23.6542 118.733 24.2329C117.893 24.7929 117.016 25.0729 116.101 25.0729C114.963 25.0729 113.983 24.6996 113.161 23.9529C112.359 23.2062 111.957 22.0582 111.957 20.5089C111.957 19.4636 112.116 18.5769 112.433 17.8489C112.751 17.1022 113.115 16.5422 113.525 16.1689C113.189 15.4596 113.021 14.6476 113.021 13.7329C113.021 12.5009 113.357 11.4089 114.029 10.4569C114.701 9.50491 115.588 8.75824 116.689 8.21691C117.809 7.67557 119.023 7.40491 120.329 7.40491C121.057 7.40491 121.748 7.59157 122.401 7.96491C123.073 8.31957 123.615 8.87024 124.025 9.61691C124.455 10.3449 124.669 11.2689 124.669 12.3889C124.669 13.3222 124.529 14.3489 124.249 15.4689C125.575 14.6849 126.881 13.6116 128.169 12.2489C129.476 10.8862 130.643 9.35557 131.669 7.65691C131.987 7.15291 132.435 6.90091 133.013 6.90091C133.499 6.90091 133.881 7.05024 134.161 7.34891C134.46 7.62891 134.609 8.00224 134.609 8.46891C134.609 8.56224 134.553 8.87024 134.441 9.39291C134.329 9.91557 134.18 10.5969 133.993 11.4369C133.807 12.2582 133.601 13.1636 133.377 14.1529C133.172 15.1422 132.967 16.1502 132.761 17.1769C132.556 18.2036 132.369 19.1742 132.201 20.0889C132.687 19.2116 133.209 18.2782 133.769 17.2889C134.348 16.2809 134.945 15.2916 135.561 14.3209C136.177 13.3316 136.784 12.4356 137.381 11.6329C137.979 10.8302 138.529 10.1956 139.033 9.72891C139.537 9.24357 139.967 9.00091 140.321 9.00091C141.031 9.00091 141.628 9.20624 142.113 9.61691C142.599 10.0276 142.841 10.4476 142.841 10.8769C142.841 11.3062 142.795 11.9689 142.701 12.8649C142.608 13.7609 142.487 14.7689 142.337 15.8889C142.207 16.9902 142.067 18.1009 141.917 19.2209C141.768 20.3409 141.647 21.3582 141.553 22.2729C141.46 23.1689 141.413 23.8409 141.413 24.2889C141.413 24.6622 141.236 25.0169 140.881 25.3529C140.527 25.6889 140.125 25.8569 139.677 25.8569C139.64 25.8569 139.575 25.8569 139.481 25.8569C139.257 25.8756 139.052 25.8382 138.865 25.7449C138.679 25.6702 138.52 25.3902 138.389 24.9049C138.277 24.4196 138.221 23.5982 138.221 22.4409C138.221 21.6569 138.259 20.7982 138.333 19.8649C138.408 18.9316 138.501 17.9982 138.613 17.0649C138.744 16.1129 138.884 15.2262 139.033 14.4049C138.548 15.2076 138.007 16.1222 137.409 17.1489C136.831 18.1569 136.224 19.1929 135.589 20.2569C134.955 21.3022 134.329 22.2729 133.713 23.1689C133.116 24.0462 132.556 24.7556 132.033 25.2969C131.529 25.8382 131.1 26.1089 130.745 26.1089ZM120.217 16.7569C120.46 16.0289 120.656 15.2729 120.805 14.4889C120.955 13.6862 121.029 12.9022 121.029 12.1369C121.029 11.8196 120.964 11.5116 120.833 11.2129C120.703 10.9142 120.479 10.7649 120.161 10.7649C119.527 10.7649 118.901 10.8956 118.285 11.1569C117.688 11.4182 117.193 11.7916 116.801 12.2769C116.409 12.7622 116.213 13.3409 116.213 14.0129C116.213 14.6102 116.409 15.1142 116.801 15.5249C117.212 15.9356 117.716 16.2436 118.313 16.4489C118.929 16.6542 119.536 16.7569 120.133 16.7569C120.152 16.7569 120.18 16.7569 120.217 16.7569ZM119.069 19.2209C118.416 19.2022 117.781 19.1182 117.165 18.9689C116.549 18.8009 115.989 18.5676 115.485 18.2689C115.429 18.5676 115.373 18.8569 115.317 19.1369C115.261 19.3982 115.233 19.6502 115.233 19.8929C115.233 20.3036 115.299 20.6769 115.429 21.0129C115.579 21.3302 115.877 21.4889 116.325 21.4889C116.792 21.4889 117.259 21.2836 117.725 20.8729C118.211 20.4622 118.659 19.9116 119.069 19.2209ZM32.0478 52.6809C30.9278 52.6809 29.8638 52.4382 28.8558 51.9529C27.8665 51.4489 27.0545 50.7396 26.4198 49.8249C25.8038 48.8916 25.4958 47.7996 25.4958 46.5489C25.4958 45.3169 25.7572 44.0942 26.2798 42.8809C26.8025 41.6489 27.4838 40.4636 28.3238 39.3249C29.1825 38.1676 30.1065 37.0942 31.0958 36.1049C32.1038 35.1156 33.0838 34.2569 34.0358 33.5289C35.0065 32.7822 35.8652 32.2036 36.6118 31.7929C37.3772 31.3636 37.9372 31.1489 38.2918 31.1489C38.6652 31.1489 39.0478 31.3076 39.4398 31.6249C39.8318 31.9422 40.0372 32.3996 40.0558 32.9969C40.0558 33.2582 39.9812 33.5569 39.8318 33.8929C39.6825 34.2289 39.3372 34.5649 38.7958 34.9009C38.3292 35.1809 37.7038 35.5916 36.9198 36.1329C36.1545 36.6742 35.3425 37.3089 34.4838 38.0369C33.6252 38.7649 32.8038 39.5769 32.0198 40.4729C31.2545 41.3502 30.6292 42.2836 30.1438 43.2729C29.6585 44.2622 29.4158 45.2796 29.4158 46.3249C29.4158 47.1836 29.6678 47.8369 30.1718 48.2849C30.6758 48.7142 31.3572 48.9289 32.2158 48.9289C32.8132 48.9289 33.5225 48.7609 34.3438 48.4249C35.1838 48.0889 36.0425 47.6596 36.9198 47.1369C37.7972 46.5956 38.5998 46.0169 39.3278 45.4009C40.0745 44.7849 40.6532 44.1969 41.0638 43.6369C40.3545 43.7862 39.5705 43.9542 38.7118 44.1409C37.8718 44.3089 37.0878 44.4582 36.3598 44.5889C35.6318 44.7009 35.1092 44.7569 34.7918 44.7569C34.2318 44.7569 33.7652 44.6449 33.3918 44.4209C33.0185 44.1969 32.7385 43.9356 32.5518 43.6369C32.3652 43.3196 32.2718 43.0209 32.2718 42.7409C32.2718 42.4236 32.3932 42.0969 32.6358 41.7609C32.8785 41.4249 33.2985 41.2102 33.8958 41.1169C34.2878 41.0609 34.8198 40.9769 35.4918 40.8649C36.1638 40.7342 36.8638 40.6129 37.5918 40.5009C38.3385 40.3702 39.0198 40.2582 39.6358 40.1649C40.2705 40.0716 40.7465 40.0249 41.0638 40.0249C43.4158 40.0249 44.5918 41.3409 44.5918 43.9729C44.5918 44.4769 44.3305 45.1022 43.8078 45.8489C43.2852 46.5769 42.5758 47.3422 41.6798 48.1449C40.8025 48.9289 39.8132 49.6662 38.7118 50.3569C37.6105 51.0476 36.4812 51.6076 35.3238 52.0369C34.1852 52.4662 33.0932 52.6809 32.0478 52.6809ZM63.2646 45.5689C62.1819 45.5689 61.1179 45.4382 60.0726 45.1769C59.0459 44.9156 58.0752 44.5796 57.1606 44.1689C56.7499 45.8489 56.3952 47.6876 56.0966 49.6849C56.0219 50.2449 55.9099 50.7582 55.7606 51.2249C55.6112 51.6729 55.3779 52.0369 55.0606 52.3169C54.7432 52.5969 54.2766 52.7369 53.6606 52.7369C53.0819 52.7369 52.6992 52.5129 52.5126 52.0649C52.3259 51.6169 52.2326 51.0662 52.2326 50.4129C52.2326 50.2076 52.3072 49.6756 52.4566 48.8169C52.6059 47.9582 52.7926 46.9222 53.0166 45.7089C53.2406 44.4769 53.4739 43.2076 53.7166 41.9009C52.9512 41.1356 52.5686 40.4356 52.5686 39.8009C52.5686 39.4836 52.6619 39.1849 52.8486 38.9049C53.0539 38.6062 53.4459 38.4569 54.0246 38.4569C54.0992 38.4569 54.2019 38.4849 54.3326 38.5409C54.5192 37.4956 54.6779 36.5622 54.8086 35.7409C54.9579 34.9009 55.0419 34.2942 55.0606 33.9209C55.0979 33.2116 55.2099 32.6889 55.3966 32.3529C55.5832 31.9982 55.8166 31.7649 56.0966 31.6529C56.3952 31.5222 56.6939 31.4569 56.9926 31.4569C57.3846 31.4569 57.6832 31.5409 57.8886 31.7089C58.0939 31.8769 58.1966 32.2502 58.1966 32.8289C58.1966 33.3889 58.1872 33.9022 58.1686 34.3689C59.0832 32.8009 60.0352 31.6996 61.0246 31.0649C62.0139 30.4116 63.0966 30.0849 64.2726 30.0849C65.4299 30.0849 66.4379 30.4022 67.2966 31.0369C68.1552 31.6716 68.8179 32.5862 69.2846 33.7809C69.7699 34.9569 70.0126 36.3756 70.0126 38.0369C70.0126 40.5756 69.4246 42.4702 68.2486 43.7209C67.0912 44.9529 65.4299 45.5689 63.2646 45.5689ZM58.1126 40.8649C58.8032 41.2382 59.5406 41.5649 60.3246 41.8449C61.1086 42.1062 61.9112 42.2369 62.7326 42.2369C64.0579 42.2369 65.0286 41.8916 65.6446 41.2009C66.2792 40.5102 66.5966 39.3716 66.5966 37.7849C66.5966 34.9662 65.7472 33.5569 64.0486 33.5569C62.9659 33.5569 61.9112 34.1636 60.8846 35.3769C59.8766 36.5902 58.9526 38.4196 58.1126 40.8649ZM78.1982 35.6289C77.3022 35.6289 76.6395 35.5449 76.2102 35.3769C75.7995 35.1902 75.5289 34.9756 75.3982 34.7329C75.2862 34.4716 75.2302 34.2382 75.2302 34.0329C75.2302 33.7716 75.3795 33.4729 75.6782 33.1369C75.9769 32.7822 76.5555 32.5209 77.4142 32.3529C78.2729 32.1662 79.2902 31.9982 80.4662 31.8489C81.6422 31.6809 82.8929 31.5409 84.2182 31.4289C85.5435 31.2982 86.8875 31.1862 88.2502 31.0929C89.6129 30.9996 90.9102 30.9342 92.1422 30.8969C93.3742 30.8409 94.4662 30.8129 95.4182 30.8129C96.4075 30.8129 97.1729 30.8689 97.7142 30.9809C98.2555 31.0929 98.6382 31.2329 98.8622 31.4009C99.1049 31.5689 99.2449 31.7462 99.2822 31.9329C99.3382 32.1196 99.3662 32.2969 99.3662 32.4649C99.3662 32.5022 99.3662 32.5302 99.3662 32.5489C99.3662 32.7729 99.3102 33.0156 99.1982 33.2769C99.1049 33.5382 98.8902 33.7622 98.5542 33.9489C98.2182 34.1169 97.7142 34.2009 97.0422 34.2009C96.7995 34.2009 96.2582 34.2382 95.4182 34.3129C94.5782 34.3876 93.5515 34.4809 92.3382 34.5929C91.1249 34.7049 89.8369 34.8169 88.4742 34.9289C88.2689 35.7689 88.0355 36.7489 87.7742 37.8689C87.5315 38.9889 87.2795 40.1649 87.0182 41.3969C86.7755 42.6289 86.5422 43.8422 86.3182 45.0369C86.0942 46.2129 85.9075 47.3049 85.7582 48.3129C85.6089 49.3022 85.5062 50.1142 85.4502 50.7489C85.3755 51.6076 85.1235 52.2142 84.6942 52.5689C84.2835 52.9049 83.8729 53.0729 83.4622 53.0729C83.1635 53.0729 82.8649 53.0076 82.5662 52.8769C82.2675 52.7649 82.0249 52.5129 81.8382 52.1209C81.6515 51.7102 81.5582 51.1036 81.5582 50.3009C81.5582 49.4796 81.6329 48.4716 81.7822 47.2769C81.9315 46.0636 82.1275 44.7662 82.3702 43.3849C82.6315 42.0036 82.9209 40.6129 83.2382 39.2129C83.5742 37.8129 83.9195 36.5062 84.2742 35.2929C83.0235 35.3862 81.8662 35.4702 80.8022 35.5449C79.7382 35.6009 78.8702 35.6289 78.1982 35.6289ZM108.663 54.8649C108.01 54.8649 107.534 54.6409 107.235 54.1929C106.955 53.7636 106.815 53.2036 106.815 52.5129C106.815 51.7662 106.871 51.1036 106.983 50.5249C107.114 49.9462 107.263 49.3582 107.431 48.7609C106.516 48.8356 105.592 48.9102 104.659 48.9849C103.726 49.0409 102.792 49.0876 101.859 49.1249C101.523 49.3862 101.168 49.5916 100.795 49.7409C100.422 49.8902 99.9924 49.9649 99.5071 49.9649C98.7977 49.9649 98.2377 49.8156 97.8271 49.5169C97.4164 49.2182 97.2111 48.7422 97.2111 48.0889C97.2111 47.3422 97.4351 46.7916 97.8831 46.4369C98.3497 46.0636 98.9377 45.8022 99.6471 45.6529C100.58 44.5142 101.598 43.3756 102.699 42.2369C103.8 41.0982 104.892 39.9689 105.975 38.8489C107.058 37.7289 108.028 36.6276 108.887 35.5449C109.764 34.4436 110.427 33.3702 110.875 32.3249C111.099 31.8022 111.407 31.4382 111.799 31.2329C112.21 31.0089 112.648 30.8969 113.115 30.8969C113.768 30.8969 114.207 31.1489 114.431 31.6529C114.674 32.1569 114.795 32.7636 114.795 33.4729C114.795 33.6409 114.73 34.0702 114.599 34.7609C114.468 35.4329 114.282 36.3009 114.039 37.3649C113.815 38.4102 113.554 39.5769 113.255 40.8649C112.975 42.1342 112.686 43.4502 112.387 44.8129C113.619 44.6822 114.683 44.5796 115.579 44.5049C116.475 44.4116 117.044 44.3649 117.287 44.3649C117.828 44.3649 118.267 44.4209 118.603 44.5329C118.939 44.6449 119.107 44.9249 119.107 45.3729C119.107 45.7836 118.846 46.1289 118.323 46.4089C117.819 46.6702 117.268 46.9036 116.671 47.1089C116.074 47.3142 115.355 47.5196 114.515 47.7249C113.675 47.9302 112.695 48.1169 111.575 48.2849C111.388 49.0502 111.202 49.7782 111.015 50.4689C110.828 51.1596 110.651 51.9529 110.483 52.8489C110.352 53.4462 110.156 53.9316 109.895 54.3049C109.652 54.6782 109.242 54.8649 108.663 54.8649ZM109.671 39.4369C108.756 40.5569 107.804 41.6769 106.815 42.7969C105.844 43.8982 104.911 44.8969 104.015 45.7929C104.706 45.6996 105.406 45.6156 106.115 45.5409C106.843 45.4662 107.571 45.3916 108.299 45.3169L109.671 39.4369Z" fill="#FFA700"/>
</g>
<defs>
<filter id="filter0_d_4018_2163" x="0.19458" y="0.516907" width="146.647" height="62.348" filterUnits="userSpaceOnUse" color-interpolation-filters="sRGB">
<feFlood flood-opacity="0" result="BackgroundImageFix"/>
<feColorMatrix in="SourceAlpha" type="matrix" values="0 0 0 0 0 0 0 0 0 0 0 0 0 0 0 0 0 0 127 0" result="hardAlpha"/>
<feOffset dx="4" dy="8"/>
<feComposite in2="hardAlpha" operator="out"/>
<feColorMatrix type="matrix" values="0 0 0 0 0 0 0 0 0 0 0 0 0 0 0 0 0 0 1 0"/>
<feBlend mode="normal" in2="BackgroundImageFix" result="effect1_dropShadow_4018_2163"/>
<feBlend mode="normal" in="SourceGraphic" in2="effect1_dropShadow_4018_2163" result="shape"/>
</filter>
</defs>
</svg>
