<svg width="168" height="30" viewBox="0 0 168 30" fill="none" xmlns="http://www.w3.org/2000/svg">
<path d="M8.36 28.87C7.42667 28.87 6.49333 28.6567 5.56 28.23C4.65333 27.7767 3.82667 27.19 3.08 26.47C2.33333 25.7233 1.73333 24.8833 1.28 23.95C0.826667 23.0167 0.6 22.07 0.6 21.11C0.6 19.5367 0.92 17.8433 1.56 16.03C2.2 14.19 3.06667 12.39 4.16 10.63C5.28 8.87 6.53333 7.27 7.92 5.83C9.33333 4.36333 10.8 3.19 12.32 2.31C13.84 1.43 15.3333 0.99 16.8 0.99C17.3067 0.99 17.8 1.20333 18.28 1.63C18.7867 2.05666 19.2 2.57666 19.52 3.19C19.8667 3.77666 20.04 4.31 20.04 4.79C20.04 5.16333 19.8933 5.35 19.6 5.35C19.3333 5.35 19 5.25667 18.6 5.07C18.2 4.85667 17.6933 4.75 17.08 4.75C16.1467 4.75 15.1067 5.11 13.96 5.83C12.8133 6.55 11.6667 7.51 10.52 8.71C9.4 9.88333 8.37333 11.19 7.44 12.63C6.50667 14.0433 5.74667 15.4833 5.16 16.95C4.6 18.39 4.32 19.71 4.32 20.91C4.32 22.3767 4.69333 23.4567 5.44 24.15C6.21333 24.8167 7.21333 25.15 8.44 25.15C9.8 25.15 11.0667 24.9767 12.24 24.63C13.44 24.2833 14.4933 23.8833 15.4 23.43C16.3333 22.95 17.0933 22.5367 17.68 22.19C18.2933 21.8433 18.72 21.67 18.96 21.67C19.36 21.67 19.56 21.87 19.56 22.27C19.56 22.7233 19.28 23.3233 18.72 24.07C18.1867 24.79 17.4267 25.5233 16.44 26.27C15.4533 26.99 14.2667 27.6033 12.88 28.11C11.52 28.6167 10.0133 28.87 8.36 28.87ZM30.7053 28.87C29.8253 28.87 28.9853 28.63 28.1853 28.15C27.412 27.67 26.7053 27.0433 26.0653 26.27C25.452 25.4967 24.972 24.6433 24.6253 23.71C24.2786 22.7767 24.1053 21.87 24.1053 20.99C24.1053 19.07 24.3853 17.15 24.9453 15.23C25.5053 13.2833 26.252 11.4433 27.1853 9.71C28.1453 7.95 29.212 6.40333 30.3853 5.07C31.5853 3.71 32.812 2.64333 34.0653 1.87C35.3453 1.07 36.5853 0.669999 37.7853 0.669999C39.2786 0.669999 40.612 1.15 41.7853 2.11C42.9853 3.04333 43.9186 4.27 44.5853 5.79C45.2786 7.31 45.6253 8.92333 45.6253 10.63C45.6253 12.15 45.3453 13.75 44.7853 15.43C44.252 17.11 43.5053 18.75 42.5453 20.35C41.612 21.9233 40.5053 23.3633 39.2253 24.67C37.972 25.95 36.612 26.9767 35.1453 27.75C33.7053 28.4967 32.2253 28.87 30.7053 28.87ZM30.9453 25.71C31.8253 25.71 32.7586 25.4033 33.7453 24.79C34.7586 24.15 35.7453 23.31 36.7053 22.27C37.6653 21.2033 38.5453 20.03 39.3453 18.75C40.1453 17.4433 40.772 16.1233 41.2253 14.79C41.7053 13.43 41.9453 12.1633 41.9453 10.99C41.9453 8.93667 41.5453 7.27 40.7453 5.99C39.972 4.71 39.052 4.07 37.9853 4.07C37.1586 4.07 36.2786 4.44333 35.3453 5.19C34.4386 5.93666 33.532 6.92333 32.6253 8.15C31.7186 9.35 30.892 10.6967 30.1453 12.19C29.4253 13.6567 28.8386 15.1367 28.3853 16.63C27.9586 18.1233 27.7453 19.4967 27.7453 20.75C27.7453 22.2167 28.0653 23.4167 28.7053 24.35C29.3453 25.2567 30.092 25.71 30.9453 25.71ZM50.4366 28.87C49.9832 28.87 49.5566 28.5633 49.1566 27.95C48.7832 27.31 48.5966 26.67 48.5966 26.03C48.5966 25.6567 48.7166 24.91 48.9566 23.79C49.2232 22.67 49.5566 21.3233 49.9566 19.75C50.3566 18.1767 50.7832 16.51 51.2366 14.75C51.6899 12.99 52.1166 11.27 52.5166 9.59C52.9166 7.91 53.2366 6.40333 53.4766 5.07C53.7432 3.73667 53.8766 2.71 53.8766 1.99C53.8766 1.13667 54.1032 0.709999 54.5566 0.709999C54.8499 0.709999 55.2499 0.963332 55.7566 1.47C56.2899 1.95 56.6766 2.48333 56.9166 3.07C61.2099 14.2167 63.9299 21.0433 65.0766 23.55C65.5832 22.19 66.0366 20.6967 66.4366 19.07C66.8632 17.4167 67.2232 15.7367 67.5166 14.03C67.8366 12.3233 68.1032 10.6967 68.3166 9.15C68.5299 7.57667 68.6899 6.20333 68.7966 5.03C68.9032 3.83 68.9566 2.93667 68.9566 2.35C68.9566 1.20333 69.2366 0.63 69.7966 0.63C70.1166 0.63 70.4632 0.789999 70.8366 1.11C71.2366 1.40333 71.5699 1.76333 71.8366 2.19C72.1299 2.61667 72.2766 3.04333 72.2766 3.47C72.2766 3.97667 72.2099 4.81667 72.0766 5.99C71.9699 7.13667 71.8099 8.49667 71.5966 10.07C71.3832 11.6167 71.1166 13.2567 70.7966 14.99C70.4766 16.6967 70.1166 18.3767 69.7166 20.03C69.3432 21.6567 68.9166 23.1367 68.4366 24.47C67.9832 25.8033 67.4899 26.87 66.9566 27.67C66.4232 28.47 65.8766 28.87 65.3166 28.87C64.6499 28.87 64.0099 28.39 63.3966 27.43C62.8099 26.4433 62.1699 25.0833 61.4766 23.35C60.8099 21.59 60.0366 19.5233 59.1566 17.15C58.3032 14.75 57.2632 12.1367 56.0366 9.31C55.2899 11.95 54.6366 14.4567 54.0766 16.83C53.5432 19.1767 53.0632 21.2567 52.6366 23.07C52.2366 24.8833 51.8632 26.31 51.5166 27.35C51.1699 28.3633 50.8099 28.87 50.4366 28.87ZM82.3069 28.79C82.0402 28.79 81.7469 28.6567 81.4269 28.39C81.1069 28.0967 80.8269 27.7367 80.5869 27.31C80.3469 26.8833 80.2269 26.47 80.2269 26.07C80.2269 25.3767 80.3602 24.4433 80.6269 23.27C80.8935 22.07 81.2269 20.71 81.6269 19.19C82.0535 17.6433 82.4935 16.0167 82.9469 14.31C83.4002 12.6033 83.8002 10.8967 84.1469 9.19C84.5202 7.45667 84.7735 5.81667 84.9069 4.27C83.6002 4.29667 82.3602 4.36333 81.1869 4.47C80.0135 4.55 78.9735 4.59 78.0669 4.59C77.8002 4.59 77.5069 4.45667 77.1869 4.19C76.8669 3.92333 76.6002 3.60333 76.3869 3.23C76.1735 2.83 76.0669 2.45667 76.0669 2.11C76.0669 1.97667 76.1202 1.85667 76.2269 1.75C76.3335 1.61667 76.5869 1.51 76.9869 1.43C77.3869 1.32333 78.0269 1.24333 78.9069 1.19C79.7869 1.13667 81.0002 1.09667 82.5469 1.07C84.0935 1.01667 86.0669 0.99 88.4669 0.99C88.9202 0.99 89.5202 1.01667 90.2669 1.07C91.0402 1.12333 91.8535 1.21666 92.7069 1.35C93.5602 1.48333 94.3735 1.65667 95.1469 1.87C95.9202 2.08333 96.5469 2.35 97.0269 2.67C97.5069 2.99 97.7469 3.37667 97.7469 3.83C97.7469 4.33667 97.3069 4.59 96.4269 4.59C95.3602 4.61667 94.1069 4.57666 92.6669 4.47C91.2269 4.33666 89.7469 4.25666 88.2269 4.23C88.1202 5.00333 87.9202 6.07 87.6269 7.43C87.3602 8.79 87.0402 10.2967 86.6669 11.95C86.3202 13.6033 85.9602 15.27 85.5869 16.95C85.2135 18.6033 84.8535 20.15 84.5069 21.59C84.1869 23.0033 83.9202 24.1767 83.7069 25.11C83.4935 26.0167 83.3602 26.5367 83.3069 26.67C82.9335 28.0833 82.6002 28.79 82.3069 28.79ZM98.7931 29.15C98.5265 29.15 98.2198 29.03 97.8731 28.79C97.5531 28.55 97.2731 28.2433 97.0331 27.87C96.7931 27.47 96.6731 27.0833 96.6731 26.71C96.6731 26.4433 97.4331 24.55 98.9531 21.03C98.2865 21.03 97.7265 20.8567 97.2731 20.51C96.8465 20.1367 96.6331 19.6967 96.6331 19.19C96.6331 18.6567 97.9531 17.9767 100.593 17.15C100.673 16.99 100.846 16.59 101.113 15.95C101.38 15.2833 101.7 14.4833 102.073 13.55C102.473 12.6167 102.886 11.6167 103.313 10.55C103.74 9.48333 104.153 8.45667 104.553 7.47C104.953 6.48333 105.3 5.61667 105.593 4.87C105.913 4.09667 106.14 3.55 106.273 3.23C106.566 2.51 107.073 1.89667 107.793 1.39C108.54 0.856665 109.26 0.589998 109.953 0.589998C110.3 0.589998 110.633 0.936665 110.953 1.63C111.3 2.32333 111.62 3.21667 111.913 4.31C112.233 5.40333 112.513 6.57667 112.753 7.83C112.993 9.08333 113.193 10.2967 113.353 11.47C113.54 12.6167 113.673 13.5767 113.753 14.35C114.126 14.2967 114.473 14.2433 114.793 14.19C115.14 14.11 115.446 14.07 115.713 14.07C116.326 14.07 116.78 14.19 117.073 14.43C117.366 14.6433 117.513 14.9233 117.513 15.27C117.513 15.7767 116.34 16.3633 113.993 17.03C114.073 17.9367 114.126 18.9367 114.153 20.03C114.206 21.0967 114.246 22.1233 114.273 23.11C114.3 24.07 114.313 24.8833 114.313 25.55C114.313 26.67 114.26 27.4833 114.153 27.99C114.073 28.4967 113.94 28.8167 113.753 28.95C113.566 29.0833 113.326 29.15 113.033 29.15C112.606 29.15 112.273 28.9233 112.033 28.47C111.793 28.0167 111.62 27.4967 111.513 26.91C111.433 26.3233 111.366 25.8167 111.313 25.39C111.206 24.11 111.1 22.8433 110.993 21.59C110.913 20.3367 110.82 19.0967 110.713 17.87C109.353 18.2167 108.046 18.5633 106.793 18.91C105.566 19.23 104.286 19.5767 102.953 19.95C100.58 26.0833 99.1931 29.15 98.7931 29.15ZM104.433 16.11C105.366 15.8433 106.326 15.6167 107.313 15.43C108.326 15.2167 109.366 15.0167 110.433 14.83C110.193 12.5367 109.953 10.5367 109.713 8.83C109.473 7.12333 109.246 5.69667 109.033 4.55C108.446 5.93667 107.766 7.59 106.993 9.51C106.22 11.43 105.366 13.63 104.433 16.11ZM129.649 28.87C128.716 28.87 127.782 28.6567 126.849 28.23C125.942 27.7767 125.116 27.19 124.369 26.47C123.622 25.7233 123.022 24.8833 122.569 23.95C122.116 23.0167 121.889 22.07 121.889 21.11C121.889 19.5367 122.209 17.8433 122.849 16.03C123.489 14.19 124.356 12.39 125.449 10.63C126.569 8.87 127.822 7.27 129.209 5.83C130.622 4.36333 132.089 3.19 133.609 2.31C135.129 1.43 136.622 0.99 138.089 0.99C138.596 0.99 139.089 1.20333 139.569 1.63C140.076 2.05666 140.489 2.57666 140.809 3.19C141.156 3.77666 141.329 4.31 141.329 4.79C141.329 5.16333 141.182 5.35 140.889 5.35C140.622 5.35 140.289 5.25667 139.889 5.07C139.489 4.85667 138.982 4.75 138.369 4.75C137.436 4.75 136.396 5.11 135.249 5.83C134.102 6.55 132.956 7.51 131.809 8.71C130.689 9.88333 129.662 11.19 128.729 12.63C127.796 14.0433 127.036 15.4833 126.449 16.95C125.889 18.39 125.609 19.71 125.609 20.91C125.609 22.3767 125.982 23.4567 126.729 24.15C127.502 24.8167 128.502 25.15 129.729 25.15C131.089 25.15 132.356 24.9767 133.529 24.63C134.729 24.2833 135.782 23.8833 136.689 23.43C137.622 22.95 138.382 22.5367 138.969 22.19C139.582 21.8433 140.009 21.67 140.249 21.67C140.649 21.67 140.849 21.87 140.849 22.27C140.849 22.7233 140.569 23.3233 140.009 24.07C139.476 24.79 138.716 25.5233 137.729 26.27C136.742 26.99 135.556 27.6033 134.169 28.11C132.809 28.6167 131.302 28.87 129.649 28.87ZM151.994 28.79C151.728 28.79 151.434 28.6567 151.114 28.39C150.794 28.0967 150.514 27.7367 150.274 27.31C150.034 26.8833 149.914 26.47 149.914 26.07C149.914 25.3767 150.048 24.4433 150.314 23.27C150.581 22.07 150.914 20.71 151.314 19.19C151.741 17.6433 152.181 16.0167 152.634 14.31C153.088 12.6033 153.488 10.8967 153.834 9.19C154.208 7.45667 154.461 5.81667 154.594 4.27C153.288 4.29667 152.048 4.36333 150.874 4.47C149.701 4.55 148.661 4.59 147.754 4.59C147.488 4.59 147.194 4.45667 146.874 4.19C146.554 3.92333 146.288 3.60333 146.074 3.23C145.861 2.83 145.754 2.45667 145.754 2.11C145.754 1.97667 145.808 1.85667 145.914 1.75C146.021 1.61667 146.274 1.51 146.674 1.43C147.074 1.32333 147.714 1.24333 148.594 1.19C149.474 1.13667 150.688 1.09667 152.234 1.07C153.781 1.01667 155.754 0.99 158.154 0.99C158.608 0.99 159.208 1.01667 159.954 1.07C160.728 1.12333 161.541 1.21666 162.394 1.35C163.248 1.48333 164.061 1.65667 164.834 1.87C165.608 2.08333 166.234 2.35 166.714 2.67C167.194 2.99 167.434 3.37667 167.434 3.83C167.434 4.33667 166.994 4.59 166.114 4.59C165.048 4.61667 163.794 4.57666 162.354 4.47C160.914 4.33666 159.434 4.25666 157.914 4.23C157.808 5.00333 157.608 6.07 157.314 7.43C157.048 8.79 156.728 10.2967 156.354 11.95C156.008 13.6033 155.648 15.27 155.274 16.95C154.901 18.6033 154.541 20.15 154.194 21.59C153.874 23.0033 153.608 24.1767 153.394 25.11C153.181 26.0167 153.048 26.5367 152.994 26.67C152.621 28.0833 152.288 28.79 151.994 28.79Z" fill="#FEF4E1"/>
</svg>
