<svg width="99" height="28" viewBox="0 0 99 28" fill="none" xmlns="http://www.w3.org/2000/svg">
<path d="M2.49 27.08C1.91 27.08 1.45 26.92 1.11 26.6C0.79 26.3 0.63 25.87 0.63 25.31C0.63 24.79 0.77 24.35 1.05 23.99C1.33 23.61 1.87 23.25 2.67 22.91C2.73 22.89 2.79 22.87 2.85 22.85C2.35 22.75 2 22.47 1.8 22.01C1.62 21.55 1.53 21.02 1.53 20.42C1.53 20.08 1.59 19.53 1.71 18.77C1.83 18.01 1.98 17.14 2.16 16.16C2.34 15.18 2.53 14.21 2.73 13.25C2.93 12.27 3.1 11.41 3.24 10.67C3.62 8.97 4.11 7.47 4.71 6.17C5.31 4.87 6.12 3.86 7.14 3.14C8.16 2.4 9.47 2.03 11.07 2.03C12.29 2.03 13.49 2.29 14.67 2.81C15.87 3.31 16.96 4.02 17.94 4.94C18.92 5.86 19.7 6.94 20.28 8.18C20.88 9.42 21.18 10.78 21.18 12.26C21.18 13.94 20.52 15.63 19.2 17.33C17.88 19.03 16.03 20.66 13.65 22.22C11.29 23.76 8.53 25.15 5.37 26.39C4.85 26.59 4.38 26.75 3.96 26.87C3.56 27.01 3.07 27.08 2.49 27.08ZM5.07 21.98C7.97 20.82 10.31 19.71 12.09 18.65C13.87 17.59 15.16 16.47 15.96 15.29C16.78 14.11 17.19 12.77 17.19 11.27C17.19 10.43 16.91 9.63 16.35 8.87C15.79 8.11 15.07 7.5 14.19 7.04C13.31 6.56 12.38 6.32 11.4 6.32C10.34 6.32 9.49 6.75 8.85 7.61C8.21 8.45 7.7 9.89 7.32 11.93C7.14 12.75 6.95 13.64 6.75 14.6C6.57 15.54 6.39 16.45 6.21 17.33C6.05 18.19 5.91 18.91 5.79 19.49C5.69 20.07 5.63 20.41 5.61 20.51C5.51 21.11 5.33 21.6 5.07 21.98ZM37.3941 25.97C35.8741 25.97 34.5241 25.58 33.3441 24.8C32.1641 24.02 31.2341 22.94 30.5541 21.56C29.8941 20.16 29.5641 18.56 29.5641 16.76C29.5641 15.42 29.8341 14.12 30.3741 12.86C30.9141 11.58 31.5141 10.46 32.1741 9.5C32.0941 9.2 32.0541 8.83 32.0541 8.39C32.0541 7.85 32.2741 7.23 32.7141 6.53C33.1541 5.83 33.7641 5.15 34.5441 4.49C35.3441 3.83 36.2741 3.28 37.3341 2.84C38.4141 2.4 39.5841 2.18 40.8441 2.18C42.8041 2.18 44.4541 2.58 45.7941 3.38C47.1341 4.18 48.1441 5.23 48.8241 6.53C49.5241 7.83 49.8741 9.24 49.8741 10.76C49.8741 12.96 49.5141 14.99 48.7941 16.85C48.0741 18.71 47.1141 20.32 45.9141 21.68C44.7141 23.04 43.3741 24.1 41.8941 24.86C40.4141 25.6 38.9141 25.97 37.3941 25.97ZM37.7541 7.16C37.7741 7.22 37.7841 7.28 37.7841 7.34C37.7841 7.54 37.7441 7.76 37.6641 8C37.5841 8.22 37.4241 8.44 37.1841 8.66C36.7841 9.06 36.3841 9.62 35.9841 10.34C35.5841 11.04 35.2141 11.82 34.8741 12.68C34.5541 13.54 34.2941 14.42 34.0941 15.32C33.8941 16.22 33.7941 17.08 33.7941 17.9C33.7941 19.02 34.0541 19.95 34.5741 20.69C35.1141 21.43 35.9541 21.8 37.0941 21.8C38.0541 21.8 38.9641 21.58 39.8241 21.14C40.6841 20.68 41.4741 20.07 42.1941 19.31C42.9141 18.53 43.5341 17.67 44.0541 16.73C44.5741 15.77 44.9741 14.8 45.2541 13.82C45.5541 12.82 45.7041 11.87 45.7041 10.97C45.7041 10.13 45.5241 9.35 45.1641 8.63C44.8241 7.91 44.3241 7.33 43.6641 6.89C43.0041 6.43 42.1841 6.2 41.2041 6.2C40.4841 6.2 39.8341 6.29 39.2541 6.47C38.6941 6.65 38.1941 6.88 37.7541 7.16ZM71.1598 19.88C71.7798 19.88 72.2198 20.05 72.4798 20.39C72.7398 20.71 72.8698 21.05 72.8698 21.41C72.8698 21.91 72.6198 22.44 72.1198 23C71.6198 23.56 70.9698 24.08 70.1698 24.56C69.3898 25.02 68.5498 25.4 67.6498 25.7C66.7498 26 65.8898 26.15 65.0698 26.15C63.8498 26.15 62.6798 25.82 61.5598 25.16C60.4598 24.48 59.5598 23.53 58.8598 22.31C58.1798 21.09 57.8398 19.64 57.8398 17.96C57.8398 16.58 58.0998 15.21 58.6198 13.85C59.1598 12.49 59.8698 11.18 60.7498 9.92C61.6498 8.66 62.6298 7.49 63.6898 6.41C64.7698 5.33 65.8498 4.39 66.9298 3.59C68.0298 2.79 69.0398 2.17 69.9598 1.73C70.8798 1.27 71.6198 1.04 72.1798 1.04C72.8798 1.04 73.3998 1.22 73.7398 1.58C74.0998 1.92 74.2798 2.4 74.2798 3.02C74.2798 3.52 74.1798 3.91 73.9798 4.19C73.7998 4.45 73.5098 4.68 73.1098 4.88C71.8298 5.54 70.5298 6.34 69.2098 7.28C67.9098 8.22 66.7198 9.26 65.6398 10.4C64.5598 11.52 63.6898 12.7 63.0298 13.94C62.3698 15.18 62.0398 16.44 62.0398 17.72C62.0398 19.12 62.3198 20.18 62.8798 20.9C63.4398 21.62 64.1998 21.98 65.1598 21.98C65.6398 21.98 66.1598 21.88 66.7198 21.68C67.2798 21.46 67.8298 21.21 68.3698 20.93C68.9298 20.65 69.4498 20.41 69.9298 20.21C70.4298 19.99 70.8398 19.88 71.1598 19.88ZM83.3501 26.42C82.5501 26.42 81.9501 26.2 81.5501 25.76C81.1501 25.32 80.9501 24.87 80.9501 24.41C80.9501 23.87 81.0501 23.46 81.2501 23.18C81.4501 22.9 81.8401 22.69 82.4201 22.55C83.1801 22.39 83.9701 22.19 84.7901 21.95C85.6301 21.71 86.4301 21.46 87.1901 21.2C87.9701 20.92 88.6501 20.64 89.2301 20.36C89.8101 20.06 90.2301 19.78 90.4901 19.52C90.1701 19.34 89.6601 19.13 88.9601 18.89C88.2601 18.63 87.4801 18.33 86.6201 17.99C85.7801 17.63 84.9701 17.21 84.1901 16.73C83.4101 16.25 82.7701 15.69 82.2701 15.05C81.7701 14.41 81.5201 13.68 81.5201 12.86C81.5201 11.72 81.8101 10.65 82.3901 9.65C82.9701 8.65 83.7401 7.72 84.7001 6.86C85.6601 6 86.7001 5.21 87.8201 4.49C88.9601 3.77 90.0901 3.12 91.2101 2.54C92.3501 1.94 93.3701 1.41 94.2701 0.949998C94.6101 0.749998 94.9301 0.619999 95.2301 0.56C95.5501 0.479999 95.8401 0.439999 96.1001 0.439999C97.0001 0.439999 97.6201 0.659999 97.9601 1.1C98.3001 1.54 98.4701 1.99 98.4701 2.45C98.4701 2.77 98.3201 3.15 98.0201 3.59C97.7201 4.01 97.2401 4.4 96.5801 4.76C95.9401 5.12 95.0901 5.38 94.0301 5.54C93.8501 5.56 93.6901 5.58 93.5501 5.6C92.7501 6 91.8901 6.48 90.9701 7.04C90.0501 7.6 89.1801 8.19 88.3601 8.81C87.5601 9.41 86.9001 10.01 86.3801 10.61C85.8601 11.21 85.6001 11.75 85.6001 12.23C85.6001 12.77 85.8201 13.26 86.2601 13.7C86.7001 14.12 87.2601 14.51 87.9401 14.87C88.6401 15.21 89.3701 15.54 90.1301 15.86C90.9101 16.18 91.6401 16.51 92.3201 16.85C93.0201 17.17 93.5901 17.53 94.0301 17.93C94.4701 18.33 94.6901 18.78 94.6901 19.28C94.6901 19.96 94.4601 20.61 94.0001 21.23C93.5401 21.85 92.9401 22.43 92.2001 22.97C91.4601 23.49 90.6501 23.96 89.7701 24.38C88.8901 24.8 88.0201 25.16 87.1601 25.46C86.3201 25.78 85.5601 26.02 84.8801 26.18C84.2001 26.34 83.6901 26.42 83.3501 26.42Z" fill="#FEF4E1"/>
</svg>
