<svg width="92" height="29" viewBox="0 0 92 29" fill="none" xmlns="http://www.w3.org/2000/svg">
<path d="M2.92 28.49C2.57333 28.49 2.18667 28.29 1.76 27.89C1.33333 27.4633 0.96 26.9567 0.64 26.37C0.346667 25.7567 0.2 25.1433 0.2 24.53C0.2 23.1967 0.413333 21.69 0.84 20.01C1.29333 18.3033 1.81333 16.53 2.4 14.69C3.01333 12.85 3.57333 11.0233 4.08 9.21C4.58667 7.37 4.90667 5.61 5.04 3.93C4.08 3.53 3.37333 3.03667 2.92 2.45C2.46667 1.83666 2.24 1.31667 2.24 0.889999C2.24 0.436666 2.50667 0.209999 3.04 0.209999C4.58667 0.209999 6.2 0.463332 7.88 0.969998C9.58667 1.47666 11.24 2.19667 12.84 3.13C14.44 4.03667 15.8933 5.10333 17.2 6.33C18.5067 7.55667 19.5467 8.89 20.32 10.33C21.0933 11.7433 21.48 13.2233 21.48 14.77C21.48 15.65 21.16 16.5967 20.52 17.61C19.88 18.5967 19.0267 19.61 17.96 20.65C16.8933 21.69 15.6933 22.6767 14.36 23.61C13.0533 24.5433 11.7067 25.3833 10.32 26.13C8.93333 26.85 7.6 27.4233 6.32 27.85C5.04 28.2767 3.90667 28.49 2.92 28.49ZM3.68 24.89C4.74667 24.7567 5.90667 24.41 7.16 23.85C8.44 23.29 9.70667 22.61 10.96 21.81C12.2133 20.9833 13.3467 20.1167 14.36 19.21C15.4 18.2767 16.2267 17.3833 16.84 16.53C17.48 15.6767 17.8 14.9433 17.8 14.33C17.8 13.5033 17.5333 12.6233 17 11.69C16.4667 10.7567 15.7467 9.85 14.84 8.97C13.9333 8.06333 12.88 7.25 11.68 6.53C10.5067 5.78333 9.26667 5.19667 7.96 4.77C8.01333 5.01 8.05333 5.25 8.08 5.49C8.13333 5.70333 8.16 5.95667 8.16 6.25C8.16 6.91667 8.01333 7.86333 7.72 9.09C7.42667 10.3167 7.06667 11.6767 6.64 13.17C6.21333 14.6633 5.77333 16.17 5.32 17.69C4.89333 19.21 4.52 20.61 4.2 21.89C3.90667 23.1433 3.73333 24.1433 3.68 24.89ZM31.5413 28.37C30.6613 28.37 29.8213 28.13 29.0213 27.65C28.2479 27.17 27.5413 26.5433 26.9013 25.77C26.2879 24.9967 25.8079 24.1433 25.4613 23.21C25.1146 22.2767 24.9413 21.37 24.9413 20.49C24.9413 18.57 25.2213 16.65 25.7813 14.73C26.3413 12.7833 27.0879 10.9433 28.0213 9.21C28.9813 7.45 30.0479 5.90333 31.2213 4.57C32.4213 3.21 33.6479 2.14333 34.9013 1.37C36.1813 0.569999 37.4213 0.169999 38.6213 0.169999C40.1146 0.169999 41.4479 0.649999 42.6213 1.61C43.8213 2.54333 44.7546 3.77 45.4213 5.29C46.1146 6.81 46.4613 8.42333 46.4613 10.13C46.4613 11.65 46.1813 13.25 45.6213 14.93C45.0879 16.61 44.3413 18.25 43.3813 19.85C42.4479 21.4233 41.3413 22.8633 40.0613 24.17C38.8079 25.45 37.4479 26.4767 35.9813 27.25C34.5413 27.9967 33.0613 28.37 31.5413 28.37ZM31.7813 25.21C32.6613 25.21 33.5946 24.9033 34.5813 24.29C35.5946 23.65 36.5813 22.81 37.5413 21.77C38.5013 20.7033 39.3813 19.53 40.1813 18.25C40.9813 16.9433 41.6079 15.6233 42.0613 14.29C42.5413 12.93 42.7812 11.6633 42.7812 10.49C42.7812 8.43667 42.3813 6.77 41.5813 5.49C40.8079 4.21 39.8879 3.57 38.8213 3.57C37.9946 3.57 37.1146 3.94333 36.1813 4.69C35.2746 5.43666 34.3679 6.42333 33.4613 7.65C32.5546 8.85 31.7279 10.1967 30.9813 11.69C30.2613 13.1567 29.6746 14.6367 29.2213 16.13C28.7946 17.6233 28.5813 18.9967 28.5813 20.25C28.5813 21.7167 28.9013 22.9167 29.5413 23.85C30.1813 24.7567 30.9279 25.21 31.7813 25.21ZM57.6725 28.37C56.7392 28.37 55.8058 28.1567 54.8725 27.73C53.9658 27.2767 53.1392 26.69 52.3925 25.97C51.6458 25.2233 51.0458 24.3833 50.5925 23.45C50.1392 22.5167 49.9125 21.57 49.9125 20.61C49.9125 19.0367 50.2325 17.3433 50.8725 15.53C51.5125 13.69 52.3792 11.89 53.4725 10.13C54.5925 8.37 55.8458 6.77 57.2325 5.33C58.6458 3.86333 60.1125 2.69 61.6325 1.81C63.1525 0.93 64.6458 0.49 66.1125 0.49C66.6192 0.49 67.1125 0.703333 67.5925 1.13C68.0992 1.55666 68.5125 2.07666 68.8325 2.69C69.1792 3.27666 69.3525 3.81 69.3525 4.29C69.3525 4.66333 69.2058 4.85 68.9125 4.85C68.6458 4.85 68.3125 4.75667 67.9125 4.57C67.5125 4.35667 67.0058 4.25 66.3925 4.25C65.4592 4.25 64.4192 4.61 63.2725 5.33C62.1258 6.05 60.9792 7.01 59.8325 8.21C58.7125 9.38333 57.6858 10.69 56.7525 12.13C55.8192 13.5433 55.0592 14.9833 54.4725 16.45C53.9125 17.89 53.6325 19.21 53.6325 20.41C53.6325 21.8767 54.0058 22.9567 54.7525 23.65C55.5258 24.3167 56.5258 24.65 57.7525 24.65C59.1125 24.65 60.3792 24.4767 61.5525 24.13C62.7525 23.7833 63.8058 23.3833 64.7125 22.93C65.6458 22.45 66.4058 22.0367 66.9925 21.69C67.6058 21.3433 68.0325 21.17 68.2725 21.17C68.6725 21.17 68.8725 21.37 68.8725 21.77C68.8725 22.2233 68.5925 22.8233 68.0325 23.57C67.4992 24.29 66.7392 25.0233 65.7525 25.77C64.7658 26.49 63.5792 27.1033 62.1925 27.61C60.8325 28.1167 59.3258 28.37 57.6725 28.37ZM80.2578 28.21C78.5511 28.21 77.0311 27.9033 75.6978 27.29C74.3911 26.65 73.3511 25.89 72.5778 25.01C71.8311 24.1033 71.4578 23.2633 71.4578 22.49C71.4578 21.69 71.6978 21.29 72.1778 21.29C72.5245 21.29 72.8978 21.49 73.2978 21.89C73.7245 22.2633 74.2178 22.7033 74.7778 23.21C75.3378 23.69 75.9778 24.13 76.6978 24.53C77.4178 24.9033 78.2578 25.09 79.2178 25.09C80.4711 25.09 81.6311 24.8633 82.6978 24.41C83.7911 23.9567 84.6711 23.3833 85.3378 22.69C86.0311 21.9967 86.3778 21.2767 86.3778 20.53C86.3778 19.89 86.0578 19.17 85.4178 18.37C84.8045 17.57 84.0445 16.7433 83.1378 15.89C82.2311 15.01 81.3111 14.1433 80.3778 13.29C79.4711 12.41 78.6978 11.57 78.0578 10.77C77.4445 9.97 77.1378 9.26333 77.1378 8.65C77.1378 7.45 77.5111 6.34333 78.2578 5.33C79.0045 4.31667 79.9645 3.43667 81.1378 2.69C82.3378 1.94333 83.6178 1.35666 84.9778 0.929999C86.3378 0.503331 87.6178 0.289998 88.8178 0.289998C89.5911 0.289998 90.2445 0.543332 90.7778 1.05C91.3111 1.55667 91.5778 2.09 91.5778 2.65C91.5778 2.97 91.2445 3.22333 90.5778 3.41C89.9111 3.57 89.0845 3.74333 88.0978 3.93C87.1378 4.11667 86.1645 4.41 85.1778 4.81C83.6311 5.39667 82.4711 5.93 81.6978 6.41C80.9511 6.86333 80.5778 7.35667 80.5778 7.89C80.5778 8.31667 80.8845 8.85 81.4978 9.49C82.1378 10.13 82.9245 10.8633 83.8578 11.69C84.7911 12.5167 85.7245 13.41 86.6578 14.37C87.6178 15.3033 88.4045 16.29 89.0178 17.33C89.6578 18.37 89.9778 19.4233 89.9778 20.49C89.9778 21.93 89.5111 23.2367 88.5778 24.41C87.6711 25.5833 86.4711 26.5167 84.9778 27.21C83.5111 27.8767 81.9378 28.21 80.2578 28.21Z" fill="#FEF4E1"/>
</svg>
