<svg width="17" height="16" viewBox="0 0 17 16" fill="none" xmlns="http://www.w3.org/2000/svg">
<path d="M5.61383 4.21967C5.32093 3.92678 4.84606 3.92678 4.55317 4.21967C4.26027 4.51256 4.26027 4.98744 4.55317 5.28033L7.27284 8L4.55317 10.7197C4.26027 11.0126 4.26027 11.4874 4.55317 11.7803C4.84606 12.0732 5.32093 12.0732 5.61383 11.7803L8.3335 9.06066L11.0532 11.7803C11.3461 12.0732 11.8209 12.0732 12.1138 11.7803C12.4067 11.4874 12.4067 11.0126 12.1138 10.7197L9.39416 8L12.1138 5.28033C12.4067 4.98744 12.4067 4.51256 12.1138 4.21967C11.8209 3.92678 11.3461 3.92678 11.0532 4.21967L8.3335 6.93934L5.61383 4.21967Z" fill="#A1A1AA"/>
</svg>
